<?xml version="1.0" encoding="utf-8"?>
<!-- Generator: Adobe Illustrator 23.1.0, SVG Export Plug-In . SVG Version: 6.00 Build 0)  -->
<svg version="1.1" xmlns="http://www.w3.org/2000/svg" xmlns:xlink="http://www.w3.org/1999/xlink" x="0px" y="0px"
	 viewBox="0 0 1920 1080" style="enable-background:new 0 0 1920 1080;" xml:space="preserve">
<style type="text/css">
	.st0{fill:#F4E8D8;}
	.st1{fill:#1D2538;}
	.st2{fill:#273150;}
	.st3{fill:#121721;}
	.st4{fill:#992C29;}
	.st5{fill:#C93F37;}
	.st6{fill:#634874;}
	.st7{fill:#A86243;}
	.st8{fill:#D77E5B;}
	.st9{fill:#7A4630;}
	.st10{fill:#B44C29;}
	.st11{fill:#F08650;}
	.st12{fill:#29ACE4;}
	.st13{fill:#13161F;}
	.st14{fill:none;stroke:#29ACE4;stroke-width:2;stroke-linecap:round;stroke-linejoin:round;stroke-miterlimit:10;}
	.st15{fill:#F6BE4A;}
	.st16{opacity:0.5;fill:#F6BE4A;}
	.st17{fill:none;stroke:#FEED7F;stroke-width:3;stroke-miterlimit:10;}
	.st18{fill:#3D4C6D;}
	.st19{opacity:0.5;fill:#29ACE4;}
	.st20{fill:#A96344;}
	.st21{fill:#102342;}
	.st22{fill:none;stroke:#273150;stroke-linecap:round;stroke-linejoin:round;stroke-miterlimit:10;}
	.st23{fill:#E2D6C9;}
	.st24{fill:#1689CB;}
	.st25{fill:#F6874E;}
	.st26{fill:none;stroke:#F4E8D8;stroke-miterlimit:10;}
	.st27{fill:#C73F37;}
	.st28{fill:#CE6D3E;}
	.st29{fill:#EC5E4D;}
	.st30{fill:#102441;}
	.st31{fill:#EE5D4F;}
	.st32{fill:#F7BC4B;}
	.st33{fill:#1D2436;}
	.st34{fill:#48598B;}
	.st35{fill:#EC6141;}
	.st36{fill:#47588A;}
	.st37{fill:#972B28;}
	.st38{fill:none;stroke:#913636;stroke-miterlimit:10;}
	.st39{fill:#7E6391;}
	.st40{fill:#BB83C3;}
	.st41{fill:none;stroke:#634874;stroke-width:2;stroke-linecap:round;stroke-linejoin:round;stroke-miterlimit:10;}
	.st42{fill:none;stroke:#BB83C3;stroke-width:2;stroke-linecap:round;stroke-linejoin:round;stroke-miterlimit:10;}
	.st43{fill:#34273A;}
	.st44{fill:none;stroke:#34273A;stroke-linecap:round;stroke-linejoin:round;stroke-miterlimit:10;}
</style>
<g id="bg">
	<path class="st0" d="M1540.03,947.13c-31.05-44.38-242.6-204.98-575.22-191.73c-282.11,11.24-479.42,141.35-509.53,155.98
		c-30.11,14.63-17.56,24.39,67.75,12.19s127.96-9.76,127.96-9.76l-5.02,12.19c0,0-67.95,57.12-72.96,76.63
		c-5.02,19.51,22.58,21.95,52.69,9.76c30.11-12.19,251.11-54.68,278.71-57.12c27.6-2.44,76.25,13.16,96.32,15.59
		c20.07,2.44,152.55,43.73,180.4,46.14c27.85,2.42,13.89-42.55-21.36-106.13c-15.62-28.18,128.79,43.44,161.41,50.76
		c32.62,7.32-15.38-35.61-20.4-42.92s185.74,41.43,225.89,63.38C1566.81,1004.06,1571.08,991.51,1540.03,947.13z"/>
	<path class="st0" d="M793.04,734.45c0,0-243.82,44.75-342.45-99.54s-8.02-352.63,178.28-392.81c0,0-195.63,81.41-126.22,282.31
		S793.04,734.45,793.04,734.45z"/>
	<path class="st0" d="M1365.34,662.16c53.02-51.27,60.27-94.95,90.16-146.03c29.89-51.08,61.61-79.06,61.61-79.06
		s-19.34-0.03-67.02,42.92c-42.44,38.23-84.75,126.79-84.75,126.79c9.56-44.1,6.76-99.73,6.76-99.73
		c-55.59,121.54-249.5,207.54-304.3,179.52C1067.81,686.57,1212.34,810.11,1365.34,662.16z"/>
	<path class="st0" d="M1245.99,460.49c9.13,0,171.71-75.22,178.99-147.94c5.48-54.79-5.48-136.98-138.81-178.99
		c-151.26-47.66-213.69-23.74-272.13-7.31c0,0,162.55-23.74,263,47.49C1444.97,292.83,1245.99,460.49,1245.99,460.49z"/>
	<path class="st0" d="M1171.1,268.72c0,0-107.76-100.45-213.69-84.01c-74.02,11.49-266.66,58.76-295.88,175.33
		c-20.01,79.86,69.4,111.41,69.4,111.41s-56.62-31.05-29.22-107.76s197.25-158.9,305.01-151.59S1171.1,268.72,1171.1,268.72z"/>
	<path class="st0" d="M626.84,369.17c0,0-89.49,80.36-34.7,127.85c54.79,47.49,168.03,7.31,168.03,7.31s-80.36,7.31-116.89-38.35
		C606.75,420.31,626.84,369.17,626.84,369.17z"/>
	<path class="st0" d="M450.59,634.91c0,0-131.5-57.53-101.36-169.85s82.19-60.27,82.19-60.27s-10.96-104.1,46.57-136.98
		c57.53-32.88,79.45-11.87,79.45-11.87s27.4-29.22,41.09-23.74c6.09,2.44,6.94,7.03,6.02,11.39c-1.24,5.84-36.99,24.79-42.55,26.96
		c-16.08,6.29-29.87,11.78-63.01,45.66c-48.56,49.64-65.07,120.8-62.1,181.73C442.37,610.25,450.59,634.91,450.59,634.91z"/>
	<path class="st0" d="M615.88,392.91c0,0,25.57-43.83-7.31-51.14c-32.88-7.31-34.7,62.1-34.7,62.1s-10.96-16.44-27.4,12.78
		c-16.44,29.22,20.09,73.06,45.66,80.36C617.71,504.32,604.92,416.66,615.88,392.91z"/>
	<path class="st0" d="M1383.42,358.21c0,0,54.11-6.28,80.82-67.12c24.66-56.16,0-93.15-28.77-101.36
		c-28.77-8.22-52.05,4.11-52.05,4.11s24.66-71.23-36.98-79.45s-60.27,19.18-60.27,19.18s-20.55-30.14-49.31-42.46
		c-28.77-12.33-27.4,27.4-27.4,27.4s-27.4-30.14-65.75-21.92s-37.35,17.56-19.54,18.93c17.81,1.37,124.78,1.56,194.64,72.79
		S1383.42,358.21,1383.42,358.21z"/>
	<path class="st0" d="M802.17,237.67c0,0,60.73-76.71,144.28-87.67c66.84-8.77,33.28,38.04,42.92,32.88
		c25.57-13.7,57.61-25.77,70.32-18.26c20.09,11.87,2.74,26.48,2.74,26.48s57.53,31.96,65.75,49.31
		c0.91,4.57-47.61-36.32-110.5-41.09C945.54,193.84,802.17,237.67,802.17,237.67z"/>
</g>
<g id="dog_head">
	<g>
		<path class="st1" d="M639.19,587.06c0,0-3.21-11.67-6.88-20.03c-3.51-8-6.2-2.45-7.91,5.44c-1.79,8.27-0.95,20.84-0.98,23.84
			C623.39,599.32,638.67,597.61,639.19,587.06z"/>
		<path class="st2" d="M671.64,686c8.78-3.41,27.59-26.33,23.84-42.19s-7.49-39.37-12.4-48.16c0,0-0.77-16.66-2.36-25.61
			c-1.58-8.94-3.94-9.34-7.08-5.02c-3.14,4.32-7.3,19.04-7.3,19.04s-20.93-8.38-37.79-1.09s-22.01,18.72-23.4,28.47l-0.51,0.71
			c0,0-18.47,4.56-27.16,8.14c-8.69,3.58-11.32,8.04-7.38,17.38c3.94,9.34,4.6,14.01,9.94,17.44s28.92,10.91,41.02,12.69
			c0,0,5.14,21.81,9.26,27.63C634.44,701.26,662.87,689.42,671.64,686z"/>
		<path class="st1" d="M674.32,659.07c0,0,24.91,0.6,21.17-15.26s-7.49-39.37-12.4-48.16c0,0-0.77-16.66-2.36-25.61
			c-1.58-8.94-3.94-9.34-7.08-5.02c-3.14,4.32-7.3,19.04-7.3,19.04s-20.93-8.38-37.79-1.09c0,0,19.55,0.5,27.15,7.79
			s17.05,37.14,17.05,37.14s-21.42,26.08-20.13,27.91C656.74,661.64,674.32,659.07,674.32,659.07z"/>
		<path class="st2" d="M635,587.32c0,0-2.44-11.4-4.2-18.97c-1.98-8.51-6.11-3.62-7.82,4.27c-1.79,8.27-2.75,16.76-2.78,19.77
			C620.18,595.4,635.59,594.68,635,587.32z"/>
		
			<ellipse transform="matrix(0.3307 -0.9437 0.9437 0.3307 -151.1884 996.7592)" class="st3" cx="627.14" cy="604.97" rx="7.16" ry="4.78"/>
		<path class="st3" d="M568.29,629.3c-0.63,5.16,1.99,7.53,3.3,10.44c1.79,3.97,12.7-3.46,13.34-8.62
			c0.63-5.16,0.69-12.42-5.47-11.28C575.17,620.64,568.92,624.14,568.29,629.3z"/>
		<path class="st1" d="M646.92,660.94c0,0-23.73,12.19-25.22,6.61c-11.88-1.61-31.03-7.81-31.03-7.81l32.11-0.02L646.92,660.94z"/>
	</g>
</g>
<g id="dog_body">
	<g>
		<path class="st1" d="M759.5,676.21c-0.91-2.96-3.66-19.1-7.18-24.84c-3.51-5.74-12.37-18.93-22.97-18.55c0,0,6.09-7.65,25.15,1.66
			c19.06,9.3,21.73,37.18,21.94,39.54C777.36,684.56,762.09,684.65,759.5,676.21z"/>
		<path class="st1" d="M627.34,818.89c1.7-4.97,8.38-10.25,8.38-10.25c0.64-1.12,2.86-3.37,3.03-4.44
			c1.33-8.18,4.96-30.5,5.17-34.07c0.45-7.42-2.84-29.52-2.23-46.51s26.44-3.63,27.63,12.78c0.85,11.7-7.29,59.58-8.14,64.26
			l-6.31,15.3c-2.33,3.26-8.8,5.58-15.45,5.9C632.78,822.16,625.68,823.75,627.34,818.89z"/>
		<path class="st1" d="M741.05,724.88c-6.44-2.13-16.45,3.42-16.56,12.55c-0.09,7.77,35.24,38.48,35.24,38.48l1.98,6.26
			c0,0-4.98,5.75-2.85,8.84c0.5,0.73,7.31-0.47,12.8-1.57c4.02-0.81,6.88-2.73,6.87-4.66l-0.02-2.43l2.08-9.22l-24.32-25.31
			C756.28,747.83,749.85,727.8,741.05,724.88z"/>
		<path class="st2" d="M650.83,661.21c0,0,26.66-19.06,50.07-8.58c20.93,9.37,30.47,10.95,53.81,11.3
			c14.66,0.22,24.73,51.8,21.69,61.84c-5.5,18.76-70.25,20.42-78.55,20.7c-24.46,0.83-44.91-11.69-55-16.47
			c-9.05-4.29-22.38-29.15-11.06-48.08C636.11,674.7,641.09,666.88,650.83,661.21z"/>
		<path class="st1" d="M657.48,663.14c15.23-12.15,20-20.98,43.42-10.51c20.93,9.37,36.77,11.26,60.1,11.97
			c26.41,0.81,22.86,45.19,15.1,64.21c-5.89,14.44-69.95,17.38-78.24,17.66c0,0,22.4-14.5,21.3-24.81
			c-1.09-10.31-26.79-25.46-26.79-25.46C679.99,683.63,652.08,667.45,657.48,663.14z"/>
		<path class="st2" d="M671.53,817.24c-0.03-4.49,11.03-15.34,10.96-16.44c-1.13-18.56-5.79-36.13-6.53-40.36
			c-1.51-8.68-11.33-23.39-14.71-42.15c-3.26-18.08,28.96-9.21,33.18,11.63c2.43,12.02,8.43,53.33,9.97,64.61
			c0.22,1.59,0.12,3.2-0.29,4.76l-6.43,13.7c-0.75,3.93-6.97,7.31-14.58,7.76C675.49,821.2,671.58,823.35,671.53,817.24z"/>
		<path class="st1" d="M776.73,706.27c-8.04-7.33-25.92,2.3-29.18,5.28c-3.42,3.13,11.52,22.8,12.27,25.55
			c0.78,2.87,33.88,21.12,40.6,26.46c7.27,5.78,1.19,13.72,5.53,16.2c2.2,1.26,20.55-2.59,19.38-9.79c-1.1-6.8-8.32-17.51-8.5-18.05
			c-0.35-1.05-28.77-23.1-29.45-24.47C786.73,726.11,779.11,708.45,776.73,706.27z"/>
		<g>
			<path class="st4" d="M696.4,644.58c0,0,4.83,5.13,6.05,9.65c0,0-14.71,10.63-41.23,23.27c-14.21,6.77-36.16,12.99-36.16,12.99
				l-3.19-11.91C621.88,678.57,666.72,666.8,696.4,644.58z"/>
		</g>
		<g>
			<path class="st5" d="M622.04,678.7c0,0-7.71,15.81-6.47,23.76l19.89,6.37C635.46,708.83,627.74,685.69,622.04,678.7z"/>
			<path class="st4" d="M622.04,678.7c5.88,5.85,13.42,30.13,13.42,30.13s-10.37-8.26-11.43-11.44S622.04,678.7,622.04,678.7z"/>
		</g>
		<path class="st4" d="M625.15,686.57c0,0,14.23,12.49,20.59,14.05l1.65-10.56C647.4,690.06,637.09,684.85,625.15,686.57z"/>
	</g>
</g>
<g id="m_backpack">
	<path class="st6" d="M957.42,497.91l-93.15-5.48c-26.42-3.53-26.15-39.67-25.56-66.57l1.21-93.57c0.54-26.12,15.4-43.96,41.8-43.96
		h76.6c29.62,0,47.49,17.72,47.49,46.55l7.31,118.58C1013.12,483.51,987.89,502.05,957.42,497.91z"/>
</g>
<g id="m_shield_arm">
	<path class="st7" d="M860.43,316.47c8.61-19.87-15.18-37.97-37.85-45.78c-32.18-11.08-35.99-16.99-49.18-23.85
		c-16.2-8.43-29.94-11.53-39.76-4.14c-9.81,7.39-11.94,20.19-6.13,25.77c13.71,13.19,20.25,16.13,37.7,28.6
		c31.96,22.83,49.03,27.79,59.36,34.7C841.88,343.36,850.13,340.24,860.43,316.47z"/>
	<path class="st8" d="M867.16,319.52c8.61-19.87-119.41-34.92-101.96-22.46c31.96,22.83,49.03,27.79,59.36,34.7
		C841.88,343.36,856.87,343.29,867.16,319.52z"/>
	<path class="st9" d="M752.85,218.03c-6.96,10.05-18.05,27.33-8.66,36.73c6.77,6.77,3.86,13.56,13.87,8.7
		c11.25-5.47,18.21-31.04,18.51-31.65C781.86,221.1,759.89,207.88,752.85,218.03z"/>
	<path class="st7" d="M793.36,161.28c0,0-45.5,34.14-57.45,47.51c-11.82,13.23-22.11,29.37-15.26,47.55
		c4.16,11.04,8.94,18.51,23.74,13.71c16.99-5.51,30.07-29.54,36.92-44.84c9.19-20.49,20.99-30.83,27.96-37.98
		C818.21,178.06,817.52,149.1,793.36,161.28z"/>
	<g>
		<polygon class="st2" points="857.52,154.21 858.33,167.99 849.42,170.42 842.39,158.6 		"/>
		<path class="st7" d="M785.09,178.63l10.42-16.64c0,0,21.94-8.21,34.59-9.14s19.83,5.02,19.83,5.02l1.07,24.39
			c0.12,2.75-1.7,5.25-4.19,5.77l-3.89,0.81l-5.99-0.29l-0.23,3.27c-0.11,1.64-1.16,3.07-2.61,3.57l-7.85,2.69l-11.68,2.55
			c0,0-8.81-2.23-7.88-8.11S790.42,197.88,785.09,178.63z"/>
		<path class="st2" d="M771.88,177.72l8.59,14.59l21.6-6.97c1.87-0.6,2.89-3.17,2.16-5.45l0,0c-0.83-2.6-3.1-3.93-5.2-3.06
			l-14.74,4.12l-2.86-6.49L771.88,177.72z"/>
		<path class="st10" d="M756.06,125.62c-21.92,8.22-115.98,36.53-115.98,36.53c-0.61,4.57,0.61,23.74,3.96,25.87
			c0,0,13.7,18.26,96.49,0.61c96.66-20.61,195.78-61.3,195.78-61.3l-1.58-26.37C934.74,100.97,777.97,117.4,756.06,125.62z"/>
		<path class="st11" d="M749.66,110.71c-22.12,7.66-97.41,31.51-108.37,48.25c-8.56,13.08,20.7,25.11,126.63,0.46
			s147.94-46.73,163.46-54.03c15.52-7.31-20.55-16.74-87.36-20.24C828.72,84.34,797.15,94.27,749.66,110.71z"/>
		<polygon class="st10" points="644.34,169.76 679.65,157.58 649.21,174.02 		"/>
		<path class="st10" d="M844.86,86.13l-59.13,19.41C785.74,105.53,844.74,88.7,844.86,86.13z"/>
		<path class="st10" d="M723.64,151.65c9.59-4.57-30.79,7.86-51.14,16.44C672.5,168.09,714.05,156.21,723.64,151.65z"/>
		<polygon class="st10" points="893.04,122.88 888.47,117.4 903.99,119.69 		"/>
		<polygon class="st10" points="730.49,169.91 737.34,162.61 745.55,168.54 		"/>
		<path class="st10" d="M808.52,117.07c2.61,3.82-3.49,9.89-17.01,14.61c-19.41,6.77-45.37,8.17-48.5,0.33
			c-2.95-7.4,17.92-16.07,37.86-18.62C795.11,111.56,805.98,113.36,808.52,117.07z"/>
		<path class="st11" d="M807.27,113.87c2.19,2.78-4.08,7.98-17.31,12.69c-18.99,6.76-43.8,9.85-46.17,3.98
			c-2.24-5.54,18.28-13.9,37.45-17.42C794.93,110.61,805.14,111.17,807.27,113.87z"/>
	</g>
</g>
<g id="m_leftarm">
	<path class="st7" d="M960.72,290.53c3.89-13.63,24.9-5.45,35.39,1.14c16.69,10.47,14.94,18.25,26.25,24.15
		c20.43,10.66,76.96,49.7,61.53,67.47c-15.42,17.77-41.31,1.97-61.51-10.62c-14.46-9.01-40.12-28.31-54.56-42.44
		C961.81,324.35,956.83,304.16,960.72,290.53z"/>
	<path class="st7" d="M1080.36,409.36c7.44-12.19,15.08-23.17,4.98-35.38c-15.82-19.11-28.23-8.65-38.86,4.44
		c-10.45,12.88-10.4,17.18-19.94,30.14c-9.61,13.05-28.1,31.8-28.1,31.8s-15.65,14-8.19,24.51c7.87,11.1,13.43,11.22,22.14,6.47
		C1025.1,464.42,1074.76,418.54,1080.36,409.36z"/>
</g>
<g id="m_legs">
	<g>
		<g>
			<path class="st12" d="M833.49,744.23c-0.23,0.08-0.46,0.19-0.68,0.31c-3.31,1.82-30.34,16.44-33.48,20.36
				c-2.57,3.21-0.93,15.04-0.03,20.36c0.28,1.65,1.43,3,3.01,3.55c6.4,2.21,23.26,8.09,39.61,6.44c20.5-2.07,19.87-9.79,35.13-17.09
				c9.98-4.77,16.06-7.85,19.08-9.4c1.45-0.75,2.08-2.2,2.16-3.83l0.84-17.88c0.1-2.24-1.14-4.23-3.34-4.67
				C885.62,740.3,856.97,735.76,833.49,744.23z"/>
			<path class="st13" d="M833.14,744.36c0,0-31.06,16.96-34.4,21.13s-0.17,18.55-0.17,18.55s22.23,8.84,42.73,6.77
				c20.5-2.07,20.49-8.9,35.75-16.2c11.82-5.65,18.17-8.92,20.43-10.11c0.61-0.32,1-0.93,1.03-1.61l0.93-17
				c0.09-1.56-0.97-2.95-2.49-3.27C887.96,740.69,857.66,735.36,833.14,744.36z"/>
			<path class="st14" d="M818,752.41c0,0,15.52-5.48,30.74,1.52"/>
			<path class="st14" d="M829.26,745.71c0,0,15.52-5.48,30.74,1.52"/>
		</g>
		<g>
			<path class="st12" d="M998.94,744.9c17.21,6.02,42.17,11.87,43.34,19.57c1.17,7.64,1.98,15.7,1.31,18.56
				c-0.51,2.16-1.43,3.45-3.09,4.16c-4.23,1.81-12.67,6.15-29.74,7.85c-7.37,0.74-23.55-3.22-33.42-10.53
				c-7.84-5.81-17.25-12.57-20.78-15.1c-0.92-0.66-1.53-1.66-1.69-2.78l-1.29-8.66c-0.26-1.77,0.63-3.52,2.23-4.33
				C963.3,749.84,984.9,739.99,998.94,744.9z"/>
			<path class="st13" d="M1005.88,741.35c15.03,5.67,35.6,14.24,36.77,22.74c1.05,7.66,1.52,11.87,1.31,14.8
				c-0.1,1.43-3.56,2.11-5.25,2.82c-4.3,1.81-12.89,6.16-30.24,7.88c-7.5,0.74-22.22-1.47-32.24-8.77
				c-8.35-6.08-18.44-13.2-21.58-15.41c-0.63-0.44-1.05-1.12-1.18-1.88l-1.26-7.47c-0.54-3.22,1.29-6.36,4.36-7.46
				C967.73,744.57,992.51,736.31,1005.88,741.35z"/>
			<path class="st14" d="M996.38,757.58c0,0,14-12.78,29.83-7.91"/>
			<path class="st14" d="M986.64,751.49c0,0,14.61-11.57,30.44-6.7"/>
		</g>
		<path class="st15" d="M993.94,489.71c0,0,4.51,59.73,12.78,107.76c4.46,25.9,8.64,72.27,11.28,106.04
			c1.78,22.76,3.24,39.93,2.18,40.71c-2.61,1.94-15.22-1.83-38.26,3.94c-22.74,5.7-32.1,8.99-32.1,8.99l-3.57-10.98
			c0,0-2.14-5.11,0.66-26.18c0.83-6.23-6.3-15.9-7.32-23.84c-6.5-50.88-15.9-128.61-20.55-180.87
			C911.95,435.44,979.06,422.83,993.94,489.71z"/>
		<path class="st16" d="M993.94,489.71c0,0,4.51,59.73,12.78,107.76c5.09,29.56,9.09,80.03,12.52,115.16
			c0.72,7.37,3.41,7.99,3.91,13.69c0.6,6.87-0.41,16.74-3.38,18.3c-3.22,1.69-14.8-2.23-37.84,3.54c-22.74,5.7-32.1,8.99-32.1,8.99
			l-3.57-10.98c-1.12-5.21-1.29-7.8,0.66-26.18c0.66-6.16-6.36-16.34-7.32-23.84c-6.5-51.07-16.03-130.04-20.55-180.87
			C911.95,435.44,979.06,422.83,993.94,489.71z"/>
		<path class="st15" d="M841.97,486.31c0,0-3.26,68.12-4.99,108.71c-1.25,29.19-5.16,149.1-5.16,149.1s5.14-1.98,26.95-1.3
			l31.3,13.91c0,0,7.02,1.9,8.87,0.84c1.85-1.05,6.87-5.98,7.36-17.96c1.56-38.09,1.85-121.1,1.28-127.25
			c-0.52-5.55,0.01-69.68,4.19-117.22c1.83-20.83-7.77-38.27-35.31-45.38C850.02,442.94,842.66,465.34,841.97,486.31z"/>
		<path class="st15" d="M1006.73,597.47c5.04,29.28,9.02,79.05,12.42,114.14c0.25,2.53,3.5,8.92,3.74,11.28
			c1.36,13.41-1.05,21.87-3.69,22.42c-2.65,0.54-14.22-2.92-37.26,2.85c-22.74,5.7-32.1,8.99-32.1,8.99l-3.57-10.98
			c0,0,22.8-32.57,34.89-53.73c3.65-6.39,17.72-25.37,21.46-50.68C1006.12,618.08,1004.7,585.71,1006.73,597.47z"/>
		<ellipse class="st15" cx="916.93" cy="468.94" rx="73.36" ry="53.65"/>
		<ellipse class="st16" cx="916.93" cy="468.94" rx="73.36" ry="53.65"/>
		<g>
			<path class="st17" d="M905.97,468.25c1.91-11.27-6.32-4.2-12.71-0.46c-4.72,2.77-8.46,4.85-4.06,8.03
				C896.28,480.94,904.73,475.58,905.97,468.25z"/>
			<path class="st17" d="M907.19,466.88c0,0,9.13,10.5,17.35,11.87c8.22,1.37,6.85-10.96,1.37-13.24
				C920.43,463.23,910.39,463.23,907.19,466.88z"/>
			<path class="st17" d="M907.65,465.97c0,0,11.41,11.19,11.87,26.71"/>
			<path class="st17" d="M905.82,488.57c0,0,1.14-17.12,1.83-22.6"/>
		</g>
		<path class="st15" d="M985.88,680.95c10.34-10.69,19.76-36.19,19.02-48.78c0,0-38.86,56.05-40.18,58.44
			C961.04,697.3,985.48,681.37,985.88,680.95z"/>
	</g>
</g>
<g id="M_torso">
	<g>
		<path class="st12" d="M863.25,283.01c0,0-6.75,1.57-8.79,22.83c-0.91,9.47-8.71,53.24-8.15,83.49c0.66,35.46-2.37,83.4-2.37,83.4
			s24.72-7.29,61.19-10.09c36.48-2.8,80.71,12.36,80.71,12.36c14.12,2.33-0.8-40.41-4.04-56.69c-3.79-19.05,1.56-53.51-1.58-79.2
			c-4.73-38.63-11.34-46.39-12.13-49.56c-1.73-6.96-24.1-7.17-39.18-9.33C906.85,277.08,879.47,280.67,863.25,283.01z"/>
		<path class="st18" d="M845.09,334.58c0,0,68.49-18.91,121.91-3.31l2.74,14.18c0,0-62.55-22.69-126.48,2.84L845.09,334.58z"/>
		<path class="st18" d="M842.81,351.6c0,0,70.77-19.38,124.19-3.78l2.74,14.18c0,0-62.1-21.27-126.02,4.25L842.81,351.6z"/>
		<path class="st19" d="M863.25,283.01c0,0-6.75,1.57-8.79,22.83c-0.91,9.47-8.71,53.24-8.15,83.49
			c34.05-52.24,115.92,72.15,143.98,74.59c7.76,0.67-8.9-29.1-9.74-57.98c-0.98-33.75,4.11-63.33,4.11-63.33
			c-4.73-38.63-15.77-49.87-16.56-53.05c-1.73-6.96-24.1-7.17-39.18-9.33C906.85,277.08,879.47,280.67,863.25,283.01z"/>
		<path class="st9" d="M943.72,281.88c1.03-0.06,0,2.37,0,2.37c-7.23,6.56-24.17,16.77-39.24,16.77c-14.87,0-27.39-0.94-30.62-10.48
			c-1.39-4.11,5.18-9.52,5.18-9.52s11.81-2.02,25.42-2.44C917.74,278.16,942.69,281.94,943.72,281.88z"/>
		<g>
			<path class="st9" d="M903.95,287.66c-11.95-0.38-11.58-9.61-11.49-15.4l1.18-18.9c0.07-4.6,4.88-8.41,12.32-8.19l12.85,0.2
				c7.22,0.22,10.76,4.19,11.42,8.65c0,0,2.12,19.92,1.38,26.13C930.85,286.45,915.91,288.03,903.95,287.66z"/>
		</g>
		<path class="st7" d="M988.57,326.38c0,0,3.33,41.91-2.42,36.57c-20.96-19.48-17.73-55.88-16.12-65.61s6.2-13.46,12.49-9.23
			C992.2,294.59,988.57,326.38,988.57,326.38z"/>
		<path class="st6" d="M855.86,277.38c5.54,0.17,12.87,1.84,11.56,4.73c-3.96,8.75-10.19,30.49-13.45,48.64
			c-3.82,21.26-7.25,40.61-8.9,55.26c-0.76,6.76-6.67,12.11-11.93,8.33c-1.49-1.07-2.61-2.57-2.96-4.66
			c-1.37-8.37-6.13-44.83,13.5-104.59C846.11,277.71,850.03,277.2,855.86,277.38z"/>
		<path class="st6" d="M977.99,282.12c-3.65-2.84-18.88-5.95-24.53-4.21c-5.65,1.74-4,26.64,3.04,54.78
			c6.81,27.2,17.34,62.46,22.96,68.68c1.11,1.22,2.67,1.85,4.28,1.74c3.38-0.24,8.76-1.42,8.48-6.53
			c-0.4-7.41-6.33-40.13-10.92-75.7C977.4,290.56,981.53,284.87,977.99,282.12z"/>
	</g>
</g>
<g id="m_left_hand">
	<g>
		<path class="st7" d="M996.93,480.61c3.1,0.98,6.53,0.19,8.81-2.13c5.41-5.49,7.64-13.72,6.9-22.54
			c-0.91-10.96-14.15-15.07-22.68-16.89c-6.75-1.45-12.35-2.89-14.39-3.43c-0.52-0.14-1.08-0.02-1.5,0.32l-24.23,19.62
			c-0.42,0.34-0.65,0.86-0.62,1.4l0.48,9.11c0.05,0.9,0.79,1.6,1.69,1.6l0,0c1.48,0,2.24,1.76,1.24,2.84l-0.55,0.59
			c-0.47,0.5-0.58,1.24-0.3,1.86l2.41,5.21c0.42,0.9,1.51,1.25,2.37,0.76l1.54-0.88c0.66-0.38,1.49-0.27,2.03,0.27l4.34,4.34
			c0.5,0.5,1.26,0.64,1.9,0.34l5.2-2.4c0.85-0.39,1.84-0.02,2.24,0.83c0.55,1.16,1.51,2.66,3.06,3.43
			c2.38,1.19,12.46-3.94,15.06-5.3c0.4-0.21,0.86-0.25,1.29-0.11L996.93,480.61z"/>
		<path class="st8" d="M973.34,436.54l-23.49,19.01c-0.42,0.34-0.65,0.86-0.62,1.4l0.48,9.11c0.05,0.9,0.79,1.6,1.69,1.6l0,0
			c1.48,0,2.24,1.76,1.24,2.84l-0.55,0.59c-0.47,0.5-0.58,1.24-0.3,1.86l2.41,5.21c0.42,0.9,1.51,1.25,2.37,0.76l1.54-0.88
			c0.66-0.38,1.49-0.27,2.03,0.27l4.34,4.34c0.5,0.5,1.26,0.64,1.9,0.34l5.2-2.4c0.85-0.39,1.84-0.02,2.24,0.83
			c0.55,1.16,1.51,2.66,3.06,3.43c2.27,1.14,11.56-3.49,14.66-5.1c0.61-0.32,0.97-0.98,0.9-1.67l-0.81-8.16
			c-0.25-2.53-1.4-4.9-3.24-6.66l-3.1-2.97c-2.02-1.93-3.2-4.57-3.29-7.36l-0.15-4.36c-0.07-2.06-0.73-4.06-1.91-5.75l-4.16-5.96
			C975.22,436.08,974.1,435.92,973.34,436.54z"/>
	</g>
</g>
<g id="m_head">
	<g>
		<path class="st2" d="M952.08,217.77c-1.32,35.38-8.7,46.48-32.24,46.88c-17.8,0.3-32.24-20.99-32.24-46.88
			s14.44-46.88,32.24-46.88S953.26,185.92,952.08,217.77z"/>
		<path class="st9" d="M942.15,209.75c-0.17-23.21-2.7-36.49-28.37-38.38c-13.4-0.98-26.59,0.24-34.36,4.26
			c-7.02,3.64-11.26,9.3-13.71,24.53c-1.85,11.47-4.45,31.31-0.61,50.52c2.46,12.31,18.25,16.97,32.17,17.93
			c35.94,2.48,41.46-7.07,43.7-24.01C943.99,221.67,942.21,219.28,942.15,209.75z"/>
		<path class="st20" d="M937.5,223.8c-0.22-20.12-8.49-28.86-31.6-30.57c-12.06-0.89-35.82,5.32-36.93,18.64
			c-1.19,14.42-2.92,26.98-0.36,39.46c2.2,10.73,13.71,14.49,26.25,15.37c32.36,2.26,39.73-8.7,41.64-23.38
			C938.13,230.82,937.59,232.06,937.5,223.8z"/>
		<path class="st2" d="M873.9,175.29c-2.15,1.3-2.98,2.59-4.5,10.89c-0.32,1.75,2.9-5.01,5.8-7.65c2.9-2.64,2.23,0.9,17.41,0.53
			c15.18-0.37,36.7-2.98,36.7-2.98l2.11,20.98l7.84,18.22l4.73-10.06c0.71-17.86-2.51-28.26-14.24-32.2
			C908.28,165.8,881.79,170.51,873.9,175.29z"/>
		<path class="st21" d="M911.97,193.64c-0.27,3.54-1.94,6.27-3.74,6.13c-1.8-0.14-3.06-3.09-2.83-6.63
			c0.23-3.58,1.91-6.41,3.75-6.27C910.98,187.01,912.24,190.06,911.97,193.64z"/>
		<line class="st22" x1="904.64" y1="186.59" x2="913.69" y2="183.72"/>
		<path class="st21" d="M886.58,194.53c-0.12,3.34-1.58,5.91-3.26,5.78c-1.69-0.13-2.99-2.91-2.91-6.25
			c0.08-3.37,1.54-6.03,3.26-5.9C885.4,188.29,886.7,191.16,886.58,194.53z"/>
		<line class="st22" x1="885.7" y1="186.59" x2="877.57" y2="184.27"/>
		<path class="st9" d="M953.64,224.94c-2.36,9.57-9.14,16.29-15.21,15.31c0,0,0.19-21.7,0.1-25.84c-0.06-2.6,1.44-10.62,7.91-9.56
			C952.89,205.9,956.08,215.04,953.64,224.94z"/>
		<path class="st23" d="M950.22,231.77c-0.34,2.31-2.53,4-4.89,3.81c-2.36-0.19-4.04-2.2-3.73-4.51c0.3-2.33,2.5-4.07,4.9-3.88
			C948.89,227.39,950.56,229.45,950.22,231.77z"/>
	</g>
</g>
<g id="s_cape-back">
	<g>
		<path class="st24" d="M1046.07,419.15c0,0-25.94,0.43-38.03-4.26c-12.09-4.68-8.68-54.5,15.36-61.06
			c27.47-7.5,60.48,8.52,78.74,21.4c18.26,12.88,10.84,32.14-15.58,41.22C1059.75,425.66,1046.07,419.15,1046.07,419.15z"/>
		<path class="st4" d="M1102.6,395.74c0,12.8-48.55,13.45-63.36,13.45c-14.8,0-26.8-10.38-26.8-23.18c0-12.8,12-23.18,26.8-23.18
			C1054.04,362.82,1102.6,382.94,1102.6,395.74z"/>
	</g>
	<path class="st24" d="M1092.72,403.81c0,0,65.9,22.43,104.26,78.44c32.84,47.96,79.14,17.05,106.54,29.83
		c27.4,12.78-135.99,43.96-164.22,51.6c-33.79,9.13-133.78-103.71-115.06-134.75C1046.86,391.4,1092.72,403.81,1092.72,403.81"/>
	<path class="st4" d="M1108.7,418.48c0.33,1.55,35.81,16.8,58.29,51.75c47.79,74.27,107.15,26.18,134.54,38.96
		s19.48,45.75,19.48,45.75s-45.66-12.78-56.62,23.74S1158.4,620.37,1130.17,628c-33.79,9.13-111.49-4.54-111.49-4.54
		s-29.33-124.15,7.69-206.81c6.54-14.61,52.66-10.96,52.66-10.96L1108.7,418.48z"/>
</g>
<g id="s_hair-back">
	<g>
		<path class="st2" d="M1054.37,310.09c0,0-12.14-4.05-24.28,12.14c-9.54,12.72-14.39,24.28-4.95,40.01
			c2.67,4.45-8.09,5.4-1.35,24.28c7.06,19.77,47.21,20.68,60.7,11.24c0,0,26.08,22.03,55.3,6.29c19.66-10.59-7.19-38.67-7.19-38.67
			s14.03-30.55-18.34-60.67C1091.21,283.27,1066.51,297.95,1054.37,310.09z"/>
		<ellipse class="st2" cx="1045.07" cy="317.92" rx="15.51" ry="26.3"/>
		
			<ellipse transform="matrix(0.3925 -0.9198 0.9198 0.3925 371.9092 1163.4009)" class="st2" cx="1066.65" cy="300.17" rx="20.91" ry="12.81"/>
		<path class="st18" d="M1051.08,316.74c0,0-10.1-6.54-21.39,6.75c-11.29,13.29-13.1,25.05-4.96,38.61
			c2.3,3.84-7.26,7.46-1.45,23.74c3.24,9.06,18.09,12.77,17.14,11.08s-0.13-6.46-0.13-6.46c10.21,6.1,26.9,9.69,44.51,8.31
			c9.89,5.93,28.13,5.33,39.92-1.02c16.95-9.12-6.2-33.33-6.2-33.33s12.1-26.33-15.81-52.3
			C1082.84,293.61,1061.55,306.27,1051.08,316.74z"/>
		<path class="st18" d="M1049.4,318.45c0,12.52,1.06,27.71-6.33,27.71c-7.38,0-13.37-10.15-13.37-22.67
			c0-12.52,5.99-22.67,13.37-22.67C1050.45,300.82,1049.4,305.93,1049.4,318.45z"/>
		<path class="st18" d="M1068.78,305c-3.91,9.15-8.57,22.15-14.18,19.75c-5.61-2.39-6.99-11.76-3.09-20.91
			c3.91-9.15,11.62-14.63,17.23-12.24C1074.35,294,1072.69,295.85,1068.78,305z"/>
		<path class="st2" d="M1105.7,404.03c0,0,11.34-3.16,13.19-11.34C1118.89,392.69,1122.85,404.56,1105.7,404.03z"/>
	</g>
</g>
<g id="s_sword_arm">
	<g>
		<path class="st25" d="M1118.2,431.8c0,0,18.8,36.89,24.15,46.17c5.35,9.27-9,20.07-18.36,17.56s-27.21-45.97-31.69-55.17
			C1087.81,431.15,1106.36,416.7,1118.2,431.8z"/>
		<path class="st5" d="M1120.8,436.33c0,0-17.22-34.39-28.81-32.57c-11.62,1.82-11.39,7.06-8.92,17.18
			c3.66,15,13.68,35.08,13.68,35.08S1106.72,440.19,1120.8,436.33z"/>
		<path class="st25" d="M1165.78,475.86c0,0-23.29-1.52-28.77-3.35c-5.48-1.83-24.89,7.08-16.89,20.09
			c6.54,10.65,42.31,6.54,48.4,4.11C1174.61,494.28,1177.19,477.99,1165.78,475.86z"/>
	</g>
	<g>
		<g>
			<path class="st15" d="M1225.9,230.66c0,0-36.78,191.64-37.22,194.62s-0.83,5.66-0.83,5.66c-0.61,1.39-2.1,1.62-7.55,0.37
				l-23.35-4.06l32.59-203.68c0.16-1.04,19.69-18.48,19.69-18.48c0.65-0.06,1.47-1,3.11,0.93l13.15,21.01
				C1226.27,228.63,1226.06,229.82,1225.9,230.66z"/>
			<path class="st25" d="M1225.9,230.66c0,0-36.78,191.64-37.22,194.62s-0.83,5.66-0.83,5.66c-0.61,1.39,1.97,1.7-3.47,0.44
				l37.44-202.84c0,0-11.12-24.46-9.47-22.53l13.15,21.01C1226.27,228.63,1226.06,229.82,1225.9,230.66z"/>
			<path class="st25" d="M1206.19,325.55l1.91-7.78c0.24-0.56-0.81-0.89-1.9-0.59l-7.4,2.04c-0.66,0.18-0.97,0.59-0.69,0.9l6.53,6
				C1205.11,326.64,1205.93,326.12,1206.19,325.55z"/>
			<polygon class="st25" points="1181.77,271.69 1187.04,268.08 1183.11,263.74 			"/>
			<polygon class="st25" points="1217.55,261.92 1211.33,255.94 1219.1,255.44 			"/>
			<line class="st26" x1="1210.67" y1="205.12" x2="1170.61" y2="428.93"/>
			<polyline class="st26" points="1176.01,308.16 1180.83,309 1185.01,303.06 1182.05,297.12 1192.36,287.67 1196.3,283.97 			"/>
		</g>
		<g>
			<g>
				<g>
					<path class="st1" d="M1162.33,504.35c-0.1,0.31-2.42,1.4-6.58,0.3c-4.88-1.29-4.45-4.64-4.45-4.64l8.25-71.28l22.76,3.65
						L1162.33,504.35z"/>
				</g>
				<path class="st1" d="M1152.08,525.9c6.66,1.71,12.9-3.19,13.8-10.59c0.86-7.03-3.47-13.61-9.56-15.02
					c-6.02-1.39-11.94,2.72-13.35,9.46C1141.49,516.84,1145.5,524.21,1152.08,525.9z M1155.64,507.17c2.28,0.8,3.96,3.95,3.74,7.1
					c-0.22,3.22-2.34,5.18-4.71,4.31c-2.35-0.87-3.99-4.17-3.67-7.32C1151.31,508.18,1153.38,506.37,1155.64,507.17z"/>
				<g>
					<path class="st15" d="M1151.45,521.31c3.77,1.04,7.33-1.79,7.9-6.18c0.11-0.86,0.09-1.72-0.03-2.54
						c0.08,0.55,0.1,1.12,0.06,1.69c-0.22,3.22-2.34,5.18-4.71,4.31c-2.35-0.87-3.99-4.17-3.67-7.32c0.31-3.08,2.38-4.88,4.64-4.09
						c1.41,0.5,2.59,1.89,3.23,3.63c-0.87-2.44-2.72-4.38-5.04-4.97c-3.55-0.91-6.99,1.62-7.74,5.77
						C1145.33,515.88,1147.7,520.28,1151.45,521.31z"/>
					<path class="st15" d="M1159.25,512.19c-0.01-0.07-0.02-0.15-0.04-0.22C1159.23,512.05,1159.24,512.12,1159.25,512.19z"/>
					<path class="st15" d="M1159.05,511.34c-0.03-0.11-0.07-0.22-0.11-0.34C1158.98,511.11,1159.02,511.22,1159.05,511.34z"/>
				</g>
				<g>
					<path class="st0" d="M1158.96,504.54c0.13,0,0.26,0.05,0.37,0.13c0.82,0.64,1.48,1.34,1.95,2.1c0.18,0.28,0.06,0.66-0.25,0.84
						c-0.31,0.18-0.71,0.1-0.88-0.18c-0.4-0.64-0.97-1.25-1.68-1.8c-0.27-0.21-0.29-0.59-0.05-0.85
						C1158.55,504.61,1158.76,504.53,1158.96,504.54z"/>
				</g>
			</g>
			<path class="st27" d="M1161.18,475.32c-4.19,0-7.13,1.32-7.13,1.32l4.12-34.83c0.28-3.76,1.2-14.68,1.2-14.68
				s21.49,3.12,24.2,3.93c0,0-2.93,11.86-3.92,15.21l-9.03,30.26C1170.62,476.54,1165.37,475.32,1161.18,475.32z"/>
			<path class="st1" d="M1173.48,466.94l-1.27,4.19c0,0-7.25-0.61-15.97-0.61C1156.25,470.52,1158.88,468.02,1173.48,466.94z"/>
			<path class="st27" d="M1154.03,476.91c0,0,11.98-0.1,15.91,1.93l-1.53,4.98c0,0-12.22-3.4-14.79-3.4L1154.03,476.91z"/>
			<path class="st1" d="M1155.5,464.42l0.17-1.37c0,0,9.15-0.52,15.23,1.41L1155.5,464.42z"/>
			<path class="st1" d="M1175.41,459.87l1.12-3.55c0,0-12.17-2.64-20.18,0.51C1156.35,456.83,1171.05,456.32,1175.41,459.87z"/>
			<path class="st1" d="M1179.65,446.28l-1.83,6.05c0,0-11.95-4.85-20.61-3.23l1.26-10.91
				C1158.47,438.19,1167.53,441.85,1179.65,446.28z"/>
			<path class="st1" d="M1181.53,439.01l0.89-3.16c0,0-11.37-5.44-21.07-3.07C1161.35,432.78,1180.34,436.34,1181.53,439.01z"/>
		</g>
		<g>
			<path class="st27" d="M1139.63,409.69c0.68-0.29,1.45-0.38,2.19-0.25l66.45,10.21c0.85,0.18,1.69,1.6,4.07,5.17
				c1.6,2.4,2.35,5.49-0.36,6.76c-3.55,1.67-7.49,4.5-8.95,4.07l-63.76-11.35c-0.98-0.19-4.04-2.65-5.29-3.67
				c-1.42-1.16-3.4-3.39-4.61-5.28c-0.9-1.4-0.34-3.24,1.18-3.89L1139.63,409.69z"/>
		</g>
		<g>
			<path class="st25" d="M1137.97,406.86c0.72-0.31,1.51-0.4,2.29-0.26l67.47,11.99c0.18,0.04,4.85,5.16,4.25,7.07
				c-0.6,1.91-8.71,5.29-8.71,5.29s-68.78-11.12-69.39-11.95c-1.13-1.54-3-3.1-4.27-5.07c-0.94-1.46-0.35-3.38,1.23-4.06
				L1137.97,406.86z"/>
		</g>
		<g>
			<path class="st15" d="M1137.97,406.86c0.72-0.31,1.51-0.4,2.29-0.26l8.44,9.56l54.57,14.79c0,0-68.78-11.12-69.39-11.95
				c-1.67-1.65-3-3.1-4.27-5.07c-0.94-1.46-0.35-3.38,1.23-4.06L1137.97,406.86z"/>
		</g>
		<polygon class="st15" points="1176.26,316.57 1173.3,334.1 1194.57,365.27 1197.8,348.17 		"/>
		<polygon class="st15" points="1172.68,339.27 1171.84,346.02 1193.1,377.19 1194.22,370.86 		"/>
		<path class="st27" d="M1149.4,408.52l1.97,2.78c0.66,0.98,0.86,1.08,1.87,0.43l3.21-1.97L1149.4,408.52z"/>
	</g>
	<g>
		<path class="st28" d="M1157.92,472.47c-0.63,1.51,0.99,1.99,3.28,2.24c1.65,0.18,4.7-1.48,4.7-1.48s2.75,0.9,3.9,1.59
			c0.59,0.35-4.6-0.11-6.44,0c-1.84,0.11-6.01,1.87-6.01,1.87c-0.12,0.01-0.24,0.03-0.35,0.07c-1.4,0.5-2.28,1.98-2.02,4.29
			c0.04,0.31,0.19,0.54,0.42,0.75c0.29,0.27,0.82,0.38,0.62,1.21c-0.27,1.09-1.53,1.88-1.52,2.67c0,0.45,0.88,4.25,1.18,4.59
			l4.04,0.16c0,0-4.64,0.53-4.97,2.65c-0.57,3.68,2.56,5.61,4.73,5.26c2.69-0.43,2.67,0.89,4.99,1.29c0,0,5.72,0.62,6.48-1.37
			c0.8-2.09,3.35-3.72,4.14-6.67c0.46-1.73,0.46-5.17,1.72-7.24c2.47-4.04-0.57-5.22,0.11-7.82c0.6-2.25,2.18-2.41,1.38-5.06
			c-0.63-2.06-2.79-2.64-4.37-3.22c-1.58-0.57-5.75-0.92-9.88-0.46C1164.06,467.81,1158.56,470.96,1157.92,472.47z"/>
		<path class="st25" d="M1157.92,472.47c-0.63,1.51,0.97,2.22,3.26,2.47c1.65,0.18,4.71-1.71,4.71-1.71s2.75,0.9,3.9,1.59
			c0.59,0.35-4.6-0.11-6.44,0c-1.84,0.11-6.01,1.87-6.01,1.87c-0.12,0.01-0.24,0.03-0.35,0.07c-1.4,0.5-2.4,2.11-2.13,4.41
			c0.04,0.31,0.67,1.07,0.9,1.28c0.29,0.27,0.06,0.62,0,0.74c-0.5,1.01-1.11,1.23-1.28,2c-0.4,1.78,0.07,3.43,1.19,5.08l4.24,0.16
			c0,0-4.89,0.52-5.17,2.65c-0.27,2.05,1.49,4.84,3.84,4.24c3.36-0.86,7.42,0.52,7.85,0.33c3.03-1.38,0.38-4.32,1.38-6.59
			c0.74-1.68,0.8-3.6,1.58-5.41c0.68-1.57,0.4-6.07,0.4-6.07l3.96-3.56c0,0-0.13-3.43-0.4-4.75c-0.49-2.46-6.86-3.94-9.3-3.48
			C1163.61,467.89,1158.56,470.96,1157.92,472.47z"/>
	</g>
	<path class="st25" d="M1152.77,481.57c2.39,3.6,5.43-0.14,4.72-5.61c-0.34-2.63-1.17-6.03-5.15-4.86S1148.5,475.14,1152.77,481.57z
		"/>
</g>
<g id="S_body">
	<g>
		<path class="st29" d="M1188.91,594.42c0.2,5.46-20.44,7.94-25.72,15.32c-7.62,10.66-1.05,11.08-71.21,16.35
			c-56.76,4.27-74.55-23.16-73.84-34.72c0.7-11.4,41.39-26.47,84.2-26.52C1145.23,564.81,1188.49,582.85,1188.91,594.42z"/>
		<g>
			<path class="st2" d="M1026.06,629.94c0,0-10.96-44.5-11.87-58.04c-0.91-13.54,44.75-32.89,52.97-10.64s10.05,58.04,10.05,74.49
				s-2.74,30.96-22.83,29.99C1025.02,664.32,1033.19,659.09,1026.06,629.94z"/>
			<path class="st30" d="M1026.06,629.94c0,0-10.96-44.5-11.87-58.04c-0.91-13.54,44.75-32.89,52.97-10.64s10.05,58.04,10.05,74.49
				s-2.74,30.96-22.83,29.99C1025.02,664.32,1033.19,659.09,1026.06,629.94z"/>
			<path class="st2" d="M1058.17,633.69c-12.06-2.88-29.05,7.12-27.85,20.44c0.91,10.16-9.28,13.06-16.13,32.89
				c-6.85,19.83,43.83,32.89,48.4,7.74C1067.15,669.61,1090.59,641.43,1058.17,633.69z"/>
			<path class="st30" d="M1058.94,630.43c-12.06-2.88-29.81,10.38-28.61,23.7c0.91,10.16,7,16.05,0.15,35.88
				c-6.85,19.83,27.55,29.91,32.12,4.75C1067.15,669.61,1091.35,638.17,1058.94,630.43z"/>
			<path class="st25" d="M1062.59,694.76c-4.57,25.15-31.96,95.3-34.7,107.87c-2.74,12.58-11.87,17.25-11.87,17.25
				s-12.5,5.74-12.11-22.61c0.29-21.66,3.44-90.41,10.29-110.24c0,0,17.35-7.26,28.31-4.35
				C1053.46,685.57,1062.59,694.76,1062.59,694.76z"/>
			<path class="st28" d="M1062.59,694.76c-4.57,25.15-31.96,95.3-34.7,107.87c-1.34,6.17-2.89,15.43-6.24,15.68
				c-3.47,0.26-4.87,2.59-5.78-19.07c-0.91-20.32,7.76-92.39,14.61-112.22c0,0,1.07-7.26,12.03-4.35
				C1053.46,685.57,1062.59,694.76,1062.59,694.76z"/>
			<path class="st28" d="M1016.77,791.29c-5.01,9.48-14.15,15.07-14.15,15.07s-6.48,11.47-5.55,15.79c0.6,2.62,3.23,9.3,3.23,9.3
				s1.96,23.25,2.65,25.99c1.02,4.1,42.13,10.66,44.88,11.7c2.75,1.04,2.15-22.09,2.15-22.09s-17.62-21.76-20.92-31.07
				C1025.81,806.84,1022.18,781.07,1016.77,791.29z"/>
		</g>
		<g>
			<path class="st30" d="M1086.33,554.48c-9.13,7.74-14.46,25.15-7.61,41.6c6.85,16.45,13.09,46.11,19.48,52.89
				s17.35,15.8,30.14,15.8c12.78,0,18.26-18.38,15.98-32.89c-2.28-14.51-10.5-55.63-16.89-74.01S1095.46,546.74,1086.33,554.48z"/>
			<path class="st2" d="M1099.93,638.69c-4.53,4.84-5.66,20.85-8.21,29.47c-3.43,11.6-4.09,20.38-3.43,36.26
				c0.67,16.14,3.91,37.03,5.49,48.28c3.24,23.11-3.5,31.7,7.46,32.98c10.96,1.29,9.13-2.58,13.39-14.19s19.79-72.23,22.83-84.49
				c3.04-12.25,4.87-25.8,5.48-36.76S1112.03,625.76,1099.93,638.69z"/>
			<path class="st30" d="M1101.47,637.26c-6.93,4.67-7.83,22.2-5.79,40.99c1.62,14.91,38.75,21.02,41.79,8.77
				c3.04-12.25,4.87-25.8,5.48-36.76S1114.62,626.64,1101.47,637.26z"/>
			<path class="st25" d="M1089.22,679.24c-3.69,12-1.85,32.44,3.35,70.43c3.16,23.12-1.52,39.45,9.44,40.74
				c10.96,1.29,12.85,1.65,15.06-10.51c2.24-12.33,17.35-80.62,20.39-92.87c0,0-13.7-8.38-26.48-9.03
				C1098.2,677.35,1089.22,679.24,1089.22,679.24z"/>
			<path class="st28" d="M1095.68,678.25c0.07,13.71,5.54,56.37,6.17,79.18c0.65,23.57-5.63,29.61,5.33,30.9
				c10.96,1.29,7.74,3.74,9.9-8.43c2.34-13.22,17.35-80.62,20.39-92.87c0,0-13.13-7.96-26.48-9.03
				C1105.6,677.56,1095.68,678.25,1095.68,678.25z"/>
			<path class="st25" d="M1094.47,777.42c0,0-1.26,7.68-4.72,15.75c-2.97,6.92,12.49,10.09,18.12,15.24c0,0,40.87,21.38,54.56,14.61
				c15.21-7.52-26.97-28.9-14.91-22.34c0,0-25.57-12.58-29.22-22.25C1114.64,768.77,1094.47,777.42,1094.47,777.42z"/>
			<path class="st28" d="M1101.02,776.16c-0.53,11.47-5.56,14.06-7.39,20.84c-3.53,13.07,22.4,21.1,20.7,20.09
				c0,0,33.94,11.79,47.64,5.02c15.49-7.66-26.8-27.84-14.46-21.42c0,0-25.57-12.58-29.22-22.25
				C1114.64,768.77,1101.5,765.81,1101.02,776.16z"/>
			<path class="st4" d="M1090.74,787.51c0.65-1.29,1.84-2.41,2.04-1.12c0.21,1.29,2.18,6.23,4.88,7.75
				c2.69,1.52,33.41,18.26,44.18,15.21c6.57-1.86,1.82-7.79-2.88-12.14c-3-2.78-5.99-4.91-5.99-4.91s13.78,7.76,20.11,11.41
				c6.33,3.65,19.64,16.13,20.9,21c1.27,4.87-46.79,5.48-53.68,2.28s-17.1-12.33-20.9-15.98c-3.5-3.36-7.57-1.86-8.87-3.35
				C1087.59,804.31,1088.77,791.38,1090.74,787.51z"/>
		</g>
		<path class="st15" d="M1076.74,402.96c0,0,12.16-2.74,16.44,2.74c4.92,6.31,18.07,22.52,18.72,35.42
			c0.52,10.28-1.25,18.5-6.43,32.8c-4.25,11.75-9.98,29.79-17.2,33.07c-22,9.99-40.79,8.36-53.08,0.99
			c-4.57-2.74-9.42-9.69-9.05-27.88c0.16-7.84-0.08-10.47-1.91-38.32c-2.45-37.44,12.33-38.99,27.37-39.83
			C1066.63,401.1,1076.74,402.96,1076.74,402.96z"/>
		<g>
			<path class="st25" d="M1075.14,417.55l-2.4-0.13c-4.3-0.23-7.6-3.91-7.36-8.21l1.7-31.54c0.23-4.3,3.91-7.6,8.21-7.36l2.4,0.13
				c4.3,0.23,7.6,3.91,7.36,8.21l-1.7,31.54C1083.11,414.49,1079.44,417.78,1075.14,417.55z"/>
			<path class="st28" d="M1075.75,404.77l-2.4-0.13c-4.3-0.23-7.6-3.91-7.36-8.21l1.7-31.54c0.23-4.3,3.91-7.6,8.21-7.36l2.4,0.13
				c4.3,0.23,7.6,3.91,7.36,8.21l-1.7,31.54C1083.72,401.7,1080.05,405,1075.75,404.77z"/>
		</g>
		<path class="st4" d="M1004.23,805.11c-1.3,0.42-4.06,2.61-4.55,3.89c-2.15,5.61-3.96,10.91-3.43,14.24
			c0.21,1.3,1.46,4.62,2.75,10.92c1.43,6.94,0.47,19.44,4.33,24.7c3.85,5.26,36.73,16.68,44.03,15.31
			c7.31-1.37,3.17-22.88,2.61-27.11c-0.59-4.46-16.6-24.44-23.26-39.3c0,0,0.06,1.46,1.12,5.18c2.5,8.7,7.37,26.94,0.56,27.61
			c-9.75,0.95-23.74-12.3-24.32-18.93c-0.57-6.55-1.64-11.78-1.45-13.13C1002.81,807.12,1004.23,805.11,1004.23,805.11z"/>
		<g>
			<path class="st29" d="M1107.02,581.26l18.61,16.39c1.95,1.54,4.67,0.33,4.28-1.93C1128.57,587.97,1124.61,574.88,1107.02,581.26z
				"/>
			<path class="st15" d="M1026.67,486.36c-3.04,5.78-26.48,78.84-3.96,127.54c0,0,19.84-21.54,48.18-27.37
				c56.44-11.6,51.57,4.33,53.02,8.54c0.96,2.8,4,4.25,6.8,3.29c0.72-0.25,1.53-0.55,2.43-0.91c12.68-5.06,34.73-12.74,55.25-5.48
				c0,0-39.81-66.22-93.05-99.25C1044.38,461.14,1029.71,480.58,1026.67,486.36z"/>
			<path class="st16" d="M1127.86,590.76c0,0-5.27-37.98-18.46-49.58c0,0,5.27,8.97,5.27,15.82l-6.33-4.22
				c0,0,6.56,9.68,11.08,19.52C1123.38,580.92,1125.15,589.77,1127.86,590.76z"/>
		</g>
	</g>
</g>
<g id="s_head">
	<path class="st28" d="M1112.79,343.82c7.73,37.19-7.43,49.87-33.67,49.05c-19.72-0.62-35.87-13.1-37.16-37.78
		c-1.3-24.68,9.09-44.93,28.56-48.19C1096.22,302.6,1107.76,319.66,1112.79,343.82z"/>
	<path class="st25" d="M1103.75,352.28c0.39,1.83,0.7,3.58,0.95,5.25c3.64,24.89-8.18,33.51-27.73,32.92
		c-15.68-0.48-28.53-10.19-29.56-29.4c-1.03-19.21,15.15-32.1,30.64-34.63C1098.5,323.07,1099.75,333.47,1103.75,352.28z"/>
	
		<ellipse transform="matrix(0.9882 -0.1529 0.1529 0.9882 -42.6352 163.6981)" class="st25" cx="1042.72" cy="358.98" rx="11.05" ry="14.14"/>
	<path class="st15" d="M1041.95,344.87l6.33,6.95c0,0,0.03-29.07,22.81-37.08c20.28-7.14,29.56,0.86,29.56,0.86
		s-10.95-18.09-38.52-6.24C1039.07,319.27,1041.95,344.87,1041.95,344.87z"/>
	<ellipse class="st2" cx="1060.79" cy="342.9" rx="3.21" ry="6"/>
	<ellipse class="st2" cx="1093.78" cy="340.33" rx="3.21" ry="6"/>
	<line class="st22" x1="1090" y1="333.05" x2="1096" y2="329.76"/>
	<line class="st22" x1="1065.91" y1="334.76" x2="1057.95" y2="332.62"/>
	<g>
		<path class="st31" d="M1097.63,310.5c0,0,5.78,7.03,11.71,10.04c4.48,2.28,8.08,2.7,8.08,2.7l-0.9-1.8l2.23-1.72
			c0,0-8.38-0.88-19.38-10.27L1097.63,310.5z"/>
		<path class="st31" d="M1097.05,309.68c0,0,3.03,8.58,7.57,13.44c3.43,3.67,6.67,5.3,6.67,5.3l-0.23-1.99l2.69-0.85
			c0,0-7.57-3.69-14.69-16.29L1097.05,309.68z"/>
		<path class="st31" d="M1100.72,314.21c2.14-0.38,4.17-11.79-0.92-12.03c-4.79-0.23-10.22,0.39-9.32,4
			C1091.39,309.79,1098.59,314.59,1100.72,314.21z"/>
		<path class="st32" d="M1102.57,307.72c0,0-0.79-4.89-2.31-4.78s-0.16,2.2,0.23,5.42C1100.89,311.58,1102.84,309.79,1102.57,307.72
			z"/>
		<g>
			<path class="st31" d="M1098.95,311.85c0,0-0.32-2.25,2.96-4.43c3.28-2.18,5.78-3.37,7.86-2.07s2.81,6.99,1.62,9.86
				c-1.19,2.87-8.49,0.69-10.33-0.39C1099.22,313.73,1098.95,311.85,1098.95,311.85z"/>
			<path class="st32" d="M1110.89,309.94c0,0,0.69,4.57-1.35,5.31c-3.03,1.11-1.12-7.54-0.94-8.9
				C1108.77,304.98,1111.44,306.67,1110.89,309.94z"/>
		</g>
	</g>
</g>
<g id="s_right_arm">
	<g>
		<path class="st25" d="M1031.54,463.11c0,0,11.92,26.58,17.36,32.41c5.48,5.88,12.73,12.41,19.86,9.65
			c7.11-2.75,10.25-20.46,5.24-29.74c-4.95-9.16-14.03-35.58-17.09-39.75c-3.04-4.15-14.37-1.21-19.89,2.14
			C1031.46,441.18,1027.54,453.18,1031.54,463.11z"/>
		<path class="st29" d="M1060.65,442.93c0,0-10.24-41.19-23.94-39.37c-13.08,1.74-15.49,12.9-13.84,28.19
			c1.68,15.62,8.87,32.14,8.87,32.14S1034.47,448.91,1060.65,442.93z"/>
		<path class="st5" d="M1056.5,429.55c0,0-6.08-27.81-19.78-25.99c-13.08,1.74-15.49,12.9-13.84,28.19
			c1.68,15.62,4.26,18.65,4.26,18.65s1.36-9.86,3.18-15.79c1.57-5.09,11.57-7.46,11.57-7.46L1056.5,429.55z"/>
		<path class="st28" d="M1138.38,453.79c0,0-20.7,4.26-32.25,8.07c-10.18,3.36-27.62,9.04-37.58,16.08
			c-10.05,7.11-11.21,17.27-8.54,23.91c2.7,6.7,15.67,2.71,26.38-0.95c10.66-3.65,51.2-23.04,61.12-29.45
			C1157.35,465.08,1154.81,447.56,1138.38,453.79z"/>
		<path class="st25" d="M1095,465.66c-10.96,3.04-16.49,5.24-26.45,12.28c-10.05,7.11-11.21,17.27-8.54,23.91
			c2.7,6.7,15.67,2.71,26.38-0.95C1097.06,497.25,1104.65,462.98,1095,465.66z"/>
		<path class="st28" d="M1145.42,466.73c3.01,4.12,10.65,3.49,13.22,1.31c3.12-2.63,4.98-4.87,6.96-4.86c1.24,0,5.81,0.86,8.31,1.99
			c0.14,0.27-0.46,1.33-0.35,1.63c0.15,0.42,0.28,0.67,0.73,0.7c2.84,0.2,5.18-1.67,5.03-4.64l-0.29-3.95l2.91-3.52l0.56-11.03
			l-9.65-10.38c-0.48-0.51-1.16-0.78-1.86-0.73l-13.12,0.97c-0.79,0.06-1.51,0.49-1.93,1.15l-11.91,18.64
			C1144.02,454.02,1142.41,462.61,1145.42,466.73z"/>
		<path class="st25" d="M1173.42,459.68c0.91,0.99,2.34,2.5,3.57,3.46c1.33,1.04,2.42,1.41,2.33-0.28l-0.29-3.95l3.63-2.89
			c0,0,0.84-8.56,0.56-11.03c-0.75-6.56-10.47-11.43-10.47-11.43c-0.86-0.43-1.07-0.35-1.77-0.3c0,0-3.09,5.11-3.28,6.65
			c-0.19,1.54,2.66,8.31,2.66,8.31s-3.11,3.95-3.28,5.13C1166.67,456.12,1170.26,456.25,1173.42,459.68z"/>
		<path class="st5" d="M1027.5,442.22c0,0,0.91-6.16,5.48-7.99c0,0-5.07,14.77-5.85,16.17S1026.36,445.65,1027.5,442.22z"/>
	</g>
</g>
<g id="s_cape">
	<g>
		<path class="st12" d="M1024.54,411.78c-2.44,7-11.57,30.74-20.7,83.1s5.48,119.93,14,127.24c8.52,7.31,38.35-46.88,102.28-13.09
			c0,0-43.85-62.88-68.49-80.06c-30.14-21-27.7-71.84-24.05-98.93C1031.24,402.96,1024.54,411.78,1024.54,411.78"/>
		<path class="st24" d="M1003.84,494.89c-9.13,52.36,5.48,119.93,14,127.24c8.52,7.31,38.35-46.88,102.28-13.09
			c0,0-23.19-32.32-37.57-49.04c0,0-18.52,27.27-23.27,26.28c-2.82-0.59-25.86,1.4-39.56-15.03S1003.84,494.89,1003.84,494.89z"/>
		<path class="st24" d="M1018.93,556.6c0,0,0.76,5.9,7.52,15.82c8.17,11.99,32.84,17.01,32.84,17.01l9.89-6.53
			c0,0-13.58-1.12-25.19-6.92S1019.37,560.28,1018.93,556.6z"/>
	</g>
	<g>
		<path class="st12" d="M1063.5,400.45c-4.59-1.06-30.59-3.2-37.9,9.59c-7.31,12.78-1.37,36.45-1.37,36.45s1.36-19.51,11.19-25.72
			c5.69-3.6,39.23,8.16,44.06,8.9c8.9,1.37-2.28-11.41-2.28-11.41S1069.44,401.82,1063.5,400.45z"/>
		<path class="st24" d="M1084.73,402.2c-3.16,0.81-11.99,30.76-3.28,25.42c2.29-1.41,14.9-5.25,29.3-3.88
			c9.59,0.91,17.14,6.32,17.81,5.25C1130.85,425.33,1098.18,398.73,1084.73,402.2z"/>
		<circle class="st2" cx="1081.08" cy="423.43" r="1.6"/>
	</g>
</g>
<g id="k_right_arm">
	<path class="st33" d="M828.04,546.24c0,0,1.08-20.03-9.44-21.19c-10.52-1.16-32.94,22.06-38.01,24.53
		c-5.07,2.48-9.07,10.46-11.66,12.93c-2.59,2.47-9.55,4.36-13.41,7.46c-3.87,3.11-17.42,12.46-7.7,22.9
		c9.74,10.46,13.42,13.53,26.84,7.83C788.04,595.01,831.54,556.58,828.04,546.24z"/>
</g>
<g id="K_body">
	<g>
		<g>
			<path class="st34" d="M807.21,655.96c0,0-35.51-11.62-76.23-16.77c-18.36-2.32-19.29,25.29-7.15,46.58
				c6.67,11.71,42.24,20.14,75.14,36.38c27.2,13.42,52.01,36.21,63.3,35.74C887.18,756.84,871.35,669.69,807.21,655.96z"/>
			<path class="st2" d="M774.62,668.24c-5.42-0.47,4.36,10.09,6.91,14.72c7.42,13.47,13.49,28.85,20.02,38.61
				c5.77,8.62,1.72-2.93-2.97-17.6c-2.13-6.66-3.73-13.04-5.28-17.4C792.43,684.11,774.62,668.24,774.62,668.24z"/>
		</g>
		<g>
			<path class="st35" d="M775.76,829.7c0,0-20.83,17.53-28.12,26.99c-7.32,9.49,12.23,19.79,29.58,17.41
				c17.31-2.37,33.72-8.69,39.58-18.11c5.84-9.39,5.88-9.49,15.03-19.57c9.12-10.04-3.43-31.35-8.6-35.83
				C818.05,796.12,778.62,814.51,775.76,829.7z"/>
			<path class="st13" d="M776.3,825.13c0,0-20.83,17.53-28.12,26.99c-7.32,9.49,13.49,15.83,30.84,13.45
				c17.31-2.37,29.13-5.35,34.99-14.77c5.84-9.39,10.1-10.77,19.25-20.85c9.12-10.04-4.32-29.44-9.49-33.92
				C818.59,791.55,779.16,809.94,776.3,825.13z"/>
		</g>
		<g>
			<path class="st34" d="M764.21,797.1c0,0,6.34,9.72,5.11,13.68c-1.23,3.97-4.98,14.98,9.88,19.97c12.66,4.25,43.33-13.99,53-20.38
				c1.72-1.14,2.86-2.98,3.05-4.93c0.52-5.43,0.81-16.61-4.42-23.23c-7.1-8.97-6.17-6.39-17.4-35.96
				c-11.14-29.36-46.71-90.44-48.94-96.71c-2.23-6.26-31.16-12.22-36.99-11.53c-5.84,0.69-28.47,30.59-27.87,38.83
				c0.6,8.26,13.42,36.84,24.44,61.12c11.08,24.42,24.68,35.74,27.93,42.74C757.09,791.67,764.21,797.1,764.21,797.1z"/>
			<path class="st2" d="M823.49,773.41c-5.23-9.74-2.71,4.87-5.46,15.22C816.45,794.57,828.73,783.15,823.49,773.41z"/>
			<path class="st2" d="M763.8,794.11c0,0,6.28,16.29,9.79,17.5c3.51,1.22,14.02-0.15,21.15-3.8
				C801.87,804.15,776.53,809.94,763.8,794.11z"/>
			<path class="st2" d="M710.7,689.47c0,0,3.82-6.54,6.85-12.53s4.47,14.3-2.08,19.52C708.92,701.69,710.7,689.47,710.7,689.47z"/>
			<path class="st2" d="M789.75,689.24l-20.49-10.06l-25.29-20.23c0,0,5.92,0.12,10.56,3.37c2.1,1.47,13.15,10.62,19.17,15.41
				C780.95,683.52,787.51,686.92,789.75,689.24z"/>
		</g>
	</g>
	<path class="st33" d="M910.96,552.72c0,0-104.93-23.11-84.93-38.35c19.87-15.15,75.31-42.42,95.58-13.09
		C942.02,530.82,923.26,563.22,910.96,552.72z"/>
	<g>
		<path class="st35" d="M951.31,765c0,0,1.64-3.87,6.51-7.24c4.86-3.36,19.93-1.96,22.62,4.01c2.69,5.99,2.66,47.05,2.66,49.83
			c0,2.79-5.41,14.36-10.32,21.16c-4.92,6.82-14.19,8.13-22.36,4.93c-8.17-3.2-2.64-17.29-0.43-24.02
			C952.2,806.97,947.49,772.21,951.31,765z"/>
		<path class="st13" d="M948.12,761.81c0,0,0.29-2.38,5.16-5.75c4.86-3.36,19.93-1.96,22.62,4.01c2.69,5.99,4.01,45.56,4.01,48.34
			c0,2.79-5.41,14.36-10.32,21.16c-4.92,6.82-14.19,8.13-22.36,4.93c-8.17-3.2-2.64-17.29-0.43-24.02
			C949.01,803.77,944.3,769.02,948.12,761.81z"/>
		<path class="st2" d="M922.96,777.26c0,0,18.24-15.59,26.8-15.97c18.28-0.82,14.05,17.56,14.01,30.23
			c-0.03,12.71-9.89,22.07-13.55,24.5s2.72,1.19-7.91,15.68c-10.69,14.56-29.67,32.01-42.31,33.79
			c-9.63,1.36-41.93-15.61-24.66-50.23C880.74,804.45,913.26,786.41,922.96,777.26z"/>
		<path class="st2" d="M863.93,700.2c0,0-3.38,83.02-1.99,114.39c1.4,31.65-0.04,46.56,7.62,54.39c7.67,7.85,21.59,9.31,31.35,6.09
			c9.74-3.22,6.24-7.28,14-9.44c7.75-2.15,13.31-25.68,15.29-33.63c1.98-7.93,7.27-85,9.33-112.86
			c2.05-27.63-3.51-41.75-26.12-41.47C890.76,677.97,868,683.98,863.93,700.2z"/>
		<path class="st36" d="M861.87,713.62c0,0-1.14,77.18-0.05,106.01c1.11,29.09-0.03,42.78,6,49.99c6.04,7.21,17.02,8.56,24.71,5.59
			c7.68-2.96,26.76-31.94,28.32-39.24c1.56-7.29,7.12-56.97,2.12-104.04c-2.69-25.3-2.77-38.37-20.59-38.11
			C884.53,694.07,865.08,698.71,861.87,713.62z"/>
		<path class="st2" d="M801.07,673.57c5.54,7.23,11.56,12.49,18.87,18.26c1.71,1.35,59.66,25.57,59.66,25.57s-32.52-12.36-28-9.13
			c19.31,13.79,24.35,23.13,46.88,28.61c5.26,1.28,16.2-9.05,19.33-5.63c10.05,10.96,6.48,31.71,7.31,21.46
			c2.96-36.59,15.71-53.28-11.87-67.58C884.2,670.07,785.61,653.37,801.07,673.57z"/>
	</g>
	<g>
		<path class="st15" d="M813.55,655.26c0.85-7.58-0.98-36.9-0.69-74.03c0.29-36.73,0.03-51.31,21.31-59.89
			c21.18-8.54,47.72-11.07,67.84,2.07c9.33,6.09,13.42,139.46,15.2,151.38c1.78,11.96-19.24,31.57-38.24,32.79
			C859.94,708.81,811.12,677.06,813.55,655.26z"/>
		<path class="st16" d="M860.74,663.83c0,0-3.02,5.64-1.77,11.06c-11.09-4.82-22-10.27-25.02-14.1c0,0,9.74,16.44,24.35,21.92
			c14.61,5.48,28,3.04,28,3.04S865.44,671.4,860.74,663.83z"/>
		<g>
			<path class="st0" d="M800.9,666.74L800.9,666.74c0,0.39,0.14,0.76,0.41,1.04c2.18,2.28,8.78,12.14,18.93,15.58
				c2.72,0.92,7.4-1.07,7.42-2.23l0.05-2.37c0.01-0.57-5.67-0.02-6.17-0.28c-3-1.58-15.67-11.51-20.95-17.75
				C799.68,659.65,800.91,665.3,800.9,666.74z"/>
			<path class="st37" d="M842.92,517.38c2.57-1.43-31.33,14.98-16.11,82.86c4.05,18.05,0.03,49.56,1.35,55.67
				c1.33,6.11,5.42,19.75-0.6,22.84c-11.15,5.72-21.71-11.86-25.6-15.8c-6.04-6.1,6.38-8.96,5.87-31.45
				c-0.54-23.77-8.51-56.94-6.95-70.44c3.57-30.81,13.73-33.19,17.72-36.01C822.95,521.98,839.81,519.12,842.92,517.38z"/>
			<path class="st0" d="M842.92,517.38c0.97-3.6-19.68,7.15-22.51,9.71c-2.76,2.5-5.68,5.95-8.33,10.73
				c-8.49,15.28,13.04,54.41,13.04,54.41s-0.07-37.43,0.75-45.97C826.68,537.74,841.05,524.34,842.92,517.38z"/>
		</g>
	</g>
	<g>
		<path class="st38" d="M843.61,514.43c0,0-1.03,2.37-0.92,5.27c0.41,11.66,2.85,43.89,7.2,44.29c4.42,0.4,6.46-0.66,12-18.73
			c1.18-3.85,12.92-32.84,9.23-35.34"/>
		<ellipse class="st12" cx="850.7" cy="568.59" rx="2.34" ry="5.36"/>
	</g>
	<path class="st28" d="M842.81,503.53l0.68,18.2c0.28,7.57,7.23,13.16,15.2,12.22l1.08-0.13c7.65-0.9,13.25-7.5,12.52-14.72
		l-1.83-18.04c-0.86-8.51-10.03-13.72-18.54-10.56l0,0C846.28,492.6,842.6,497.86,842.81,503.53z"/>
	<g>
		<path class="st0" d="M881.41,687.78l0.07,1.52c0.04,0.87,0.37,1.68,0.93,2.28c4.01,4.32,21.1,22.25,32.39,26.49
			c8.69,3.26,20.35,3.87,27,3.92c3.16,0.02,6.06-2.03,7.4-5.24l0,0c0.88-2.1-0.23-4.53-2.25-4.94
			c-10.12-2.07-37.54-9.04-60.43-27.19C884.35,682.89,881.27,684.79,881.41,687.78z"/>
		<path class="st37" d="M874.49,511.52c-3.12,2.42-16.51,26.65-5.3,60.08c11.3,33.73,0.96,94.33,8.29,109.37
			c2.09,4.28,32.04,31.52,43.41,32c7.49,0.31,18.28,1.52,25.77,2.5c3.52,0.46,8.94-6.37,9.06-9.95c0.37-11.32,0-35.26-7.62-59.27
			c-10.4-32.79-11.2-126.73-37.58-139.18C890.38,497.56,877.61,509.1,874.49,511.52z"/>
		<path class="st0" d="M909.91,652.29c0,0,21.19,12.91,26.81,14.73l-3.18,7.58c0,0-23.73-12.91-27.44-17.88L909.91,652.29z"/>
		<path class="st0" d="M873.9,509.72c6.24-5.43,26.54-8.21,32.62-4.34c3.44,2.18-12.82-4.69-21.07,13.91
			c-10.22,23.02-13.9,59.65-13.9,59.65s-5.55-3.02-7.53-32.31C862.7,527.08,867.65,515.16,873.9,509.72z"/>
	</g>
	<path class="st37" d="M926.03,639.02c0,0,2.51-7.31,1.37-10.73s-4.11,8.22-7.53,13.01C918.22,643.6,924.97,639.8,926.03,639.02z"/>
	<polygon class="st0" points="807.47,640.69 806.63,644.73 812.03,641.61 813.02,636.81 	"/>
	<path class="st2" d="M869.72,721.51c0,0,9.13,5.33,15.22,10.2s17.66,8.68,17.66,8.68S887.98,742.82,869.72,721.51z"/>
</g>
<g id="k_right_forearm">
	<g>
		<path class="st5" d="M799.55,593.82c4.7,13.94-10.59,30.7-24.98,30.84c-8.62,0.09-15.1-3.88-20.87-11.82
			c-2.18-3-0.85-6.48-2.43-9.76c-1.22-2.54-5.49-4.87-6.3-7.31c-4.6-13.93,3.36-23.99,17.61-25.38c10.27-1,12.39,5.81,18.03,8.36
			c2.03,0.92,8.15,1.1,10.05,2.28C797.52,585.34,797.25,587.01,799.55,593.82z"/>
		<path class="st0" d="M796.74,602.75c0.71,7.23-3.85,14.43-10.21,16.08c-6.37,1.64-12.09-2.92-12.78-10.17
			c-0.69-7.24,2.42-17.78,8.76-19.4C788.84,587.63,796.03,595.53,796.74,602.75z"/>
		<path class="st28" d="M793.47,603.48c0.52,5.44-2.8,10.87-7.42,12.1c-4.62,1.24-8.78-2.2-9.28-7.66
			c-0.5-5.45,2.69-16.24,9.69-14.41C791.07,594.71,792.95,598.05,793.47,603.48z"/>
		<path class="st25" d="M784.71,594.73c-2.59,2.04-4.67,6.28-5.4,12.78s13.37,13.53,13.37,13.53s8.79,3.25,14.65-10.84
			c2.33-5.61-9.69-16-9.6-19.58C798.06,577.63,788.96,591.38,784.71,594.73z"/>
		<path class="st28" d="M795.9,592.9c0,0-4.57,0.53-3.65,3.96c0.91,3.42,8.1,9.51,15.64,7.69S795.9,592.9,795.9,592.9z"/>
		<path class="st37" d="M751.61,598.38c-0.61-3.96-0.2-7.75-0.3-8.52c-0.3-2.28-3.65,8.83-3.65,8.83
			C751.76,604.62,751.92,600.43,751.61,598.38z"/>
		<path class="st37" d="M778.55,579.2c0,0-8.68-7.76-11.41,4.57C767.13,583.77,772.16,580.57,778.55,579.2z"/>
	</g>
</g>
<g id="k_leftarm">
	<g>
		<path class="st33" d="M910.61,591.86c-6.23-10.08-12.57-22.89-19.1-32.92c-6.52-10-2.77-41.77,11.42-47.24
			c14.15-5.45,16.79,1.28,29.85,20.18c13.11,18.98,33.33,68.77,27.08,85.93C956.53,626.94,927.22,631.59,910.61,591.86z"/>
		<g>
			<path class="st5" d="M955.82,601.2c-6.97-10.03-15.86-16.97-34.04-13.32c-9.06,1.82-10.21,10.43-10.21,10.43
				s-10.33-0.94-15.04,3.26c-4.72,4.21-20.71,0-20.2,21c0.51,21,5.66,30.65,19.7,33.33c14.03,2.68,35.95-15.66,35.95-15.66
				s7.73,1.5,18-8.26C960.34,622.14,966.89,617.13,955.82,601.2z"/>
			<path class="st37" d="M913.91,595.48c0,0,8.27-7.28,16.4-0.1C931.2,596.17,920.28,593.98,913.91,595.48z"/>
			<path class="st37" d="M876.8,631.45c-1.07,18.99,21.68,17.1,21.68,17.1s-4.36,2.01-1.65,2.75c3.2,0.87,8.8,1.82,12.22-0.57
				c12.22-8.55,19.03-29.54,4.08-38.14c-2.74-1.57-3.55,10.29-3.95,6.87c-0.43-3.63-4.29-9.25-11.12-12.82
				C894.25,604.64,878.12,607.91,876.8,631.45z"/>
			<path class="st37" d="M934.79,607.51c0,0-3.92-4.11-8.97-5.94c-5.05-1.83-13.89-3.88-13.89-3.88
				C913.32,597.27,935.34,595.91,934.79,607.51z"/>
			<path class="st0" d="M887.03,608.23c-3.45,0.21-14.41,1.31-15.25,20.74c-0.67,15.68,13.3,19.33,13.3,19.33s10.17,0.88,14.8-3.06
				c6.24-5.31,6.75-17.94,2.88-28.75C900.77,610.95,890.48,608.02,887.03,608.23z"/>
			<path class="st28" d="M880.09,611.84c-3.44,0.15-13.44-1.72-13.96,16.72c-0.42,14.87,13.56,18.53,13.56,18.53
				s10.14,0.97,14.69-2.71c6.13-4.96,6.43-16.94,2.4-27.25C894.71,611.83,883.53,611.69,880.09,611.84z"/>
		</g>
	</g>
</g>
<g id="k_gun_hand">
	<g>
		<path class="st6" d="M811.81,545.74c0,0,3.97-5.39,15.3-5.04c15.83,0.49,32.83,5.24,37.89,12.39c3.75,5.29,3.96,10.66,3.96,10.66
			s5.03,0.49,7.52,4.17c1.57,2.32,0.87,31.49,0.87,31.49c-0.27,5.15-2.84,8.69-8.08,8.62l-4.44-0.06l-54.1-7.07
			C810.75,600.9,806.64,552.06,811.81,545.74z"/>
		<path class="st39" d="M793.16,586.51c0.61,14,12.62,16.45,16.08,17.03c9.35,1.56,59.7,5.96,59.7,5.96s8.78-3.36,3.77-3.71
			c-1.2-0.08-26.05-5.63-34.19-7.11c-13.87-2.52-18.57-11.57-18.57-11.57S792.88,580.12,793.16,586.51z"/>
		<path class="st6" d="M867.12,651.46l4.14-41.13c-0.24-2.12-1.91-3.01-8.49-4.16c0,0-3.18-0.29-5.67-0.54
			c-1.21-0.12-4.13,0.47-4.25,4.11l-2.07,46.58c-0.18,1.7,5.93,0.51,5.93,0.51C865.74,655.71,866.93,655.3,867.12,651.46z"/>
		<path class="st6" d="M819.68,593.13c-8.71,3.88-14.38,5.04-22.37,1.18c-5.94-2.53-7.58-15.48-7.43-19.54l0.11-13.96
			c0.32-9.1,8.08-16.47,17.33-16.47h0c13.31-0.01,20.26,10.36,19.9,23.48l-0.47,7.86C826.64,579.73,823.68,591.35,819.68,593.13z"/>
		<path class="st39" d="M854.88,656.02l1.14-47.72c0.2-3.91,0.45-4.56-5.8-5.08l-5.64-0.04c-4.65,0.25-6.95,2.61-7.09,6.45
			l1.94,38.14c-0.09,6.79-0.97,8.68,3.82,9.06C851.23,657.46,854.79,658.35,854.88,656.02z"/>
		<g>
			<path class="st39" d="M834.41,609.4c0.58,5.92,1.82,12.33,10.05,14.37c0.35,0.09,6.81-0.32,6.81-0.32l-2.71-15.69
				c0.05-3.09-1.6-4.73-3.56-4.95l-6.95-0.48C835.5,602.04,834.03,605.47,834.41,609.4z"/>
			<path class="st6" d="M841.32,609.52c0.49,5.63,1.91,11.96,9.02,13.91c0.3,0.08,0.62,0.08,0.93,0.02l0,0
				c4.23,0.35,10.99-2.31,11.04-5.26l0.68-12.01c-0.2-0.5-17.99-2.83-17.99-2.83C842.8,603.08,840.99,605.79,841.32,609.52z"/>
		</g>
		<path class="st33" d="M816.5,566.22c-0.47,4.9-4.92,8.62-9.94,8.31c-5.02-0.31-8.7-4.54-8.22-9.45c0.48-4.9,4.94-8.6,9.95-8.29
			C813.29,557.11,816.97,561.33,816.5,566.22z"/>
		<path class="st15" d="M813.75,563.63c-0.65,6.81-6.83,11.99-13.81,11.56c-6.99-0.43-12.1-6.32-11.43-13.14
			c0.67-6.8,6.86-11.95,13.82-11.51C809.29,550.98,814.4,556.84,813.75,563.63z"/>
		<path class="st33" d="M808.44,562.62c-0.41,4.29-4.31,7.54-8.7,7.27c-4.39-0.27-7.62-3.98-7.19-8.27c0.42-4.28,4.32-7.53,8.7-7.25
			C805.63,554.65,808.85,558.34,808.44,562.62z"/>
		<g>
			<path class="st40" d="M828.89,545.78c6.38,4.41,7.97,10.93,6.31,22.41c-0.14,0.94,0.62,1.78,1.74,1.95l23.34,3.85
				c1.41,0.22,5.02,1.23,5.17,0.03c0.62-4.85,1.42-18.7-8.72-23.87c-4.79-2.44-16.36-5.78-25.8-7.54
				C828.61,542.18,827.1,544.54,828.89,545.78z"/>
			<path class="st41" d="M831.07,541.71c0,0,16.89,6.88,9.88,30.21"/>
			<path class="st41" d="M843.17,544.37c0,0,13.99,9.23,7.26,28.65"/>
			<path class="st41" d="M852.34,547.07c0,0,12.51,9.16,7.18,26.96"/>
		</g>
		<line class="st42" x1="834.64" y1="575.24" x2="865.3" y2="580.57"/>
	</g>
	<g>
		<path class="st25" d="M892.37,618.39c0,0-2.46-9.7-3.86-12.36c-0.69-1.31-0.53-3.92-2.12-7.76c-1.72-4.16-0.88-7.52-2.72-10.82
			c-1.56-2.8-8.77,2.3-8.48,7.57c0.16,2.98,0.52,8.8,1.32,11.71c0.9,3.3-11.43,0.69-11.43,0.69c-1.31-0.46-9.78,0.14-11.16,0.29
			l-8.74,0.12c-3.63,1.17-4.24,3.81-4.12,7.62c0.06,2.04,9.86,0.89,14.01,1.56c3.02,0.48,9.75-0.65,9.85-0.21
			c0,0-23.1,5.78-24.37,8.75c-2.5,5.89-1.78,13.6-0.86,14.75c2.73,3.41,2.94,3.67,2.94,3.67s-0.16,4.39,3.04,6.54
			c4.83,3.25,20.21,5.95,20.21,5.95s18.14-6.12,21.17-8.99c3.03-2.86,6.81-5.2,7.2-14.33C894.62,624.04,892.37,618.39,892.37,618.39
			z"/>
		<path class="st28" d="M840.53,625.54c-2.45,5.91-1.78,13.6-0.86,14.75c2.73,3.41,2.94,3.67,2.94,3.67s-0.16,4.39,3.04,6.54
			c4.83,3.25,20.21,5.95,20.21,5.95l-5.52-10.49c0,0-4.9-23.97-6.34-24.79S841.43,623.38,840.53,625.54z"/>
	</g>
</g>
<g id="bang">
	<path class="st15" d="M799.24,534.32l-0.64-31.99l-14.78,13.35l-16.88-24.66l-1.74,29.15l-24.42,0.29l18.94,12.81l-9.04,11.02
		l24.3,1.11c2.16,0.09-11.6-5.8-11.6-5.8l1.58-5.8l-5.27-8.97l11.08-0.53l2.11-11.6l10.16,9.88l10.41-6.71
		C793.44,515.86,799.25,534.55,799.24,534.32z"/>
</g>
<g id="k_right_hand">
	<path class="st25" d="M783.53,612.46l11.17,10.31c0.19,0.17,0.42,0.28,0.68,0.31c2.44,0.27,17.58,0.06,22.55-0.73
		c2.17-0.34,7.44-5.73,13.07-11.24c1.76-1.73,3.02-2.74,4.81-4.91c0.99-1.2,1.24-2.77-0.11-3.54c0,0-2.21-1.23-3.43-0.32
		c-0.53,0.4-0.57,0.25-0.44-0.05c0.27-0.63,0-1.36-0.64-1.62c-1.24-0.5-3.14-0.94-5.01,0c-2.74,1.37-2.44,0.99-2.44,0.99
		c0-1.29-1.45-2.82-3.35-2.89c-2.54-0.1-4.56,1.38-4.95,1.69c-0.05,0.04-3.49,0.81-6.54,2.26c-3.62,1.72-8.98-0.53-11.8-1.6
		c-5.19-1.96-13.23-2.17-13.98,10.39C783.12,611.86,783.27,612.22,783.53,612.46z"/>
</g>
<g id="k_head">
	<g>
		<g>
			<path class="st33" d="M891.37,460.48c-5,28.38-14.46,33.64-14.46,33.64c-41.24,15.16-75.6-1.94-79.09-26.73
				c-4.51-24.88-7.53-37.93,34.4-46.04C873.88,413.3,895.77,435.56,891.37,460.48z"/>
			<path class="st18" d="M886.71,454.98c-4.26,24.05-40.03,17.11-40.03,17.11c-7.23-1.89-32.13-6.91-36.82-20.26
				c-4-11.38-9.24-24.19,26.33-31.07C868.58,414.5,890.46,433.84,886.71,454.98z"/>
			<path class="st33" d="M881.98,468.09c0,0,2.96-7.77,0.21-16.19C882.19,451.9,893.06,454.41,881.98,468.09z"/>
		</g>
		<g>
			<path class="st28" d="M819.94,431.34c0,0-24.61,6.54-27.36,11.32c-2.75,4.79,9.54,57.98,19.64,69.47
				c10.12,11.52,54.97-7.48,63.03-20.09c6.6-10.31,3.38-13.83,1.75-27.36c-1.69-14.1-14.11-19.99-16.56-24.84
				C856.29,431.57,819.94,431.34,819.94,431.34z"/>
		</g>
		<path class="st25" d="M871.96,471.86c1.81,9.23-7.25,30.31-25.89,36c-18.71,5.72-33.84,4.26-41.57-15.57
			c-7.93-20.35,12.23-48.12,30.78-53.66C853.76,433.12,865.64,451.1,871.96,471.86z"/>
		<g>
			<path class="st43" d="M817.97,469.69c0.74,3.24-0.54,5.05-2.23,5.45c-1.7,0.4-3.17-0.75-3.9-4c-0.74-3.24,0.04-6.2,1.74-6.6
				C815.26,464.15,817.23,466.45,817.97,469.69z"/>
			<line class="st44" x1="841.92" y1="446.01" x2="837.18" y2="450.82"/>
			<line class="st44" x1="816.52" y1="460.64" x2="809.86" y2="461.07"/>
			<path class="st43" d="M839.03,458.19c0.79-2.52,5.05-7.41,10.43-5.91c0,0-7.21,6.89-9.68,9.2
				C839.4,461.83,838.88,458.67,839.03,458.19z"/>
		</g>
		<path class="st25" d="M880.84,456.88c0.17,8.21-3.67,15.41-8.58,16.05c-4.91,0.64-9.02-5.52-9.17-13.74
			c-0.15-8.21,3.7-15.35,8.59-15.98C876.57,442.57,880.67,448.69,880.84,456.88z"/>
		<g>
			<g>
				<path class="st33" d="M844.92,420.98c0,0-39.46,42.75-52.94,47.99c-13.52,5.26-6.74-31.43,13.08-44.44
					C824.77,411.61,844.92,420.98,844.92,420.98z"/>
			</g>
			<path class="st18" d="M847.48,420.21c0,0,0.48,2.99-7.62,8.38c-14.02,9.33-40.99,23.71-47.82,26.36
				c-10.82,4.2-2.47-19.7,12.99-30.7C821.5,412.54,847.48,420.21,847.48,420.21z"/>
			<path class="st33" d="M820.47,432.23c0,0-10.95,16.42-22.38,21.66C798.08,453.9,825.17,442.01,820.47,432.23z"/>
		</g>
		<path class="st18" d="M854.96,431.86c0,0,2.82,20.18,6.87,25.33l7.98,7.17l-5.4-28.6L854.96,431.86z"/>
	</g>
</g>
</svg>
