<?xml version="1.0" encoding="utf-8"?>
<!-- Generator: Adobe Illustrator 23.1.0, SVG Export Plug-In . SVG Version: 6.00 Build 0)  -->
<svg version="1.1" xmlns="http://www.w3.org/2000/svg" xmlns:xlink="http://www.w3.org/1999/xlink" x="0px" y="0px"
	 viewBox="0 0 960 1080" style="enable-background:new 0 0 960 1080;" xml:space="preserve">
<style type="text/css">
	.st0{fill:#F3E7D9;}
	.st1{fill:#FFFFFF;}
	.st2{fill:#7A462F;}
	.st3{fill:#CC6D3D;}
	.st4{fill:#B44C29;}
	.st5{fill:#A96443;}
	.st6{fill:#BB83C3;}
	.st7{fill:#1D2538;}
	.st8{fill:#273252;}
	.st9{fill:#EE5D4F;}
	.st10{fill:#121721;}
	.st11{fill:#F7BC4B;}
	.st12{fill:#FEED7F;}
	.st13{fill:#F5894E;}
	.st14{fill:#856792;}
	.st15{fill:#665070;}
	.st16{fill:#34283A;}
	.st17{fill:none;stroke:#665070;stroke-width:4;stroke-linecap:round;stroke-linejoin:round;stroke-miterlimit:10;}
	.st18{fill:#3E4C6F;}
	.st19{fill:none;stroke:#34283A;stroke-linecap:round;stroke-linejoin:round;stroke-miterlimit:10;}
	.st20{fill:#CE9436;}
	.st21{fill:#29ABE2;}
	.st22{fill:#1689CB;}
	.st23{fill:none;stroke:#29ABE2;stroke-width:2;stroke-linecap:round;stroke-linejoin:round;stroke-miterlimit:10;}
	.st24{fill:#4B3355;}
	.st25{fill:none;stroke:#BB83C3;stroke-width:0.5;stroke-linecap:round;stroke-linejoin:round;stroke-miterlimit:10;}
	.st26{fill:none;stroke:#1D2538;stroke-linecap:round;stroke-linejoin:round;stroke-miterlimit:10;}
	.st27{fill:#992C29;}
	.st28{fill:#C94039;}
	.st29{fill:none;stroke:#1D2538;stroke-width:0.25;stroke-linecap:round;stroke-linejoin:round;stroke-miterlimit:10;}
	.st30{fill:#D77D5B;}
	.st31{opacity:0.4;fill:#FEED7F;}
</style>
<g id="bg">
	<polygon class="st0" points="234.05,675.81 233.86,508.27 264.8,506.01 294.95,686.84 	"/>
	<path class="st0" d="M621.23,112.38c-12.74,16.44-35.73,19.95-51.35,7.85s-17.96-35.24-5.22-51.68c0,0-3.05,24.85,13.46,37.64
		C594.63,118.99,621.23,112.38,621.23,112.38z"/>
	<path class="st0" d="M555.55,394.01c0,0,53.58,21.97,69.63,9.49c28.48-22.15-77.54-83.87-77.54-83.87
		c19.55,12.72,64.48,8.31,43.12-10.68s-58.45-41.92-66.46-52.22c0,0,49.85,26.11,45.1,14.24s-65.52-67.15-65.52-67.15
		s49.5,26.3,38.22,12.55C504.12,170.1,442.06,85.01,440.66,83.02c-0.01-0.02-0.03-0.02-0.04,0c-1.01,1.83-52.17,69.24-70.16,92.55
		c-24.18,31.32-52.67,65.74-41.99,63.37c10.68-2.37,38.25-19.72,42.97-21.42c-35.85,58.21-56.02,61.77-72.64,86.69
		c-10.47,15.71,42.36,6.7,42.36,6.7s-13.27,18.26-45.92,51.45c-32.65,33.19,57.71,11.78,57.71,11.78s-94.89,56.26-80.65,89.49
		c13.81,32.22,68.33-14.12,68.33-14.12c-69.57,50.01-33.52,94.94-3.85,90.87c27.96-3.84,80.19-39.57,87.82-43.91l-7.11,140.57
		l72.43-3.26l-10.11-123.47c9.06,6.65,18.57,11.38,27.49,11.67c31.61,1.03,27.57-37.57,27.57-37.57c18.62,9.67,71.8,9.38,71.2-16.83
		C605.49,441.39,555.55,394.01,555.55,394.01z"/>
	<path class="st1" d="M252.8,212.06c0,0-55.56,102.67-84.83,133.02c-29.27,30.35,14.09,11.92,27.1-3.25
		c0,0-70.46,106.23-97.56,124.66c-27.1,18.43,8.77,35.03,48.88,10.1c0,0-52.13,80.96-84.65,104.81
		c-32.52,23.85-22.76,43.36,50.95,1.08c0,0-16.26,16.26,18.43,17.34s46.61-23.85,46.61-23.85s-40.11,55.28-11.92,59.62
		c28.18,4.34,60.7-48.78,60.7-48.78s-15.21,37.75-1.11,39.92s43.39-36.67,43.39-36.67s31.44,37.75,50.95,36.67
		c19.51-1.08-6.51-63.77-6.51-63.77s18.43,23.85,44.44,27.1c26.02,3.25,5.42-33.6,5.42-33.6s43.36,29.27,76.96,18.43
		c33.6-10.84-30.8-53.9-59.47-78.27c-23.4-19.89-37.44-39.78-37.44-39.78l43.29,13.65c21.68,4.34-36.35-68.66-50.44-93.6
		c0,0,31.64,4.39,20.8-14.04C345.96,344.42,267.98,246.2,252.8,212.06z"/>
	<path class="st0" d="M242.64,209.57c0,0-60.8,105.18-90.38,135.85s14.24,12.05,27.39-3.29c0,0-71.21,107.37-98.6,125.99
		s8.87,35.4,49.4,10.2c0,0-52.69,81.82-85.56,105.93s-23.01,43.82,51.49,1.1c0,0-16.43,16.43,18.62,17.53s47.11-24.1,47.11-24.1
		s-40.54,55.87-12.05,60.26c28.48,4.38,61.35-49.3,61.35-49.3s-15.37,38.16-1.13,40.35c14.24,2.19,43.85-37.06,43.85-37.06
		s31.78,38.16,51.5,37.06c19.72-1.1-6.58-64.45-6.58-64.45s18.62,24.1,44.92,27.39c26.29,3.29,5.48-33.96,5.48-33.96
		s43.82,29.58,77.79,18.62s-33.96-54.78-59.16-83.26c-25.2-28.48-52.59-66.83-52.59-66.83s36.15,28.48,58.07,32.87
		c21.91,4.38-33.96-60.26-48.21-85.45c0,0,31.77,7.67,20.82-10.96C335.21,345.42,257.98,244.08,242.64,209.57z"/>
	<path class="st1" d="M677.65,168.91c0,0-52.08,84.24-92.83,123.43c-29.35,28.22,20.52,36.05,46.27-0.6c0,0-47.81,52.87-66.63,67.73
		c-18.82,14.86,39.07-9.92,39.07-9.92s-30.4,51.57-51.95,79.28c-21.55,27.71,35.02,20.78,35.02,20.78s-33.87,47.72-58.49,80.05
		c-24.63,32.33,46.59,38.3,72.35,4.62c0,0-46.65,54.2-16.93,63.11s98.52-46.18,98.52-46.18s41.06,38.43,69.27,41.56
		c15.52,1.72,20.05-34.23,20.05-34.23c7.84,9.4,57.04,26.06,67.74,18.48c23.77-16.84-7.92-35.66-7.92-35.66s73.95,20.12,57.45-2.97
		c-9.91-13.87-41.4-56.61-84.98-118.03c0,0,58.49,21.55,27.71-7.7c-20.71-19.68-62.04-65.05-89.77-109.62
		c0,0,61.57,34.52,51.73,21.94C765.1,288.93,702.42,214.48,677.65,168.91z"/>
	<polygon class="st0" points="747.78,668.56 726.88,504.25 686.56,504.25 665.53,668.56 	"/>
	<path class="st0" d="M693.45,154.52c0,0-59.95,97.6-101.85,137.88c-30.17,29.01,27.52,26.06,53.99-11.61
		c0,0-49.15,54.35-68.49,69.62c-19.35,15.27,40.17-10.2,40.17-10.2s-34.81,56.97-56.97,85.45c-22.15,28.48,39.56,17.41,39.56,17.41
		s-34.81,49.05-60.13,82.29s47.9,39.37,74.37,4.75c0,0-47.95,55.71-17.41,64.88c30.55,9.16,101.27-47.47,101.27-47.47
		s42.21,39.5,71.21,42.73c15.95,1.77,20.61-35.19,20.61-35.19c8.06,9.67,58.64,26.79,69.63,19c24.44-17.31-22.2-50.27-22.2-50.27
		s85,11.08,68.04-12.66c-10.18-14.26-40.65-46.05-85.45-109.19c0,0,60.13,22.15,28.48-7.91c-21.29-20.23-42.7-45.96-71.21-91.78
		c0,0,45.38,25.66,35.26,12.73C783.35,277.9,718.9,201.36,693.45,154.52z"/>
	<path class="st0" d="M208.96,661.04c0,0,25.11,3.08,30.64,14.77c0,0-6.96-13.12-5.89-28.45c0,0,16.15,23.51,14.2,28.85
		c0,0-4.24-11.17-3.09-19.99c0,0,14.2,18.33,5.59,28l-11.6-0.47C238.8,683.75,217.86,669.88,208.96,661.04z"/>
	<path class="st0" d="M745.25,669.39c0,0-2.79-31.05-8.36-37.41c0,0,10.35,4.78,13.53,15.92c0,0-0.8-19.1-2.39-24.68
		c0,0,13.53,23.88,10.35,36.62c0,0,6.37-21.49,4.78-30.25c0,0,7.16,19.9,4.78,30.25c0,0,5.57-17.51,22.29-21.49s22.29,0.8,22.29,0.8
		s-20.7,0.8-27.86,9.55c0,0,25.47,3.98,31.84,10.35c0,0-30.25-3.58-40.6,4.78c-10.35,8.36-25.47,2.39-25.47,2.39L745.25,669.39z"/>
</g>
<g id="ground">
	<path class="st0" d="M248.56,753.22c0,0,102.86,15.82,117.1,26.9l-6.33-23.74c0,0,31.65-1.58,45.89,7.91
		c0,0-30.07-28.48-49.05-37.98l41.14,17.41l6.33-11.08l33.23,6.33l18.99-26.9l60.13,14.24l9.49-6.33l41.14,26.9
		c0,0,12.66-14.24,20.57-26.9l3.16,9.49c0,0,6.33-4.75,12.66-20.57l7.91,11.08c0,0,25.32-18.99,25.32-49.05l-336.26-16.62
		l11.86,21.84l-117.48,1.89L248.56,753.22z"/>
	<path class="st0" d="M330.85,781.7c0,0,31.65,9.49,47.47,14.24l-39.56,22.15l17.41,14.24c0,0-31.65,11.08-71.21,22.15l33.23,7.91
		l-133.32,16.22l84.26,5.93l-144.79,39.16l-74.77-33.23l62.9-40.35l-55.78-10.68c0,0,199.78-59.34,218.77-59.34
		S330.85,781.7,330.85,781.7z"/>
	<path class="st0" d="M628.74,672.12l49.85-17.8l261.49,122.64L911.2,818.1l-148.35,53.41l36.79-28.48l-58.95,14.64l-64.88-1.58
		l9.49-28.48l-61.71-12.66l45.89-25.32l-33.23-6.33l9.49-18.99c0,0-23.74,0-41.14,4.75c-17.41,4.75,18.99-17.41,18.99-17.41
		l-12.66-9.49c0,0,34.81-25.32,50.64-26.9c15.82-1.58-53.8-7.91-58.55-6.33c-4.75,1.58,4.75-1.58,4.75-1.58L628.74,672.12z"/>
</g>
<g id="K_log">
	<g>
		<g>
			<path class="st2" d="M377.44,621.04c0,0,220.93-4.81,244.2-4.01c0,0,19.53,13.64,19.53,35.57s-12.84,34.24-12.84,34.24H381.72
				c0,0-17.86-10.73-19.26-19.26C356.57,631.74,377.44,621.04,377.44,621.04z"/>
			<path class="st3" d="M628.33,686.9l-10.7-12.04l-5.62-25.68c0,0,4.03-27.61,9.57-31.34c5.55-3.72,19.8,18.3,20.17,33.62
				c0.37,15.32,0,22.79,0,22.79L628.33,686.9z"/>
			<path class="st4" d="M629.3,673.87l-6.57-7.39l-3.45-15.77c0,0,2.47-16.96,5.88-19.25c3.41-2.29,12.16,11.24,12.39,20.65
				c0.23,9.41,0,14,0,14L629.3,673.87z"/>
		</g>
		<path class="st5" d="M628.33,686.84L590.2,675.9l7.16-4.31l-14.49,1.35l6.72-6.11l-15.26,0.61l-3.05-3.66l20.86-0.73l-14.38-9.45
			l24.9-10.46l-141.95-0.5c-18.78-0.65-67.58,1.7-85.72,2.63l-5.93-0.13l0.77,0.4c-1.15,0.06-1.77,0.09-1.77,0.09l8.05,3.18l4.4,2.3
			l-11.46,0.5l1.99,3.49l23.92,1.18l37.34,14.76l-50.6,15.82H628.33z"/>
		<polygon class="st5" points="393.96,663.05 382.01,662.05 395.96,666.54 389.98,668.03 412.39,665.04 		"/>
	</g>
</g>
<g id="grass_1_">
	<path class="st6" d="M609.2,695.44c0,0-0.78-21.3,7.8-29.61l-3.29,23.23c0,0,6.02-13.55,17.75-16.65c0,0-12.28,8.24-15.86,23.48
		L609.2,695.44z"/>
</g>
<g id="grass_2_">
	<g>
		<path class="st6" d="M413.08,693.45c0,0-0.93-5.55-4.63-11.11c-3.7-5.55-9.72-5.55-9.72-5.55s6.02,7.4,7.87,9.72
			c0,0-6.02-2.31-9.72,2.78c-3.7,5.09-3.7,5.09-3.7,5.09S408.27,691.83,413.08,693.45z"/>
		<path class="st6" d="M416.61,694.09c0,0-3.47-8.68,3.82-13.54L416.61,694.09z"/>
		<path class="st6" d="M419.73,693.05c0,0-0.69-5.21,5.55-7.64c6.25-2.43,9.37-2.08,9.37-2.08L419.73,693.05z"/>
	</g>
</g>
<g id="K_thighs">
	<path class="st7" d="M458.59,612.82c0,0-2.33,24.07,20.07,21.66c20.71-2.23,32.81,0.64,37.59-5.42c4.66-5.9,4.46-16.25-7.65-24.21
		C496.5,596.89,469.42,604.86,458.59,612.82z"/>
	<path class="st7" d="M458.59,605.49c0,0-30.58,6.37-38.87,9.88c-8.28,3.5-8.6,8.28-5.73,13.38s11.69,17.23,30.58,9.24
		c8.28-3.5,30.26-0.96,36.32-4.14C486.94,630.66,480.89,598.17,458.59,605.49z"/>
	<path class="st8" d="M501.3,608.51c14.3-4.87,49.66-12.26,56.03-9.71c11.15,4.46,14.78,19.85,1.87,23.91
		c-7.78,2.45-10.22,4.1-26.08,7.29c-15.76,3.16-21.4,2.58-27.67,2.21C493.08,631.48,489,612.7,501.3,608.51z"/>
	<path class="st7" d="M501.3,608.51c14.3-4.87,49.66-12.26,56.03-9.71c11.15,4.46,14.78,19.85,1.87,23.91
		c-7.78,2.45-10.22,4.1-26.08,7.29c-15.76,3.16-21.4,2.58-27.67,2.21C493.08,631.48,489,612.7,501.3,608.51z"/>
</g>
<g id="K_left_leg">
	<g>
		<path class="st9" d="M567.79,708.46c0,0,8.31,1.77,9.16,6.98c0.89,5.51-0.15,7.82-2.65,8.61c-2.56,0.81-6.65,2.22-12.14,1.85
			c-10.23-0.68-9.71-0.86-17.97-8.93c-8.01-7.84-1.7-10.7-1-12.04C543.88,703.62,567.79,708.46,567.79,708.46z"/>
		<path class="st10" d="M560.41,703.38c0,0,15.95,6.59,16.69,11.32c0.78,4.99-1.49,7.55-14.94,7.24
			c-10.08-0.23-9.55-2.23-17.55-9.48c-7.81-7.08-2.2-8.05-1.51-9.26C543.79,702.01,560.41,703.38,560.41,703.38z"/>
	</g>
	<path class="st7" d="M538.02,616.28c-0.48-11.88,23.09-16.99,28.65-8.51c5.56,8.48,1.55,33.4,1,46.23s-2.86,35.79-1.96,37.81
		c0.9,2.02,4.25,8.42,4.25,8.42l-1.2,4.89c0,0-12.01,3.44-13,3.39c-0.99-0.04-12.54,0.45-13.77-1.58c-1.23-2.03-3.02-6.39-3.02-6.39
		s0.34-7.89,0.38-8.88C539.4,690.66,538.49,628.16,538.02,616.28z"/>
	<path class="st8" d="M561.07,659.31c0,0,1.28-43.92,6.03-36.69c4.75,7.24,1.33,28.51,0.85,39.46c-0.47,10.95-2.44,30.55-1.67,32.27
		c0.77,1.72,3.63,7.19,3.63,7.19l-1.02,4.17c0,0-10.25,2.93-11.09,2.9c-0.84-0.04-10.7,0.38-11.75-1.35
		c-1.05-1.73-2.58-5.46-2.58-5.46s1.15-24.48,1.18-25.32S561.07,659.31,561.07,659.31z"/>
</g>
<g id="K_right_leg">
	<g>
		<path class="st9" d="M430.97,714.07c0,0-8.31,1.77-9.16,6.98c-0.89,5.51,0.15,7.82,2.65,8.61c2.56,0.81,6.65,2.22,12.14,1.85
			c10.23-0.68,9.71-0.86,17.97-8.93c8.01-7.84,1.7-10.7,1-12.04C454.88,709.23,430.97,714.07,430.97,714.07z"/>
		<path class="st10" d="M438.36,708.99c0,0-15.95,6.59-16.69,11.32c-0.78,4.99,1.49,7.55,14.94,7.24
			c10.08-0.23,9.55-2.23,17.55-9.48c7.81-7.08,2.2-8.05,1.51-9.26C454.98,707.63,438.36,708.99,438.36,708.99z"/>
	</g>
	<g>
		<path class="st7" d="M449.67,661.56c0,0-1.91-24.53-7.65-32.18c-5.73-7.65-21.34-19.43-28.03-9.56s-3.5,16.88-0.32,26.76
			s12.6,48.61,14.19,54.34c1.59,5.73,0.96,3.5,1.91,7.65s10.51,6.37,10.51,6.37s16.88-2.23,18.8-4.46c1.91-2.23-0.32-2.55,0.32-7.33
			s-3.82-10.19-3.82-10.19L449.67,661.56z"/>
		<path class="st8" d="M449.4,662.53l-11.98-10.32c0,0-19.45-10.96-16.9-2.5c1.44,4.77,12.04,41.73,12.04,41.73l15.32,7.84
			l-14.43,3.51c0.77,3.55,8.43,5.46,8.43,5.46s13.54-1.91,15.08-3.82s-0.26-2.18,0.26-6.27s-3.07-8.73-3.07-8.73L449.4,662.53z"/>
	</g>
</g>
<g id="K_left_arm">
	<path class="st3" d="M520.72,578.13c0,0-7.18-14.66-7.47-21.92c-0.29-7.25-0.11-14.48,7.43-12.73c7.54,1.74,10.08,4.46,11.53,12.59
		c1.45,8.12,2.9,12.19,5.51,17.99c2.61,5.8,13.87,26.34,3.17,29.22C528.99,606.49,520.72,578.13,520.72,578.13z"/>
</g>
<g id="K_right_arm">
	<path class="st3" d="M457.32,550.7c-4.14-3.19-9.08-1.44-12.42,1.91c-4.46,4.46-6.69,9.24-8.28,16.57
		c-1.59,7.33-7.1,17.37-8.92,26.12c-1.59,7.65-3.82,14.97,4.78,16.57c8.6,1.59,13.06-10.51,14.65-15.29
		c1.59-4.78,6.05-15.61,8.92-21.98C458.62,568.86,461.46,553.89,457.32,550.7z"/>
</g>
<g id="K_torso">
	<path class="st11" d="M518.48,542.74c0,0-14.97-6.69-35.36-4.46c-18.33,2-31.54,10.51-31.54,10.51s2.27,23.72,2.27,27.22
		c0,1.55,8.22,38.48,8.22,38.48s11.17,7.25,12.13,7.89s20.39,2.55,26.76,1.91s16.88-18.48,16.88-18.48s-0.32-36.95,0-39.5
		C518.16,563.76,518.48,542.74,518.48,542.74z"/>
	<g>
		<path class="st12" d="M513.99,562.9c-2.23-1.95-27.39-4.44-27.39-4.44s-23.61,5.06-25.4,8.47c-1.79,3.41,0.91,19.41,0.91,21.64
			c0,0.99,6.69,24.49,6.69,24.49s9.1,4.62,9.87,5.02c0.78,0.41,16.6,1.62,21.79,1.22c5.19-0.41,13.75-11.76,13.75-11.76
			s-0.26-23.53,0-25.15C514.48,580.77,516.23,564.85,513.99,562.9z"/>
		<path class="st11" d="M464.32,601.16c0,0,1.03-20.89,1.81-22.85C466.13,578.31,457.99,588.36,464.32,601.16z"/>
		<path class="st11" d="M500.59,561.57c0,0,7.08,7.43,8.84,9.55c1.77,2.12,5.66,20.17,5.66,20.17s-0.35-15.57-3.18-21.23
			C509.08,564.4,500.59,561.57,500.59,561.57z"/>
		<path class="st11" d="M515.45,597.65l-7.43,12.03c0,0-8.49,4.25-15.21,6.01c-6.72,1.77-16.63,6.01-16.63,6.01s18.62-2.29,23-3.89
			C517.57,611.1,515.45,597.65,515.45,597.65z"/>
	</g>
	<path class="st13" d="M500.32,547.2c0,7.21-5.71,17.2-12.74,17.2s-12.74-5.85-12.74-13.06c0-7.21,5.71-13.06,12.74-13.06
		S500.32,539.98,500.32,547.2z"/>
	<path class="st3" d="M490.84,555.22l-12.82,5.04c0,0-5.73-5.21-5.73-12.42c0-7.21,8.25-9.56,15.29-9.56
		S490.84,555.22,490.84,555.22z"/>
	<path class="st3" d="M476.75,538.28l1.91,13.7c0,0,1.91,3.82,8.92,4.14c7.01,0.32,7.01-12.74,7.01-12.74l-0.64-7.01L476.75,538.28z
		"/>
</g>
<g id="K_drum">
	<g>
		<g>
			<path class="st14" d="M525.45,716.86c-0.12,3.44-10.38,6.71-28.14,6.71c-17.76,0-28.29-4.53-28.17-7.97
				c0.12-3.44,10.46-11.96,28.22-11.96S525.58,713.42,525.45,716.86z"/>
			<polygon class="st14" points="468.92,715.6 464.47,660.93 526.75,658.92 525.45,716.86 			"/>
			
				<ellipse transform="matrix(1 -1.725319e-03 1.725319e-03 1 -1.1377 0.8564)" class="st15" cx="495.79" cy="659.85" rx="31.29" ry="7.69"/>
			
				<ellipse transform="matrix(1 -1.722288e-03 1.722288e-03 1 -1.1347 0.855)" class="st16" cx="495.85" cy="659.26" rx="28.92" ry="6.03"/>
		</g>
		<path class="st17" d="M467.68,700.37c0,0,9.6,4.4,29.11,4.4s28.66-3.9,28.66-3.9"/>
		<path class="st17" d="M467.93,707.65c0,0,9.35,4.4,28.86,4.4s28.66-3.9,28.66-3.9"/>
	</g>
</g>
<g id="K_rightforarm">
	<g>
		<path class="st13" d="M469.15,608.04c2.27,1.14,3.44,3.36,2.3,6.2c-0.84,2.11-0.69,3.66-8.93,3.21
			c-8.4-0.47-29.45-1.74-32.57-4.01c-3.12-2.27-6.05-6.55,0.48-11.38c6.53-4.83,14.19-1.03,18.12-0.18
			C457.02,603.71,466.87,606.91,469.15,608.04z"/>
		<path class="st3" d="M469.15,608.04c2.27,1.14-23.38-3.27-28.86-3.77c-5.48-0.5-10.34,9.16-10.34,9.16
			c-3.12-2.27-6.05-6.55,0.48-11.38c6.53-4.83,14.19-1.03,18.12-0.18C457.02,603.71,466.87,606.91,469.15,608.04z"/>
	</g>
	<g>
		<path class="st3" d="M475.83,607.91c0,0-4.1,4.54-2.55,5.88c1.55,1.34,6.88-3.21,8.45-3.62c1.57-0.4,3.58-2.73,1.78-3.47
			S475.83,607.91,475.83,607.91z"/>
		<path class="st13" d="M465.03,611.5c0,0,0.69,5.95,5.04,5.73c4.35-0.23,4.58-4.12,6.87-7.1c2.29-2.98,7.1-5.04,7.1-5.04
			s5.95,1.37,7.1,0.23c1.15-1.15-0.92-1.6-0.92-1.6s0.23-2.29-1.83-2.52c0,0,1.6-1.6-0.92-2.98s-9.39-2.75-10.76-2.52
			s-5.73,4.79-7.79,6.18C466.87,603.27,464.8,606.92,465.03,611.5z"/>
	</g>
</g>
<g id="K_leftforearm">
	<g>
		<path class="st3" d="M543.08,607.12c2.58-3.69,5.72-10.72,0.55-13.3s-7.91-2.3-15.44,5.23c-6.27,6.27-17.03,18.4-20.72,22.46
			c-3.69,4.06-3.56,12.12,9.04,6.27C526.85,622.98,540.5,610.81,543.08,607.12z"/>
		<path class="st13" d="M540.73,610.16c2.24-3.2-4.07-6.63-4.07-6.63s-4.69-1.04-11.21,5.48c-5.43,5.43-12.37,10.1-15.56,13.61
			c-3.2,3.52-3.08,10.5,7.83,5.43C526.67,623.9,538.5,613.35,540.73,610.16z"/>
	</g>
	<path class="st13" d="M514.75,621.8c0,0,3,3.66-0.66,6.65c-3.66,3-10.02,5.58-10.02,5.58l-5.02,5.88c0,0,0.23,4-0.54,4.53
		c-0.77,0.53-3.06,0.64-3.36-0.83s0.3-4.71,0.3-4.71l1.48-2.94l-3.18,2.47c0,0-1.42,2.18-1.71,3.65s-2.06,0.88-2.94-0.3
		s0.71-4.18,0.71-4.18s-2.53,0.53-3.12-0.65s7.13-13.02,7.42-13.31s6.6-3.88,6.6-3.88s5.97-0.27,8.74-0.03
		C512.22,619.97,514.75,621.8,514.75,621.8z"/>
</g>
<g id="K_head">
	<g>
		<g>
			<path class="st7" d="M466.66,534.93c6.94,11.6,11.8,12.27,11.8,12.27c20.21-0.5,29.15-13.83,26.67-25.86
				c-2.08-12.53-5.3-16.81-19.63-15.41C465.55,507.87,460.48,524.59,466.66,534.93z"/>
			<path class="st18" d="M466.66,534.93c6.94,11.6,11.8,12.27,11.8,12.27c20.21-0.5,29.15-13.83,26.67-25.86
				c-2.08-12.53-5.3-16.81-19.63-15.41C465.55,507.87,460.48,524.59,466.66,534.93z"/>
			<path class="st7" d="M466.25,531.37c5.92,9.9,20.05,0.41,20.05,0.41c2.83-2.18,3.16-9.2,2.98-16.25
				c-0.16-6.09,2.71-12.2-14.26-8.39C459.93,510.52,460.99,522.56,466.25,531.37z"/>
		</g>
		<g>
			<path class="st3" d="M485.59,507.4c0,0,11.38,4.09,13.42,5.79c2.04,1.71,6.08,22.77,3.47,29.75c-2.57,6.88-24.91,6.29-30.43,2.18
				c-4.52-3.37-3.77-5.48-5.41-11.75c-1.73-6.61,2.53-11.57,2.73-14.24C469.72,514.56,485.59,507.4,485.59,507.4z"/>
		</g>
		<g>
			<path class="st13" d="M500.15,524.45c2.02,1.69,4.93,11.52,2.32,18.5c-1.73,4.57-24.89,7.31-25.49,0.3
				c-0.31-3.66-1.53-9.83,2.72-14.94C484.9,522.05,499.05,523.53,500.15,524.45z"/>
		</g>
		<path class="st3" d="M463.69,530.59c1.35,3.68,4.2,6.19,6.38,5.6c2.19-0.59,2.88-4.08,1.53-7.79c-1.35-3.73-4.23-6.25-6.42-5.63
			C462.99,523.39,462.33,526.9,463.69,530.59z"/>
		<path class="st7" d="M470.35,514.78c0,0,2.29,9.74,1.44,12.82l-2.16,4.67l-2.66-13.9L470.35,514.78z"/>
		<g>
			<g>
				<path class="st7" d="M493.97,507.14c0,0-2.57,4.13-13.43,6.38c-5.39,1.12-9.6,3.95-12.33,3.96c-6.69,0.02,1.83-13.85,12.83-16.5
					C492.16,498.29,493.97,507.14,493.97,507.14z"/>
			</g>
			<path class="st18" d="M481.08,500.83c-8.75,2.48-16.45,12.24-11.06,12.22c1.53-0.01,3.95-0.09,6.86-0.35
				c4.86-1.74,9.57-5.25,9.57-5.25c0.13,2.4-2.47,3.88-5.43,4.79c2.59-0.34,5.37-0.82,8.15-1.48c4.57-1.09,5.1-0.96,5.12-2.49
				C494.34,505.14,490.53,498.14,481.08,500.83z"/>
		</g>
	</g>
</g>
<g id="K_face">
	<g>
		<path class="st16" d="M495.06,524.65c0.36,1.6,1.28,2.1,2.08,1.89c0.81-0.21,1.2-1.06,0.84-2.66c-0.36-1.61-1.31-2.74-2.12-2.52
			C495.06,521.57,494.7,523.05,495.06,524.65z"/>
		<path class="st16" d="M481.04,525.64c0.38,1.58,1.29,2.08,2.08,1.87c0.79-0.21,1.16-1.05,0.79-2.64c-0.38-1.59-1.32-2.71-2.12-2.5
			C480.99,522.59,480.66,524.05,481.04,525.64z"/>
		<path class="st19" d="M480.69,519.65c0,0,1.4-1.29,3.09-0.8"/>
		<path class="st19" d="M494.48,518.29c1.7-0.23,3.1,0.67,3.1,0.67"/>
	</g>
</g>
<g id="M_log">
	<g>
		<path class="st2" d="M881.18,717.71l-202.72-36.64c0,0-18.84,8.72-21.98,9.77s-8.37,26.17-8.37,26.17l16.75,33.5l189.46,49.2
			l36.29-13.96l11.51-40.82L881.18,717.71z"/>
		<path class="st3" d="M881.18,717.71c0,0-28.26,2.44-35.24,11.51c-6.98,9.07-9.77,37.68-9.77,37.68l18.14,32.8l36.29-13.96
			c0,0,11.17-25.82,11.51-40.82C902.47,729.93,881.18,717.71,881.18,717.71z"/>
		<path class="st4" d="M876.97,733.76c0,0-0.63,0.06-1.67,0.18l-1.09,16.57l-2.93-15.98c-5.25,0.91-12.61,2.72-15.16,6.04
			c-4.13,5.37-5.78,22.29-5.78,22.29l10.73,19.4l21.46-8.26c0,0,6.6-15.27,6.81-24.15C889.56,740.99,876.97,733.76,876.97,733.76z"
			/>
		<path class="st5" d="M798.11,759.91l0.5-1.11l-8.34-1.29l9.86-2.05l0.28-0.61l-26.89-8.96l28.87,4.6l2.68-5.9l-134.78-18.51
			c0,0,43.56,17.55,41.04,18.4c-2.53,0.84-37.73-2.83-37.73-2.83l12.81,14.72l124.45,32.22l28.65-6.37L798.11,759.91z"/>
		<polygon class="st5" points="652.85,710.03 651.45,715.61 666.81,717.01 669.6,713.52 696.81,716.31 668.2,705.85 		"/>
	</g>
</g>
<g id="M_grass">
	<g>
		<path class="st6" d="M663.33,760.87c0,0,1.71-13.84,13.51-18.18C676.84,742.69,675.46,751.47,663.33,760.87z"/>
		<path class="st6" d="M666.36,745.66c0.2-2.53-1.21-5.79-0.47-10.48c0,0-8.37,9.31-5.73,17.82l0.62,3.25
			C660.77,756.26,666.16,748.19,666.36,745.66z"/>
	</g>
	<g>
		<path class="st16" d="M872.88,809.45c0,0,15.05-22.71,28.68-28.48c0,0-19.83-1.25-25.99,11.38c0,0-3.05-8.3-4.37-21.26
			c0,0-5.91,27.84-2.15,34.51C871.12,809.25,872.88,809.45,872.88,809.45z"/>
		<path class="st16" d="M864.62,803.28c0,0,0.94-7.31-2.87-18.02c-0.99-2.77-7.58-7.43-7.58-7.43L864.62,803.28z"/>
	</g>
	<path class="st6" d="M779.74,798.34c0,0,1.74-13.67,9.76-17.86l-5.33,14.37c0,0,6.49-7.85,16.53-8.31c0,0-8.19,2.71-13.46,9.36
		c-0.85,1.08-1.63,2.26-2.28,3.55L779.74,798.34z"/>
	<path class="st6" d="M808.9,794.2c0,0,9.6-15.87,16.69-18.03l-8.42,11.94c0,0,16.33-7.95,24.79-7.55l-24.55,15.66
		c0,0,4.52-0.78,7.82,0.74c3.29,1.53-18.39,4.11-18.39,4.11l-3.28-12.25L808.9,794.2z"/>
</g>
<g id="M_righr_arm">
	<g>
		<g>
			<g>
				<path class="st2" d="M756.1,581.69c0,0-8.43-4.53-15.53,1.34c-7.1,5.87-18.84,26.17-27.02,37.6
					c-5.19,7.26-11.17,20.37-1.41,24.19c21.4,8.37,28.62-32.54,37.57-40.87C758.66,595.61,763.75,586.37,756.1,581.69z"/>
			</g>
		</g>
		<g>
			<g>
				<path class="st5" d="M740.57,583.03c-7.1,5.87-18.84,26.17-27.02,37.6c-5.19,7.26,3.01,4.41,9.34,2.43
					c6.33-1.98,3.18,0.16,8.84-10.68C736.47,603.29,747.67,577.16,740.57,583.03z"/>
			</g>
		</g>
	</g>
</g>
<g id="M_thigh_x2F_pelvis">
	<path class="st20" d="M740.41,663.64c0,0-22.64,5.11-36.13,8.84s-22.1,7.44-17.91,17.21c4.19,9.77,83.81,10.24,89.4-3.72
		S762.74,659.91,740.41,663.64z"/>
	<path class="st20" d="M816.29,660.32c0,0,7.56,33.09-4.54,38.67c-12.1,5.58-67.46-1.4-66.06-18.14c1.4-16.75,9.3-27.45,36.29-25.59
		S816.29,660.32,816.29,660.32z"/>
	<path class="st11" d="M807.1,684.57c-2.86,1.27-10.07,3.19-16.12,4.88c2.14-1.21,4.28-2.47,6.47-3.48c8.67-4,15.35-9.77,15.35-9.77
		s-15.79-6.53-23.38-1.74c-20.47,12.91-24.08,11.63-18.14,16.17c2.81,2.15,5.48,2.97,8.07,2.97c-2.85,1.76-3.1,3.46,5.42,2.14
		C796.86,693.87,811.28,682.71,807.1,684.57z"/>
</g>
<g id="M_torso">
	<g>
		<path class="st21" d="M744.06,581.05c-2.79,3.37-1.05,11.05-1.05,23.61c0,7.68,0.81,13.49,1.74,27.91
			c1.44,22.37,0.95,30.18,0.95,30.18s10.84,4.99,27.16,6.59c13.66,1.35,44.57-3.16,44.57-3.16s1.39-4.05,0.77-14.24
			c-1.92-31.58-1.18-35.04-1.8-46.7c-0.93-17.42,0.58-25.35-6.05-27.45s-21.28-3.81-29.44-4.05
			C770.93,573.47,748.6,576.72,744.06,581.05z"/>
		<path class="st22" d="M744.06,581.05c-2.79,3.37-1.05,11.05-1.05,23.61c0,7.68,4.4-16.18,18.78-17.6
			c32.18-3.16,40.62,36.4,40.62,36.4s-24.53-9.49-38.77,10.68c-5.56,7.88,3.36,34.63,9.23,35.21c13.66,1.35,44.57-3.16,44.57-3.16
			s1.39-4.05,0.77-14.24c-1.92-31.58-1.18-35.04-1.8-46.7c-0.93-17.42,0.58-25.35-6.05-27.45s-21.28-3.81-29.44-4.05
			C770.93,573.47,748.6,576.72,744.06,581.05z"/>
		<path class="st18" d="M744.99,624.86c0,0,25.12,10.63,61.61,2.44l-1.11-9.57c0,0-20.47,9.55-61.12-1.09L744.99,624.86z"/>
		<path class="st18" d="M744.17,612.58c0,0,28.62,9.42,60.49,0.62l-1.28-9.93c0,0-29.1,7.11-60.08-0.08L744.17,612.58z"/>
		<path class="st2" d="M790.23,574.77c-1.05,6.4-3.22,8.25-4.3,9.77c-2.8,3.9-7.82,7.2-15.66,6.97s-4.43-10.97-4.43-10.97
			s2.56-6.3,8.7-7C783,572.58,790.34,574.13,790.23,574.77z"/>
		<g>
			<path class="st2" d="M774.64,581.01c-5.91-0.19-5.46-2.02-5.46-2.02l-1.66-15.4c-0.24-2.34,1.9-4.28,5.58-4.16l6.34,0.1
				c3.57,0.11,5.55,2.12,6.14,4.39c0,0,2.23,10.11,2.23,13.27C787.82,580.39,780.56,581.2,774.64,581.01"/>
		</g>
	</g>
</g>
<g id="M_left_shoe">
	<g>
		<path class="st21" d="M723.04,821.85c-0.11,0.04-0.22,0.09-0.32,0.15c-1.59,0.87-14.56,7.89-16.06,9.77
			c-1.23,1.54-0.44,7.21-0.01,9.77c0.13,0.79,0.69,1.44,1.45,1.7c3.07,1.06,11.16,3.88,19,3.09c9.83-0.99,9.53-4.7,16.85-8.2
			c4.79-2.29,7.71-3.76,9.15-4.51c0.69-0.36,1-1.06,1.03-1.84l0.4-8.58c0.05-1.08-0.54-2.03-1.6-2.24
			C748.04,819.97,734.3,817.79,723.04,821.85z"/>
		<path class="st10" d="M722.87,821.92c0,0-14.9,8.13-16.5,10.14c-1.6,2-0.08,8.9-0.08,8.9s10.67,4.24,20.5,3.25
			c9.83-0.99,9.83-4.27,17.15-7.77c5.67-2.71,8.72-4.28,9.8-4.85c0.29-0.15,0.48-0.45,0.5-0.77l0.45-8.16
			c0.04-0.75-0.47-1.41-1.2-1.57C749.17,820.15,734.63,817.6,722.87,821.92z"/>
		<path class="st23" d="M715.61,825.78c0,0,7.45-2.63,14.75,0.73"/>
		<path class="st23" d="M721.01,822.57c0,0,7.45-2.63,14.75,0.73"/>
	</g>
</g>
<g id="M_left_leg">
	<path class="st11" d="M760.58,803.66c0,0,5.58-27.91,8.84-41.87c3.26-13.96,0-20.47,0-20.47l3.26-15.35l4.19-6.51
		c0,0-1.86-7.44-9.77-13.49s-21.4-21.4-26.52-8.37c-5.12,13.03-13.03,70.71-13.96,79.09c-0.93,8.37-2.79,26.98-2.79,26.98
		s-5.58,4.65-5.12,7.91c0.47,3.26,6.51,9.3,6.51,9.3l18.61-1.86c0,0,8.84,3.72,12.1,2.79C759.18,820.88,760.58,803.66,760.58,803.66
		z"/>
	<path class="st20" d="M776.86,719.46c0,0-1.86-7.44-9.77-13.49c-7.91-6.05-21.4-21.4-26.52-8.37c-2.12,5.39-4.65,19.31-4.65,19.31
		s12.09,16.08,17.24,34.93c-1.07,12.16-3.49,31.56-3.49,31.56c3.12-7.2,4.86-13.36,5.7-18.53c0.12,2.32,0.1,4.64-0.13,6.94
		c-1.4,13.96-9.07,33.5-9.07,33.5s-27.91,3.02-27.45,6.28c0.47,3.26,6.51,9.3,6.51,9.3l18.61-1.86c0,0,8.84,3.72,12.1,2.79
		c3.26-0.93,4.65-18.14,4.65-18.14s5.58-27.91,8.84-41.87c3.26-13.96,0-20.47,0-20.47l3.26-15.35L776.86,719.46z"/>
</g>
<g id="M_right_leg">
	<g>
		<path class="st11" d="M794.07,699.92c0,0-52.34-21.63-71.41-23.96s-32.1-3.49-35.82,4.42s0,12.1,2.79,18.61s90.49,22.8,90.49,22.8
			L794.07,699.92z"/>
		<path class="st20" d="M794.07,699.92c0,0-52.57-22.33-71.64-24.66c-19.07-2.33-31.87-2.79-35.59,5.12s0,12.1,2.79,18.61
			c0.5,1.17,0.37-16.29,9.07-16.75c20-1.06,58.62,12.56,58.62,12.56l22.8,26.98L794.07,699.92z"/>
		<path class="st20" d="M731.73,686.89c0,0,9.72-0.03,13.96,3.26c4.24,3.28,9.77,12.1,9.77,12.1L731.73,686.89z"/>
		<path class="st11" d="M709.4,680.38c0,0,22.8,3.72,28.38,7.44C737.78,687.82,728.94,675.26,709.4,680.38z"/>
	</g>
</g>
<g id="M_right_shoe">
	<g>
		<path class="st10" d="M786.28,701.66c0,0-4.88,4.19-11.75,12.68c-3.04,3.76-7.26,7.33-8.44,11.76c-1.23,4.61,1,13.25,7.98,15.23
			c8.56,2.5,12.94-2.85,16.36-5.41s6.4-15.79,9.39-17.08s6.83-8.54,6.83-8.54s-2.56-8.54-6.83-11.1
			C795.55,696.64,789.69,696.97,786.28,701.66z"/>
		<path class="st22" d="M788.02,710.04c0,0-11.55,13.23-13.39,16.91c-1.84,3.68-4.09,11.25,3.28,13.46
			c7.37,2.21,10.64-2.43,14.74-6.63c4.1-4.2,5.53-13.63,8.11-14.74s5.06-6.42,5.77-8.3c1.05-2.79-0.7-7.79-4.71-9.25
			C797.77,700.03,790.97,705.99,788.02,710.04z"/>
	</g>
</g>
<g id="M_left_arm">
	<g>
		<path class="st5" d="M811.4,578.61c6.87,0.82,10.89,8.97,12.24,14.34c2.18,8.65,3.41,20.81,5.3,26.54
			c3.47,10.53,4.56,22.27-6.07,23.93c-10.64,1.66-10.29-9.26-12.86-20.22c-1.81-7.7-5.8-20.8-4.25-16.35
			C807.32,611.35,797.44,576.96,811.4,578.61z"/>
		<path class="st2" d="M811.4,578.61c6.87,0.82,11.37,8.42,12.72,13.78c2.18,8.64,2.92,21.37,4.82,27.1
			c3.47,10.53,4.56,22.27-6.07,23.93c-5.63,0.88-9.91-26.29-9.91-26.29s-1.44-15.84-3.17-23.61
			C807.59,583.73,811.4,578.61,811.4,578.61z"/>
		<path class="st2" d="M842.26,636.44c0.64,5.2-3.21,11.27-8.61,13.58s-17.97,4.43-18.62-0.77c-0.64-5.2-2.61-9.19,2.79-11.5
			C823.22,635.45,841.62,631.25,842.26,636.44z"/>
	</g>
</g>
<g id="M_ukelele">
	<g>
		<ellipse class="st24" cx="851.89" cy="616.38" rx="1.65" ry="1.57"/>
		<ellipse class="st24" cx="845.75" cy="617.8" rx="1.65" ry="1.57"/>
		<polygon class="st24" points="843.09,623.61 792.17,640.57 794.51,650.51 845.26,632.56 848.77,633.55 860.12,628.92 
			861.55,628.01 862.14,624.91 854.78,617.96 844.09,621.21 		"/>
		<polygon class="st15" points="842.26,621.65 791.34,638.6 793.68,648.54 844.43,630.59 847.93,631.58 859.29,626.95 
			862.14,624.85 857.92,616.8 853.94,615.99 843.26,619.24 		"/>
		<g>
			<path class="st24" d="M802.15,646.23c0,0,3.08,17.52-4.3,22.12c-7.06,4.4-10.96,3.58-10.96,3.58
				c-2.66,1.84-7.37,9.42-15.15,12.49c-7.78,3.07-21.91-0.82-29.69-8.19C734.27,668.86,802.15,646.23,802.15,646.23z"/>
			<path class="st14" d="M802.15,646.23c0,0-0.92-16.28-12.9-20.27c-11.98-3.99-16.89,5.53-20.27,6.45s-11.36-1.84-17.81-0.92
				s-16.28,5.84-15.97,24.27c0.31,18.43,9.21,27.03,23.65,24.88c14.44-2.15,19.66-14.44,23.04-18.12c0,0,5.84,3.07,13.51-0.61
				C802.66,658.41,802.15,646.23,802.15,646.23z"/>
			<ellipse class="st24" cx="776.56" cy="647.46" rx="8.09" ry="7.06"/>
			<ellipse class="st16" cx="776.56" cy="648.18" rx="7.27" ry="6.35"/>
			<polygon class="st6" points="749.76,670.03 755.34,668.17 747.43,646.3 743.25,648.63 			"/>
		</g>
		<path class="st25" d="M751.79,652.96c0,0,89.01-29.73,91.3-30.58c2.29-0.86,3.57-1,2.86-3.43"/>
		<path class="st25" d="M752.36,655.25c0,0,91.71-31.08,96.15-32.19s4.44-3.11,3.44-6.54"/>
		<path class="st25" d="M753.7,657.15c0,0,96.38-32.39,97.96-32.8c1.58-0.41,2.87,4.31,2.87,4.31"/>
		<path class="st25" d="M754.27,659.25c0,0,90.82-30.44,92.25-31.01c1.43-0.57,3,0.57,3.86,2.86"/>
		
			<ellipse transform="matrix(0.0158 -0.9999 0.9999 0.0158 205.4249 1473.6827)" class="st15" cx="851.31" cy="632.49" rx="1.57" ry="1.65"/>
		
			<ellipse transform="matrix(0.0158 -0.9999 0.9999 0.0158 211.3197 1475.5247)" class="st15" cx="855.19" cy="630.42" rx="1.57" ry="1.65"/>
	</g>
</g>
<g id="M_left_hand">
	<path class="st2" d="M828.09,633.49l-1.59,1.39l0.4,5.56l4.17,3.97c0,0,3.37,4.56,5.36,4.37c1.98-0.2,2.18-1.39,4.17-1.39
		c1.98,0,2.58,0.6,4.37-0.99s3.57-1.79,4.56-1.98c0.99-0.2,0.99-2.78,1.98-4.56c0.99-1.79-2.38-6.75-3.77-9.33
		c-1.39-2.58-4.37-1.39-4.37-0.4c0,0.99,1.39,3.97,1.39,3.97l-0.6,4.37l-1.79-4.76l-4.17-5.56c0,0-1.98,0-2.78,0.6
		c-0.79,0.6-0.4,2.78-0.4,2.78l-3.37-1.39l-2.98,1.79l0.6,1.98L828.09,633.49z"/>
</g>
<g id="M_right_forarm">
	<g>
		<path class="st2" d="M750.34,643.79c-2.9-1.34-7.76-2.31-12.94-7.07c-3.71-3.41-13.63-9.47-20.78-9.23
			c-7.14,0.23-12.69,4.36-9.04,14.56c3.65,10.2,26.88,12.74,33,14.59c6.13,1.84,9.35,4.2,14.07-1.15S753.24,645.13,750.34,643.79z"
			/>
		<path class="st5" d="M717.75,641.26c-3.71-3.41-13.82-9.42-10.17,0.78c3.65,10.2,26.88,12.74,33,14.59
			C746.71,658.47,722.93,646.03,717.75,641.26z"/>
	</g>
</g>
<g id="M_right_hand">
	<path class="st2" d="M750.09,642.89c0,0,4.84-2.72,7.56-2.42c2.72,0.3,5.45,4.54,6.96,5.14c1.51,0.61,0.61,5.14,0.61,5.14
		l-1.82,0.91c0,0,3.33,3.33,4.84,3.93c1.51,0.61,2.12,1.51,2.12,3.33c0,1.82-0.91,3.33-0.91,3.33s1.21,0,1.21,1.82
		c0,1.82-1.51,3.33-3.03,3.33c-1.51,0-4.54-1.82-4.54-1.82l-4.24,1.82c0,0-4.54,1.51-6.35,0.3c-1.82-1.21-5.75-10.89-5.75-10.89
		S747.97,642.89,750.09,642.89z"/>
</g>
<g id="M_head">
	<g>
		<path class="st8" d="M789.5,546.11c3.71,17.94,1.48,24.4-9.93,27.4c-8.63,2.27-18.27-6.71-21.45-19.73
			c-3.18-13.01,1.27-25.28,9.93-27.4C776.71,524.26,786.16,529.96,789.5,546.11z"/>
		<path class="st5" d="M783.68,543.26c-2.93-11.65-5.8-18.02-18.53-15.91c-6.64,1.1-12.92,3.28-16.2,6.23
			c-2.97,2.67-4.34,6.02-3.66,13.96c0.51,5.99,2.25,19.16,6.48,28.36c2.71,5.89,10.48,3.86,17.3,2.29
			c9.92-2.28,19.31-8.49,18.32-17.27C786.04,549.03,784.88,548.04,783.68,543.26z"/>
		<path class="st2" d="M787.03,556.75c-0.75-10.23-5.7-20.19-16.56-18.39c-5.67,0.94-15.88,6.74-14.8,13.46
			c1.17,7.28,2.1,15.02,4.77,20.92c2.29,5.07,6.74,6.3,13.09,4.04c7.22-2.57,10.21-2.84,12.4-8.18
			C788.11,563.27,787.41,561.92,787.03,556.75z"/>
		<path class="st8" d="M746.22,534.06c-0.88,0.91-1.53,6.78-1.25,11.13c0.06,0.92,1.84-4.59,1.84-4.59s0.97,1.19,7.26,0.56
			c6.29-0.63,10.55-2.95,10.55-2.95s4.35,7.32,6.73,10.29c2.37,2.97,5.66,4.28,5.66,4.28l8.42-4.4c-1.85-9.06-6.1-21.52-12.3-22.11
			C761.8,525.2,749.48,530.72,746.22,534.06z"/>
		<path class="st2" d="M787.04,552.51c0.03,5.09-2.45,9.28-5.52,9.5c0,0-2.57-10.93-3.13-13c-0.35-1.3-0.6-5.51,2.67-5.75
			C784.34,543.02,787.02,547.24,787.04,552.51z"/>
		<path class="st0" d="M786.22,556.35c0.12,1.2-0.74,2.31-1.91,2.5c-1.17,0.18-2.24-0.63-2.37-1.82c-0.14-1.21,0.72-2.34,1.91-2.53
			C785.03,554.3,786.1,555.14,786.22,556.35z"/>
	</g>
</g>
<g id="M_face">
	<path class="st7" d="M761.63,556.31c0.3,1.81-0.18,3.38-1.07,3.53c-0.89,0.14-1.87-1.19-2.19-3c-0.33-1.83,0.14-3.45,1.05-3.6
		C760.34,553.09,761.33,554.48,761.63,556.31z"/>
	<path class="st7" d="M749.52,557.26c0.26,1.65,0.08,3.05-0.4,3.13c-0.48,0.08-1.09-1.17-1.36-2.82c-0.28-1.67-0.1-3.11,0.39-3.2
		C748.64,554.29,749.25,555.59,749.52,557.26z"/>
	<line class="st26" x1="756.84" y1="548.58" x2="761.6" y2="548.88"/>
	<line class="st26" x1="746.29" y1="550.77" x2="748.09" y2="550.18"/>
</g>
<g id="dog_head">
	<g>
		<path class="st7" d="M349.91,652.01c0,0,0.41-5.62,1.33-9.77c0.88-3.97,2.61-1.68,4.1,1.77c1.56,3.61,2.32,9.43,2.6,10.8
			C358.23,656.18,351.09,656.77,349.91,652.01z"/>
		<path class="st8" d="M344.02,700.13c-4.32-0.77-14.98-9.53-14.7-17.11c0.28-7.58-0.14-18.66,1.31-23.12c0,0-1.15-7.68-1.24-11.91
			c-0.08-4.23,0.96-4.62,2.78-2.93c1.82,1.69,5.05,8.04,5.05,8.04s8.8-5.72,17.16-3.91c8.36,1.81,11.74,6.56,13.26,10.89l0.3,0.28
			c0,0,8.85,0.41,13.14,1.26c4.29,0.85,5.9,2.65,4.94,7.27s-0.84,6.81-2.96,8.86c-2.13,2.05-12.22,7.6-17.59,9.5
			c0,0-0.38,10.42-1.73,13.45S348.34,700.89,344.02,700.13z"/>
		<path class="st7" d="M340.37,688.07c0,0-11.32,2.52-11.05-5.06c0.28-7.58-0.14-18.66,1.31-23.12c0,0-1.15-7.68-1.24-11.91
			c-0.08-4.23,0.96-4.62,2.78-2.93c1.82,1.69,5.05,8.04,5.05,8.04s8.8-5.72,17.16-3.91c0,0-8.88,1.99-11.7,6.01
			c-2.81,4.02-4.43,18.5-4.43,18.5s12.14,9.98,11.71,10.93C348.63,687.65,340.37,688.07,340.37,688.07z"/>
		<path class="st8" d="M351.84,651.74c0,0,0.08-5.43,0.2-9.04c0.14-4.07,2.46-2.21,3.96,1.24c1.56,3.61,2.77,7.41,3.06,8.78
			C359.34,654.09,352.24,655.16,351.84,651.74z"/>
		
			<ellipse transform="matrix(0.8098 -0.5868 0.5868 0.8098 -320.4862 333.1707)" class="st10" cx="353.57" cy="660.84" rx="1.64" ry="2.92"/>
		
			<ellipse transform="matrix(0.8616 -0.5076 0.5076 0.8616 -283.5439 276.3524)" class="st10" cx="365.02" cy="658.16" rx="0.96" ry="2.49"/>
		<path class="st10" d="M386.1,664.89c0.76,2.3-0.23,3.62-0.56,5.07c-0.46,1.98-6.11-0.43-6.87-2.73c-0.76-2.3-1.44-5.61,1.48-5.65
			C382.18,661.55,385.35,662.59,386.1,664.89z"/>
		<path class="st7" d="M353.05,686.44c0,0,11.94,3.42,12.11,0.74c5.28-1.81,13.47-6.37,13.47-6.37l-14.67,2.89L353.05,686.44z"/>
	</g>
</g>
<g id="dog_body">
	<g>
		<g>
			<path class="st7" d="M301.74,727.75c-0.73-1.24-5.43-7.25-6.3-10.26c-0.87-3.01-2.64-10.19,0.82-13.72c0,0-4.54-0.3-7.31,9.18
				s5.99,19.13,6.73,19.94C299.01,736.52,303.83,731.29,301.74,727.75z"/>
			<path class="st7" d="M376.26,756.82c-1.23-2.11-4.75-3.92-4.75-3.92c-0.39-0.45-1.61-1.28-1.79-1.75
				c-1.35-3.61-5.02-13.48-5.44-15.09c-0.87-3.35-1.37-13.74-3.18-21.45c-1.82-7.71-12.4,0.73-11.46,8.33
				c0.67,5.42,8.71,26.55,9.52,28.61l4.27,6.42c1.36,1.28,4.52,1.75,7.59,1.3C374.07,758.8,377.46,758.89,376.26,756.82z"/>
			<path class="st8" d="M351.29,686.92c0,0-13.9-6.29-23.64,0.61c-8.72,6.17-11.1,24.22-21.73,26.48
				c-6.68,1.42-6.38,25.4-4.08,29.72c4.21,8.07,13.33,7.21,17.14,6.59c11.24-1.83,37.99-29.6,42.17-32.7
				c3.75-2.78,7.59-15.34,0.71-22.96C359.23,691.75,356.25,688.63,351.29,686.92z"/>
			<path class="st7" d="M348.43,688.4c-8.06-4.17-11.03-7.78-20.78-0.88c-8.72,6.17-13.95,24.92-24.54,27.36
				c-11.99,2.76-8.81,25.03-1.09,30.69c20.2,14.81,32.08-8.05,35.5-15.46c0,0-11.54-4.6-11.97-9.41
				c-0.43-4.81,9.94-14.05,9.94-14.05C339.99,699.79,351.28,689.88,348.43,688.4z"/>
			<path class="st8" d="M355.93,760.06c-0.39-2.05-6.42-6.01-6.49-6.52c-1.16-8.58-0.62-17.02-0.66-19.02
				c-0.09-4.1,3.06-11.71,2.91-20.58c-0.14-8.55-14.06-1.59-14.1,8.31c-0.02,5.71,0.97,25.12,1.28,30.41
				c0.04,0.75,0.24,1.47,0.56,2.15l4.17,5.68c0.7,1.73,3.84,2.71,7.36,2.23C354.48,762.22,356.46,762.85,355.93,760.06z"/>
			<g>
				<path class="st27" d="M328.97,683.44c0,0-1.74,2.78-1.89,4.95c0,0,7.68,3.52,20.93,6.9c7.1,1.81,17.69,2.67,17.69,2.67
					l0.38-5.73C366.08,692.24,344.54,690.91,328.97,683.44z"/>
			</g>
			<g>
				<path class="st28" d="M366.02,692.31c0,0,4.95,6.52,5.1,10.27l-8.51,4.7C362.61,707.28,364.05,696.02,366.02,692.31z"/>
				<path class="st27" d="M366.02,692.31c-2.16,3.2-3.41,14.97-3.41,14.97s3.99-4.71,4.19-6.26
					C367,699.48,366.02,692.31,366.02,692.31z"/>
			</g>
			<path class="st27" d="M365.31,696.19c0,0-5.37,6.99-8.14,8.28l-1.71-4.68C355.46,699.79,359.7,696.48,365.31,696.19z"/>
		</g>
	</g>
</g>
<g id="grass">
	<path class="st16" d="M113.55,873.2c0,0-12,1.71-22.29-3.43c0,0,4.29-5.14,12-2.57c0,0-8.57-9.43-18-18.86
		c0,0,35.15,9.43,40.29,19.72C130.7,878.34,113.55,873.2,113.55,873.2z"/>
</g>
<g id="S_log">
	<path class="st2" d="M177.8,874.73l153.9-101.11c0,0,5.23-25.4-2.24-41.84c-7.47-16.44-42.59-17.18-42.59-17.18l-182.29,85.92
		L177.8,874.73z"/>
	<polygon class="st5" points="193.12,865.52 331.7,773.62 289.87,780.35 301.82,761.67 296.59,753.45 203.2,802.76 193.12,825.17 
		216.65,839.74 	"/>
	<path class="st3" d="M177.8,874.73c0,0-39.85,2.99-53.29,0c-13.45-2.99-27.39-33.87-27.39-33.87s-10.46-25.4,7.47-40.34
		c17.93-14.94,45.57-0.75,55.29,4.48C169.58,810.23,191.25,831.4,177.8,874.73z"/>
	<polygon class="st2" points="188.59,820.38 183.78,815.46 229.28,794.38 204.19,811.51 218.88,807.53 217.65,815.79 228.67,813.96 
		193.48,833.85 	"/>
	<path class="st14" d="M328.16,779.23c0,0,0-20.23-7.28-29.14l2.43,21.85c0,0-12.14-14.57-16.19-18.62c0,0,9.71,14.57,13.76,25.9
		l-11.33-8.9l16.19,18.62L328.16,779.23z"/>
	<path class="st4" d="M153.95,812.93c0,0-23.21-12.06-37.17-5.43l8.72,22.9l-18.85-10.47c-2.77,9.55,1.25,19.32,1.25,19.32
		s10.23,24.32,20.1,26.52c9.87,2.19,39.11-1.66,39.11-1.66C176.97,832.3,153.95,812.93,153.95,812.93z"/>
	<polygon class="st5" points="305.71,725.15 286.74,732.96 291.15,733.79 306.35,729.83 303.63,736.16 322.46,729.08 314.8,725.35 	
		"/>
</g>
<g id="skirt">
	<path class="st28" d="M216.48,768.3c5.23,8.43,46.74-12.26,52.85-21.59c5.33-8.14-41.15-1.69-50.94,2.36
		C208.6,753.12,211.57,760.38,216.48,768.3z"/>
</g>
<g id="S_hair">
	<path class="st8" d="M165.14,629.07c0.08-3.59-9.15-17.77-15.39-14.96c-6.25,2.82,3.57,14.31,3.57,14.31s-8.92-0.65-13.38,2.38
		s-3.12,11.92,4.24,11.05C151.54,640.99,164.92,639.47,165.14,629.07z"/>
	<path class="st8" d="M151.65,639.83c0,0-7.2,1.8-8.1,9.22c-0.81,6.7,2.7,9.22,2.7,9.22s-9.45,3.82-6.43,14.02
		c3.54,11.99,26.51,12.92,31.76,5.04c0,0,21.79,3.27,34.71-11.18c12.92-14.46,0-29.44-8.32-28.79c0,0-8.55-26.99-33.28-15.29
		C151.95,628.09,151.65,639.83,151.65,639.83z"/>
	<path class="st18" d="M158.32,639.1c0,0-6.32,3.65-7.09,10.83c-0.69,6.48,2.31,8.91,2.31,8.91s-8.07,3.7-5.49,13.55
		c3.03,11.59,22.64,12.5,27.13,4.87c0,0,18.61,3.16,29.65-10.81s0-28.47-7.11-27.83c0,0-10.31-27.29-31.44-15.98
		C155.39,628.47,158.32,639.1,158.32,639.1z"/>
	<path class="st18" d="M166.18,628.28c-0.4-2.68-9.07-12.05-13.36-9.16c-4.29,2.89,4.48,10.18,4.48,10.18s-6.72,0.66-9.65,3.48
		c-2.93,2.83-0.8,9.27,4.56,7.68C157.59,638.89,167.35,636.05,166.18,628.28z"/>
</g>
<g id="S_thighs">
	<path class="st7" d="M252.12,724.11c0,0,21.93,2.36,25.3,4.05c3.37,1.69,6.22,11.95-2.55,17.35s-15.66,6.6-30.84,1.54
		C228.84,741.98,229.52,722.42,252.12,724.11z"/>
	<path class="st8" d="M209.28,765.93c0,0,39.81,0,46.89,0s12.14-24.96-5.06-25.97c-17.2-1.01-41.83-7.42-47.9-1.01
		C197.14,745.36,190.05,763.57,209.28,765.93z"/>
	<path class="st7" d="M209.28,765.93c0,0,39.81,0,46.89,0s12.14-24.96-5.06-25.97c-17.2-1.01-41.83-7.42-47.9-1.01
		C197.14,745.36,190.05,763.57,209.28,765.93z"/>
</g>
<g id="S_left_leg">
	<path class="st3" d="M252.38,826.6c0,0,27.74-72.09,23.29-79.87c-4.45-7.78-30.44,14.4-28.79,25.99
		c1.64,11.59-6.47,50.77-6.47,50.77L252.38,826.6z"/>
	<path class="st7" d="M271.29,771.76c5.98-18.91,10.6-36.21,8.72-39.5c-4.45-7.78-16.39-7.02-22.36,2.07
		c-5.97,9.09-12.42,26.79-10.78,38.39L271.29,771.76z"/>
	<path class="st8" d="M272.45,770.4c4.9-15.51,8.7-29.7,7.16-32.39c-3.65-6.38-14.21-5.93-19.11,1.53
		c-4.9,7.46-9.42,22.15-8.07,31.65L272.45,770.4z"/>
	<g>
		<path class="st3" d="M242.85,820.84c-1.46,0.96-3.31,2.96-7.19,5.67c-3.32,2.32,2.38,7.76,3.27,11.53
			c-1.3-2.33,14.48,14.8,18.68,16.95c9.51,4.86-2.79-16.17,0.45-10.09c0,0-7.07-12.26-5.78-17.53
			C253.58,822.1,244.32,819.88,242.85,820.84z"/>
		<path class="st27" d="M237.82,824.14c0.62-0.33,1.42-0.47,1.17,0.09c-0.25,0.56-0.7,3.01,0.06,4.31
			c0.76,1.3,9.55,15.88,14.97,17.49c3.31,0.98,2.77-2.04,1.7-4.91c-0.71-1.9-1.89-5.28-1.89-5.28s3.18,7.05,4.94,10.13
			s4.19,11.45,3.46,13.69c-0.74,2.24-19.27-10.07-21.39-13.12s-4.78-7.8-5.89-10.06c-0.88-1.78-2.76-2.71-2.93-3.63
			C231.65,830.79,235.96,825.15,237.82,824.14z"/>
	</g>
</g>
<g id="S_right_leg">
	<g>
		<path class="st3" d="M247.65,754.2c0,0,0.99-7.03,8.97-7.6c9.15-0.64,25.03,36.86,26.9,40.28s22.75,40.2,24.39,45.68
			c1.51,5.01-6.73,12.87-13.9,3.82c-6.49-8.2-20.94-27.51-27.9-34.31C259.14,795.27,239.98,770.03,247.65,754.2z"/>
		<path class="st13" d="M276.2,778.91c5.12-0.36,13.27,19.48,15.01,21.96c1.75,2.47,12.17,21.87,13.1,24.93
			c0.84,2.81-9.59-6.23-12.2-9.59c-2.61-3.36-6.35-8.97-9.71-13.82S271.74,779.22,276.2,778.91z"/>
		<path class="st7" d="M240.7,749.96c0,0,4.85-10.13,14-9.43s25.61,40.88,28.73,45.29l-17.33,16.24
			C259.14,795.27,233.03,765.79,240.7,749.96z"/>
		<path class="st8" d="M247.16,752.62c0,0,3.78-7.88,10.9-7.34c7.12,0.54,19.94,31.82,22.37,35.26l-14.22-2.69
			C260.78,772.56,247.16,752.62,247.16,752.62z"/>
	</g>
</g>
<g id="S_right_foot">
	<g>
		<path class="st3" d="M293.93,834.03c0.47,1.69,1.8,4.06,3.18,8.58c1.19,3.88,8.12,0.12,11.98,0.43
			c-2.62,0.52,18.54-9.23,21.87-12.57c7.55-7.55-16.24-2.31-9.46-3.53c0,0-13.84,2.96-18.46,0.11
			C298.42,824.21,293.46,832.34,293.93,834.03z"/>
		<path class="st27" d="M294.87,838.78c-0.13-0.69-0.01-1.5,0.45-1.09c0.45,0.41,3.2,0.24,4.67-0.08
			c1.47-0.32,19.51-5.81,22.42-8.57c2.91-2.76-1.05-1.72-4.17-1.35c-2.02,0.24-6.87,0.59-6.87,0.59s7.51-0.96,10.99-1.68
			s11.13-1.12,13.9-0.33c2.27,0.65,0.92,7.91-16.75,15.33c-3.42,1.44-9.82,1.61-13.49,4.75c-0.49,0.42-0.4,1.26-0.88,1.67
			c-0.97,0.84-2.44,1.13-3.06,1.05C299.97,848.8,295.25,840.86,294.87,838.78z"/>
	</g>
</g>
<g id="S_left_arm">
	<path class="st13" d="M259.61,680.33c0,0,2.9,0.93,2.61,1.96c-0.28,1.03-2.9,0.56-2.9,0.56s0.37,1.59-0.75,1.87
		s-2.05-0.09-2.05-0.09s0.93,1.03,0,1.31c-0.93,0.28-5.42,0.75-5.23,0.28C251.48,685.74,259.61,680.33,259.61,680.33z"/>
	<path class="st13" d="M247.28,686.86c0,0,3.74-7.25,4.98-8.5c1.25-1.25,6.23,0.37,6.23,0.37L247.28,686.86z"/>
	<path class="st3" d="M207.68,689.95c0,0,11.92,15.97,13.91,19.71c1.99,3.74-2.21,11.8-8.69,7.56
		c-6.47-4.23-16.44-16.06-16.69-21.29C195.98,690.69,202.7,686.96,207.68,689.95z"/>
	<path class="st3" d="M238.56,692.81c-4.57,2.43-20.92,7.6-26.9,12.33s-4.23,9.71,1.74,12.95s19.89-8.19,27.61-12.92
		s9.62-8.87,7.63-11.61C246.66,690.82,244.42,689.7,238.56,692.81z"/>
	<path class="st13" d="M239.8,700.53l-17.05,16.19c0,0,9.46-5.48,19.67-12.51C251.35,698.06,239.8,700.53,239.8,700.53z"/>
	<path class="st3" d="M246.2,699.65c0,0,5.43,0.6,7.72-1.93c2.29-2.53,6.53-5.17,7.83-6c1.77-1.12,2.43-3.18-1.12-2.9
		c-2.44,0.19-3.58,1.41-5.87,1.89c-2.29,0.48-2.77-2.41-2.77-2.41s2.77-3.14,3.38-4.22s4.22-2.53,6.39-3.74
		c2.17-1.21,2.65-2.17,1.81-3.38c-0.84-1.21-2.1-0.19-4.7,0.36c-2.01,0.43-6.04,1.5-7.73,3.18c-1.69,1.69-3.74,3.33-8.34,9.81
		C239.81,694.52,241.38,699.89,246.2,699.65z"/>
</g>
<g id="S_torso">
	<path class="st9" d="M187.3,680.76c2.25-5.85,4.72-7.2,10.34-4.95c5.62,2.25,12.14,19.34,12.14,19.34l-16.42,5.4
		C193.37,700.55,186.65,682.45,187.3,680.76z"/>
	<path class="st11" d="M162.67,678.28c1.82-3.64,7.6-2.52,16.64-2.7c11.24-0.22,14.62,1.12,26.42,6.52
		c8.42,3.85,7.98,22.94,8.88,29.01c0.9,6.07,0.9,30.81-15.29,34.41s-20.91-16.64-30.58-31.93
		C159.07,698.3,159.75,684.13,162.67,678.28z"/>
	<path class="st20" d="M162.67,678.28c1.82-3.64,7.6-2.52,16.64-2.7c5.62-0.11,5.27,13,2.59,18.69c-3.16,6.73-5.43,13.01,0.59,19.19
		c10.29,10.55-0.66,9.82,16.83,32.06c-16.19,3.6-20.91-16.64-30.58-31.93C159.07,698.3,159.75,684.13,162.67,678.28z"/>
	<path class="st11" d="M179.33,734.92c0.22,13.04-0.3,17.86,5.38,25.61c5.68,7.76,28.56,7.2,32.38,8.77c3.82,1.57,3.6,0.9,3.6,0.9
		s0.51-5.51,1.41-10.68c0.9-5.17,1.01-11.13,8.43-17.54c7.42-6.41,14.67-0.49,18.89-3.71c12.82-9.78,18.22-12.48,18.22-12.48
		s-13.16-1.69-28.67-3.37c-14.12-1.53-13.16-1.57-28.67-1.35C204.6,721.15,179.1,721.88,179.33,734.92z"/>
	<path class="st20" d="M178.08,734.06c0.22,13.04,0.96,18.72,6.63,26.48c5.68,7.76,28.56,7.2,32.38,8.77c3.82,1.57,3.6,0.9,3.6,0.9
		s0.51-5.51,1.41-10.68c0.9-5.17,1.01-11.13,8.43-17.54c7.42-6.41,14.67-0.49,18.89-3.71c0,0-11.6-8.73-22.56-7.73
		c-10.96,1-26.37,3.47-29.14,2.74c-2.77-0.73-6.33-4.39-8.9-7.36S177.94,726.46,178.08,734.06z"/>
	<path class="st20" d="M209.85,702.67c-1.03-3.09-8.25-4.47-11.69-2.41c-3.44,2.06-6.88,6.88-7.56,10.31s4.47-2.75,11.69-3.78
		C207.77,706.01,210.88,705.77,209.85,702.67z"/>
</g>
<g id="S_right_arm">
	<path class="st3" d="M172.12,706.62c0,0-2.53,19.85-3.88,22.99c-1.35,3.15-2.25,10.12-8.77,9.9c-6.52-0.22-7.2-5.17-6.97-10.12
		s0.28-23.67,1.18-25.47S171.67,697.4,172.12,706.62z"/>
	<path class="st13" d="M172.12,706.62c0,0-2.53,19.85-3.88,22.99c-1.35,3.15-4.11,5.12-3.88,0.18c0.22-4.95,0.28-23.67,1.18-25.47
		C166.43,702.52,171.67,697.4,172.12,706.62z"/>
	<path class="st28" d="M173.02,698.3c0,0,3.15-22.04-6.52-21.81c-9.67,0.22-11.7,10.6-12.59,21.36c-0.45,5.4-0.9,10.34-0.9,10.34
		s4.27-1.57,8.77-2.25c4.9-0.73,10.34,0.67,10.34,0.67L173.02,698.3z"/>
	<path class="st9" d="M173.02,698.3c0,0,3.15-22.04-6.52-21.81l2.34,9.73l-1.99,15.69l-5.07,4.05c4.9-0.73,10.34,0.67,10.34,0.67
		L173.02,698.3z"/>
	<path class="st3" d="M166.83,740.02c0.96-7.37,3.54-16.81-6.13-18.83c-9.67-2.02-8.26,12.31-8.94,15.91
		c-0.67,3.6-1.8,32.38-2.02,36.88c-0.22,4.5,8.32,8.55,11.47,3.15C164.36,771.73,165.79,748.02,166.83,740.02z"/>
	<path class="st13" d="M166.83,740.02c0.78-6,2.64-13.39-1.94-17.01c-1.04-0.82-0.26,1.4-1.2,8.5c-0.45,3.43-1.94,10.22-2.61,13.82
		s-1.49,10.35-1.71,14.85c-0.22,4.5,3.69,11.57,4.39,7.17C165.24,758.08,166.13,745.44,166.83,740.02z"/>
</g>
<g id="S_right_hand">
	<g>
		<path class="st5" d="M133.02,786.06c0,0-2.71,0.68-3.9-0.68c-1.19-1.36,6.61-6.44,8.14-7.97c1.53-1.53,8.14-3.73,11.7-3.39
			S133.02,786.06,133.02,786.06z"/>
		<path class="st3" d="M160.82,772.49c0,0,2.2,3.22,1.86,6.44s0.17,4.58-4.41,5.09c-4.58,0.51-8.65,3.73-8.65,3.73
			s-1.02,0.85-2.54,0.85s-2.2-0.85-2.03-1.7c0.17-0.85,6.44-5.93,6.44-5.93s-5.59,0.34-6.61,0.34c-1.02,0-5.76,2.54-5.76,2.54
			s-3.22,3.39-4.41,4.24c-1.19,0.85-2.03,1.19-3.9-0.17c-1.86-1.36,1.7-4.24,2.54-5.76c0.85-1.53,6.27-5.42,6.27-5.42
			S154.55,771.31,160.82,772.49z"/>
	</g>
</g>
<g id="S_neck">
	
		<ellipse transform="matrix(0.4751 -0.8799 0.8799 0.4751 -502.0598 520.305)" class="st13" cx="185.09" cy="680.98" rx="4.79" ry="6.65"/>
	<polygon class="st13" points="170.32,661.87 179.28,681.65 191.46,682.94 186.73,662.94 	"/>
	<polygon class="st3" points="170.32,661.87 179.28,681.65 188.25,670.47 186.73,662.94 	"/>
</g>
<g id="S_head">
	<g>
		<g>
			<path class="st9" d="M186.67,624.99c0,0,3.25,3.63,6.49,5.11c2.45,1.12,4.38,1.26,4.38,1.26l-0.52-0.94l1.16-0.97
				c0,0-4.51-0.28-10.6-5.07L186.67,624.99z"/>
			<path class="st9" d="M186.34,624.56c0,0,1.81,4.53,4.35,7.03c1.92,1.89,3.69,2.69,3.69,2.69l-0.17-1.06l1.42-0.52
				c0,0-4.14-1.81-8.23-8.39L186.34,624.56z"/>
			<path class="st9" d="M188.41,626.91c1.14-0.25,1.97-6.4-0.76-6.42c-2.57-0.01-5.46,0.43-4.9,2.35S187.28,627.15,188.41,626.91z"
				/>
			<path class="st11" d="M189.25,623.39c0,0-0.53-2.6-1.34-2.51c-0.81,0.09-0.04,1.18,0.25,2.9
				C188.44,625.49,189.45,624.49,189.25,623.39z"/>
			<g>
				<path class="st9" d="M187.41,625.68c0,0-0.22-1.2,1.49-2.44s3.02-1.93,4.16-1.28c1.15,0.65,1.66,3.68,1.09,5.24
					c-0.57,1.56-4.53,0.56-5.54,0.02C187.6,626.68,187.41,625.68,187.41,625.68z"/>
				<path class="st11" d="M193.76,624.39c0,0,0.47,2.43-0.61,2.87c-1.6,0.66-0.77-4.01-0.7-4.75
					C192.51,621.79,193.98,622.63,193.76,624.39z"/>
			</g>
		</g>
		<path class="st13" d="M195.64,637.56c8.07,18.68,4.19,26.69-9.36,30.47c-10.18,2.84-20.44-0.95-25.05-13.36
			c-4.62-12.41-2.55-24.43,6.88-29.21C180.57,619.14,190.22,625.01,195.64,637.56z"/>
		<path class="st3" d="M192.76,642.18c6.15,16.61-3.35,23.45-9.19,25.13c-8.18,2.35-17.55-0.39-21.59-11.39s-1.63-23.2,5.94-27.18
			C185.56,619.46,190.34,635.66,192.76,642.18z"/>
		
			<ellipse transform="matrix(0.8449 -0.5348 0.5348 0.8449 -325.5163 187.5888)" class="st3" cx="160.79" cy="655.23" rx="4.37" ry="7.58"/>
		<path class="st11" d="M159.59,649.44l1.05,1.78c0,0-3.43-10.54,6.93-18.28c9.22-6.9,20.57-6.19,20.57-6.19s-10.23-9.75-23.92,1.3
			C153.75,636.5,159.59,649.44,159.59,649.44z"/>
	</g>
</g>
<g id="S_face">
	<g>
		<path class="st8" d="M177.7,643.32c0,0,0.24,2.31-1.5,3.22c-1.74,0.92-3.44-0.91-3.44-0.91s1.23,0.2,2.59-0.43
			C176.72,644.56,177.7,643.32,177.7,643.32z"/>
		<path class="st8" d="M193.34,636.63c0,0,1.03,1.65-0.85,2.59c-1.01,0.51-2.88-0.85-2.88-0.85s1.51,0.23,2.54-0.26
			S193.34,636.63,193.34,636.63z"/>
		<path class="st29" d="M187.51,633.39c2.18-1.64,4.08-0.53,4.08-0.53"/>
		<path class="st29" d="M173.55,638.63c-2.23,0.51-2.97,3.69-2.97,3.69"/>
	</g>
</g>
<g id="wood">
	<g>
		<path class="st4" d="M502.46,905.53c0,0-68.45,5.4-71.15,5.4c-2.7,0-5.4,9.01,2.7,16.21l64.85-12.61L502.46,905.53z"/>
		<polygon class="st2" points="464.53,913.66 470.94,916.51 434.01,927.15 498.85,914.54 477.71,909.74 		"/>
	</g>
	<g>
		<path class="st4" d="M525.87,920.84c0,0,19.81,21.62,28.82,29.72c9.01,8.11,26.12,16.21,26.12,16.21s0.9,8.11-3.6,12.61
			c-4.5,4.5-20.72,5.4-20.72,5.4l-16.43-23.39l-25-36.96L525.87,920.84z"/>
		<path class="st30" d="M580.81,966.78l-11.53-0.74l-12.83,7.48l0.36,11.4c0,0,18.95-1.38,20.4-2.83
			C579.91,979.39,583.52,971.28,580.81,966.78z"/>
		<path class="st5" d="M577.25,970.76l-6.96-0.45l-7.74,4.52l0.22,6.88c0,0,11.44-0.84,12.32-1.71
			C576.7,978.37,578.88,973.48,577.25,970.76z"/>
		<polygon class="st2" points="538.88,942.46 545.44,944.77 528.13,926.84 527.24,930.89 545.44,955.47 551.71,964.73 		"/>
	</g>
	<g>
		<polygon class="st4" points="613.47,946.44 532.18,915.44 529.38,922.21 570.91,949.67 589.95,962.83 		"/>
		<path class="st30" d="M613.47,946.44c0,0-9.79-4.28-10.69-4.28c-0.9,0-11.05,6.41-11.05,6.41s-4.73,13.57-1.43,14.96
			c3.31,1.4,14.25,1.07,14.25,1.07l9.26-5.34L613.47,946.44z"/>
		<path class="st5" d="M609.4,950.13c0,0-8.39-0.49-8.88-0.49c-0.49,0-4.38,3.35-4.38,3.35s-1.87,5.75-0.06,6.52
			s7.89,1.48,7.89,1.48l5.43-6.41V950.13z"/>
		<polygon class="st2" points="588.36,945.25 557.47,927.91 566.3,929.8 541.39,919.72 536.66,923.5 565.35,938.95 563.77,935.16 		
			"/>
	</g>
	<g>
		<path class="st4" d="M495.88,919.36c0,0-22.25,33.01-26.75,36.61c-4.5,3.6-5.4,18.01,9.91,21.62c15.31,3.6,22.52-1.8,22.52-1.8
			l9.01-54.04L495.88,919.36z"/>
		<path class="st30" d="M501.56,975.79l-3.53-15.09l-18.88-8.55l-11.4,4.63c0,0-2.85,7.48,0,13.54c2.85,6.06,7.84,7.84,17.82,9.98
			C495.53,982.43,501.56,975.79,501.56,975.79z"/>
		<path class="st5" d="M494.52,973.12l-2.21-9.45l-11.82-5.35l-7.14,2.9c0,0-1.78,4.68,0,8.47c1.78,3.79,4.91,4.91,11.15,6.24
			C490.74,977.27,494.52,973.12,494.52,973.12z"/>
		<polygon class="st2" points="499.8,927.2 490.18,943.23 497.31,939.31 499.8,957.48 508.71,928.62 		"/>
	</g>
	<g>
		<path class="st4" d="M488.95,911.84l-33.32,13.51l-10.81,9.01c-7.21,1.8-37.83,18.01-41.43,18.91c-3.6,0.9,0.7,13.94,5.21,15.74
			c4.5,1.8,8.3-2.23,8.3-2.23s72.05-40.53,79.26-44.13C503.36,919.04,488.95,911.84,488.95,911.84z"/>
		<polygon class="st2" points="485.79,919.48 461.4,929.51 476.64,926.32 461.65,935.17 461.89,936.4 452.06,943.03 492.68,922.92 
					"/>
		<path class="st30" d="M401.22,958.38c-0.3-4.32,2.15-5.12,2.15-5.12s7.11-0.16,8.89,1.5s2.73,10.57,2.73,10.57s-0.83,3.62-1.9,4.1
			c-1.07,0.48-4.71,0.41-7.3-0.59C400.39,966.75,401.38,960.65,401.22,958.38z"/>
		<path class="st5" d="M403.32,960.31c-0.19-2.78,1.39-3.3,1.39-3.3s4.58-0.11,5.73,0.97c1.15,1.07,1.76,6.81,1.76,6.81
			s-0.54,2.33-1.22,2.64c-0.69,0.31-3.03,0.26-4.7-0.38C402.78,965.7,403.42,961.78,403.32,960.31z"/>
		<polygon class="st2" points="460.02,932.9 424.38,950 419.63,957.6 426.29,952.38 437.21,950.95 		"/>
	</g>
</g>
<g id="fire">
	<path class="st11" d="M516.64,932.55c-44.34,1.11-60.75-46.63-62.99-53.72c-2.24-7.09-8.49-33.09,0-42.52
		c0,26.85,14.91,29.3,14.91,29.3s-14.02-26.56-3.77-35.83c10.25-9.26,30.26-9.14,29.23-40.54c-0.32-9.61,8.79-19.45,16.33-19.45
		c0,0-5.62,29.54,14.26,28.71c19.88-0.83,13.14,34.5,14.09,46.76c0,0,2.75,12.32,8.55,3.76c5.8-8.56,7.9-21.12,7.9-21.12
		s7.04,22.92,8.11,38.23C566.08,906.69,541.23,931.94,516.64,932.55z"/>
	<path class="st9" d="M504.7,925.87c-41.53-7.87-31.3-42.51-28.3-47.94c0,0,0.2,11.34,2.15,15.82c3.24,7.47,16,10,10.68-1.4
		c-5.32-11.4-7.15-18.61,3.52-38.42c0,0,15.29-12.5,11.98-39c-1.94-15.54,7.58,34.71,7.58,34.71s5.31-12.12,7.33,5.6
		c1.27,11.18,8.83,48.59,21.53,32.02C544.02,912.41,520.67,928.9,504.7,925.87z"/>
	<path class="st11" d="M559.4,911.28c19.62,2.14,12.33-24.09,12.33-24.09S567.35,902.49,559.4,911.28z"/>
</g>
<g id="amber">
	<path class="st12" d="M479.04,759.88c-0.88,5.3,0.15,15.72,5.3,4.42C488.94,754.22,479.92,754.58,479.04,759.88z"/>
	<path class="st9" d="M539.31,786.3c0,0,9.72,1.77,7.07-6.19C543.73,772.16,539.31,786.3,539.31,786.3z"/>
	<path class="st9" d="M530.03,826.07c0,0,4.42-2.65,3.53-9.72C532.68,809.27,530.03,826.07,530.03,826.07z"/>
	<path class="st9" d="M482.75,798.67l-2.65-12.37l-1.77,1.77C478.34,788.07,473.03,793.37,482.75,798.67z"/>
	<path class="st11" d="M496.39,711.2c-9.42,3.14-18.84-14.65-4.19-21.98c10.92-5.46,2.85-1.44-0.05,8.09
		C488.91,707.97,498.8,710.4,496.39,711.2z"/>
	<path class="st11" d="M460.65,784.22c-3.14-4.19-16.43,8.49-11.46,22.57c1.88,5.32-0.06-6.87,7.27-12.1
		C463.79,789.46,463.79,788.41,460.65,784.22z"/>
	<path class="st11" d="M528.68,731.45c-3.14,1.05-6.28,12.56,6.28,19.89C534.96,751.34,531.82,730.4,528.68,731.45z"/>
</g>
<g id="smoke">
	<path class="st31" d="M438.04,824.71c0,0-9.65-41.97,24.03-71.49c0,0,6-39.58,38.08-61.71s38.28-18.24,45.9-80.7
		c5.96-48.84,28.1-59.21,16.09-99.69c-12.23-41.22,7.65-94.95-24-121.85c-31.65-26.9-44.4-42.5-45.89-53.8
		c-4.57-34.8,17.53-66.3,41.14-112.35c9.81-19.14-15.82-112.35-15.82-112.35c33.23,34.81,44.57,104.97,39.56,125.01
		c-13.56,54.23-22.93,53.97,1.58,99.69s58.55,53.8,69.63,137.67c17.99,33.65,4.75,69.63-4.75,91.78
		c-9.49,22.15-3.88,76.09-7.39,96.53c-13.78,80.19-45.33,93.36-34.45,142.42c10.88,49.05,17.41,87.92-38.72,117.44
		C486.89,950.81,383.5,878.82,438.04,824.71z"/>
</g>
</svg>
