<svg xmlns="http://www.w3.org/2000/svg" viewBox="0 0 960 1080"><defs><style>.cls-1{isolation:isolate;}.cls-2{fill:#f3e7d9;}.cls-3{fill:#992c29;}.cls-4{fill:#c94039;}.cls-5{fill:#121721;}.cls-6{fill:#273252;}.cls-7{fill:#1d2538;}.cls-8{fill:#d77d5b;}.cls-22,.cls-9{fill:#ffacff;}.cls-10{fill:#3e4c6f;}.cls-11{fill:#665070;}.cls-12{fill:#bb83c3;}.cls-13{fill:#f5894e;}.cls-14{fill:#856792;}.cls-15{fill:#f7bc4b;}.cls-16,.cls-18,.cls-19,.cls-20,.cls-25,.cls-27,.cls-29,.cls-32{fill:none;}.cls-16,.cls-18,.cls-19,.cls-20{stroke:#121721;}.cls-16,.cls-18,.cls-19,.cls-20,.cls-27,.cls-29{stroke-linecap:round;stroke-linejoin:round;}.cls-17{fill:#7a462f;}.cls-18,.cls-20{stroke-width:2px;}.cls-19,.cls-29,.cls-32{stroke-width:3px;}.cls-20{mix-blend-mode:multiply;}.cls-21{fill:#ee5d4f;}.cls-22{opacity:0.46;}.cls-23{fill:#cc6d3d;}.cls-24{fill:#ce9436;}.cls-25{stroke:#992c29;}.cls-25,.cls-32{stroke-miterlimit:10;}.cls-26{fill:#29abe2;}.cls-27{stroke:#f3e7d9;stroke-width:5px;}.cls-28,.cls-33,.cls-35{fill:#fffcf3;}.cls-28,.cls-34{opacity:0.5;}.cls-29,.cls-32{stroke:#f7bc4b;}.cls-30{fill:#33a86d;}.cls-31{fill:#288453;}.cls-33{mix-blend-mode:color-dodge;}.cls-36{fill:#34283a;}</style></defs><title>33_socialmedia</title><g class="cls-1"><g id="clouds"><path class="cls-2" d="M713,932s-18,31-46,12-5-99,44-75c0,0-29-45-10-95s37-34,37-34-23-25,12-101,64-107,99-95,50,136,9,199c0,0,15-19,21,0s26,91-63,145S713,932,713,932Z"/><path class="cls-2" d="M508,996c12.49-3.61-13-122-80-126s-72,28-64,49c0,0-92-110-148-126s-31,14-31,14-68-17-82,5,34,95,123,130S463,1009,508,996Z"/><path class="cls-2" d="M625,762s-27-93-16-128c0,0-27,0-5-57s32-64,47-56,22,46,1,83c0,0,6-23,28-16s-24,148-39,170S625,762,625,762Z"/></g><g id="under_jacket" data-name="under jacket"><path class="cls-2" d="M508,670s23.62-1.89,29-14l2-1s5,8-8,15S504,682,508,670Z"/><path class="cls-3" d="M534,644s11,12-5,21-40,15-48-5,14-37,32-33S534,644,534,644Z"/><path class="cls-3" d="M380,718c-1,3-15,20-1,31s67.09-41.79,42-50.4S381,715,380,718Z"/><path class="cls-2" d="M422,713s0,15-17,25-22,10-27,8-4,3-2,5,6,5,20-1,29-20,31-28S428,708,422,713Z"/></g><g id="legs"><path class="cls-4" d="M593.77,845.63a4.36,4.36,0,0,0-.6,2.42c.15,2.74,1.78,7.43,6,11.53,4.55,4.39,10.1,13.29,11.39,15.41a4.87,4.87,0,0,0,.73.9c1.25,1.17,4.29,8.51,11.46,7.19,11.21-2.08,8.6-12.13,2.55-21s-10.57-20.2-19.24-22.4C599.15,837.89,595.11,843.38,593.77,845.63Z"/><path class="cls-5" d="M594,842c-.43.73.13,4.2.17,5,.15,2.74,1.78,7.43,6,11.53A58.69,58.69,0,0,1,611.6,874c2.4,5,9.19,9.09,15.4,8s5.39-12-.66-21-10.57-20.2-19.24-22.4C600.15,836.89,595.33,839.75,594,842Z"/><path class="cls-6" d="M560,753s12,27,17,39,10,33,11,41,1,11,6,11,17,7,22,1-2-26-2-26,2-73-15-90C577.41,707.41,560,741,560,753Z"/><path class="cls-7" d="M596,777l4,45a59.23,59.23,0,0,0-4,6c-1,2,6,5,6,5s-13,11-8,11,17,7,22,1-2-26-2-26,2-73-15-90C577.41,707.41,596,765,596,777Z"/><path class="cls-5" d="M546.64,896.5s-5.1,8.52.86,19.59,8.51,27.25,17,34.92,17.88,9.37,25.55,3.41.85-26.41-4.26-34.92-6.68-17.48-11-25.35S556.86,884.58,546.64,896.5Z"/><path class="cls-6" d="M497,658c5,0,62,38,78,51s28,19,28,29-4,17-11,21-13,6-31-4-47-28-70-38-24-28-15-44S497,658,497,658Z"/><path class="cls-6" d="M575,709c16,13,28,19,28,29s-3,18-10,22l-7-11,5-10-43-49S559,696,575,709Z"/><path class="cls-6" d="M478,798c.75,3.93,3,15,10,21s17,22,24,39a148.08,148.08,0,0,0,18,31s3,13,11,17,25-2,25-2,9-3,9-10-9-25-9-25-43-103-49-105S474,777,478,798Z"/><path class="cls-7" d="M495,816c.75,3.93,29,61,36,67s9,9,14,9,9,0,2,2-14,8-6,12,25-2,25-2,9-3,9-10-9-25-9-25-43-103-49-105S491,795,495,816Z"/><path class="cls-6" d="M407,691s2,17,22,45c.76,1.06,9.5,9.12,10.23,10.19C457.84,773.39,476,807,487,813c18.85,10.28,40,8,42-14s-15-44-33-79-35-67-63-54S407,691,407,691Z"/><path class="cls-7" d="M504,767l-28,5,11,41s38,22,42-14c2.44-22-15-44-33-79S504,767,504,767Z"/><path class="cls-7" d="M415.77,711c2.23-2,32.23,2,38.23,1s31-16,31-16l8-18s2,9,2,8,8-25,8-25-7-5-12-5c-6,0-75.23,55-75.23,55"/></g><g id="banner_1" data-name="banner 1"><path class="cls-8" d="M365,581c-3.7-3.7-63.15-92.31-71.92-105.39a2.19,2.19,0,0,0-2.81-.74h0a2.2,2.2,0,0,0-.83,3.22L363,585Z"/><path class="cls-9" d="M295.46,478.84S251,472,237,462s-18-7-11,13,19,51,19,51,45,3,62,3,21.21-2.07,21.21-2.07Z"/><polygon class="cls-10" points="258.04 497.4 286.84 501.43 288.85 504.18 259.18 500.46 258.04 497.4"/><polygon class="cls-10" points="254.62 490.2 294.83 495.89 296.83 498.64 255.76 493.26 254.62 490.2"/><polygon class="cls-10" points="251.2 484 291.41 489.7 293.41 492.44 252.34 487.07 251.2 484"/><path class="cls-10" d="M303.55,509.13c-2.07-.59-7.35-1.83-9,1.85-2,4.58,3.91,7.78,5.91,7.78l-2,2s3.83-.19,6-2C307.51,516.25,308.16,510.45,303.55,509.13Z"/><path class="cls-11" d="M229,497c1,1,16,29,16,29s20-10,18-18S229,497,229,497Z"/><path class="cls-12" d="M263,508s-10.49-5.53-26.75-7.26S187,504,180,507c0,0-29-71-36-77,0,0,26-7,52-2s36,20,40,29S264,499,263,508Z"/><path class="cls-2" d="M207.54,457.56c-.07,2.6-3.07,3.68-6.66,2.4s-6.37-4.35-6.27-6.9,3-3.61,6.57-2.4S207.61,455,207.54,457.56Z"/><polygon class="cls-2" points="194.36 481.07 197.48 463.5 212.96 475.15 216.9 447.81 240.65 482.76 194.36 481.07"/></g><g id="hood"><path class="cls-4" d="M429.45,534.1c2.21-22.06-45.23-20.19-68.89-13.8-14.64,4-28.73,16.87-31,24.58-.78,2.64-3.58,17.42-2.59,24.68,1.07,7.93,16,39.38,28.62,33.57C372.9,595.18,427.23,556.17,429.45,534.1Z"/><path class="cls-2" d="M414.83,544.64c.3-15.39-24.27-27.94-45.95-24.49-25.25,4-38.34,20.61-36.64,29s22.39,14.3,40,14.29S414.69,551.5,414.83,544.64Z"/><path class="cls-6" d="M366.91,557.08c-21.36-5.69-29.29-1.7-29.43-12.9-.19-15,38.94-19.32,48-20.55S419.8,540.19,417.09,558,388.27,562.77,366.91,557.08Z"/></g><g id="left_hand" data-name="left hand"><path class="cls-13" d="M464.8,384.61S450.75,360,450.75,359,453,344.75,453,338c0-4,6-17,12-16s4,2,0,20c-1.18,5.33,7.14-9.79,11-4s10,3,14,6,5.86,20.14,2,24-6.52,15.14-11.35,18S464.8,384.61,464.8,384.61Z"/><path class="cls-13" d="M463,347a57.55,57.55,0,0,0,10.79-3.1C478,342,484,348,477,353s-11,5-11,5S451,362,463,347Z"/><path class="cls-11" d="M586,225s-15.1,48-3.55,82S659,285,630,252,586,225,586,225Z"/><path class="cls-14" d="M604,193c2,2,25,37,69,30s64-26,90-25c0,0-16,47,0,96,0,0-26,0-75,13s-75,22-98,9,8-19,23-30,15.53-20.31,4.26-39.15S604,193,604,193Z"/><circle class="cls-15" cx="634.27" cy="272.43" r="24.92"/><circle class="cls-5" cx="644.94" cy="265.37" r="3.18"/><circle class="cls-5" cx="623.55" cy="265.37" r="3.18"/><ellipse class="cls-5" cx="634.81" cy="278.56" rx="6.36" ry="6.89"/><path class="cls-16" d="M626.56,257.7c-1.25-1.42-4.92-1.62-6.78,1.24"/><path class="cls-16" d="M641.7,257.7c1.24-1.42,4.92-1.62,6.77,1.24"/><path class="cls-17" d="M532,451,322.48,127.37a5.26,5.26,0,0,1,2.46-7.75h0a5.26,5.26,0,0,1,6.4,2.07L538,447Z"/><path class="cls-12" d="M331,140l9-5a42.9,42.9,0,0,1,4.57-.59c9.65-.39,20.93.09,27.43,3.59,13,7,7,17,44,27s47,10,60,3,25-31,77-17,61,30,61,30-7,51,9,77c0,0-9-18-47-16s-53,11-85,21c-21.54,6.73-50.05,7.47-65,7-7.26-.23-10,5-10,5Z"/><path class="cls-11" d="M581.66,242.1s32-.37,41.34,15.9-9.16,28.41-16,31.84-23.21,9-25.32,18.19h0s-7.91-11.34,0-65.93"/><ellipse class="cls-4" cx="701.6" cy="260.76" rx="25.35" ry="22.82" transform="translate(173.43 791.11) rotate(-65.51)"/><ellipse class="cls-5" cx="691.06" cy="264.74" rx="3" ry="2.35" transform="translate(-41.52 159.98) rotate(-12.82)"/><line class="cls-18" x1="696.15" y1="264.04" x2="686.57" y2="260.62"/><ellipse class="cls-5" cx="711.55" cy="263" rx="3" ry="2.35" transform="translate(-40.63 164.49) rotate(-12.82)"/><line class="cls-18" x1="706.46" y1="263.16" x2="716.04" y2="258.12"/><path class="cls-5" d="M709.24,273.45c.36-2.15-2.8-2.82-6.93-2.35s-6.69,2.09-6.93,3.88S708.88,275.59,709.24,273.45Z"/><path class="cls-15" d="M500.27,213.82c5.16,14.52,1.37,28.29-10.64,31.33C474.3,249,451.83,234.64,443.76,212s4.58-35.9,23.06-30.91C481.29,185,495.1,199.31,500.27,213.82Z"/><path class="cls-19" d="M476.42,223.24c4.12-5.69,11.22-.55,11.22-.55"/><path class="cls-5" d="M489.19,206.93c.71,2,.05,3.57-1.53,3.48s-3.58-1.9-4.34-4,0-3.66,1.68-3.46S488.47,204.92,489.19,206.93Z"/><path class="cls-5" d="M466.68,204.87c.86,2.42-.25,4.27-2.54,4.14s-5.1-2.35-6-4.93.37-4.41,2.8-4.11A7.85,7.85,0,0,1,466.68,204.87Z"/><circle class="cls-15" cx="552.32" cy="196.27" r="27.89"/><polyline class="cls-20" points="537.16 181.18 545.6 185.78 532.94 188.84"/><polyline class="cls-20" points="566.83 181.18 558.39 185.78 571.05 188.84"/><path class="cls-5" d="M567,192.29a62.14,62.14,0,0,0-30,.47,4,4,0,0,0-2.94,4.52c1,7.09,8.4,16.8,18.57,16.8s16.87-9.25,17.58-17.44A4,4,0,0,0,567,192.29Z"/><path class="cls-21" d="M539,207.73a15.79,15.79,0,0,1,14-7c9.63.44,13.27,6,13.27,6S563.21,213.42,554,214s-15-6.27-15-6.27"/><path class="cls-22" d="M331,140l9-5a42.9,42.9,0,0,1,4.57-.59c9.65-.39,20.93.09,27.43,3.59,13,7,7,17,44,27s47,10,60,3-61.29,101-61.29,101Z"/><path class="cls-13" d="M468.08,337.81s-4.14,13.3,1.07,15.81,6-6.34,6-6.34-1.22,5.89.16,9.82,3.79,2.95,5.71-1,.2-1,.2-1-1.63,7.86,2.77,7.86,8.66-15.86,6.13-19.23-2.37-2.74-6-2.07h0s-3.09-4.41-7.53-2.85h0s-1.33-4.61-8.5-1"/><path class="cls-23" d="M466,369s5-11.1,2.52-14.55h0S475,361,466,369Z"/><path class="cls-23" d="M463,347a57.55,57.55,0,0,0,10.79-3.1C478,342,484,348,477,353s-11,5-11,5S451,362,463,347Z"/><path class="cls-13" d="M461,347a57.55,57.55,0,0,0,10.79-3.1C476,342,482,348,475,353a87.3,87.3,0,0,0-10,8S449,362,461,347Z"/></g><g id="left_forearm" data-name="left forearm"><path class="cls-2" d="M460,381.44c1.72,5.19,4.42.36,13.27,1.08,7.36.59,13,3.73,14.29-.62,1.51-5.27-4.06-4.79-15.63-4.84C464.5,377,458.24,376.24,460,381.44Z"/><path class="cls-4" d="M476.94,487.33a28.18,28.18,0,0,1-15-9.39c-5-6.16-3.76-12.31-2.63-21.91,2.24-19.09.29-10.69-1.4-23.91-2.15-16.89-5.73-48,8.31-50.21,17.24-2.75,21.26-1.15,22.86,4.4s-1.09,3.49,0,7.48,3.92,42.09,5.44,50.49.72,13.11.72,13.11.93,9.71.89,14.88S495.14,489.5,476.94,487.33Z"/><path class="cls-3" d="M476.88,487.81s9.37-17.34,10.14-24.22c1.08-9.7-10.21-72.08-10.21-72.08s6.1-18.53,12.3-5.2c2.43,5.23,1.42,29.09,2.51,33.08s1.41,16.49,2.93,24.89.72,13.11.72,13.11.93,9.71.89,14.88S495.07,490,476.88,487.81Z"/><path class="cls-3" d="M486.52,454.35l-6.71-20.91-8.66-13.62s15.43,9.61,17.16,18.7A26.25,26.25,0,0,1,486.52,454.35Z"/></g><g id="left_arm" data-name="left arm"><path class="cls-6" d="M463.18,571.9c-6.25.54-25.91-30.56-25.91-42.49,0-5.18,11.4-19.68,11.4-19.68l1-5.18C450.49,500.63,454,476,458,472s10,3,20,3,18.66-14.58,18.34.53-11.82,38.6-13.06,50.23S469.58,571.34,463.18,571.9Z"/><path class="cls-7" d="M463.18,571.9c-6.25.54-25.91-30.56-25.91-42.49,0-5.18,13.58,2,17,2.27s15.57-9.49,15.57-9.49l-3.43-5.54S468,475,478,475s18.66-14.58,18.34.53-11.82,38.6-13.06,50.23S469.58,571.34,463.18,571.9Z"/></g><g id="torso"><path class="cls-2" d="M507,648c-2,3-2,5,2,6s3-4,12-5c5.61-.62,12.75,3.84,15,8,1.36,2.52-2.26,6.13,0,5,6-3,7-14-7-18a24.12,24.12,0,0,0-23,5"/><path class="cls-15" d="M373.17,552.05s16.17-13.72,47.83-20c10-2,26.45,9.63,38,36s40,83,40,83-21.69,29.68-47,47c-18.77,12.84-41.34,15.82-49,11C385,697.68,347.28,568.93,373.17,552.05Z"/><path class="cls-13" d="M417.93,541.17c2.94,6.85-3.83,19.75-13.12,23.74s-23.79-2.23-26.74-9.08S385.73,545,395,541,415,534.32,417.93,541.17Z"/><path class="cls-24" d="M457,666.15l-12.45-60.28-26.28-68.15c12.22-2,36.43,12.27,48,38.64S499.59,651,499.59,651l-7,15L448,708l-43,3,13.67-2.88s25.94-7,29.8-11.87c7.87-10,20.4-42.14,20.4-42.14Z"/><path class="cls-4" d="M419.36,537.48C421.2,530.83,429,527,435,527s-3,0,17,21c5.23,5.49,12.08,10.29,15.51,16,25.55,42.79,55.16,53,61.49,60,7.18,8,15.42,25.78,10,38-2.48,5.58,8-15-14-19-8.85-1.61-19,6-19,6-10-4-34.2-26.65-43.16-47.3C458.23,591.08,447,569.39,437,556,427.52,543.36,419,538.72,419.36,537.48Z"/><path class="cls-3" d="M419.36,537.48C421.2,530.83,429,527,435,527s-3,0,17,21c5.23,5.49,12.08,10.29,15.51,16,25.55,42.79,55.16,53,61.49,60,7.18,8,15.42,25.78,10,38-2.48,5.58,8-15-14-19l-9.8-19.54c-10-4-33.23-22.94-33.23-22.94S447,569.39,437,556C427.52,543.36,419,538.72,419.36,537.48Z"/><path class="cls-25" d="M406.5,535.5c16.33,5.45,24.16,55.58,17,57.91s-52.12-38.72-43-48.91"/><ellipse class="cls-26" cx="424.92" cy="597.71" rx="2.67" ry="5.11" transform="translate(-156.55 150.82) rotate(-17.05)"/><path class="cls-2" d="M414.44,531.29c5.94-2.5,8.65-1.52,12.86-.33s7.54,5.27,14.74,16.1,18.41,43.43,15,44.94-14.71-26.86-22-36S408.5,533.79,414.44,531.29Z"/><path class="cls-2" d="M400,722c7.22-2.41,11-10,4-9s-9,6-16,11-15.67,13.66-11,23c2,4,3,4,6-2S388,726,400,722Z"/><path class="cls-3" d="M372.89,556.11c7.18,2.61,23,33.55,28.67,51s2.25,45.18,5.73,56.22,4.89,46.74,2.65,49.83c-.89,1.23-17.58,6.14-23.94,12.81a38.13,38.13,0,0,0-10,23s-34.79-29.21-17-87c-1-23-24.65-72.24-23-80S365.71,553.49,372.89,556.11Z"/><path class="cls-4" d="M381.44,568.54c7.19,2.61,14.46,21.12,20.12,38.6s2.25,45.18,5.73,56.22,4.89,46.74,2.65,49.83C408.3,715.46,403,673,403,673s-10.36-2.19-11.44-10.36c-.52-4,1.73-55.32,1.73-55.32S374.26,565.92,381.44,568.54Z"/><path class="cls-2" d="M405.3,618.33c2.23-4.39-.76-11.51-5.51-22.37S388,567.27,379.38,557.72c-9.05-10-29.22.92-20.1,5,9.42,4.21,19.89,11.91,29.71,28.32C399.91,609.29,403.08,622.71,405.3,618.33Z"/><path class="cls-2" d="M387.77,686.55l3.9,1s-2.69,15.2-14.84,18.87l-1.21-2.77S384.59,700.22,387.77,686.55Z"/><path class="cls-4" d="M395.55,612.36s9.18,25.3-6.78,34.95A140.9,140.9,0,0,0,395.55,612.36Z"/><path class="cls-2" d="M496,626l1,3.79s5,3.21,22,1.21l-1-4S505,632,496,626Z"/></g><g id="icon-home"><circle class="cls-26" cx="601.8" cy="404.11" r="34.02"/><polyline class="cls-27" points="579.32 406.64 598.41 387.61 625.42 395.91"/><path class="cls-2" d="M617.21,396.66a5,5,0,0,0-3.63-4.53l-11.82-3.55a5.68,5.68,0,0,0-5.67,1.48l-8,8.21a5,5,0,0,0-.93,5.75L596,421.13a5.36,5.36,0,0,0,6.07,2.6l11.76-2.89a5.34,5.34,0,0,0,4.17-5.29Zm-12.65,13.55a5.59,5.59,0,1,1,4.42-6.82A5.75,5.75,0,0,1,604.56,410.21Z"/><path class="cls-28" d="M631,394.29c0,12.46-55.87,12.46-55.87,0s12.5-22.56,27.93-22.56S631,381.83,631,394.29Z"/></g><g id="hashtag"><line class="cls-29" x1="556.81" y1="478.96" x2="570" y2="505.07"/><line class="cls-29" x1="546.97" y1="508.34" x2="571.63" y2="490.21"/><line class="cls-29" x1="542.78" y1="500.18" x2="567.44" y2="482.06"/><line class="cls-29" x1="546.35" y1="486.85" x2="559.54" y2="512.96"/></g><g id="icon-share"><polygon class="cls-30" points="376.21 296.96 309.75 334.41 361.97 357.62 376.21 296.96"/><polygon class="cls-28" points="376.21 296.96 350.63 312.52 361.97 357.62 376.21 296.96"/><polyline class="cls-31" points="376.21 296.96 372.67 300.97 333.22 344.69 336.12 345.75 376.21 296.96"/></g><g id="icon-comment"><path class="cls-15" d="M278.74,241.9c.83,1.73,7.18,15.43,3.43,23.82a.94.94,0,0,0,1.35,1.19c7.27-4.54,22.86-16.57,22.39-36.1-.6-25.23-27.43,2-27.26,10.7A.89.89,0,0,0,278.74,241.9Z"/><rect class="cls-15" x="238.07" y="196.89" width="67.84" height="56.33" rx="23.21"/><path class="cls-28" d="M256.65,213.78a6.74,6.74,0,0,1,.93-12c10.14-4.06,26.65-.76,30.54-.3,11.64,1.4,14.13,15,13.83,28.35a6.54,6.54,0,0,1-9.93,5.44Z"/></g><g id="icon-like"><circle class="cls-26" cx="169.77" cy="339.48" r="37.65"/><path class="cls-2" d="M161.08,365.24h0c-3.26,1.88-6.66,1.09-9-2.93l-4.53-8.58c-2.32-4-2.14-8.07,1.12-10h0c3.26-1.88,6.47-1.44,8.79,2.58l4.53,8.58C164.33,359,164.34,363.36,161.08,365.24Z"/><path class="cls-2" d="M158.93,345.05c-1.26-2.11-.44-4.41.09-6.82.67-3.05,1.89-10,1.4-11.2-.82-2.06-5-10-4.1-12.2s6.47-2.68,8.83-.3c2.87,2.9,2.87,4.3,3.91,8.42.87,3.49.54,4.19,4,3.08,4-1.29,9.66-1.84,11.4-2.6a4.57,4.57,0,0,1,6.1,2.8,3.07,3.07,0,0,1-.3,3,5.16,5.16,0,0,1,2.5,3.4,7.59,7.59,0,0,1-.5,4.7s3.5,1.5,2.3,6.5c0,0,2.31,4.57-.7,7.2-2.29,2-6.42,3.67-11.4,5.8-8.4,3.6-14.25,3.75-15.9,2.1S158.93,345.05,158.93,345.05Z"/><path class="cls-28" d="M197.42,334.6c0,16-58.6,16-58.6,0a29.3,29.3,0,0,1,58.6,0Z"/></g><g id="icon-notification"><path class="cls-32" d="M319.8,409.61a12.54,12.54,0,1,1-24.21,6.53"/><path class="cls-32" d="M295.57,376.08s10.64-6.88,18.83,8.51c2.48,4.66,4.2,8,7.38,13.72,1.44,2.57,7.48,8.36,7.48,8.36l-23.71,6.4"/><path class="cls-32" d="M299.94,374.9s-12.66-.59-12,16.83c.2,5.27.4,9,.52,15.56.05,2.95-2.27,11-2.27,11l23.72-6.39"/></g><g id="icon-love"><path class="cls-21" d="M172.52,605.79c11.29,16.42,32.65,20.76,48.34,11.2,15.38-9.37,21.56-29.87,13.45-47.32-8.92-19.16-31.67-27.89-50.36-17.5C164.82,562.8,160.06,587.7,172.52,605.79Z"/><path class="cls-28" d="M199.51,574.41s36.41,12.12,29.33-3.1C221.05,554.59,201.21,547,184.91,556,168.22,565.31,199.51,574.41,199.51,574.41Z"/><path class="cls-33" d="M179.94,586.05c-.12-13.9,15.84-9.15,17.88-8.48.46-2.1,4.38-18.06,16-11,17,10.45,1.67,35.51-.15,38.35l.07.13h-.16a1.1,1.1,0,0,1-.09.14l-.07-.13C210.06,605.36,180.13,606.89,179.94,586.05Z"/></g><g id="Layer_10" data-name="Layer 10"><path class="cls-2" d="M394.54,621.78l49.95-20.44a9.09,9.09,0,0,1,11.7,4.63l19.52,42.67a9.07,9.07,0,0,1-4.62,12.1l-53.55,23.38a9.07,9.07,0,0,1-12.21-5.32L389.4,633.18A9.09,9.09,0,0,1,394.54,621.78Z"/><circle class="cls-26" cx="433.31" cy="642.45" r="18.73"/><polygon class="cls-4" points="425.58 634.51 433.75 654.02 442.5 638.22 425.58 634.51"/><g class="cls-34"><path class="cls-35" d="M409.31,618.79l36-14.73a6.55,6.55,0,0,1,8.43,3.34l14.07,30.74C469.32,641.47,406.08,620.11,409.31,618.79Z"/></g></g><g id="head"><path class="cls-13" d="M373.52,523.21l12.94,34s4.63,6,14.84,2.52,9.91-12.28,9.91-12.28L397.09,509.3Z"/><path class="cls-23" d="M373.52,523.21s16.9,20,22.88,23S410,546,410,546l-11.66-37Z"/><path class="cls-7" d="M354.1,517.77c16.4,17,25.6,18.5,25.6,18.5,33.09-8.93,38.22-38.51,29-58-8.8-20.51-12.95-25.51-35.95-17.4C340.69,472.15,339.49,502.64,354.1,517.77Z"/><path class="cls-10" d="M354.1,517.77C370.5,534.76,378,529,378,529c33.1-8.92,39.92-31.24,30.68-50.74-8.8-20.51-11-29.14-38.22-21.2C332.63,468.09,339.49,502.64,354.1,517.77Z"/><path class="cls-7" d="M352.05,518.81c14,14.49,33.21-7.32,33.21-7.32,3.73-4.84-1.06-23-4.39-34.95-2.87-10.3-.76-21.85-27.1-8.59C330.36,479.74,339.6,505.91,352.05,518.81Z"/><path class="cls-23" d="M373.51,463.35s20.5,2.42,24.59,4.51,19.46,35.51,18.15,48.42c-1.3,12.74-36.87,24.58-47.71,19.78-8.88-3.92-9.74-10.89-15.13-20.92-5.68-10.57-.79-20.71-1.59-25.34C350.43,481.88,373.51,463.35,373.51,463.35Z"/><path class="cls-23" d="M345.54,517.09c3.8,5.74,10.09,9.47,12.55,8.19s1.41-7-2.4-12.8-8.93-9.45-11.39-8.11S341.74,511.34,345.54,517.09Z"/><path class="cls-13" d="M397.54,473.89c6.92,1.5,22.5,37.77,14.82,46.57s-16.9,10.52-25.85,7.13c-7.84-3-13.95-29.89-8-38.69C385.71,478.13,390.61,472.4,397.54,473.89Z"/><path class="cls-7" d="M347.89,483.39s7.95,15.68,7.88,21.26l-1.56,8.8-10.34-22.61Z"/><path class="cls-7" d="M395.06,454.76s-3.85,8.59-23.82,15.29c-9.91,3.32-17.18,9.73-22.32,10.33-12.64,1.46.05-27.41,20.19-34.92C389.47,437.88,395.06,454.76,395.06,454.76Z"/><path class="cls-10" d="M369.14,445.17c-15.93,6.7-28.09,27.37-17.91,26.19,2.89-.34,7.45-1,12.88-2.14,8.75-4.42,16.8-12.27,16.8-12.27.83,4.65-3.72,8.1-9.08,10.5a148.47,148.47,0,0,0,15-4.62c8.36-3.1,9.4-2.95,9.07-5.95C395.25,450.77,386.35,437.94,369.14,445.17Z"/><path class="cls-36" d="M369.82,491c.74,2.41,2.2,3.12,3.41,2.75s1.7-1.68,1-4.1-2.32-4.07-3.53-3.7S369.08,488.56,369.82,491Z"/><path class="cls-36" d="M390.11,485c.74,2.41,2.2,3.12,3.41,2.75s1.7-1.68,1-4.09-2.32-4.07-3.52-3.7S389.37,482.59,390.11,485Z"/><path class="cls-36" d="M364,485.09a.78.78,0,0,0,.5-.62h0c0-.18.72-4.41,4.22-4.64a.78.78,0,0,0,.73-.83.79.79,0,0,0-.83-.74c-3.81.25-5.38,4-5.67,6a.79.79,0,0,0,.66.89A.86.86,0,0,0,364,485.09Z"/><path class="cls-36" d="M397,474.68a.66.66,0,0,0,.2-.11.78.78,0,0,0,.15-1.09c-2.17-2.9-6-2.19-7.66-1.41a.78.78,0,0,0-.38,1,.79.79,0,0,0,1,.39c.16-.08,3.81-1.68,5.76.92A.78.78,0,0,0,397,474.68Z"/></g><g id="right_arm" data-name="right arm"><path class="cls-7" d="M285.63,650.53s36.61-55.67,43.48-64.56c7-9.07,16.18-17.07,27.63-11.74s21.07,21.67,11.73,34-30.25,43.62-37.35,49.46S311.35,676,311.19,670.37,285.63,650.53,285.63,650.53Z"/><path class="cls-6" d="M285.63,650.53c-1.69-2.21,10.49-16.18,22.37-32.53,9.21-12.68,18.11-28.15,21.11-32,7-9.07,23.57-19.46,22.89-6.86-1.07,19.67-36,29-29.53,57.89C327.06,657.52,288.64,654.45,285.63,650.53Z"/><path class="cls-6" d="M341.57,598.53s-15.19,5.27-22.84,20S341.57,598.53,341.57,598.53Z"/></g><g id="right_forearm" data-name="right forearm"><path class="cls-4" d="M370,652s-14-2-36-5-31-18-42-9-14,29-5,37,43,11,60,14,23,11,27-2S376,657,370,652Z"/><path class="cls-3" d="M370,652s-14-2-36-5,24.54,16.81,24.54,16.81S370,700,374,687,376,657,370,652Z"/><path class="cls-2" d="M377.32,657.24s-7.79-2.37-10.38,7.88.48,22.22,5.86,23.73,4.52-4.8,4.52-4.8-3.46-1.58-3.46-8.68,6.06-14.19,6.06-14.19Z"/><path class="cls-13" d="M373.18,679.44c-3-5.25-1.57-10.23-.09-16.92,1.85-8.33,5.69-16.53,7.91-21.52,4-9,11.56-8.44,16.11-9.63,7.62-2,10.58-1.58,10.58-1.58s5.94,2.18,4.85,4.16-9.86,1.7-9.69,2,1.77-.38,3.66.7a4.7,4.7,0,0,1,2.07,4A3.83,3.83,0,0,1,408,643a2.4,2.4,0,0,1,2.77,1.59,13.57,13.57,0,0,1,.79,4.15,9,9,0,0,1-1.39,3.56s1.39-1,2.38,1.58-.45,5.87-.54,6.46c-1,7-18,10.62-18,10.62a16.69,16.69,0,0,1-8.16,10.62c-7,4-7.39,3.78-8.84,2.38A52,52,0,0,1,373.18,679.44Z"/></g></g></svg>