<?xml version="1.0" encoding="utf-8"?>
<!-- Generator: Adobe Illustrator 23.1.0, SVG Export Plug-In . SVG Version: 6.00 Build 0)  -->
<svg version="1.1" xmlns="http://www.w3.org/2000/svg" xmlns:xlink="http://www.w3.org/1999/xlink" x="0px" y="0px"
	 viewBox="0 0 960 1080" style="enable-background:new 0 0 960 1080;" xml:space="preserve">
<style type="text/css">
	.st0{fill:#F3E7D9;}
	.st1{fill:none;stroke:#273252;stroke-width:2;stroke-linecap:round;stroke-linejoin:round;stroke-miterlimit:10;}
	.st2{fill:none;stroke:#273252;stroke-linecap:round;stroke-linejoin:round;stroke-miterlimit:10;}
	.st3{fill:#B44C29;}
	.st4{fill:#CC6D3D;}
	.st5{fill:#A96443;}
	.st6{fill:#7A462F;}
	.st7{fill:#1D2538;}
	.st8{fill:#273252;}
	.st9{fill:#C94039;}
	.st10{fill:#992C29;}
	.st11{fill:#F5894E;}
	.st12{fill:#F7BC4B;}
	.st13{fill:#CE9436;}
	.st14{fill:none;stroke:#992C29;stroke-miterlimit:10;}
	.st15{fill:#29ABE2;}
	.st16{fill:#3E4C6F;}
	.st17{fill:#34283A;}
	.st18{fill:#D77D5B;}
	.st19{fill:#FFFCF3;}
	.st20{opacity:0.3;fill:#D77D5B;}
	.st21{fill:#665070;}
	.st22{fill:#856792;}
	.st23{fill:#BB83C3;}
	.st24{fill:#EE5D4F;}
	.st25{fill:#121721;}
	.st26{fill:none;stroke:#9E54C7;stroke-width:3;stroke-miterlimit:10;}
	.st27{fill:#4B3355;}
	.st28{fill:none;stroke:#273252;stroke-width:0.75;stroke-miterlimit:10;}
</style>
<g id="clouds">
	<path class="st0" d="M600.5,333.5c0,0,134-50,194-76s32-21,32-21s35-22,50-34s4-35-23-19c0,0,17-54-37-70s-129,42-143,72
		s-13,59-2,71c0,0-32-16-57,0s-24,37-14,52c0,0-48.83-1.3-43,22C561.5,346.5,600.5,333.5,600.5,333.5z"/>
	<path class="st0" d="M122,240c0,0-31-16-30-21s24,6,24,6s4-49,56-55s64,54,64,65c0,0,16-10,28-6s38,21,25,48c0,0,19-7,36,1
		s59,19,59,19l-10,4c0,0,30,3,52,9s22,6,22,6s-35-9-53-8s-52-11-64-12s-44-11-44-11s34,17,2,11S122,240,122,240z"/>
	<path class="st0" d="M480,432c0,0,109-36,123-41s29-12,44-14s53-14,67-25s25-16,25-16s-33,6-54,16s-21,10-21,10s-30-13-55-7
		s-53,32-55,47c0,0-12-4-31,2S480,432,480,432z"/>
	<path class="st0" d="M241,525c0,0,30,5,44,2s-60-14-72-23s-1-4-1-4s17,3,8-6s-33-19-59-15l-37,1c0,0,8,9,44,24s24,2,24,2L241,525z"
		/>
</g>
<g id="birds">
	<path class="st1" d="M369,223c0,0,31-3,39,23c0,0-2-25,21-26"/>
	<path class="st2" d="M467.5,187.5c0,0,12,11,14,11s5-15,5-15"/>
</g>
<g id="water">
	<path class="st0" d="M604.23,755.1c0,0,0.17,0.2,0.53,0.54c2.56,2.43,14.79,12.09,45.47,9.46c35-3,59-1,69,1s26,2,45,0s56-5,53-7
		s-7-4-7-4s35,0,29-6s-39-6-58-10s-105,0-128-1s-123,2-104,7"/>
</g>
<g id="paddle_01">
	<g>
		<path class="st3" d="M778.71,597.65l-2.74-3.85c-1.15-1.62-3.43-1.96-5-0.74l-108.28,83.61c-1.6,1.24-1.83,3.57-0.49,5.09l0,0
			c1.19,1.36,3.22,1.59,4.68,0.53l111.02-79.76C779.46,601.4,779.83,599.22,778.71,597.65z"/>
		<polygon class="st4" points="773.38,593.16 774.77,597.48 662.88,680.78 663.98,675.6 770.96,593.05 		"/>
	</g>
</g>
<g id="boat_1_">
	<path class="st5" d="M471.48,642.65c6.13-0.2,66.13-0.2,97.25-4.42c31.12-4.22,49.58-6.07,49.58-6.07s74.37,11.34,152.44-3.43
		l-32.7,12.13c0,0-100.62,0.13-110.64-0.92c-0.52-0.05-5.14-0.66-12.79-0.13c-7.65,0.53-97.58,15.3-118.15,12.13
		C496.47,651.95,465.35,642.85,471.48,642.65z"/>
	<path class="st6" d="M483.81,647.73c0,0,1.58-1.58,4.75-2.64c0,0,31.93,0.33,63.3-1.58c31.88-1.94,63.22-6.13,65.41-6.33
		c0,0,76.48,4.75,96.53,2.11c0,0-73.32,13.71-118.15,17.93C550.8,661.44,483.81,647.73,483.81,647.73z"/>
</g>
<g id="K_left_leg">
	<path class="st7" d="M652.08,618.19c0,8.59-11.77,15.3-29.54,15.3s-32.18-6.97-32.18-15.56c0-8.59,14.41-15.56,32.18-15.56
		S652.08,609.59,652.08,618.19z"/>
	<path class="st7" d="M619.37,622.93l6.86,39.56l36.92-1.58c0,0-10.02-42.2-11.6-47.47C649.97,608.16,626.23,611.86,619.37,622.93z"
		/>
	<path class="st8" d="M623,642.65l3.23,19.85l29.01-2.64c0,0-11.47-8.97-13.05-14.24C640.6,640.34,631.51,638.1,623,642.65z"/>
</g>
<g id="K_right_thigh">
	<path class="st7" d="M610.93,609.75c0,0-30.59-24.26-42.2-28.48s-20.57,11.6-18.99,16.35s0.59,19.7,20.04,24.79
		c22.15,5.8,39.43,11.01,46.29,9.96C622.93,631.31,619.9,617.13,610.93,609.75z"/>
</g>
<g id="K_left_arm">
	<path class="st8" d="M641.27,531.16c2.15-2.72,3.43-4.84,8.74-0.93c5.3,3.91,11.96,16.49,11.96,16.49s0.61,0.78,2.57,1.78
		s6.19,10.08,7.12,11.87c0.93,1.78,9.89,8.11,2.77,14.84c-4.55,4.3-8.19,7.27-14.14,1.41c-5.95-5.86-14.34-19.68-18.55-24.59
		C637.54,547.11,639.07,533.94,641.27,531.16z"/>
	<path class="st7" d="M641.27,531.16c2.15-2.72,3.43-4.84,8.74-0.93c0,0,0.78,5.46,5.43,11.15c5.34,6.53,4.15,8.9,4.15,8.9l-0.2,8.9
		c0,0,3.45,5.26,4.38,7.04s3.22,17.07,3.22,17.07s-0.75-0.82-6.71-6.68c-5.95-5.86-14.34-19.68-18.55-24.59
		C637.54,547.11,639.07,533.94,641.27,531.16z"/>
	<g>
		<path class="st9" d="M665.73,569.86c0,0,3.76-3.36,9.49-3.56c4.56-0.16,6.92,2.57,10.91,6.43c7.92,7.66,4.78,3.85,11.39,7.68
			c8.45,4.9,13.95,7.23,10.08,14.41c-4.75,8.82-6.88,10.1-9.96,8.9c-3.09-1.2-1.21-1.71-3.41-2.6c-2.2-0.89-10.63-6.01-14.99-8.25
			s-6.23-4.23-6.23-4.23s-4.75-2.95-7.09-4.77C663.56,582.05,658.4,577.4,665.73,569.86z"/>
		<path class="st10" d="M665.53,569.66c0,0,4.65,10.31,7.52,13.05c4.05,3.87,26.51,13.58,26.51,13.58s6.33,9.23-1.91,7.42
			c-3.23-0.71-1.21-1.71-3.41-2.6c-2.2-0.89-10.63-6.01-14.99-8.25s-6.23-4.23-6.23-4.23s-4.75-2.95-7.09-4.77
			C663.56,582.05,658.2,577.2,665.53,569.66z"/>
		
			<ellipse transform="matrix(0.3263 -0.9453 0.9453 0.3263 -88.8365 1068.7528)" class="st0" cx="705.37" cy="596.7" rx="7.67" ry="5.69"/>
		
			<ellipse transform="matrix(0.3263 -0.9453 0.9453 0.3263 -88.2964 1069.5264)" class="st4" cx="706.18" cy="596.71" rx="5.57" ry="3.86"/>
	</g>
	<g>
		<path class="st11" d="M708.16,591.69c0,0-4.68,3.74-4.68,6.86s3.1,4.4,5.18,6.22c2.08,1.82,11.45,1.48,13.76,1.3
			c3.36-0.27,1.32-1.55,1.32-1.55s2.41,0.28,4.01-1.14c0.89-0.79,0.49-1.88,0.49-1.88s1.69-0.25,2.37-0.59
			c0.79-0.4,1.46-1.52,0.89-2.27c-0.57-0.75-1.98-0.99-1.98-0.99s2.32-3.7-0.59-3.16c-3.76,0.69-8.11,0.4-8.11,0.4
			s-1.78-0.69-2.57-1.38c-1.26-1.1-0.59-1.09-0.89-1.09c-0.78,0,1.96-0.09,6.37-1.39c4.41-1.3,0-4.41-3.38-3.12
			c-3.38,1.3-8.31,1.04-9.61,1.3S708.16,591.69,708.16,591.69z"/>
		<path class="st4" d="M720.65,595.37c0,0-0.4,2.9-0.4,3.3c0,0.4-2.64,3.3-2.64,3.3l1.45-2.9L720.65,595.37z"/>
		<path class="st4" d="M720.52,596.96c0,0,2.51,0.56,4.35,0.69c1.85,0.13,3.96-0.2,3.96-0.2s-3.46,0.99-8.31,0.3
			C719.33,597.58,720.52,596.96,720.52,596.96z"/>
		<path class="st4" d="M722.3,603.88c0,0-1.88-0.69-3.36-0.49c-1.48,0.2-4.05-0.59-4.05-0.59s-2.27-2.47-3.16-2.67
			c0,0,3.56,1.09,4.05,2.47c0,0,2.08,0.59,3.36,0.4C720.42,602.79,722.3,603.88,722.3,603.88z"/>
		<path class="st4" d="M719.33,600.02c0,0,2.47,0.49,3.66,0.79s5.74,0.4,5.74,0.4s-4.85,0.3-5.64,0.1
			C722.3,601.11,719.33,600.02,719.33,600.02z"/>
	</g>
	<path class="st10" d="M676.08,585.75l11.87,4.22l9.23,0.79c0,0-9.76,3.69-14.51,1.32C677.92,589.7,676.08,585.75,676.08,585.75z"/>
</g>
<g id="K_torso">
	<path class="st0" d="M648.62,613.08c0,0-2.34,2.47-0.23,2.21c2.11-0.26,7.62-2.93,8.14-4.78s-4.19-3.13-5.77-1.29
		C649.18,611.07,648.62,613.08,648.62,613.08z"/>
	<g>
		<path class="st9" d="M636.14,525.79c3.96-10.58-19.64-15.82-32.12-15.75c-7.73,0.04-16.34,4.57-18.46,8.07
			c-0.73,1.2-4.02,8.11-4.48,11.81c-0.5,4.04,2.75,21.46,9.73,20.25C600.36,548.51,632.18,536.37,636.14,525.79z"/>
		<path class="st0" d="M627.57,529.08c2.15-7.54-8.31-16.91-19.44-18.03c-12.95-1.31-21.55,5.16-21.8,9.49
			c-0.25,4.33,9.16,9.95,17.82,12.23C612.81,535.06,626.62,532.44,627.57,529.08z"/>
		<path class="st8" d="M602.37,528.98c-9.78-5.58-14.2-4.65-12.81-10.17c1.86-7.43,21.68-4.45,26.32-3.87
			c4.64,0.58,14.72,12.61,11.08,21.02C623.31,544.37,612.14,534.55,602.37,528.98z"/>
	</g>
	<path class="st12" d="M603.35,529.75c0,0,12.2-3.73,24.95-2.54c6.28,0.59,16.34,10.77,18.6,25.26c2.26,14.49,4.31,55.62,4.31,55.62
		s-45.29,4.29-52.67-3.62C591.15,596.56,588.41,534.69,603.35,529.75z"/>
	<path class="st11" d="M608.8,512.12l2.2,20.7c0,0,1.68,4.01,7.84,3.57c6.16-0.45,7.28-5.35,7.28-5.35l-2.24-23.18L608.8,512.12z"/>
	<path class="st4" d="M608.8,512.12c0,0,6.43,13.56,9.31,16.06c2.88,2.49,8.87,2.87,8.87,2.87l-2.35-23.18L608.8,512.12z"/>
	<path class="st13" d="M620.96,592.38l11.42-28.2l-4.08-36.97c6.28,0.59,16.34,10.77,18.6,25.26c2.26,14.49,4.31,55.62,4.31,55.62
		l-10.21,6.4l-36.66-7.38c0,0,12.83-4.43,20.07-9.87c5.17-3.88,3.95-9.24,3.95-9.24L620.96,592.38z"/>
	<path class="st9" d="M628.87,527.23c1.77-3.04,16.45-1.26,19.31,3.1c0.89,1.36,0.73,7.52,1.54,11.02
		c1.78,7.72,4.14,15.05,3.72,18.11c-0.61,4.46,0.82,25.11,3.32,29.96c2.5,4.85,0.89,16.88-0.42,19.7c-1.31,2.82-7.96,4.31-7.96,4.31
		l-3.96-21.63c0,0-0.77-15.98-2.5-27.31S628.19,528.4,628.87,527.23z"/>
	<path class="st10" d="M628.87,527.23c1.77-3.04,11.8,3.54,14.66,7.9c2.86,4.35,2.93,48.79,2.93,48.79s0.85,6.75,0.4,7.36
		s3.36,8.18,3.36,8.18l-1.58,13.98l-4.22-17.93c0,0-0.77-19.67-2.5-31S628.19,528.4,628.87,527.23z"/>
	<g>
		<path class="st14" d="M627.15,527.73c7.2,5.99-0.32,32.96-4.41,32.72c-4.1-0.24-19.16-29.22-12.52-32.58"/>
		
			<ellipse transform="matrix(0.0746 -0.9972 0.9972 0.0746 14.8646 1141.8235)" class="st15" cx="622.62" cy="562.9" rx="2.78" ry="1.45"/>
	</g>
	<path class="st0" d="M627.73,525.46c3.65-0.51,5.01,0.42,7.16,1.7c2.16,1.28,3.4,4.02,5.81,11.06s2.21,20.83,0.08,21.16
		s-3.74-9.65-6.44-15.78C631.65,537.49,624.08,525.97,627.73,525.46z"/>
	<g>
		<path class="st0" d="M586.61,601.99c0,0-0.73,1.46,2.17,1.67c2.9,0.21,13.98,6.92,16.09,5.87c2.11-1.05,0-2.95,0-2.95
			L586.61,601.99z"/>
		<path class="st10" d="M605.44,529.28c3.2,2.22,6.96,19.51,7.48,28.85c0.51,9.34-4.76,22.54-4.49,28.43s-1.46,19.77-2.97,21.01
			c-1.51,1.23-18.86-5.57-18.86-5.57s-8.65-7.19-0.56-21.43c5-8.8,1.97-43.61,3.79-47.21S602.24,527.06,605.44,529.28z"/>
		<path class="st9" d="M608.03,536.51c3.2,2.22,4.37,12.28,4.89,21.62c0.51,9.34-4.76,22.54-4.49,28.43s-1.46,19.77-2.97,21.01
			c-1.51,1.23-6.68-7.86-4.68-23.41c0.26-2.03,8.04-27.01,8.04-27.01S604.84,534.29,608.03,536.51z"/>
		<path class="st0" d="M613.31,564.12c1.66-1.87,1.12-5.76,0.19-11.73c-0.93-5.96-2.05-15.65-5.07-21.48
			c-3.16-6.09-14.5-3.35-10.55-0.16c4.09,3.3,8.25,8.45,10.95,17.8C611.83,558.97,611.64,565.99,613.31,564.12z"/>
		<path class="st0" d="M601.56,589.57l1.8,0.98c0,0-3.3,7.14-9.76,7.36l-0.24-1.52C593.37,596.39,598.22,595.9,601.56,589.57z"/>
	</g>
	<path class="st9" d="M609.28,559.91c0,0,1.23,13.65-7.88,16.33C601.4,576.24,605.91,569.79,609.28,559.91z"/>
	<path class="st0" d="M651.48,594.48l-0.99,1.81c0,0,1.32,6.59,4.22,7.91l0.73-1.32C655.44,602.89,652.57,599.53,651.48,594.48z"/>
</g>
<g id="K_right_arm">
	<g>
		<path class="st7" d="M565.04,560.16c0,0,13.52-17.1,17.01-21.36c3.56-4.35,6.73-9.49,12.26-6.73s11.47,12.26,6.73,18.2
			s-15.43,20.97-18.99,23.74s-7.12,2.37-7.12-0.4C574.93,570.85,565.04,560.16,565.04,560.16z"/>
		<path class="st8" d="M565.04,560.16c0,0,13.52-17.1,17.01-21.36c3.56-4.35,9.87-11.45,9.36-5.27
			c-0.79,9.63-16.09,15.96-13.32,30.2C580.07,573.85,565.04,560.16,565.04,560.16z"/>
		<path class="st8" d="M587.99,545.13c0,0-7.52,2.37-11.47,9.49C572.56,561.75,587.99,545.13,587.99,545.13z"/>
	</g>
</g>
<g id="K_right_forearm">
	<g>
		<path class="st9" d="M576.91,564.91c0,0-1.19-4.75-7.32-5.74c-2.3-1.21-6.79,0.33-8.77,3.1s-7.65,3.43-7.65,3.43
			s-10.68,6.33-13.05,6.73c-2.37,0.4-2.77,3.76-2.37,7.71c0.4,3.96,3.16,10.48,8.7,13.25s7.64-0.25,9.1-3.16
			c1.05-2.11,8.31-4.75,14.64-8.7C576.52,577.57,582.05,572.82,576.91,564.91z"/>
		<path class="st10" d="M576.91,564.91c0,0-1.19-4.75-7.32-5.74c-2.3-1.21,5.34,9.3,3.36,12.07s-7.12,4.75-7.12,4.75
			s-9.1,9.1-11.47,9.49c-2.37,0.4-13.45,5.14-7.91,7.91s7.64-0.25,9.1-3.16c1.05-2.11,8.31-4.75,14.64-8.7
			C576.52,577.57,582.05,572.82,576.91,564.91z"/>
		<path class="st0" d="M545.46,594.58c0,0,6.26-1.22,4.95-6.73c-1.98-8.31-8.7-12.86-13.85-12.07
			C531.42,576.58,533.99,592.6,545.46,594.58z"/>
		<path class="st4" d="M543.63,592.06c0,0,4.7-1.16,3.18-4.93c-1.52-3.77-5.59-9.42-8.9-8.84S536.26,590.61,543.63,592.06z"/>
	</g>
</g>
<g id="K_right_hand">
	<g>
		<path class="st11" d="M538.93,580.34c0,0-5.14-3.96-12.26-4.35c-7.12-0.4-12.66-4.55-14.24-0.59c-1.58,3.96,2.51,3.61,5.14,4.55
			c2.77,0.99,5.27,2.51,5.27,2.51l-4.48,5.67c0,0-6.09,4.77-7.52,7.78c-1.78,3.76-0.4,4.35,2.77,3.56c3.16-0.79,2.9-2.9,2.9-2.9
			s-2.51,5.54-0.53,6.33c1.98,0.79,4.35-0.4,4.35-0.4s1.98,1.19,3.96,0.4c1.98-0.79,4.35-2.64,4.35-2.64s-0.2,2.97,3.16,1.58
			c1.87-0.77,7.12-6.07,12.26-11.21C549.22,585.48,538.93,580.34,538.93,580.34z"/>
		<path class="st4" d="M537.35,583.9c0,0-2.64,3.43-1.32,6.59l-5.93,7.38l4.09-6.33C534.19,591.55,532.34,586.54,537.35,583.9z"/>
		<polygon class="st4" points="515.99,597.88 522.58,593.66 524.69,591.81 521.92,594.98 		"/>
		<polygon class="st4" points="521.79,590.23 527.33,593.66 532.08,593.92 527.86,592.6 		"/>
		<polygon class="st4" points="520.34,602.49 526.01,598.14 529.97,593.92 528.78,593.4 525.22,597.62 		"/>
	</g>
</g>
<g id="K_head">
	<g>
		<g>
			<path class="st7" d="M635.33,506.5c-5.56,13.1-10.41,15.93-10.41,15.93c-20.55,2.12-31.29-12.21-30.3-25.17
				c0.52-13.44,3.25-18.36,17.95-18.77C633.03,477.93,640.29,494.83,635.33,506.5z"/>
			<path class="st7" d="M635.33,506.5c-5.56,13.1-10.41,15.93-10.41,15.93c-20.55,2.12-31.29-12.21-30.3-25.17
				c0.52-13.44,1.36-19.98,18.4-21.39C636.69,473.9,640.29,494.83,635.33,506.5z"/>
			<path class="st16" d="M636.71,506.63c-4.74,11.17-20.27,3.05-20.27,3.05c-3.15-1.92-4.37-13.17-5.08-20.61
				c-0.61-6.42-4.29-12.46,13.4-10.68C640.48,479.97,640.93,496.69,636.71,506.63z"/>
		</g>
		<g>
			<path class="st4" d="M612.66,480.06c0,0-11.01,5.79-12.87,7.85c-1.85,2.06-3.28,24.18,0.24,31.17
				c3.48,6.89,26.05,5.87,31.12,0.83c4.15-4.13,3.13-8.23,4-15.04c0.91-7.17-4.03-11.82-4.57-14.6
				C629.65,485.5,612.66,480.06,612.66,480.06z"/>
		</g>
		<path class="st4" d="M639.7,501.8c-0.9,4.05-3.63,7.51-5.29,7.32c-1.67-0.19-2.3-3.64-1.41-7.72c0.9-4.1,2.98-7.24,4.66-7.02
			C639.31,494.59,640.6,497.74,639.7,501.8z"/>
		<g>
			<path class="st11" d="M601.42,491.18c-3.58,2.34-4.51,26.11,1.71,29.41c6.22,3.3,11.78,2.27,16.09-1.57
				c3.77-3.36,1.4-19.83-3.83-23.51C608.99,491.01,604.99,488.84,601.42,491.18z"/>
		</g>
		<path class="st11" d="M593.5,502.06c0.63,3.45,2.48,6.12,4.14,5.97c1.67-0.15,2.52-3.08,1.9-6.57c-0.63-3.49-2.5-6.19-4.17-6.01
			C593.7,495.64,592.87,498.59,593.5,502.06z"/>
		<path class="st16" d="M631.4,485.81c0,0-1.09,10.54,0.16,13.66l2.78,4.62l0.93-14.96L631.4,485.81z"/>
		<path class="st7" d="M597.31,504.06c0,0-0.2-10.5,0.41-13.65l1.3-4.69l0.02,14.91L597.31,504.06z"/>
		<g>
			<g>
				<path class="st7" d="M631.41,480.85c0,0-3.8,4.22-16.49,4.37c-6.3,0.08-11.66,2.41-14.72,1.8c-7.52-1.5,5.1-15.72,18.03-16.3
					C631.32,470.14,631.41,480.85,631.41,480.85z"/>
			</g>
			<path class="st16" d="M618.31,470.57c-10.37,0.9-21.17,10.52-15.11,11.71c1.72,0.34,4.46,0.79,7.78,1.15
				c5.84-0.92,11.91-3.94,11.91-3.94c-0.38,2.82-3.63,3.96-7.15,4.35c2.98,0.19,6.21,0.27,9.48,0.13c5.37-0.23,5.93,0.05,6.3-1.74
				C632.26,478.61,629.52,469.6,618.31,470.57z"/>
		</g>
	</g>
	<g>
		<path class="st17" d="M620.7,494.81c0.1,1.52-0.57,2.23-1.33,2.29s-1.32-0.58-1.42-2.1c-0.1-1.52,0.43-2.79,1.19-2.84
			C619.9,492.1,620.6,493.29,620.7,494.81z"/>
		<path class="st17" d="M607.99,495.83c0.1,1.52-0.57,2.23-1.33,2.29s-1.32-0.58-1.42-2.1c-0.1-1.52,0.43-2.79,1.19-2.84
			S607.89,494.31,607.99,495.83z"/>
		<g>
			<path class="st17" d="M622.7,490.24c-0.17,0-0.33-0.08-0.42-0.24l0,0c-0.05-0.1-1.36-2.33-3.38-1.7
				c-0.25,0.08-0.51-0.06-0.59-0.31c-0.08-0.25,0.06-0.51,0.31-0.59c2.19-0.68,3.89,1.1,4.48,2.14c0.13,0.23,0.05,0.52-0.18,0.64
				C622.85,490.22,622.77,490.24,622.7,490.24z"/>
		</g>
		<g>
			<path class="st17" d="M601.91,491.5c-0.04,0-0.09-0.01-0.13-0.02c-0.25-0.07-0.4-0.33-0.33-0.58c0.6-2.09,2.88-2.52,4.01-2.44
				c0.26,0.02,0.46,0.24,0.44,0.5c-0.02,0.26-0.25,0.45-0.5,0.44c-0.11-0.01-2.5-0.12-3.04,1.76
				C602.3,491.36,602.12,491.5,601.91,491.5z"/>
		</g>
	</g>
</g>
<g id="boat">
	<g>
		<g>
			<path class="st5" d="M469.45,644.37c0.41-1.29,1.72-2.07,3.06-1.8c11.45,2.31,63.37,12.42,91.72,11.53c32-1,127.56-12.5,159-21
				c35.66-9.64,100.54-29.42,100.54-29.42s-2.54,125.42-86.54,140.42s-152,13-175,5s-70-30-83-81l-7.55-2.44
				C471.68,665.66,468.18,648.36,469.45,644.37z"/>
		</g>
		<polygon class="st6" points="472.21,647.2 502.01,652.16 533.4,654.37 506.44,655.11 470.63,650.89 		"/>
		<path class="st6" d="M825.23,598.1l-9,5c0,0,0.11,48.83-18,76c-26,39-74.3,66.68-86.22,68.78c0,0,15.22,2.22,47.22-13.78
			s49-34,65-73S825.23,598.1,825.23,598.1z"/>
		<path class="st18" d="M712.6,748.08c0,0,29.63-0.98,59.63-26.98s42-49,47-69s6-54,6-54s22.18,0,25.18,0s3.49,31.68-2.11,53.32
			c-7.91,30.59-24.99,55.47-51.69,72.26c-13.48,8.48-31.14,15.81-43.85,19.05C726.22,749.51,712.6,748.08,712.6,748.08z"/>
		<path class="st6" d="M479.23,668.1c0,0,55,9,145,0s171.56-35.08,190.54-43.65l-0.4,5.44c0,0-129.14,38.21-188.14,42.21
			s-146.11-0.11-146.11-0.11l-0.92-4.02"/>
		<path class="st6" d="M812.43,653.79c0,0-30.2,10.42-44.44,13.19s-79.78,17.41-112.22,21.36c-23.61,2.88-72.26,6.86-72.26,6.86
			s64.98-1.48,105.76-8.44c55.65-9.49,121.45-27.3,121.45-27.3L812.43,653.79z"/>
		<path class="st6" d="M486.32,682.41c0,0,36.4,2.37,47.47,1.98c11.08-0.4,68.84,7.12,68.84,7.12l-114.33-2.77L486.32,682.41z"/>
		<path class="st6" d="M783.42,702.58c0,0-23.74,8.31-58.95,10.29c-35.21,1.98-151.52,7.12-151.52,7.12s56.97,0.79,70.81,0
			s74.77-1.98,86.64-2.77c11.87-0.79,37.58-2.77,45.49-6.73C783.81,706.54,783.42,702.58,783.42,702.58z"/>
		<path class="st6" d="M751.37,729.88c0,0-58.15,8.7-76.75,10.68c-18.59,1.98-105.23,2.77-105.23,2.77s51.82,1.98,65.27,1.58
			c13.45-0.4,45.1-0.79,45.1-0.79l63.3-9.1L751.37,729.88z"/>
		<path class="st5" d="M838.93,607.24c0,0,1.98,7.91-0.79,29.67c4.48-12.4,3.16-16.62,3.16-16.62s2.51,23.47-6.2,46.68
			c-10.34,27.56-31.12,46.95-31.12,46.95s26.89-20.6,36.4-52.22c7.65-25.45,4.75-45.89,3.69-44.31c-1.05,1.58-1.05-15.03-1.05-15.03
			L838.93,607.24z"/>
		<path class="st5" d="M830.1,613.59c0,0,2.42,18.85-1.76,29.6c-4.18,10.75-3.28,8.99-3.28,8.99S829.48,619.31,830.1,613.59z"/>
		<path class="st5" d="M796.34,709.97c0,0-19.25,16.75-24.79,21.1c-5.54,4.35-20.97,11.47-20.97,11.47
			c0.79-0.4,14.64-9.89,18.59-12.66c3.96-2.77,27.96-27.43,31.52-30.99c0,0-13.05,15.82-9.49,13.45
			C794.76,709.97,796.34,709.97,796.34,709.97z"/>
		<path class="st5" d="M822.58,668.36c-0.26,0.61-5.96,11.07-7.32,13.85s7.66-7.15,7.66-7.15s-1.05,12.88-10.72,23.81
			c0,0,7.51-7.27,15.77-24.24c8.25-16.95,6.11-23.77,6.11-23.77s-1.52,4.31-3.39,7.76c0,0-0.64-6.5-0.64-8.13
			C830.07,648.86,822.58,668.36,822.58,668.36z"/>
		<path class="st6" d="M803.99,670.93c0,0-14.24,4.75-16.62,6.33c-2.37,1.58-21.36,7.91-26.11,7.91s-34.02,3.16-34.02,3.16
			l-8.7,4.75l15.03-2.37l37.98-3.16l16.62-4.75l12.66-2.37L803.99,670.93z"/>
		<path class="st6" d="M743.86,696.25c0,0-31.65,8.7-37.98,8.7c-6.33,0-30.07,0-33.23,0c-3.16,0-34.02,6.33-34.02,6.33l34.81-1.58
			h34.02L743.86,696.25z"/>
		<polygon class="st6" points="745.44,640.87 707.46,640.87 689.26,644.82 686.89,655.11 698.76,655.11 699.55,650.36 694.8,652.74 
			696.38,647.99 707.46,645.62 		"/>
		<polygon class="st6" points="770.76,641.66 777.88,646.41 779.46,639.29 		"/>
		<path class="st6" d="M517.18,665.4l34.02-5.14c0,0,21.36,2.37,22.95,2.77c1.58,0.4,22.55-1.58,22.55-1.58l9.1-6.73l7.12,6.73
			l-6.33,6.73l2.37-5.93l-4.35-2.77l-7.52,3.96l-23.34,2.77l-24.13-3.96L517.18,665.4z"/>
	</g>
	<path class="st1" d="M650.64,642.95c3.38,2.43,6.53,1.85,8.7,0.45c2.31-1.5,1.14-11.32,1.14-11.32"/>
</g>
<g id="paddle_02">
	<g>
		<g>
			<g>
				<path class="st3" d="M699.14,590.44c-0.41-1.8-2.1-3.85-2.1-3.85c-1.7-2.15-4.97-0.91-7.05,0.87L586.22,713.59
					c-2.11,1.81-2.26,5.03-0.32,7.02l0,0c1.73,1.78,4.52,1.95,6.46,0.41l103.92-123.57C698.35,595.8,699.55,592.24,699.14,590.44z"
					/>
				<polygon class="st4" points="693.31,587.45 693.93,593.14 586.77,719.23 585.41,712.55 689.99,587.46 				"/>
			</g>
			<path class="st4" d="M592.55,707.67l-11.29-3.29L562.7,721.9c0,0-25.58,25.5-10.05,29.73c16.1,4.39,20.31,4.75,40.07-19.21
				c8.59-10.42,13.28-20.45,13.28-20.45L592.55,707.67z"/>
			<path class="st3" d="M607.77,719.2l-1.78-7.23c0,0-25.12,31.76-30.4,35.98s-26.07,5.05-27.69-0.26c0,0,1.63,7.51,9.49,8.97
				c7.12,1.32,16.77,1.81,27.16-9.49S607.77,719.2,607.77,719.2z"/>
		</g>
	</g>
</g>
<g id="paddle_holder">
	<path class="st1" d="M646.93,633.25c-0.79,3.03,0.15,7.7,3.56,10.09c1.98,1.38,6.33,1.48,7.57,0.69"/>
</g>
<g id="water-boat">
	<path class="st0" d="M485.13,747.68c0,0,100.88-15.43,119.87-9.89s17.01,5.14,17.01,5.14s8.7-5.54,30.86-0.79
		c22.15,4.75,59.34,6.33,33.23,12.66c-26.11,6.33-60.13,3.16-60.13,3.16l-155.08-1.58L485.13,747.68z"/>
</g>
<g id="water_2_">
	<path class="st0" d="M57.88,1000.08c0,0,23.43,18.06,81.89,15.43c65.73-2.96,61.71-11.87,48.66-16.62
		c-11.41-4.15,41.36-7.92,69.39-11.43c28.03-3.51-16.82-4.39-39.24-4.39s-31.23,3.51-44.04,4.39c-12.81,0.88-1.6,14.92,1.6,14.92
		c1.3,0-40.5,7.64-66.18,7.64C72.58,1010.02,57.88,1000.08,57.88,1000.08z"/>
	<path class="st0" d="M479.93,1013.85c0,0-31.82,16.65-67.55-1.82c-35.74-18.46,27.3-15.21,41.47-13.98c0,0-31.31,4.43-25.35,7.51
		C434.45,1008.64,430.45,1023.12,479.93,1013.85z"/>
	<path class="st0" d="M484.88,1016.08c0,0,29.05-2.9,41.63-1.94c12.59,0.97,21.3-3.87,32.92-3.87c11.62,0,16.46,1.94,27.11,3.87
		c10.65,1.94,22.27,1.94,22.27,1.94s-29.05,8.71-37.76,5.81c-8.71-2.9-25.17,0.97-37.76,1.94
		C520.7,1024.8,484.88,1016.08,484.88,1016.08z"/>
	<path class="st0" d="M592.78,814.34c0,0-10.84-5.58-27.11,0.62c-22.34,8.53-10.65,15.36-10.65,15.36s1.67-8.33,9.87-11.82
		C575.16,814.13,592.78,814.34,592.78,814.34z"/>
	<path class="st0" d="M506.23,846.1c20,0,53-4,31,1s2,6,21,6s86,7,86,7s-11.46,3.24-39.23,1.12c-27.77-2.12-71.77,0.88-97.77-1.12
		s-57-8-36-13S486.23,846.1,506.23,846.1z"/>
	<path class="st0" d="M762.23,826.1c0,0-22-5-33-4s-15,3-24,0s-8-2-30-3s-35,0-40,0s-8,5,13,3s43-2,48,2s2,2,27,2
		S762.23,826.1,762.23,826.1z"/>
	<path class="st0" d="M717.23,833.1c0,0-18,0-41,0s-48,0-54,1s-27,6-33,5s-18-2-18-2s4,7,22,7s24-5,31-5s53-5,64-4
		S717.23,833.1,717.23,833.1z"/>
	<path class="st19" d="M581.23,827.1c0,0,4.87-0.7,14-2c7-1,16-2,16-2s-6,5-17,6S581.23,827.1,581.23,827.1z"/>
</g>
<g id="platform">
	<path class="st20" d="M85.12,979.74v44.08c0,0,5.99,3.74,26.56,4.75c16.09,0.79,19.52-3.69,19.52-3.69l-0.26-50.11L85.12,979.74"/>
	<path class="st20" d="M604.6,802.87V910.1c0,0-2.37,4-10.37,4c-6.08,0-10-3-10-3v-89L604.6,802.87z"/>
	<g>
		<path class="st3" d="M604.6,712.87V820.1c0,0-2.37,1-10.37,1c-6.08,0-10,0-10,0l1-49l3-8l-4-32L604.6,712.87z"/>
		<polygon class="st6" points="589.57,773.66 587.66,759.95 584.82,736.21 605,719.59 604.6,735.02 604.6,748.87 600.25,744.91 
			597.88,752.82 594.32,750.45 		"/>
		<polygon class="st6" points="584.23,821.1 585.09,796.47 585.22,771.81 589.57,760.74 594.23,821.1 		"/>
	</g>
	<g>
		<path class="st3" d="M131.46,716.82l-0.89,262.24c0,0-5.34,5.18-23.34,5.18c-13.69,0-22.5-2.93-22.5-2.93l2.25-110.25l6.75-18
			L81.62,718.41l16.62-2.37L131.46,716.82z"/>
		<polygon class="st6" points="99.42,912.25 92.44,843.72 80.82,718.41 110.1,727.11 118.8,766.67 110.89,802.27 120.78,838.08 
			115.44,855.88 107.43,850.54 		"/>
		<path class="st6" d="M84.73,981.32l0.97-55.75l1.25-55.15l9.79-24.92l10.48,138.75C107.23,984.25,91.51,983.73,84.73,981.32z"/>
	</g>
	<path class="st20" d="M515.6,802.87V910.1c0,0-2.37,4-10.37,4c-6.08,0-10-3-10-3v-89L515.6,802.87z"/>
	<g>
		<polygon class="st21" points="464.23,701.85 464.23,708.85 609.88,720.52 610.14,703.64 		"/>
		<polygon class="st22" points="464.23,701.85 487.51,696.25 621.23,695.73 610.14,704.16 		"/>
		<polygon class="st23" points="621.23,695.73 620.88,708.52 609.88,720.52 609.88,703.9 		"/>
	</g>
	<g>
		<polygon class="st21" points="597.23,734.85 425.23,725.85 424.23,714.85 597.23,715.85 		"/>
		<polygon class="st22" points="597.23,715.85 608.3,706.01 459.23,704.85 424.23,714.85 		"/>
		<polygon class="st23" points="597.23,715.85 597.23,734.85 609.23,720.85 608.3,706.01 		"/>
	</g>
	<g>
		<polygon class="st21" points="577.23,733.1 578.23,757.1 375.23,743.1 374.23,728.1 		"/>
		<path class="st22" d="M374.23,728.1c2.19-0.02,47.53-10.99,47.53-10.99h174l-18.53,15.99L374.23,728.1z"/>
		<polygon class="st23" points="595.23,717.35 577.23,733.1 578.23,757.1 595.23,737.1 		"/>
	</g>
	<g>
		<polygon class="st22" points="318.23,745.1 364.23,731.1 575.23,737.1 555.23,755.1 		"/>
		<polygon class="st21" points="318.23,745.1 322.23,759.1 558.23,779.1 555.23,755.1 		"/>
		<polygon class="st23" points="575.23,737.1 555.23,755.1 558.23,779.1 576.23,760.1 		"/>
	</g>
	<g>
		<polygon class="st21" points="531.23,808.1 257.23,790.1 254.23,766.1 527.23,781.1 		"/>
		<polygon class="st22" points="527.23,781.1 254.23,766.1 307.23,748.1 554.23,755.1 		"/>
		<polygon class="st23" points="554.23,755.1 555.23,784.1 531.23,808.1 527.23,781.1 		"/>
	</g>
	<g>
		<polygon class="st21" points="180.52,792.78 181.23,812.1 501.23,839.1 498.23,800.1 		"/>
		<polygon class="st22" points="180.52,792.98 247.23,769.1 525.23,785.1 499.23,811.1 195.23,797.1 		"/>
		<polygon class="st23" points="498.23,812.1 501.23,839.1 528.23,813.1 525.23,785.1 		"/>
	</g>
	<g>
		<polygon class="st22" points="93.34,832.2 164.23,799.1 495.23,816.1 454.23,851.1 		"/>
		<polygon class="st21" points="457.23,877.1 454.23,851.1 93.48,832.34 103.23,858.1 		"/>
		<polygon class="st23" points="454.23,851.1 495.23,816.1 494.23,842.1 457.23,877.1 		"/>
	</g>
	<path class="st20" d="M460.95,983.69v44.08c0,0,5.97,4.75,26.56,4.75c15.43,0,19.52-3.16,19.52-3.16l-0.26-50.64L460.95,983.69"/>
	<polygon class="st18" points="131.46,716.82 110.1,727.11 80.82,718.41 98.23,716.03 	"/>
	<path class="st21" d="M451.9,826.8c0,0-34.42-8.31-40.35-8.31c-5.93,0-65.27-1.19-65.27-1.19l-59.34-2.37l73.58,8.31l45.1,2.37
		L451.9,826.8z"/>
	<path class="st21" d="M324.91,788.82l-71.21-10.68l-29.67,3.56c0,0,29.67,2.37,40.35,2.37
		C275.07,784.08,324.91,788.82,324.91,788.82z"/>
	<polygon class="st21" points="351.02,838.67 290.49,827.99 234.71,825.62 229.97,831.55 264.38,832.74 	"/>
	<path class="st21" d="M568.6,743.73c0,0-18.59-2.37-22.15-2.37s-20.18,0-20.18,0l20.97,2.77l17.41,0.79l1.98,6.73L568.6,743.73z"/>
	<polygon class="st21" points="537.35,780.12 535.77,772.21 527.86,772.21 512.82,769.04 529.44,770.23 537.75,770.23 	"/>
	<polygon class="st21" points="425,737 402.85,736.6 364.87,734.23 387.42,738.19 404.03,739.37 	"/>
	<path class="st21" d="M442.41,721.97l37.98-2.37c0,0,8.7,3.16,10.29,3.16c1.58,0-16.62-1.58-16.62-1.58L442.41,721.97z"/>
	<polygon class="st21" points="525.48,720.38 539.33,720.78 555.95,721.18 564.25,728.3 551.59,727.11 555.95,725.13 551.2,723.15 
		538.54,722.76 	"/>
	<polygon class="st21" points="478.7,795.55 459.12,790.8 440.73,793.18 405.71,791.4 443.69,796.74 459.71,793.77 	"/>
	<polygon class="st21" points="461.79,709.31 489.48,709.31 502.93,710.1 489.88,707.73 	"/>
	<polyline class="st21" points="602.63,714.85 600.65,712.47 585.22,710.49 603.42,710.49 603.42,716.43 	"/>
</g>
<g id="K_right_leg">
	<g>
		<path class="st24" d="M543.95,688.2c0,0-12.22,4.44-14.44,7.77c-2.22,3.33-3.6,10.88-1.94,11.99s17.92,1.15,21.8,0.6
			c3.89-0.56,18.45-7.04,21.78-9.81c3.33-2.78,3.33-11.11,0-12.77C567.83,684.31,543.95,688.2,543.95,688.2z"/>
		<path class="st25" d="M543.95,685.7c0,0-12.22,4.44-14.44,7.77c-2.22,3.33-3.6,10.88-1.94,11.99s17.92,1.15,21.8,0.6
			c3.89-0.56,18.45-7.04,21.78-9.81c3.33-2.78,3.33-11.11,0-12.77C567.83,681.82,543.95,685.7,543.95,685.7z"/>
	</g>
	<path class="st8" d="M547.11,691.51c0,0-12.13-6.33-9.49-9.49c2.64-3.16,2.11-12.13,2.11-12.13s3.69-81.76,13.19-85.45
		c9.49-3.69,17.93-9.49,23.21,4.22c5.27,13.71,0,35.34,0,35.34s0.53,19.52,0.53,23.21s-3.16,8.44-3.16,8.44l1.05,17.41
		c0,0-1.05,6.86-2.64,11.6C570.32,689.4,547.11,691.51,547.11,691.51z"/>
	<path class="st7" d="M547.11,691.51l11.6-6.73l3.16-22.29l-0.53-61.71c0,0,10.09-25.65,15.36-11.93c5.27,13.71,0,35.34,0,35.34
		s-0.07,19.32-0.07,23.01s-3.16,8.44-3.16,8.44l1.05,17.41c0,0-1.05,6.86-2.64,11.6C570.32,689.4,547.11,691.51,547.11,691.51z"/>
</g>
<g id="S_skirt">
	<path class="st9" d="M305.79,604.6c0,0,34.55,9.76,47.6,9.76c13.05,0,107.6-11.6,102.46-14.11s-13.19-21.63-95.34-20.31
		C342.36,580.24,305.79,604.6,305.79,604.6z"/>
</g>
<g id="S_legs">
	<g>
		<path class="st11" d="M379.29,668.16c0,0-16.24,78.07-18.63,87.03s-9.85,8.64-12.72,6.53c-2.87-2.11-3.82-13.85-2.69-22.75
			c3.43-26.89-0.6-72.13,4.18-79.52C354.22,652.08,373.56,649.18,379.29,668.16z"/>
		<path class="st4" d="M376.91,668.16c0,0-14.33,72.26-16.72,81.23c-2.39,8.97-6.59,10.18-9.91,9.16
			c-6.45-1.98-6.54-12.28-6.09-24.99c0.96-26.9,0.96-69.89,5.73-77.27C354.7,648.91,371.18,649.18,376.91,668.16z"/>
		<path class="st7" d="M354.64,594.85c0,0,0.97,20.04,0.97,28.48c0,8.44,3.39,22.68,15.51,22.68c12.12,0,14.54,6.33,19.87-21.63
			c4.33-22.71,7.63-53.67-4.48-53.14C374.4,571.77,351.25,563.2,354.64,594.85z"/>
		<path class="st25" d="M354.64,594.85c0,0,0.97,20.04,0.97,28.48c0,8.44,4.36,20.57,12.12,21.1c7.76,0.53,13.19,6.28,17.45-21.89
			c3.15-20.84,13.45-51.82,1.33-51.3C374.4,571.77,351.25,563.2,354.64,594.85z"/>
		<path class="st7" d="M366.67,617c-2.77,1.32-11.98,12.08-15.08,22.95c-3.33,11.66-4.02,16.35-4.78,29.01c0,0,17.22-0.53,32.3,5.54
			c0,0,13.2-35.08,6.16-48.26S369.44,615.68,366.67,617z"/>
		<path class="st25" d="M366.67,617c-2.77,1.32-11.98,12.08-15.08,22.95c-3.33,11.66-5.03,16.35-5.78,29.01
			c0,0,16.84,0.66,30.42,4.48c0,0,1.7-24.26,8.55-50.11C381.65,608.58,369.44,615.68,366.67,617z"/>
		<path class="st4" d="M345.35,754.64c0,0,24.67,5.2,31.78,3.73c5.74-1.19,11.59-3.92,7.52-5.54c-4.19-1.66-9.05-0.89-23.38-5.67
			C355.23,745.14,351.08,747,345.35,754.64z"/>
		<path class="st10" d="M344.13,747.63c3.59-0.42,5.51-0.19,8.09,0.83c3.97,1.58,11.93,4.67,14.26,5.25
			c6.67,1.67,5.12-4.45,5.12-4.45s14.5,0.77,21.76,2.77c3.51,0.97,1.77,4.32-5.93,7.52c-14.8,6.14-16.62,3.96-25.71,6.53
			c-2.3,0.65-6.28,3.76-10.29,3.76c-4,0-9.1-1.98-9.1-1.98s-1.78-2.14-2.03-11.14C340.15,751.69,338.29,748.31,344.13,747.63z"/>
	</g>
	<path class="st11" d="M450.71,669.75c0,0-0.66,62.37-0.13,73.98c0.53,11.6,0.26,23.34-8.18,23.34c-8.44,0-9.32,1.9-13.45-19.38
		c-6.86-35.34-17.27-74.24-13.05-84.79C420.12,652.34,450.19,646.54,450.71,669.75z"/>
	<path class="st4" d="M448.47,669.75c0,0-0.66,62.37-0.13,73.98c0.53,11.6,2.51,23.34-5.93,23.34c-8.44,0-9.32,1.9-13.45-19.38
		c-6.86-35.34-17.27-74.24-13.05-84.79C420.12,652.34,447.95,646.54,448.47,669.75z"/>
	<path class="st7" d="M444.7,565.25c0,0,2.06,49.54,0.35,60.53c-1.7,10.99-29.75,26.44-34.56,5c-4.81-21.44-10.42-38.17-13.49-54.74
		C393.93,559.48,429.42,539.47,444.7,565.25z"/>
	<path class="st25" d="M440.4,564.46l1.43,26.51l-4.96,24.58l3.56,14.24c0,0-9.61,9.13-22.95,9.89
		c-8.91,0.51-11.39-28.72-11.39-28.72c-4.81-21.44-6.03-18.34-9.09-34.91C393.93,559.48,425.12,538.68,440.4,564.46z"/>
	<path class="st7" d="M413.39,630.32c0,0-3.9,2.11-3.38,20.57c0.42,14.91,4.16,27.69,4.16,27.69s2.34-1.85,14.55-2.11
		c12.21-0.26,22.08-0.79,22.08-0.79c0-2.24-1.04-34.55-5.2-46.15C441.45,617.92,422.22,619.24,413.39,630.32z"/>
	<path class="st25" d="M413.39,630.32c0,0-3.9,2.11-3.38,20.57c0.42,14.91,4.16,27.69,4.16,27.69s3.12-1.58,15.33-1.85
		c12.21-0.26,18.7-0.53,18.7-0.53c0-2.24-2.34-36.66-6.49-48.26C437.55,616.34,422.22,619.24,413.39,630.32z"/>
	<path class="st4" d="M431.33,756.91c-2.64,2.64-3.16,11.21-1.71,15.16s4.09,6.92,10.81,5.93c6.8-1,25.6-6.47,32.97-13.58
		c5.68-5.48-1.35-9.5-8.18-8.84C453.09,756.78,433.97,754.27,431.33,756.91z"/>
	<path class="st10" d="M451.11,761c-3.97-0.23-9.22-1.34-11.34-1.85c-3.3-0.79-10.68-2.24-10.68,0.92c0,3.16-1.45,16.35,0.92,18.33
		s3.96,1.65,9.49,1.85c4.65,0.17,8.18-0.59,12.13-1.98c3.96-1.38,7.12-2.24,19.45-4.88c10.55-2.26,18.79-11.74,16.22-14.64
		c-2.57-2.9-4.81-3.43-15.49-3.82c-8.11-0.3-11.06,0.8-9.76,0.79c3.66-0.02,7.67-0.51,2.9,2.24
		C457.18,762.45,455.73,761.26,451.11,761z"/>
</g>
<g id="s_torso">
	<g>
		<path class="st4" d="M342.09,478.1c0,0-4.4,15.17,0,24.47c4.4,9.3,9.79,8.81,14.19,6.85s13.7-24.96,13.21-28.87
			C369.01,476.63,342.09,478.1,342.09,478.1z"/>
		<path class="st10" d="M361.18,433.57c0,0-6.85,0-9.79,8.81s-9.3,35.72-9.3,35.72l27.4,2.45
			C369.5,480.55,387.61,436.51,361.18,433.57z"/>
	</g>
	<path class="st12" d="M356.96,449c-0.4-9.49,4.22-16.22,22.15-16.22c17.93,0,24-7.65,34.02,4.48s12.66,12.13,12.66,23.21
		c0,11.08-5.27,33.23-6.33,34.81c-1.05,1.58,26.51,39.56,33.76,87.03c2.57,16.85,2.64,17.93,2.64,17.93s-39.56-20.57-49.05-9.49
		s-40.88-5.27-59.34,1.05c-18.46,6.33-41.67,12.79-41.67,12.79s36.92-82.81,54.73-101.8C360.52,502.8,357.38,459.23,356.96,449z"/>
	<path class="st13" d="M356.96,449c-0.4-9.49,4.22-16.22,22.15-16.22c17.93,0,24-7.65,34.02,4.48s7.12,12.13,7.12,23.21
		c0,11.08-6.19,32.92-6.33,34.81c-0.26,3.69,12.92,69.63,12.92,69.63l18.73,22.95c0,0-29.01-5.01-37.98,2.37
		c-9.49,11.08-42.2-4.48-60.66,1.85c-18.46,6.33-35.6,4.48-35.6,4.48s31.78-76.48,49.58-95.47
		C360.91,501.09,357.38,459.23,356.96,449z"/>
</g>
<g id="S_bag">
	<path class="st26" d="M376.74,473.53c0,0,10.68-32.44,14.24-42.33c4.4-12.21,33.89,9,43.52,24.13
		c11.08,17.41-11.87,52.62-28.48,70.81"/>
	<path class="st26" d="M357.35,433.18c0,0,1.98,22.55,15.82,40.35"/>
	<g>
		<path class="st17" d="M363.01,470.12c0,0-18.06-0.91-5.56-9.27c12.5-8.36,8.3,2.54,8.3,2.54s5.59-6.29,10.35-6.49
			c4.76-0.2,5.79-1.53,4.03,3.48c-1.76,5.01,14.47-5.42,14.62-1.05C394.9,463.7,375.87,474.08,363.01,470.12z"/>
		<path class="st21" d="M362.48,478.56c0,0-7.32-4.26-10.12-7.5s-0.75-9.08,3.62-9.23c4.37-0.15-1.27,2.55-0.63,4.47
			c0.64,1.91,8,0.19,8.29-3.84s8.73-6.68,7.5-3.74c-1.22,2.95-5.54,6.68,0.74,5.89c6.28-0.79,6.76-9.63,10.4-6.1
			s-5.09,7.02,1.23,6.62s10.83-8.94,11.58-3.06c0.74,5.89-2.1,11.83-2.98,14.33c0,0,14.39,12.94,18.92,26.72
			c4.53,13.78,5.54,18.07,4.47,25.39s-1.82,9.52-9.66,16.89s-17.17,6.15-17.17,6.15s-36.47,13.35-47.37-16.5
			c-4.42-12.1,6.88-33.96,10.35-41.18C355.13,486.66,362.48,478.56,362.48,478.56z"/>
		<path class="st27" d="M362.48,478.56c0,0-7.32-4.26-10.12-7.5s-0.75-9.08,3.62-9.23c4.37-0.15-1.27,2.55-0.63,4.47
			c0.64,1.91,8,0.19,8.29-3.84s8.73-6.68,7.5-3.74c-1.22,2.95-5.54,6.68,0.74,5.89c6.28-0.79,6.76-9.63,10.4-6.1
			s-5.09,7.02,1.23,6.62s10.83-8.94,11.58-3.06c0.74,5.89-2.1,11.83-2.98,14.33c0,0,14.39,12.94,18.92,26.72
			c4.53,13.78,5.54,18.07,4.47,25.39s-1.82,9.52-9.66,16.89s-17.17,6.15-17.17,6.15s-36.47,13.35-47.37-16.5
			c-4.42-12.1,6.88-33.96,10.35-41.18C355.13,486.66,362.48,478.56,362.48,478.56z"/>
		<path class="st17" d="M386.82,467l-4.29,15.63l-5.27-10.55c0,0-10.55,15.82-13.19,19.52c-2.64,3.69-15.3,23.21-10.55,34.29
			c4.75,11.08,23.74,25.32,30.59,24.26c6.86-1.05,19.52-3.16,26.37-12.66s2.11-25.32-2.64-37.45
			c-4.75-12.13-16.88-18.99-16.88-18.99v-4.55"/>
		<path class="st21" d="M369.79,478.03c0,0-3.32-2.57-4.52-2.62s-0.93,2.11-0.93,2.11s1.87,1.03,3.61,1.74
			C369.98,480.09,370.39,479.56,369.79,478.03z"/>
		<path class="st21" d="M371.68,478.79c0,0-1.21-4.83,0.14-5.2c1.35-0.37,1.4,1.62,1.01,3.26
			C372.44,478.5,371.68,478.79,371.68,478.79z"/>
		<path class="st21" d="M375.31,477.54c0,0,1.17-3.34,2.67-4.13c1.5-0.79,1.43,1.81-0.19,3.21
			C376.17,478.03,375.31,477.54,375.31,477.54z"/>
		<path class="st21" d="M368.64,479.97c0,0-0.98,0.12-2.11,2.26C365.41,484.37,365.46,486.36,368.64,479.97z"/>
		<path class="st21" d="M371.68,478.79c0,0,4.69,0.8,3.56,2.94S371.68,478.79,371.68,478.79z"/>
		<path class="st21" d="M380.14,476.33c0,0,0.86-1.11,2.92-2.16C385.12,473.11,386.15,476.57,380.14,476.33z"/>
		<polygon class="st21" points="365.96,498.05 358.74,512.49 366.68,525.48 373.9,509.6 		"/>
	</g>
</g>
<g id="S_right_arm">
	<path class="st11" d="M429.22,446.3c-1.91-2.11,6.73-2.31,8.44-1.38c6.2,1.52,10.68,6.66,10.55,8.84
		c-1.45,7.02-2.77,11.74-2.77,11.74s12.08,27.56,1.98,37.19c-10.1,9.62-14.43,5.77-17.32-7.22c0,0-1.6-19.11,1.29-27.29
		s4.81-7.22,4.33-12.51c-0.17-1.82-1.85-3.58-3.13-5.6C432.58,450.05,431.13,448.41,429.22,446.3z"/>
	<path class="st11" d="M440.63,467c0-0.99,1.19-7.32-1.19-7.52c-1.68-0.14-5.24-1.99-7.12-4.68c-0.92-1.32-1.19-1.71-2.64-3.43
		c-1.46-1.72-3.89,0.4-2.51,3.76s5.54,14.04,9.3,14.24S440.63,467,440.63,467z"/>
	<path class="st4" d="M405.22,468.91c0,0,21.36,34.02,29.01,37.98s16.88-3.16,15.82-12.66c-0.64-5.74-23.74-44.84-23.74-44.84
		S405.22,460.73,405.22,468.91z"/>
	<path class="st9" d="M405.24,470.66c0,0-10.7-16.12-14.66-27.99c-4.76-14.27,14.64-21.76,23.96-10.59
		c8.53,10.21,12.83,18.37,12.83,18.37S414.86,470.18,405.24,470.66z"/>
	<path class="st10" d="M405.24,470.66c0,0-10.7-16.12-14.66-27.99c-4.76-14.27,11.17-25.2,15.16-11.21
		c2.11,7.38,3.16,7.91,3.16,7.91l10.02,13.71l8.44-2.64C427.37,450.45,414.86,470.18,405.24,470.66z"/>
	<path class="st4" d="M445.57,450.58c0,0-3.63-3.4-4.95-2.6c-1.32,0.79-4.55,0.89-4.55,0.89l-3.43-1.58l4.22,0.26
		c0,0,0.79-0.33,3.76-0.63C442.48,446.74,445.57,450.58,445.57,450.58z"/>
</g>
<g id="S_head">
	<g>
		<path class="st24" d="M355.77,360.08c0,0,7.69,5.7,14.51,7.26c5.15,1.18,8.93,0.7,8.93,0.7l-1.37-1.6l1.84-2.32
			c0,0-8.77,1.24-22.39-5.55L355.77,360.08z"/>
		<path class="st24" d="M354.97,359.4c0,0,5.27,7.98,11.14,11.79c4.44,2.87,8.15,3.71,8.15,3.71l-0.74-1.98l2.52-1.55
			c0,0-8.67-1.84-19.13-12.88L354.97,359.4z"/>
		<path class="st10" d="M359.87,363.09c2.08-0.93,1.26-13.09-4-12.04c-4.95,0.99-10.33,3-8.49,6.45
			C349.22,360.95,357.79,364.01,359.87,363.09z"/>
		<path class="st12" d="M360.1,355.99c0,0-2.05-4.79-3.57-4.29c-1.52,0.5,0.4,2.28,1.62,5.47S360.91,358.03,360.1,355.99z"/>
		<g>
			<path class="st10" d="M357.46,361.12c0,0-0.9-2.22,1.89-5.28c2.79-3.06,5.04-4.91,7.5-4.12c2.46,0.79,4.65,6.41,4.16,9.64
				s-8.49,2.86-10.64,2.23C358.22,362.98,357.46,361.12,357.46,361.12z"/>
			<path class="st12" d="M369.16,356.14c0,0,1.86,4.48-0.03,5.76c-2.81,1.9-3.06-7.4-3.23-8.85
				C365.73,351.62,368.89,352.66,369.16,356.14z"/>
		</g>
	</g>
	<g>
		<path class="st11" d="M388.11,368.29c0,0,18.7-9.46,25.24,17.02c6.49,26.29-6.5,42.32-27.61,37.83
			C364.62,418.65,373.89,371.82,388.11,368.29z"/>
		<path class="st4" d="M385.1,370.83c0,0,18.7-9.46,25.24,17.02c6.49,26.29-6.5,42.32-27.61,37.83
			C361.61,421.19,370.88,374.36,385.1,370.83z"/>
		<path class="st12" d="M399.33,392.59c0,0,5.67-23.18-0.82-26.94l-9.76-2.66C388.76,363,401.3,378.6,399.33,392.59z"/>
		<path class="st16" d="M392.76,373.85c0,0,9.4-3.01,11.06-14.19c1.67-11.18-1.8-12.04-5.7-11.17c-3.9,0.87-6.57,6.47-6.57,6.47
			s3.62-7.94-3.36-10.22C381.22,342.46,375.56,371.24,392.76,373.85z"/>
		<path class="st16" d="M395.72,363.42c-7.46-6.43-32.97-9.43-44.32-3.07c-11.35,6.36-15.74,23.25-11.36,30.07
			c0,0-7.6,0.66-8.99,11.11s3.99,10.03,3.99,10.03s-3.23,10.58,6.09,15.49c21.27,11.2,53.04,8.06,62.54,0.38
			c11.95-9.67,7.52-24.77-6.35-30.47C397.32,396.95,403.18,369.85,395.72,363.42z"/>
		<path class="st8" d="M391.15,374.25c0,0,9.53-2.89,11.04-14.21c1.51-11.31-2.04-12.24-6-11.42c-3.96,0.82-6.59,6.45-6.59,6.45
			s3.56-7.99-3.6-10.42C378.84,342.22,373.56,371.32,391.15,374.25z"/>
		<path class="st8" d="M393.75,364.74c-7.05-6.36-30.7-10.98-41.56-4.53c-10.86,6.45-15.17,23.35-11.07,30.12
			c0,0-9.93-1.29-11.34,9.15s4.94,12.03,4.94,12.03s-3.17,10.59,5.67,15.42c20.14,11,45.84,9.65,54.94,1.89
			c11.46-9.75,14.73-26.46,1.58-32.04C396.91,396.78,400.79,371.1,393.75,364.74z"/>
		<path class="st4" d="M405.61,394.34c0,0-2.18-10.06-8.32-9.02c-3.7,0.63-4,5.66-1.64,10.72
			C398.01,401.11,406.77,406.16,405.61,394.34z"/>
	</g>
	
		<ellipse transform="matrix(0.9622 -0.2725 0.2725 0.9622 -88.8982 126.462)" class="st8" cx="410.9" cy="383.33" rx="1.25" ry="2.88"/>
	<path class="st28" d="M408.19,374.74c0,0-1.77,0.15-1.98,1.98"/>
</g>
<g id="waves">
	<path class="st0" d="M680.23,790.1c0,0,13-4,23-3s13,4,28,1s21-2,27-2s-16,5-37,6c-13.14,0.63-31,1-31,1L680.23,790.1z"/>
	<path class="st0" d="M702.23,776.1c0,0,40-2,60-2s54,3,67,2s32,0,33,0s-22,5-24,5s-65-4-80-4S702.23,776.1,702.23,776.1z"/>
	<path class="st0" d="M618.23,766.1c0,0-4,4,15,3s40,1,49,2c0,0-21,0-35,1s-23,3-29,1S618.23,766.1,618.23,766.1z"/>
</g>
<g id="wood">
	<g>
		<path class="st3" d="M506.79,725.43v256.01c0,0-5.34,4.39-23.34,4.39c-13.69,0-22.5-2.14-22.5-2.14l2.25-110.25l6.75-18l-9-131.25
			l31.3-3.41L506.79,725.43z"/>
		<polygon class="st6" points="460.95,983.69 462.88,928.28 463.17,872.8 472.97,847.87 483.45,985.84 		"/>
		<polygon class="st18" points="460.95,724.19 491.46,731.07 507.55,726.32 492.25,720.78 		"/>
		<polygon class="st6" points="491.46,731.07 481.18,782.49 491.46,894.85 468.52,874.27 460.95,724.19 		"/>
	</g>
</g>
</svg>
