<?xml version="1.0" encoding="utf-8"?>
<!-- Generator: Adobe Illustrator 23.1.0, SVG Export Plug-In . SVG Version: 6.00 Build 0)  -->
<svg version="1.1" xmlns="http://www.w3.org/2000/svg" xmlns:xlink="http://www.w3.org/1999/xlink" x="0px" y="0px"
	 viewBox="0 0 960 1080" style="enable-background:new 0 0 960 1080;" xml:space="preserve">
<style type="text/css">
	.st0{fill:#F3E7D9;}
	.st1{fill:#856792;}
	.st2{fill:#4B3355;}
	.st3{fill:#7A462F;}
	.st4{fill:#A96443;}
	.st5{fill:#33A86D;}
	.st6{fill:#288453;}
	.st7{fill:#29ABE2;}
	.st8{fill:#121721;}
	.st9{fill:none;stroke:#29ABE2;stroke-width:2;stroke-linecap:round;stroke-linejoin:round;stroke-miterlimit:10;}
	.st10{fill:#CE9436;}
	.st11{fill:#F7BC4B;}
	.st12{fill:none;stroke:#1689CB;stroke-miterlimit:10;}
	.st13{fill:#3E4C6F;}
	.st14{fill:#273252;}
	.st15{fill:#1D2538;}
	.st16{fill:none;stroke:#1D2538;stroke-linecap:round;stroke-linejoin:round;stroke-miterlimit:10;}
	.st17{fill:#992C29;}
	.st18{fill:#F5894E;}
	.st19{fill:#FFFCF3;}
	.st20{fill:none;stroke:#F7BC4B;stroke-linecap:round;stroke-linejoin:round;stroke-miterlimit:10;}
	.st21{fill:none;stroke:#F7BC4B;stroke-miterlimit:10;}
</style>
<g id="bg">
	<path class="st0" d="M821.99,268.37c0,0,19-138.58-90.53-172.11s-179.93-4.47-204.52,4.47c-24.59,8.94-165.41,109.53-71.53,213.46
		c0,0-21.23-10.06-30.18-1.12s-8.94,8.94-8.94,8.94s-44.7-7.82-79.35,21.23c-34.65,29.06-14.53,38-6.71,43.59
		c7.82,5.59,2.24,5.59,2.24,5.59s-65.94,15.65-89.41,33.53s-43.59,39.12,42.47,27.94c86.06-11.18,129.64-21.23,129.64-21.23
		s-77.11,19-77.11,34.65s183.29-20.12,219.05-27.94s200.05-62.59,233.58-73.76c0,0-29.06,21.23-5.59,21.23
		c23.47,0,120.7-54.76,134.11-64.82c13.41-10.06-29.06-6.71-29.06-6.71s7.82-27.94-5.59-46.94S829.82,257.19,821.99,268.37z"/>
	<path class="st0" d="M379.42,239.31c0,0,8.91-30.33-17.32-43.03c-17.32-8.38-51.41,14.53-48.62,35.2
		c1.21,8.93-11.18-6.71-30.18,8.94s-17.32,40.79-17.32,40.79s-41.91,13.97-47.5,17.32c-5.59,3.35-12.29,11.18,32.41-2.24
		C295.6,282.9,379.42,239.31,379.42,239.31z"/>
	<path class="st0" d="M238.03,555.01c0,0-6.71-19-42.47-13.41s-49.17,34.65-43.59,38c5.59,3.35,6.71,6.71,6.71,6.71
		s-51.41,22.35-71.53,31.29s0,21.23,39.12,5.59c39.12-15.65,139.7-52.53,176.58-58.12C339.73,559.48,238.03,555.01,238.03,555.01z"
		/>
</g>
<g id="ground">
	<path class="st1" d="M383.13,822.94c-69.77,24.42-76.49,58.28-76.49,58.28s-142.86,30.76-175.24,46.95
		c-32.38,16.19-77.56,44.83-12.95,66.37c43.71,14.57,150.55,35.61,246.06,21.04c95.51-14.57,157.62-23.81,183.22-40.24
		c25.6-16.42,1.48-37.09,1.48-37.09s58.37,5.82,141.23,4.81s129.27-22.3,90.1-37.56c0,0,203.16-62.32,96.72-98.34
		c-17-4.86-58.28-40.07-194.26-41.28S480.26,788.94,383.13,822.94z"/>
	<path class="st2" d="M543.31,836.67c0,0-97.02,24.58-80.26,38.36s77.59,12.08,77.59,12.08s26.87,29.53,75.96,26.1
		s83.05-6.7,112.65-18.27s151.95-42.06,42.71-58.4S543.31,836.67,543.31,836.67z"/>
	<path class="st2" d="M507.82,806.38c-56.7,11.7-66.53,22.09-25.14,32.34s57.3-0.14,84.5-14.64
		C594.39,809.58,564.53,794.67,507.82,806.38z"/>
	<path class="st2" d="M483.5,896.19c-19.43-4.86-37.23,11.33,1.62,12.95C523.97,910.76,502.92,901.04,483.5,896.19z"/>
	<path class="st2" d="M395.27,923.3c0,0-2.47,0.36-6.32,0.98c-16.14,2.59-56.62,9.67-42.25,13.59c17.81,4.86,85.8-1.62,63.13-11.33"
		/>
	<path class="st2" d="M307.09,901.11c0,0-124.48,18.05-143.39,31.78c-18.91,13.73,55.15,23.64,55.15,23.64s25.21,5.44,59.88,2.4
		s143.98-28.5,113.45-41.88C368.55,906.68,307.09,901.11,307.09,901.11z"/>
	<path class="st2" d="M458.17,952.92c0,0-70.95-4.21-57.8,12.39S516.03,962.96,458.17,952.92z"/>
	<path class="st1" d="M487.55,1004.24c-12.28,6-40.45,25.9,24.28,25.9s78.76-42.09,63.13-42.09
		C559.34,988.05,499.82,998.25,487.55,1004.24z"/>
	<path class="st1" d="M562.88,727.32c0,0-168.42,20.09-199.67,32.03c-31.25,11.94-74.66,45.79,3.47,54.79
		c78.13,9.01,121.54,23.72,156.26,8.3s8.68-45.94,8.68-45.94s62.51,5.26,104.18-4.18C677.48,762.86,686.16,705.59,562.88,727.32z"/>
	<path class="st2" d="M667.23,904.42c-7.01,2.16-12.95,16.19,4.86,16.19c17.81,0,36.32-6.22,29.14-12.95
		C692.59,899.56,674.25,902.26,667.23,904.42z"/>
	<path class="st1" d="M589.53,950.82c0,0-14.57,9.71,3.24,11.33C610.58,963.77,610.58,950.82,589.53,950.82z"/>
	<path class="st1" d="M598.35,973.96c-6.61,6.61-11.19,16.28,13.23,17.3c24.42,1.02,25.43-19.84,17.3-20.86
		C620.73,969.38,604.96,967.35,598.35,973.96z"/>
	<path class="st2" d="M743.32,888.23c0,0,0.54,7.01,14.03,5.94c13.49-1.08,28.6-7.01,28.6-7.01s12.95,1.08,22.66-5.4
		s-0.54-17.81-28.6-11.87C751.95,875.82,739.54,885.53,743.32,888.23z"/>
	<path class="st2" d="M578.6,751.3c0,0-40.07-2.43-27.92,9.71C562.82,773.16,612.6,761.02,578.6,751.3z"/>
</g>
<g id="rock">
	<path class="st3" d="M578.59,691.9l-1.02,58.31l-7.06,5.14l-8.29,13.28c0,0,1.02,10.23,0,26.6s-3.07,37.85-3.07,37.85l127.87,53.2
		l49.1,2.05l42.8-5.49l71.23-38.85l-19.91-62.05l-2.05-13.3l-16.37-8.18l10.23-8.18l-8.18-76.72l-174.93-3.07L578.59,691.9z"/>
	<path class="st4" d="M813.88,675.53l-87.98-33.76l-95.14,9.21l-52.17,40.92c0,0,8.18,7.16,24.55,7.16s89,9.21,89,9.21l53.2-1.02
		c0,0,41.94-16.37,54.22-19.44C811.84,684.74,813.88,675.53,813.88,675.53z"/>
	<polygon class="st4" points="806.45,856.93 774.07,819.7 770.84,767.9 753.03,719.33 756.27,758.18 765.98,774.37 764.36,821.32 
		765.98,855.31 736.13,888.32 778.93,860.17 774.07,835.89 795.12,861.79 	"/>
	<polygon class="st4" points="712.56,703.14 709.32,725.81 688.28,701.53 	"/>
	<polygon class="st4" points="774.07,690.19 785.41,706.38 793.5,683.72 	"/>
	<polygon class="st4" points="701.23,675.62 696.37,722.57 712.56,746.85 710.94,777.61 704.47,754.95 688.28,720.95 	"/>
	<polygon class="st4" points="719.04,746.85 719.04,784.08 733.6,829.41 735.22,852.07 740.08,818.08 728.75,782.47 	"/>
	<polygon class="st4" points="730.37,751.71 728.75,780.85 735.22,800.27 733.6,763.04 737.65,737.95 	"/>
	<polygon class="st4" points="581.44,754.14 575.77,781.93 581.71,808.37 579.01,827.79 585.48,808.37 579.55,783.54 	"/>
	<path class="st4" d="M795.12,693.43c0,0-1.62,25.9-1.62,30.76c0,4.86,0,54.23,0,54.23l21.04,43.71l-6.48-41.28l42.09,63.13
		l-21.96-75.35l-16.37-8.18l10.23-8.18l-5.9-58.83L810.5,708l-0.81,30.76l-5.67-19.43l0.81-17L795.12,693.43z"/>
</g>
<g id="leaves">
	<path class="st5" d="M796.33,878.78c4.45-0.81,12.14-14.97-6.48-37.64c-7.72-9.39-7.09,16.26-4.05,25.5
		C788.85,875.88,791.88,879.59,796.33,878.78z"/>
	<path class="st5" d="M801.76,865.6c0,0-6.27-25.97-1.6-25.66c14.04,0.92,8.98,10.2,8.98,10.2s19.39-18.82,22.96-12
		c3.57,6.83-9.25,17.25-9.25,17.25s33.83-22.65,17.31-5.32C823.65,867.4,799.17,878.13,801.76,865.6z"/>
	<path class="st5" d="M783.79,805.13c0,0,6.48,21.04,11.33,8.09C799.98,800.27,796.74,790.56,783.79,805.13z"/>
	<path class="st5" d="M825.88,809.99c0,0,9.71-12.95-1.62-12.95S819.4,806.75,825.88,809.99z"/>
	<path class="st5" d="M782.17,703.14c0,0,3.24,14.57-6.48,11.33S765.98,698.29,782.17,703.14z"/>
	<path class="st5" d="M780.55,730.66c0,0,22.66-4.86,11.33-9.71C780.55,716.09,770.84,725.81,780.55,730.66z"/>
	<path class="st5" d="M793.5,758.18c0,0,14.57-14.57,0-16.19C778.93,740.38,777.31,756.56,793.5,758.18z"/>
	<path class="st5" d="M762.74,735.52c0,0,1.62,19.43,8.09,12.95S777.31,727.43,762.74,735.52z"/>
	<g>
		<path class="st6" d="M709.77,897.81c0,0-10.43-17.38-1.16-25.49C717.88,864.2,709.77,897.81,709.77,897.81z"/>
		<path class="st6" d="M703.25,894.16c-2.56,4.32-23.07-38.85-13.36-40.07S705.82,889.85,703.25,894.16z"/>
		<path class="st6" d="M685.31,889.85c-2.56-4.45-5.13-27.52,3.24-18.08c6.15,6.95,7.69,8.36,9.44,18.62
			C699.74,900.64,687.87,894.3,685.31,889.85z"/>
	</g>
	<path class="st5" d="M561.2,839.12c0,0-3.24-29.95-12.95-26.71s1.62,17,1.62,17s-14.57-12.95-10.52-1.62
		C543.4,839.12,561.2,839.12,561.2,839.12z"/>
	<path class="st6" d="M570.91,841.55c0,0,7.28-17.81-0.81-19.43c-8.09-1.62-6.48,8.9-6.48,8.9s-7.28-17.81-8.09-8.9
		c-0.81,8.9,4.05,15.38,9.71,17.81c5.67,2.43,5.67,2.43,5.67,2.43"/>
	<path class="st5" d="M338.21,996.55c0,0-14.57-33.99-7.28-25.5c7.28,8.5,9.71,13.36,9.71,13.36s-2.43-20.64,6.07-15.78
		c8.5,4.86,3.64,18.21,3.64,18.21s13.36-10.93,14.57-3.64S347.92,1000.19,338.21,996.55z"/>
	<path class="st5" d="M260.1,1003.03c0,0-12.14-25.5-3.64-27.92c8.5-2.43,10.93,14.57,10.93,14.57s-1.21-31.57,9.71-31.57
		s1.21,27.92,1.21,27.92s3.64-6.07,9.71,0c6.07,6.07,2.43,17,2.43,17s12.14-8.5,19.43-2.43c7.28,6.07,0,8.5,0,8.5
		s23.07-4.86,21.85,1.21c-1.21,6.07-20.64,10.93-38.85,6.07c-18.21-4.86-58.28-1.21-54.63-10.93
		C241.89,995.74,260.1,1003.03,260.1,1003.03z"/>
	<g>
		<path class="st1" d="M123.65,950.24c0,0-20.77-21.94-5.18-37.39l4.54,15.13c0,0,6.53-19.6,15.49-26.08l-9.53,28.69
			c0,0,6.58-14.29,15.45-18.35C153.29,908.19,123.65,950.24,123.65,950.24z"/>
		<path class="st1" d="M114.95,949.48c0,0-20.59-13.72-42.83-15.41c0,0,15.46-5.3,25.28-2.08c9.82,3.22,9.78,10.95,9.78,10.95
			l-4.45-17.55c0,0,20.41,18.55,20.91,24.85C124.14,956.54,114.95,949.48,114.95,949.48z"/>
	</g>
	<g>
		<path class="st1" d="M863.79,812.94c0,0-7.22-28.1,2.37-36.48l0.23,15.68c0,0,5.73-15.64,10.93-18.24l-8.38,22.9
			c0,0,5.06-10.71,9.9-11.11C883.68,785.29,863.79,812.94,863.79,812.94z"/>
		<path class="st1" d="M859.67,808.95c0,0-8.2-20.43-18.78-30.38c0,0,8.2,0.94,12.55,7.62c4.35,6.68,3.32,13.8,3.32,13.8l0.13-17.88
			c0,0,7.49,24.82,6.91,30.83S859.67,808.95,859.67,808.95z"/>
	</g>
</g>
<g id="right_leg">
	<g>
		<path class="st7" d="M481.17,819.74c-0.2,0.07-0.4,0.16-0.59,0.27c-2.88,1.58-30.75,7.1-33.49,10.46
			c-2.24,2.74-1.69,14.44-0.95,18.94c0.23,1.4,1.22,2.54,2.58,2.98c5.53,1.82,13.42,6.25,27.01,5.46
			c18.01-1.05,21.59-2.16,34.98-8.55c8.77-4.18,22.48-8.15,25.14-9.51c1.27-0.65,1.83-1.91,1.9-3.3l0.72-15.25
			c0.09-1.91-1-3.58-2.93-3.93C526.6,815.71,501.6,812.27,481.17,819.74z"/>
		<path class="st8" d="M490.92,813.86c0,0-41.21,11.76-44.09,15.06c-2.88,3.3-0.93,16.3-0.93,16.3s11.87,7.26,29.69,5.56
			c17.89-1.71,22.04-0.74,35.36-6.59c10.33-4.54,24.25-8.43,26.24-9.39c0.53-0.26,0.87-0.74,0.9-1.28l0.69-13.48
			c0.06-1.23-0.87-2.32-2.21-2.57C528.65,816.02,512.2,806.61,490.92,813.86z"/>
		<path class="st9" d="M466.3,823.12c0,0,11.27-1.8,19.72,5.44"/>
		<path class="st9" d="M474.06,819.43c0,0,8.09-1.35,21.58,6.74"/>
	</g>
	<path class="st10" d="M626.26,599.06c0,0-72.11-15.65-99.8-18.43c-15.26-1.53-22.31,2.95-27,11.7c-4.7,8.74-3.52,38.66,11.51,46.94
		c15.03,8.28,38.86,7.85,58.12,14.42c19.25,6.56,46.85,22.24,62.81,14.31C647.86,660.07,669.93,617.46,626.26,599.06z"/>
	<path class="st11" d="M626.26,599.06l-32.4-6.25l-59.47,53.4c0,0,26.2,4.58,34.69,7.48c19.25,6.56,46.85,22.24,62.81,14.31
		C647.86,660.07,649.27,598.52,626.26,599.06z"/>
	<path class="st10" d="M540.06,703.68c0,0-3.77-70.63-2.3-85.85c1.48-15.22-0.03-36.64-27.14-37.79
		c-18.35-0.78-29.01,2.23-30.09,24.35c-0.86,17.63-2.83,32.08-0.17,50.27c3.58,24.4,5.42,136.3,1.93,140.26
		c-3.49,3.96-3.85,2.37-3.43,11.9c0.34,7.69,7.05,8.47,24.96,11.7c11,1.37,22.16,8.84,31.16,3.19c9-5.65,6.82-9.79,6.82-9.79
		l-0.49-9.56L540.06,703.68z"/>
	<path class="st11" d="M540.06,703.68c0,0,7.93-68.28,9.41-83.5c1.48-15.22-33.74,79.25-31.1,88.97c2.65,9.72,3.85,29.65,3.85,29.65
		l-6.73-9.24c0,0-6.8,63.58-6.38,73.12c0.34,7.69-23.21,12.63-5.3,15.85c11,1.37,22.16,8.84,31.16,3.19c9-5.65,6.82-9.79,6.82-9.79
		l-0.49-9.56L540.06,703.68z"/>
</g>
<g id="left_thigh">
	<path class="st11" d="M755.73,609.79c0,0,15.11,32.38,10.25,51.8c-4.86,19.43-9.17,19.43-31.84,17.81
		c-20.71-1.48-140.97-12.28-119.79-57.74c17.78-38.17,46.95-31.3,78.78-25.9C724.97,601.16,755.73,609.79,755.73,609.79z"/>
</g>
<g id="Layer_10">
	<path class="st3" d="M611.66,469.47c0,0-18.82,14.73-20.46,33.9s-13.64,40.12-18.27,46.66s-16.22,29.89,4.07,42.83
		c20.29,12.94,27.6-16.24,35.25-29.05c7.65-12.81,18.77-24.58,24.54-43.63C642.56,501.12,648.72,455.72,611.66,469.47z"/>
	<path class="st3" d="M593.03,580.05c0,0,4.98,14-10.68,28.55s-41.89,37.42-48.71,43.64c-6.82,6.22-16.54,3.89-23.32-2.67
		c-6.78-6.57-0.37-16.49,16.25-36.62c16.62-20.13,34.76-47.35,50.63-53.65C593.07,553,593.03,580.05,593.03,580.05z"/>
	<path class="st4" d="M552.3,622.74c3.01-2.46,45.71-28.69,30.05-14.14s-41.89,37.42-48.71,43.64c-6.82,6.22-12.1-8.99-5.63-15.46
		S541.21,631.78,552.3,622.74z"/>
	<path class="st3" d="M517.04,634.03c-3.38-0.93-8.59,0.6-15.74,2.75c-5.4,1.62-13.76,2.43-19.43,3.24
		c-8.91,1.27-8.9-2.16-14.84,1.89c-2.99,2.04-1.4,6.84,0.54,8.09c4.59,2.97,17.81,0.59,19.56,1.35
		c1.75,0.76-10.32,13.85-10.87,14.82c-0.55,0.97-15.12,8.14-18.25,10.36c-3.13,2.22-0.82,3.97,0.53,5.18s6.13,1.13,6.13,1.13
		s-4.5,2.12-1.25,5.53c3.26,3.42,5.62,2.95,7.61,1.82s5.02-1.97,5.02-1.97s-0.7,4.57,3.94,5s6.44-1.02,6.44-1.02s0.8,2.18,4.7,3.26
		c3.9,1.08,4.26-0.22,11.11-4.77c6.85-4.55,16.17-10.93,18.85-13.55c2.68-2.62,12.32-22.35,10.23-27.96
		C529.25,643.55,520.42,634.96,517.04,634.03z"/>
	<path class="st4" d="M522.62,643.79c-3.38-0.93-13.36-3.76-20.5-1.62c-5.4,1.62-15.38,0.27-21.04,1.08
		c-8.91,1.27-7.01-3.51-12.95,0.54c-2.99,2.04-2.47,4.95-0.54,6.21c4.59,2.97,17.81,0.59,19.56,1.35
		c1.75,0.76-10.32,13.85-10.87,14.82c-0.55,0.97-15.12,8.14-18.25,10.36c-3.13,2.22-0.82,3.97,0.53,5.18s7.14-0.55,7.14-0.55
		s-5.51,3.8-2.26,7.22c3.26,3.42,5.44,0.78,7.65,0.2c3.1-0.81,5.4-1.62,5.4-1.62s-2.25,5.75,3.52,6.27
		c3.49,0.31,10.27-4.55,10.27-4.55s-3.34,2.63-1.11,4.35c3.45,2.66,5.49,0.2,12.34-4.35c6.85-4.55,14.92-11.85,17.6-14.47
		c2.68-2.62,11.2-19.68,9.11-25.29C526.13,643.3,526,644.72,522.62,643.79z"/>
	<path class="st3" d="M484.58,670.23c0,0,9.04,5.94,12.68,7.15c3.64,1.21,6.21,2.29,6.21,2.29s-14.03-8.23-14.84-8.63
		c-0.81-0.4-5.26-3.78-5.26-3.78L484.58,670.23z"/>
	<path class="st3" d="M487.04,690.9l9-6.17l6.07-5.46c0,0-1.97,2.94-5.8,6.09C493.98,687.27,489.85,689.4,487.04,690.9z"/>
	<path class="st3" d="M476.48,687.36l9.17-6.74c0,0,5.62-4.68,8.9-5.94l-7.28,5.94L476.48,687.36z"/>
	<path class="st3" d="M464.34,681.83l13.36-6.07l6.88-6.48c0,0-6.34,5.13-7.42,5.94c-1.08,0.81-14.84,7.01-14.84,7.01L464.34,681.83
		z"/>
</g>
<g id="torso">
	<path class="st7" d="M677.49,448.72c-35.07,3.24-51.26,9.44-59.36,13.22c-8.09,3.78-6.48,6.48-6.48,6.48s2.7,28.06,4.32,38.31
		c1.62,10.25,5.73,35.78,7.15,49.1c1.56,14.65,13.36,40.87,12.55,49.78c-0.98,10.8,4.86,26.71,4.86,26.71s30.49-7.42,52.07-4.72
		c21.58,2.7,64.75-6.21,66.91-6.75c2.16-0.54,0.27-6.48,0.27-11.87c0-5.4-0.81-13.76-0.81-13.76s-5.53-48.02-5.53-58.82
		c0-10.79,1.81-69.04-2.56-80.4C748.17,448.99,712.56,445.48,677.49,448.72z"/>
	<path class="st12" d="M741.43,531.01c0,0,1.89,17.27,1.89,29.68s6.48,25.09,4.05,33.99c-2.43,8.9-4.05,26.71-4.05,26.71"/>
	<g>
		<path class="st3" d="M700.96,447.58c3.24,0,1.21,17.06-2.97,23.54c-4.18,6.48-22.66,16.73-37.23,17.27
			c-15.63,0.58-23.51-4.43-18.35-18.89c2.7-7.55,4.32-15.65,9.71-16.73c5.4-1.08,9.24-1.75,21.79-2.97S697.72,447.58,700.96,447.58z
			"/>
		<g>
			<path class="st4" d="M683.24,465.65c12.2-3.14,11.51-3.3,10.37-9.61l-3.71-29.71c-0.9-5.02-6.54-8.09-14.14-6.14l-16.15,3.59
				c-7.38,1.89-10.29,7.04-10.16,12.08c0,0,2.14,21.28,4.03,27.91C655.39,470.48,671.03,468.79,683.24,465.65z"/>
		</g>
		<g>
			<path class="st3" d="M682.54,466.64c-27.18-13.87-33.23-35.82-33.1-30.79c0,0,1.44,22.27,3.33,28.9
				C654.7,471.47,670.33,469.79,682.54,466.64z"/>
		</g>
	</g>
	<path class="st13" d="M618.67,517.79l2.91,16.22c0,0,47.28,5.23,107.58-2.46l-3.64-18.21
		C725.51,513.34,682.51,521.03,618.67,517.79z"/>
	<path class="st13" d="M729.56,539.24c0,0-54.07,6.48-106.72,3.24l2.7,14.7c0,0,17.81,3.24,44.13,2.7
		c26.32-0.54,63.54-6.07,63.54-6.07L729.56,539.24z"/>
</g>
<g id="head">
	<g>
		<path class="st14" d="M695.17,387.09c6.61,48.63-2.67,45.16-22.45,48.94c-16.55,3.17-33.47-14.34-37.67-38.48
			c-4.2-24.14,5.85-46.05,22.45-48.94S691.11,357.2,695.17,387.09z"/>
		<path class="st3" d="M684.68,382.12c-3.97-22.2-8.51-34.5-32.75-32.07c-12.65,1.27-24.75,4.61-31.33,9.74
			c-5.95,4.64-8.97,10.76-8.76,25.74c0.16,11.29,1,30.71,7.73,48.47c4.32,11.38,19.8,13.24,32.94,11.86
			c33.25-3.48,37.72-7.81,36.58-31.68C688.02,391.74,686.31,391.23,684.68,382.12z"/>
		<path class="st4" d="M679.51,358.83c-7.72-13.09-27.28,3.23-18.21,6.52c13.36,4.86,10.13,35.25,7.96,53.69
			c-2.39,20.29-13.94,25.29-13.94,25.29s6.34,0.17,13.8-1.82c12.14-3.24,20.77-2.97,19.17-32.67
			C687.53,395.59,684.26,366.87,679.51,358.83z"/>
		<path class="st14" d="M615.38,360.17c-1.79,1.56-3.52,14.46-3.59,22.45c-0.01,1.68,1.37-10.56,3.64-13.49
			c0,0,7.17,1.69,15.33,0.53c15.15-2.15,28.64-6.14,28.64-6.14s6.18,17.15,11.25,22.51c5.2,5.5,11.25,8.18,11.25,8.18l5.96-12.8
			c-2.24-16.76-9.21-30.64-20.78-32.42C645.9,345.74,621.96,354.43,615.38,360.17z"/>
		<path class="st15" d="M653.3,397.91c0.19,3.36-1.35,3.84-3.05,3.93c-1.7,0.1-2.95-0.22-3.18-3.58c-0.23-3.39,0.99-6.25,2.73-6.35
			C651.54,391.82,653.11,394.52,653.3,397.91z"/>
		<path class="st16" d="M644.03,380.96c0,0,6.86-1.3,10.11,1.7"/>
		<path class="st15" d="M628.58,400.92c0.31,3.14-1.05,3.45-2.65,3.54c-1.6,0.09-2.86-0.07-3.2-3.21c-0.35-3.17,0.69-5.85,2.32-5.94
			C626.68,395.21,628.26,397.74,628.58,400.92z"/>
		<path class="st16" d="M626.87,384.32c0,0-5.16-1.44-9.44,3.07"/>
		<path class="st4" d="M697.64,396.9c-1.7,8.13-7.72,13.96-13.5,13.26c0,0-1.02-18.33-1.33-21.82c-0.2-2.19,0.77-9,6.93-8.25
			C695.88,380.84,699.39,388.49,697.64,396.9z"/>
		<path class="st0" d="M694.42,405.41c-0.22,2.19-2.23,3.89-4.47,3.81c-2.24-0.08-3.91-1.92-3.72-4.11
			c0.19-2.21,2.19-3.95,4.47-3.87C692.98,401.32,694.65,403.2,694.42,405.41z"/>
	</g>
</g>
<g id="left_leg">
	<path class="st10" d="M667.2,654.04c0,0,1.28,15.74-12.34,16.73C654.86,670.77,666.78,657.32,667.2,654.04z"/>
	<g>
		<path class="st7" d="M614.1,847.43c-17.81,6.37-43.85,12.78-44.92,20.57c-1.07,7.74-1.75,15.92-0.98,18.8
			c0.59,2.18,1.58,3.47,3.35,4.15c4.5,1.73,13.51,5.92,31.5,7.22c7.76,0.56,24.59-3.85,34.66-11.47
			c7.98-6.03,17.53-13.03,21.1-15.65c0.93-0.68,1.53-1.69,1.66-2.82l1.04-8.68c0.21-1.77-0.77-3.5-2.44-4.27
			C651.23,851.65,628.56,842.25,614.1,847.43z"/>
		<path class="st8" d="M614.89,839.93c-15.53,5.31-44.99,17.23-46,24.95c-0.91,6.97-1.3,10.81-1.01,13.47
			c0.14,1.3,3.81,1.85,5.61,2.47c4.58,1.57,13.74,5.37,32,6.62c7.87,0.54,23.19-1.74,33.39-8.53c8.47-5.63,18.68-12.21,21.85-14.25
			c0.63-0.41,1.05-1.02,1.16-1.71l1.03-6.73c0.44-2.89-0.44-15.33-3.65-16.28C647.59,836.48,628.65,835.22,614.89,839.93z"/>
		<path class="st9" d="M617.12,860.08c0,0-14.94-12.52-31.38-7.31"/>
		<path class="st9" d="M627.09,853.78c0,0-15.52-11.27-31.91-6.08"/>
	</g>
	<path class="st11" d="M641.26,846.83c0,0-5.86,1.1-18.9,0.7c-13.05-0.39-13.99-4.64-17.42-6.48c-3.43-1.84-10.77,6.44-7.92-14.97
		c2.85-21.41-0.65-29.75-1.69-35.07s-2.19,0.97-2.16-15.84s1.06-30.13,0.05-52.26s-4.44-92.81-2.09-102.24
		c2.36-9.44,66.98-6.19,71.78,10.16s-0.77,35.7-2.75,43.47s0.99,30.45-1.03,45.83c-1.13,8.56-1.17,34.05,0.99,62.58
		s4.2,38.63,6.11,41.7s-0.34,13.58-1.55,18.03C663.49,846.9,641.26,846.83,641.26,846.83z"/>
	<path class="st11" d="M761.39,625.44c-1.62-6.48-2.73-2.03-50.99-8.63c-37.35-5.11-87.96-22.66-95.51-1.62
		c-7.55,21.04,95.51,24.82,119.25,25.36C757.89,641.09,763.01,631.92,761.39,625.44z"/>
	<path class="st10" d="M626.22,655.66c0,0-19.97-9.71-18.35-24.28c1.64-14.79,36.6-20.23,53.69-22.93
		c-31.57-10.52-68.07,2.8-70.43,12.24c-2.36,9.44,1.08,80.12,2.09,102.24c1.01,22.13-0.02,35.45-0.05,52.26
		c-0.04,16.81,1.11,10.52,2.16,15.84c1.05,5.32,4.54,13.66,1.69,35.07c-2.85,21.41,4.49,13.13,7.92,14.97
		c3.43,1.84,4.37,6.09,17.42,6.48c13.05,0.39,18.9-0.7,18.9-0.7s22.23,0.06,23.43-4.39c1.2-4.45,3.46-14.96,1.55-18.03
		c-1.03-1.66-18.86-19.94-35.4-37.33l1.5,4.51l1.01,17.5c0,0-7.03-14.88-9.53-20.37c-1.77-3.89-5.17-12.09-7.02-16.56
		c-7.85-8.48-13.64-15.07-14.29-16.8c-1.06-2.8-5.93-107.9,4.27-101.88C618.67,660.52,626.22,655.66,626.22,655.66z"/>
</g>
<g id="left_arm">
	<path class="st3" d="M745.75,453.85c-4.91,0.21-14.68-2.43-19.84,16.19c-5.16,18.62,7.37,63.13,16.95,59.9s8.11-27.52,10.32-41.28
		C755.39,474.89,752.13,453.58,745.75,453.85z"/>
	<path class="st4" d="M745.75,453.84c-5.71-0.79-7.82,4.06-11.33,11.07c-5.51,11.03-1.14,36.65,8.44,34.7s9.31-23.19,11.52-31.47
		S753.57,454.93,745.75,453.84z"/>
	<path class="st4" d="M779.74,507.27c0,0-4.86-11.87-12.14-26.44c-7.28-14.57-11.87-28.06-21.58-24.82s-13.89,18.89-14.7,31.03
		c-0.81,12.14,4.86,24.01,14.03,35.88c7.36,9.52,15.78,39.39,26.04,52.34c12.81,16.18,23.74,25.9,35.07,17
		c11.33-8.9,4.05-31.57-4.86-46.95S779.74,507.27,779.74,507.27z"/>
	<path class="st3" d="M740.08,500.25c-10.21-12.25-6.07-30.22-6.07-30.22s-2.83,4.86-3.64,17c-0.81,12.14,4.86,24.01,14.03,35.88
		c7.36,9.52,16.73,39.39,26.98,52.34c0,0,27.79-5.06,19.29-7.49c-8.09-2.31-12.74,0.05-14.97-3.64
		c-4.35-7.17-19.02-37.84-19.02-37.84S748.17,509.97,740.08,500.25z"/>
	<path class="st4" d="M799.98,568.78c0,0-6.98-2.63-24.79,3.04c-17.81,5.67-9.21,10.72-41.79,26.91
		c-16.69,8.29-5.19,23.2,17.47,19.16c22.66-4.05,41.01-9.44,52.34-21.58C814.54,584.16,815.35,576.88,799.98,568.78z"/>
	<path class="st3" d="M768.41,584.16c4.78-4.33,12.65-10.99,14.84-13.76c1.7-2.15-0.3-1.4-8.09,1.08
		c-17.81,5.67-9.17,11.06-41.75,27.25C716.71,607.02,759.91,591.85,768.41,584.16z"/>
	<path class="st4" d="M736.84,602.78c-2.6-1.78-17.81-8.09-26.71-8.9c-8.9-0.81-18.62,1.62-18.62,1.62l-17.81,7.28
		c0,0-6.07,6.48-7.69,8.9c-1.62,2.43,1.42,4.65,1.42,4.65s6.27,3.84,7.49,2.63c1.21-1.21,1.21-1.21,1.21-1.21s3.24,3.64,5.67,4.05
		c2.43,0.4,5.26,0,5.26,0s6.48,2.83,10.93,2.83s8.5-6.88,12.95-7.69s8.3,5.87,16.8,5.46C736.24,622,744.53,608.04,736.84,602.78z"/>
	<path class="st3" d="M731.19,600.05c-5.94-2.49-14.97-5.62-21.06-6.17c-8.9-0.81-18.62,1.62-18.62,1.62l-17.81,7.28
		c0,0-6.07,6.48-7.69,8.9c-1.62,2.43,1.42,4.65,1.42,4.65s6.27,3.84,7.49,2.63c1.21-1.21,1.21-1.21,1.21-1.21s3.24,3.64,5.67,4.05
		c2.43,0.4,5.26,0,5.26,0l1.75-5.53l25.63-15.65C714.45,600.62,733.94,601.2,731.19,600.05z"/>
</g>
<g id="dog">
	<g>
		<path class="st17" d="M386.39,769.54c0,0,6.46,17.79,10.49,21.9l4.18-9.3C401.05,782.14,395.31,772.92,386.39,769.54z"/>
		<path class="st17" d="M389.08,777.15c0,0-2.72,14.86-1.28,20.11l7.57-2.47C395.36,794.79,394.8,785.39,389.08,777.15z"/>
		<path class="st15" d="M200.87,846.21c0,0-5.44,39.91-3.6,49.38c1.83,9.47-1.43,21.51-5.27,27.78c-2.11,3.86,5.38,18.19,5.38,18.19
			s11.6,3.38,22.75-0.53c9.75-3.42,7.38-9.17,1.21-11.99c-6.22-2.85,8.24-28.47,8.24-28.47s10.87-43.71,11.58-50.31
			C241.87,843.67,206.83,824.55,200.87,846.21z"/>
		<g>
			<path class="st15" d="M376.46,779.31c-9.77,2.08-59.66-0.47-63.82-19.85c-3.07-14.32-8.89-30.23-10.18-42.37
				c0,0-5.31-8.6-9.99-19.06c-4.7-10.51-2.64-12.26,3.47-9.38c6.06,2.85,17.51,13.66,17.51,13.66s14.54-10.46,34.7-12.25
				c19.55-1.73,15,4.97,22.34,14.04l5.29,8.25c0,0,14.2-7.74,23.61-8.83c9.27-1.07,12.46,2.75,16.4,13.03
				c4.07,10.61,4.26,11.69,2,17.92c-2.27,6.26-10.35,18-19.27,26.71C398.55,761.16,386.09,777.26,376.46,779.31z"/>
			<path class="st14" d="M376.46,779.31c-9.77,2.08-20.1,12.28-24.25-7.1c-3.07-14.32-2.37-37.98-2.37-37.98s-21.82-42.4-1.66-44.19
				c19.55-1.73,20.91,3.83,26.45,12.27l3.69,8.57c0,0,11.69-6.3,21.1-7.38c9.27-1.07,12.46,2.75,16.4,13.03
				c4.07,10.61,4.26,11.69,2,17.92c-2.27,6.26-10.35,18-19.27,26.71C398.55,761.16,386.09,777.26,376.46,779.31z"/>
			<path class="st8" d="M411.8,707.15c3.57,4.67-3.43,9.94-7.03,5.26c-3.62-4.71-13.62-6.46-7.79-8.62
				C401.01,702.31,408.22,702.46,411.8,707.15z"/>
			<g>
				<path class="st14" d="M337.63,697.58c0,0-2.23-14.12-2.46-24.7c-0.21-10.1,5.24-8.46,10.62-0.28
					c5.61,8.52,13.47,24.92,14.87,28.19C362.07,704.06,343.1,709.08,337.63,697.58z"/>
				<path class="st15" d="M341.81,674.83c-1.98-10.11-0.03-7.08,5.35,1.09c5.6,8.5,5.23,10.2,6.64,13.48
					C355.2,692.67,343.57,683.83,341.81,674.83z"/>
			</g>
		</g>
		<g>
			<path class="st14" d="M359.36,901.71c-1.4-3.86-8.48-3.97-8.77-4.94c-4.94-16.42-6.27-33.11-6.95-37
				c-1.4-7.99,3.01-23.54,0.12-40.76c-2.79-16.6-30.67-0.57-27.83,19.19c1.64,11.41,9.59,49.86,11.85,60.3
				c0.32,1.47,0.95,2.86,1.86,4.09l8.58,8.28c1.99,3.16,5.96,1.99,13.22-0.2C358.61,908.51,361.26,906.95,359.36,901.71z"/>
			<path class="st14" d="M411,921.98c-0.95-10.12-13.4-9.89-13.4-9.89c-0.73-1.33-3.17-3.85-3.42-5.2
				c-1.92-10.24-1.34-33.91-1.8-38.46c-0.96-9.47-0.03-38.14-1.8-59.98c-1.78-21.94-28.48-3.22-28.61,18.54
				c-0.09,15.49,13.09,77.04,14.32,82.96c0,0,14.17,20.2,21.06,19.5C404.16,928.76,411.59,928.22,411,921.98z"/>
			<path class="st15" d="M312.65,766.61c-4.09,9.21-1.02,13.3-12.28,17.39c-25.61,9.31-46.7,11.1-75.7,19.44
				c-18.92,5.44-30.68,46.04-22.51,57.29c8.18,11.25,40.92,9.21,61.38,22.51c21.46,13.95,45.01-3.07,58.31-9.21
				c13.3-6.14,47.51-30.3,55.93-38.95c3.04-3.12,4.27-11.72,6.24-20.75c2.85-13.08,8.08-28.12-0.33-40.06
				C378,766.17,316.74,757.41,312.65,766.61z"/>
			<path class="st14" d="M363,781.23l-12.51,23.66c0,0-14.23,21.8-12.98,21.75l14.4,24.81c0,0,17.46-7.73,25.87-16.38
				c3.04-3.12,9.62-10.32,11.59-19.36c2.85-13.08,1.02-23.53-2.05-41.94L363,781.23z"/>
			<g>
				<path class="st17" d="M312.65,762.52c0,0-2.06,2.67-1.7,8.14c0,0,17.3,5.9,50.24,10.56c16.72,2.37,29.47-0.16,29.47-0.16
					l-1.31-10C389.35,771.07,350.5,777.87,312.65,762.52z"/>
			</g>
			<path class="st14" d="M229.79,816.74c-2.94-4.05-7.16-1.02-18.41-20.46s-15.24-51.4-1.03-62.05c0,0-15.75-4.04-27.62,26.25
				c-12.14,30.97,21.59,65.55,24.68,68.23C221.07,840.62,238.15,828.27,229.79,816.74z"/>
			<path class="st15" d="M231.41,817.83c-2.96-4.08-11.86,12.21-28.53-17.47c-8.77-15.61-14.53-54.74,7.52-66.14
				c0,0-24.41-3.58-30.74,28.62c-8.19,41.62,24.66,63.96,27.77,66.67C221.21,841.54,239.85,829.46,231.41,817.83z"/>
		</g>
		<path class="st15" d="M243.63,856c0,0,13.38,51.55,19.17,59.31c5.76,7.72,10.2,19.39,8.93,26.15
			c-1.27,6.79,11.47,14.87,11.47,14.87s16.47-1.88,19.19-2.87c2.71-0.99,7.93-11.86,0.64-12.28c-7.37-0.42-11.71-31.98-11.71-31.98
			s-2.93-56.35-4.95-62.53C284.35,840.5,240.47,834.42,243.63,856z"/>
	</g>
	
		<ellipse transform="matrix(0.9338 -0.3577 0.3577 0.9338 -228.2832 179.5435)" class="st8" cx="371.13" cy="706.78" rx="2.08" ry="6"/>
</g>
<g id="report">
	<g>
		<path class="st18" d="M406.88,747.66c0,0-14.45,0-14.38,11.49c0.01,0.88,0.47,1.71,1.21,2.19l10.2,6.56
			c0,0,20.5,22.66,23.74,25.09s15.92,9.17,24.28-3.24c7.49-11.11,2.83-30.35-5.67-32.38L406.88,747.66z"/>
		<path class="st19" d="M426.3,784.35c-2.85-7.04,1.93-20.72,13.89-22.12c13.76-1.62,14.7,19.43,9.41,26.75
			C443.1,797.99,430.89,795.69,426.3,784.35z"/>
		<path class="st18" d="M426.84,777.61l6.61,5.26c0,0-0.92-1.02-0.54-6.07c0.25-3.32,2.99-6.93,9.31-9.71l-6.27-1.82
			C435.95,765.27,428.26,766.28,426.84,777.61z"/>
		<path class="st18" d="M425.22,788.94c0,0,21.31,8.63,22.39-11.87c0.19-3.54-4.86-9.98-12.28-8.09c-8.3,2.11-0.67-3.24,1.21-3.24
			s16.73,1.92,13.09,15.51c-3.51,13.09-14.32,12.87-19.97,10.79C427.14,791.11,425.22,788.94,425.22,788.94z"/>
	</g>
	<g>
		<path class="st20" d="M411.06,748.47c0,0-13.96-2.12-12.65,16.19"/>
		<path class="st21" d="M410.65,749.68c0,0,8.9-11.33,2.02-8.09S410.65,749.68,410.65,749.68z"/>
		<path class="st21" d="M411.06,748.47c0,0,8.9-6.88,12.55-1.21s-6.88,5.67-8.9,5.26C412.68,752.11,411.06,748.47,411.06,748.47z"/>
		<path class="st20" d="M411.06,748.47c0,0-3.54-0.3-7.79,4.15c-2.82,2.95-5.36,11.03-3.64,12.55"/>
	</g>
</g>
</svg>
