<?xml version="1.0" encoding="utf-8"?>
<!-- Generator: Adobe Illustrator 24.0.0, SVG Export Plug-In . SVG Version: 6.00 Build 0)  -->
<svg version="1.1" xmlns="http://www.w3.org/2000/svg" xmlns:xlink="http://www.w3.org/1999/xlink" x="0px" y="0px"
	 viewBox="0 0 600 600" style="enable-background:new 0 0 600 600;" xml:space="preserve">
<style type="text/css">
	.st0{fill:#EFE6D9;}
	.st1{fill:#F7BC4B;}
	.st2{opacity:0.3;}
	.st3{fill:#6E4834;}
	.st4{fill:#363E4F;}
	.st5{opacity:0.5;}
	.st6{opacity:0.2;}
	.st7{opacity:0.4;}
	.st8{opacity:0.1;fill:#FFFFFF;}
	.st9{fill:#101216;}
	.st10{fill:#ED4A2F;}
	.st11{opacity:0.5;fill:#FFFFFF;}
	.st12{fill:#161A21;}
	.st13{fill:#65A9DF;}
	.st14{fill:#A36140;}
</style>
<g id="Background_x5F_Simple">
	<g>
		<path class="st0" d="M106.56,163.47c0,0-11.25-2.37-14.72,10.7c-3.47,13.06,5.29,22.38,5.29,22.38s-18.82,19.89-16.49,26.29
			c2.33,6.39,6.51,7.7,6.51,7.7s-36.82,29.84-36.15,33.24c0.67,3.39,50.16-23.96,50.16-23.96s-4.89,7.22,2.61,8.8
			c7.5,1.58,152.89-83.61,165.28-89.25c12.39-5.65-1.62-9.2-1.62-9.2s82.67-47.64,91.31-54.07c8.64-6.43-93.33,26.72-93.33,26.72
			s5.17-10.54-5.09-19.02s-17.64-0.04-17.64-0.04s-22.9-51.5-85.41-33.81S106.56,163.47,106.56,163.47z"/>
		<path class="st0" d="M433.73,184.15c0,0-15.44,10.55-14.62,13.32s25.11-9.84,25.11-9.84s-5.72,7.9,0.06,8.13
			c5.78,0.24,80.28-47.4,84.12-51.23c3.83-3.83-30.06,8.55-30.06,8.55s-2.48-8.31-9.31-9.37c-6.84-1.06-7.66,7.66-7.66,7.66
			s-16.92-20.4-41.38-5.36C415.52,161.04,433.73,184.15,433.73,184.15z"/>
	</g>
</g>
<g id="Layer_x5F_Ground">
	<g>
		<path class="st1" d="M495.22,365.12l-284.75-8.85c0,0-122.61,72.71-121.9,74.85c0.71,2.14,11.41,23.52,11.41,23.52l-15.68,13.54
			l-4.99,49.19c0,0,76.99,16.4,80.55,16.4c3.56,0,69.86-19.96,69.86-19.96l4.99,10.69c0,0,118.34,2.85,124.04,0.71
			s59.17-25.66,59.17-25.66v-35.64c0,0,57.03-3.56,60.59-4.99c3.56-1.43,59.17-51.33,59.17-51.33L495.22,365.12z"/>
		<path class="st2" d="M141.32,489.58c-1.43,0-27.56,12.83-27.56,12.83s29.47-0.48,32.79-1.9c3.33-1.43,12.83-6.18,12.83-6.18
			L141.32,489.58z"/>
		<polygon class="st1" points="98.54,402.13 77.16,414.01 99.02,414.01 106.62,409.74 		"/>
		<path class="st1" d="M72.41,457.26l-27.56,9.98c0,0-7.6,19.01-5.23,19.01c2.38,0,25.19,0.48,25.19,0.48l15.21-13.78L72.41,457.26z
			"/>
		<path class="st1" d="M498.82,467.83c0,0-52.75,8.08-53.7,9.5c-0.95,1.43-12.83,28.04-12.83,28.04s98.38,1.43,99.8,0.48
			c1.43-0.95,10.46-16.63,10.46-16.63L498.82,467.83z"/>
		<path class="st1" d="M419.81,510.01c0,0-28.99,9.03-27.56,9.98s15.68,5.23,19.01,5.23c3.33,0,21.39-2.38,21.39-2.38L419.81,510.01
			z"/>
		<path class="st1" d="M520.8,444.79l-11.88,6.18c0,0,20.91,3.33,24.24,3.33s14.26-7.6,14.26-7.6L520.8,444.79z"/>
		<path class="st2" d="M474.35,376.71c-1.43,0.95-9.03,7.6-9.03,7.6l24.24,2.85l5.7-4.75l-9.03-4.28L474.35,376.71z"/>
		<path class="st2" d="M161.28,433.97c-3.33,2.38-39.45,20.91-39.45,20.91l29.47,7.6l-8.08,7.13c0,0,24.71,4.75,35.17,4.75
			s34.69,0.48,34.69,0.48l-44.67,8.08c0,0,38.5,10.93,48,13.31c9.5,2.38,35.17,6.65,38.5,6.65c3.33,0,60.36,0.95,60.36,0.95
			l-16.16,5.23c0,0,33.74,1.9,48.48,0c14.73-1.9,40.87-19.49,40.87-19.49l-19.01-1.9c0,0,17.58-20.91,19.49-22.34
			c1.9-1.43,55.13-8.08,59.41-10.46c4.28-2.38,28.99-23.29,28.99-23.29l-21.86-1.43l16.63-15.68c0,0-33.74-9.03-56.08-7.6
			c-22.34,1.43-51.33,0.95-51.33,0.95l-176.79-4.28L161.28,433.97z"/>
		<path class="st2" d="M386.54,424.35c-14.61,4.99-30.3,13.54-29.23,13.54s45.62-0.71,45.62-0.71s-17.47,6.77-13.19,7.84
			c4.28,1.07,44.91,3.56,53.82,2.5s43.49-16.4,43.49-16.4l-18.53-4.28l27.09-13.19c0,0-39.56-13.9-55.6-14.61
			c-16.04-0.71-63.45-2.5-63.45-2.5L386.54,424.35z"/>
		<path class="st2" d="M137.28,442.05c-9.62-0.71-11.64,2.02-11.64,2.61s12.59,0.95,12.24,1.31c-0.36,0.36-14.85,0.95-13.54,1.43
			s12.71,3.21,17.94,3.92c5.23,0.71,7.84,1.43,7.84,1.43l-1.78,2.85c0,0,13.31,2.73,19.13,1.19c5.82-1.54,10.81-2.38,9.86-2.97
			c-0.95-0.59-10.93-5.11-17.11-5.7c-6.18-0.59-10.34-3.8-10.34-3.8s11.05-1.31,10.69-1.43
			C160.21,442.77,137.28,442.05,137.28,442.05z"/>
	</g>
</g>
<g id="Layer_x5F_Plant">
	<path class="st1" d="M384.52,396.23c0,0,5.55-28.01,8.72-30.34c3.17-2.33-1.91,17.1-1.91,17.1s4.33-4.99,7.08-5.78
		s-2.52,8.02-2.52,8.02s11.61-12.25,20.88-10.71c9.27,1.54-16.27,16.82-16.27,16.82s10.44-2.33,12.86,0.1
		c2.42,2.42-17.43,6.15-17.43,6.15L384.52,396.23z"/>
</g>
<g id="Layer_x5F_Character_2">
	<g id="Right_Upper_Arm">
		<g>
			<path class="st3" d="M375.85,199.44c0,0-17.46,12.3-22.99,14.62c-5.52,2.31-10.69,4.99-17.28,2.14
				c-1.53-0.66-2.73-1.66-3.63-2.83c-3.06-3.89-2.97-9.73-1.19-11.79c2.32-2.67,8.74-8.02,14.44-13.19
				c3.87-3.51,13.82-11.86,21.76-16.31c3.76-2.1,7.07-3.33,9.07-2.76c0,0,5.7,5.53,6.95,16.76
				C384.23,197.3,375.85,199.44,375.85,199.44z"/>
			<path class="st2" d="M375.85,199.44c0,0-17.46,12.3-22.99,14.62c-5.52,2.31-10.69,4.99-17.28,2.14
				c-1.53-0.66-2.73-1.66-3.63-2.83c1.34-0.23,2.45-0.42,3.27-0.56c7.13-1.25,21.74-13.72,23.17-16.75
				c1.24-2.64,2.88-15.8,8.57-23.98c3.76-2.1,7.07-3.33,9.07-2.76c0,0,5.7,5.53,6.95,16.76
				C384.23,197.3,375.85,199.44,375.85,199.44z"/>
		</g>
	</g>
	<g id="Right_Arm">
		<g>
			<path class="st3" d="M343.42,216.55c-1.79,3.57-12.48,6.42-16.4,7.67c-3.92,1.24-28.34,1.6-28.34,1.6l-2.85-4.81
				c0,0-0.06-0.46-0.14-1.17c-0.28-2.26-0.8-7.03-0.39-7.03c0.53,0,32.85-11.53,38.14-10.34c3.16,0.71,6.54,4.04,8.53,7.43
				C343.47,212.45,344.18,215.02,343.42,216.55z"/>
			<path class="st2" d="M343.42,216.55c-1.79,3.57-12.48,6.42-16.4,7.67c-3.92,1.24-28.34,1.6-28.34,1.6l-2.85-4.81
				c0,0-0.06-0.46-0.14-1.17c0.51-0.23,0.93-0.38,1.21-0.44c1.78-0.35,31.19-5.34,38.32-6.59c1.86-0.32,4.24-1.42,6.75-2.91
				C343.47,212.45,344.18,215.02,343.42,216.55z"/>
		</g>
	</g>
	<g id="Right_Hand">
		<g>
			<g>
				<path class="st3" d="M298.68,225.82c0,0-4.21,1.9-5.52,2.14s-8.2-1.19-9.51-1.19c-1.3,0-10.81-0.48-12-1.31
					c-0.32-0.23-0.59-0.54-0.8-0.9c-0.59-0.97-0.72-2.23-0.03-2.66c0.95-0.6,11.41-1.66,11.41-1.66l-10.81-0.84l-5.11,1.31
					c0,0,0.35-1.43,0.24-2.61c-0.02-0.23,0.31-0.65,0.89-1.19c2.41-2.22,9.1-6.37,12.17-6.65c3.81-0.36,6.3,1.18,18.06,3.08
					l0.47,5.84L298.68,225.82z"/>
				<path class="st2" d="M287.16,217.17c-0.18,0.24-4.93,3.07-4.93,3.07l-10.81-0.84l-5.11,1.31c0,0,0.35-1.43,0.24-2.61
					c-0.02-0.23,0.31-0.65,0.89-1.19c3.13,0.33,8.85,0,10.27,0C279.61,216.91,287.33,216.94,287.16,217.17z"/>
			</g>
			<path class="st2" d="M298.68,225.82c0,0-4.21,1.9-5.52,2.14s-8.2-1.19-9.51-1.19c-1.3,0-10.81-0.48-12-1.31
				c-0.32-0.23-0.59-0.54-0.8-0.9c3.87-0.06,14.55-0.2,15.72-0.34c1.42-0.18,8.55-4.46,10.33-4.82c0.17-0.03,0.6-0.11,1.24-0.22
				L298.68,225.82z"/>
		</g>
	</g>
	<g id="Left_Foot">
		<g>
			<path class="st4" d="M460.86,414.37c0,0-0.18,3.57-1.25,6.24c-1.06,2.67-8.91,24.06-13.18,26.56c-0.51,0.29-1.11,0.55-1.79,0.76
				c-5.05,1.6-14.23,1.07-18,0.13c-3.09-0.77-4.78-3.41-5.55-5.83c-0.3-0.92-0.46-1.81-0.5-2.55c-0.18-2.67,1.42-7.66,3.02-10.87
				c1.16-2.32,4.18-8.35,5.9-12.6c0.67-1.63,1.14-3.01,1.23-3.8l27.84-5.15l1.03-0.19L460.86,414.37z"/>
			<path class="st1" d="M428.37,424.71c1.73-1.04,5.47-2.5,10.22-0.71c2.54,0.95,2.61,2.5,2.5,2.97s-2.26-1.31-6.06-1.43
				c-3.8-0.12-6.65,1.31-7.13,1.19C427.42,426.61,426.58,425.78,428.37,424.71z"/>
			<path class="st1" d="M430.39,419.24c1.73-1.04,5.47-2.5,10.22-0.71c2.54,0.95,2.61,2.5,2.5,2.97c-0.12,0.48-2.26-1.31-6.06-1.43
				s-6.65,1.31-7.13,1.19C429.44,421.14,428.6,420.31,430.39,419.24z"/>
			<path class="st1" d="M460.86,414.37c0,0-0.18,3.57-1.25,6.24c-1.06,2.67-8.91,24.06-13.18,26.56
				c-4.28,2.49-15.51,1.96-19.79,0.89c-3.09-0.77-4.78-3.41-5.55-5.83c3.27,1.63,8.22,3.87,10.72,3.87c3.92,0,12.66-1.25,14.08-2.85
				c1.43-1.61,11.41-22.99,11.23-24.6c-0.12-1.06,0.95-6.95,1.46-11.39l1.03-0.19L460.86,414.37z"/>
			<path class="st5" d="M460.86,414.37c0,0-0.18,3.57-1.25,6.24c-1.06,2.67-8.91,24.06-13.18,26.56c-0.51,0.29-1.11,0.55-1.79,0.76
				c1.28-3.3,2.68-7.21,2.68-9.5c0-4.63,0.89-16.39-2.85-19.78c-3.04-2.74-8.66-4.32-14.96-2.44c0.67-1.63,1.14-3.01,1.23-3.8
				l27.84-5.15l1.03-0.19L460.86,414.37z"/>
		</g>
	</g>
	<g id="Right_Calf">
		<g>
			<path class="st4" d="M394.74,331.32c0,0-2.13,21.75-2.85,27.09c-0.71,5.35-2.49,18.18-2.49,18.18s-2.5,9.27-5.71,12.83
				c-3.2,3.57-17.46,4.64-21.38,3.57s-8.2-5.71-8.91-6.77c-0.72-1.07,1.42-9.63,1.42-9.63s1.06-16.8,2.29-32.53
				c0.92-11.66,1.94-22.73,2.7-25.92c3.9-10.57,19.71-9.32,28.66-0.84C392.2,320.83,394.74,325.61,394.74,331.32z"/>
			<path class="st2" d="M394.74,331.32c0,0-2.13,21.75-2.85,27.09c-0.71,5.35-2.49,18.18-2.49,18.18s-2.5,9.27-5.71,12.83
				c-3.2,3.57-17.46,4.64-21.38,3.57s-8.2-5.71-8.91-6.77c-0.72-1.07,1.42-9.63,1.42-9.63s1.06-16.8,2.29-32.53
				c4.25,3.73,9.61,8.17,13.04,10.08c6.42,3.56,12.12,0.71,12.12-0.72c0-1.42,1.07-16.04,2.14-22.81c0.1-0.65,2.36-7.93,4.06-13.31
				C392.2,320.83,394.74,325.61,394.74,331.32z"/>
		</g>
	</g>
	<g id="Right_Thigh">
		<g>
			<path class="st4" d="M440.72,265.03c0,12.83-6.05,23.88-9.26,28.87c-0.07,0.1-0.15,0.23-0.25,0.37
				c-2.15,2.92-10.81,11.74-19.14,20.04c-8.84,8.8-17.33,17.01-17.33,17.01c-3.17,4.2-7.22,6.54-11.44,7.36
				c-11.85,2.37-25.01-7.15-23.49-20.54c1.21-5.08,20.62-29.84,32.99-45.24c0.41-0.51,0.81-1,1.2-1.49
				c0.22-0.28,0.44-0.55,0.66-0.82c0.59-0.74,1.17-1.45,1.71-2.13c1.58-1.96,2.95-3.64,4.03-4.96c0.21-0.27,0.41-0.51,0.6-0.74
				c0.28-0.35,0.54-0.66,0.77-0.94c0.14-0.18,0.27-0.34,0.39-0.48c0.02-0.03,0.04-0.05,0.06-0.07c0.09-0.11,0.18-0.21,0.25-0.3
				c0.31-0.38,0.47-0.58,0.47-0.58l26.73-9.26C429.67,251.13,440.72,252.2,440.72,265.03z"/>
			<path class="st2" d="M440.72,265.03c0,12.83-6.05,23.88-9.26,28.87c-0.07,0.1-0.15,0.23-0.25,0.37
				c-2.15,2.92-10.81,11.74-19.14,20.04c-8.84,8.8-17.33,17.01-17.33,17.01c-3.17,4.2-7.22,6.54-11.44,7.36
				c-2.34-8.51,3.13-17.73,7.52-20.19c0,0-5.7,0.36-2.85-5.7c2.85-6.06,18.18-15.68,18.18-15.68s0.36-5.71-2.5-9.98
				c-1.86-2.8-6.31-9.39-10.85-14.23c0.41-0.51,0.81-1,1.2-1.49c0.22-0.28,0.44-0.55,0.66-0.82c0.59-0.74,1.17-1.45,1.71-2.13
				c1.58-1.96,2.95-3.64,4.03-4.96c0.21-0.26,0.41-0.51,0.6-0.74c0.28-0.35,0.54-0.66,0.77-0.94c0.15-0.18,0.28-0.34,0.39-0.48
				c0.02-0.03,0.04-0.05,0.06-0.07c0.09-0.11,0.18-0.21,0.25-0.3c0.31-0.38,0.47-0.58,0.47-0.58l26.73-9.26
				C429.67,251.13,440.72,252.2,440.72,265.03z"/>
			<path class="st6" d="M440.72,265.03c0,12.83-6.05,23.88-9.26,28.87c-0.07,0.1-0.15,0.23-0.25,0.37
				c-2.15,2.92-10.81,11.74-19.14,20.04c2.07-11.26,3.97-26.86,3.7-27.66c-0.4-1.22-5.92-10.36-19.4-18.19
				c1.58-1.96,2.95-3.64,4.03-4.96c0.21-0.26,0.41-0.51,0.6-0.74c0.28-0.35,0.54-0.66,0.77-0.94c0.15-0.18,0.28-0.34,0.39-0.48
				c0.02-0.03,0.04-0.05,0.06-0.07c0.09-0.11,0.18-0.21,0.25-0.3c0.31-0.38,0.47-0.58,0.47-0.58l26.73-9.26
				C429.67,251.13,440.72,252.2,440.72,265.03z"/>
		</g>
	</g>
	<g id="Left_Calf">
		<g>
			<path class="st4" d="M459.97,411.17c-1.07,3.56-3.92,7.12-5.35,7.12c-1.42,0-7.84-4.63-13.9-5.34s-11.76,1.78-11.76,1.78
				s-2.49-4.28-2.85-7.48c-0.14-1.21-0.27-3.03-0.42-5.01c-0.26-3.29-0.56-7.03-1.01-9.25c-0.71-3.57-6.77-37.43-6.06-47.41
				c2.41-15.77,15.89-20.73,25.81-15.61c4.75,2.46,8.69,7.24,10.19,14.25v2.43c0,0,3.21,21.39,3.21,27.8
				c0,6.42-0.35,23.88,1.78,27.81C461.75,406.18,461.04,407.6,459.97,411.17z"/>
			<path class="st2" d="M459.97,411.17c-1.07,3.56-3.92,7.12-5.35,7.12c-1.42,0-7.84-4.63-13.9-5.34s-11.76,1.78-11.76,1.78
				s-2.49-4.28-2.85-7.48c-0.14-1.21-0.27-3.03-0.42-5.01c5.07,3.53,10.99,5.12,10.99,5.12s-4.51,2.14-3.8,2.14
				c0.72,0,15.69-1.42,15.69-1.42s5.46-8.08,5.22-9.75c-0.23-1.66-6.41-37.78-6.41-41.58s2.37-15.45,2.37-15.45l-5.46,6.9
				c0,0-0.71-4.76-0.95-13.07c-0.03-1.21,0.37-2.98,1.09-5.16c4.75,2.46,8.69,7.24,10.19,14.25v2.43c0,0,3.21,21.39,3.21,27.8
				c0,6.42-0.35,23.88,1.78,27.81C461.75,406.18,461.04,407.6,459.97,411.17z"/>
		</g>
	</g>
	<g id="Left_Thigh">
		<g>
			<path class="st4" d="M473.87,283.21c-0.35,7.84-19.25,56.31-19.25,56.31v4.7c-0.73,6.24-3.51,10.46-7.22,12.94
				c-9.81,6.57-26.19,0.97-28.78-11.58c0.45-6.2,6.67-34.4,11.57-56.76l-8.71-29.35c0,0,14.31-27.87,30.56-18.76
				c2.85-0.38,5.54,0.26,7.57,1.86c6.78,5.35,7.49,11.05,8.92,15.33C469.95,262.18,474.23,275.36,473.87,283.21z"/>
			<path class="st2" d="M473.87,283.21c-0.35,7.84-19.25,56.31-19.25,56.31v4.7c-0.73,6.24-3.51,10.46-7.22,12.94
				c-0.01-0.16-0.02-0.3-0.02-0.41c0-3.8,2.37-15.45,2.37-15.45l-5.46,6.9c0,0-0.71-4.76-0.95-13.07
				c-0.24-8.32,20.43-43.96,21.38-47.29c0.95-3.33,2.14-19.72,2.14-19.72s-3.99-1.86-7.85-2.91c-2.32-0.62-4.59-0.96-5.93-0.42
				c-3.56,1.43-11.64,8.55-11.64,8.55l10.69,0.95c0,0-8.32,3.81-12.83,7.13c-2.56,1.89-5.95,4.68-9.11,7.4l-8.71-29.35
				c0,0,14.31-27.87,30.56-18.76c2.85-0.38,5.54,0.26,7.57,1.86c6.78,5.35,7.49,11.05,8.92,15.33
				C469.95,262.18,474.23,275.36,473.87,283.21z"/>
		</g>
	</g>
	<g id="Body_00000093884192612535819850000002016800536711042177_">
		<g>
			<path class="st1" d="M466.39,242.45v6.89c0,0-5.94,6.9-11.17,10.46c-5.23,3.56-20.2,11.88-34.69,10.46
				c-14.5-1.43-23.53-6.66-23.53-6.66l-1.19-14.26c0,0-0.83-5.53-3.22-12.16c-0.75-2.06-1.65-4.23-2.72-6.37
				c-0.9-1.8-2.24-3.76-3.83-5.79c-1.8-2.29-3.9-4.66-6.03-6.99c-3.12-3.4-6.31-6.7-8.67-9.5c-1.78-2.11-3.1-3.93-3.57-5.28
				c-0.19-0.54-0.39-1.12-0.6-1.72c-0.36-1.06-0.74-2.21-1.11-3.41c-0.42-1.42-0.83-2.93-1.15-4.5c-0.8-3.92-1.1-8.17,0.01-12.24
				c1.41-5.16,4.76-10.98,12.53-14.46c0.54-0.25,1.1-0.48,1.69-0.69c1.13-0.43,2.35-0.81,3.66-1.13c3.04-0.76,6.56-1.22,10.64-1.3
				c5.57-0.11,11.45,0.87,16.56,2.24c0.06,0.02,0.11,0.03,0.17,0.05c0.33,0.09,0.67,0.18,1,0.28c5.27,1.51,9.6,3.38,11.73,4.8
				c3.29,2.19,10.95,10.44,18.2,19.86c2.17,2.82,4.31,5.75,6.28,8.65c0.37,0.55,0.75,1.14,1.13,1.75c1.01,1.63,2.04,3.46,3.06,5.43
				c0,0.01,0,0.01,0,0.01c2.1,4.02,4.19,8.59,6.11,13.09C462.58,231.45,466.39,242.45,466.39,242.45z"/>
			<path class="st3" d="M386.33,166.23c-15.25,2.13-10.16,19.07,4.46,16.75S409.32,163.02,386.33,166.23z"/>
			<path class="st2" d="M410.17,166.09c-8.37,5.79-20.55,6.47-31.03,0.14c1.13-0.43,2.35-0.81,3.66-1.13
				c3.04-0.76,6.56-1.22,10.64-1.3c5.57-0.11,11.45,0.87,16.56,2.24C410.06,166.06,410.11,166.07,410.17,166.09z"/>
			<path class="st2" d="M448.51,201.43c-2.43,8.2-9.01,17.77-26.24,19.93c-18.96,2.37-33.63-0.6-42.26-3.33
				c-3.12-3.4-6.31-6.7-8.67-9.5c-1.78-2.11-3.1-3.93-3.57-5.28c-0.19-0.54-0.39-1.12-0.6-1.72c30.86,20.97,66.73,6.53,73.93-10.5
				c2.17,2.82,4.31,5.75,6.28,8.65C447.75,200.23,448.13,200.82,448.51,201.43z"/>
			<path class="st2" d="M457.68,219.96c-2.52,8.11-9.16,17.44-26.15,19.57c-16.71,2.09-30.09,0.03-38.94-2.35
				c-0.75-2.06-1.65-4.23-2.72-6.37c-0.9-1.8-2.24-3.76-3.83-5.79c29.95,10.26,62.57-0.08,65.53-18.15
				C453.67,210.89,455.76,215.46,457.68,219.96z"/>
			<path class="st2" d="M466.39,242.63v6.71c0,0-5.94,6.9-11.17,10.46c-5.2,3.54-20.05,11.8-34.47,10.48
				c-0.07-0.01-0.15-0.01-0.22-0.02c-10.06-0.99-17.49-3.81-21.09-5.45c-1.59-0.72-2.44-1.21-2.44-1.21l-1.19-14.26
				c0,0-1.42-9.5-5.94-18.53c-3.39-6.79-13.11-15.87-18.53-22.28c-1.78-2.11-3.1-3.93-3.57-5.28c-0.52-1.5-1.13-3.24-1.71-5.13
				c-0.42-1.42-0.83-2.93-1.15-4.5c21.9,16.57,55.57,14.9,54.67,15.8c-0.96,0.95-16.4,4.28-13.55,8.08
				c2.85,3.8,21.62,10.22,32.56,6.89c10.93-3.32,18.05-9.74,12.35,4.52c-5.7,14.26,7.13,4.51,7.84,8.55c0.72,4.04-4.27,8.8-4.27,8.8
				S461.17,246.26,466.39,242.63z"/>
			<path class="st2" d="M420.75,270.28c-0.07-0.01-0.15-0.01-0.22-0.02c-10.06-0.99-17.49-3.81-21.09-5.45l13.84-20.59l26.5-10.92
				C443.45,240.57,431.33,257.51,420.75,270.28z"/>
		</g>
	</g>
	<g id="Left_Upper_Arm">
		<g>
			<path class="st3" d="M432.41,248.63c-8.2,1.88-12.35-5.21-14.03-9.34c-0.66-1.62-0.94-2.78-0.94-2.78s-2.38-11.4-3.81-15.92
				c-1.42-4.51-7.12-25.66-8.07-30.89s-0.65-13.61,5.46-15.44c5.32-1.6,9.45-0.24,12.58,2.35c3.86,3.18,6.2,8.23,7.38,11.9
				c2.14,6.66,8.32,35.17,9.51,41.59C441.67,236.51,443.81,246.02,432.41,248.63z"/>
			<path class="st2" d="M432.41,248.63c-8.2,1.88-12.35-5.21-14.03-9.34c9.23-0.52,11.28-1.96,12.01-7.95c0.85-7-2.72-35-6.79-54.73
				c3.86,3.18,6.2,8.23,7.38,11.9c2.14,6.66,8.32,35.17,9.51,41.59C441.67,236.51,443.81,246.02,432.41,248.63z"/>
		</g>
	</g>
	<g id="Left_Arm">
		<g>
			<path class="st3" d="M438.59,240.43c-0.36,8.02-8.38,11.05-14.62,11.05s-11.58,0.18-22.28-0.89c-10.69-1.07-23.7-9.27-23.7-9.27
				l1.1-6.85l0.51-3.13c4.63,0.36,33.68-1.42,42.59-2.85c2.98-0.48,5.84-0.19,8.32,0.69C435.43,230.94,438.82,235.09,438.59,240.43z
				"/>
			<path class="st2" d="M438.59,240.43c-0.36,8.02-8.38,11.05-14.62,11.05s-11.58,0.18-22.28-0.89c-10.69-1.07-23.7-9.27-23.7-9.27
				l1.1-6.85c1.55,0.53,2.64,0.97,2.64,0.97s13.9,4.46,29.41,4.1c15.5-0.35,18.36-0.89,19.25-8.2c0.07-0.58,0.11-1.31,0.12-2.16
				C435.43,230.94,438.82,235.09,438.59,240.43z"/>
		</g>
	</g>
	<g id="Neck">
		<g>
			<g>
				<path class="st3" d="M395.78,170.74c0,0-0.41,3.75-3.83,6.38c-3.42,2.62-7.5,0.82-7.5,0.82s-2.51-4.39-5-7.67
					c-0.9-1.17-1.78-2.19-2.56-2.83l10.55-12.87l7.05,13.69L395.78,170.74z"/>
				<path class="st7" d="M394.49,168.25c-3.95,1.71-9.53,3.29-15.04,2.02c-0.9-1.17-1.78-2.19-2.56-2.83l10.55-12.87L394.49,168.25z
					"/>
			</g>
		</g>
	</g>
	<g id="Head_00000040548808736361888320000001582372500678353081_">
		<g>
			<g>
				<path class="st3" d="M396.56,158.99c-0.42,2.7-5,8.41-13.26,10.95c-2.42,0.74-4.87,1.09-7.16,1.13
					c-5.53,0.12-10.21-1.54-11.67-3.67c-2.08-3.01-6.95-16.18-8.53-25.06c-1.58-8.89,0.29-19.92,12.28-23.01
					c2.05-0.53,3.96-0.87,5.72-1.06c22.59-2.38,22.51,21.37,22.51,21.37S396.97,156.3,396.56,158.99z"/>
				<path class="st2" d="M396.56,158.99c-0.42,2.7-5,8.41-13.26,10.95c-2.42,0.74-4.87,1.09-7.16,1.13
					c4.36-1.59,10.97-4.69,11.77-9.11c1.21-6.67,2.85-29.59-14.08-41.88c0,0,0.02-0.73,0.11-1.81
					c22.59-2.38,22.51,21.37,22.51,21.37S396.97,156.3,396.56,158.99z"/>
			</g>
			<g>
				<path class="st4" d="M375.85,147.52c-1.77,0.34-1.43,5.11,0.83,4.4C378.94,151.2,378.35,147.04,375.85,147.52z"/>
				<path class="st4" d="M362.66,147.4c-1.77,0.34-1.43,5.11,0.83,4.4C365.75,151.08,365.16,146.92,362.66,147.4z"/>
				<g>
					<path class="st4" d="M372.61,142.43l0.01-0.01c0.16-0.14,1.78-1.4,3.66-1.39c0.85,0,1.76,0.24,2.71,0.95
						c0.22,0.17,0.53,0.12,0.7-0.1c0.17-0.22,0.12-0.53-0.1-0.7c-1.11-0.84-2.27-1.15-3.31-1.15c-2.47,0.01-4.29,1.62-4.33,1.65
						c-0.21,0.18-0.23,0.5-0.05,0.71C372.09,142.59,372.41,142.61,372.61,142.43L372.61,142.43z"/>
					<path class="st4" d="M358.82,142.8L358.82,142.8c0.11-0.09,1.32-0.97,2.9-0.96c0.89,0,1.91,0.26,3.01,1.09
						c0.22,0.17,0.53,0.12,0.7-0.1c0.17-0.22,0.12-0.53-0.1-0.7c-1.26-0.96-2.53-1.3-3.62-1.3c-2.08,0.01-3.49,1.16-3.53,1.19
						c-0.21,0.17-0.25,0.49-0.07,0.7C358.29,142.94,358.6,142.97,358.82,142.8L358.82,142.8z"/>
				</g>
			</g>
			<g>
				<path class="st2" d="M375.85,147.52c-1.77,0.34-1.43,5.11,0.83,4.4C378.94,151.2,378.35,147.04,375.85,147.52z"/>
				<path class="st2" d="M362.66,147.4c-1.77,0.34-1.43,5.11,0.83,4.4C365.75,151.08,365.16,146.92,362.66,147.4z"/>
				<g>
					<path class="st2" d="M372.61,142.43l0.01-0.01c0.16-0.14,1.78-1.4,3.66-1.39c0.85,0,1.76,0.24,2.71,0.95
						c0.22,0.17,0.53,0.12,0.7-0.1c0.17-0.22,0.12-0.53-0.1-0.7c-1.11-0.84-2.27-1.15-3.31-1.15c-2.47,0.01-4.29,1.62-4.33,1.65
						c-0.21,0.18-0.23,0.5-0.05,0.71C372.09,142.59,372.41,142.61,372.61,142.43L372.61,142.43z"/>
					<path class="st2" d="M358.82,142.8L358.82,142.8c0.11-0.09,1.32-0.97,2.9-0.96c0.89,0,1.91,0.26,3.01,1.09
						c0.22,0.17,0.53,0.12,0.7-0.1c0.17-0.22,0.12-0.53-0.1-0.7c-1.26-0.96-2.53-1.3-3.62-1.3c-2.08,0.01-3.49,1.16-3.53,1.19
						c-0.21,0.17-0.25,0.49-0.07,0.7C358.29,142.94,358.6,142.97,358.82,142.8L358.82,142.8z"/>
				</g>
			</g>
			<g>
				<path class="st4" d="M394.74,148.95c0,0-2.26-6.06-7.25-7.49c-4.99-1.42-5.94-8.43-5.94-8.43s-5.11,3.44-14.14,4.16
					c-9.03,0.71-14.25-0.48-15.09-4.52c-0.11-0.54-0.1-1.18,0.05-1.88c0.89-4.54,6.96-11.82,17.54-13.8
					c19.85-3.71,25.5,2.28,27.82,10.52c0.66,2.31,1.04,4.8,1.41,7.3C400.8,146.22,394.74,148.95,394.74,148.95z"/>
				<path class="st2" d="M394.74,148.95c0,0-2.26-6.06-7.25-7.49c-4.99-1.42-5.94-8.43-5.94-8.43s-5.11,3.44-14.14,4.16
					c-9.03,0.71-14.25-0.48-15.09-4.52c-0.11-0.54-0.1-1.18,0.05-1.88c12.65,4.16,30.55-3.58,30.55-3.58s6.24,6.41,11.4,4.81
					c1.78-0.55,2.81-2.37,3.41-4.51c0.66,2.31,1.04,4.8,1.41,7.3C400.8,146.22,394.74,148.95,394.74,148.95z"/>
			</g>
			<g>
				<path class="st3" d="M393.5,147.16c0,0,1.07-7.6,4.4-7.84c3.33-0.24,5.11,8.91,3.21,11.41c-1.9,2.5-6.06,2.14-6.06,2.14
					L393.5,147.16z"/>
				<path class="st2" d="M393.5,147.16c0,0,1.07-7.6,4.4-7.84c3.33-0.24,5.11,8.91,3.21,11.41c-1.9,2.5-6.06,2.14-6.06,2.14
					L393.5,147.16z"/>
				<path class="st0" d="M396.82,149.18c-1.8,0.6-0.59,2.61,0.83,2.02S398.25,148.71,396.82,149.18z"/>
			</g>
		</g>
	</g>
	<g id="Left_Hand">
		<g>
			<path class="st3" d="M382.87,235.98c-0.01,1.27-0.12,2.94-0.6,4.19c-0.89,2.31-6.06,4.63-8.91,3.92
				c-2.85-0.72-6.77-3.03-6.77-3.03s-1.07,2.67-2.32,2.85c-1.25,0.18-5.17-0.36-6.24-1.25c-1.07-0.89-1.25-3.03-1.25-3.03
				s-2.49-0.53-3.03-0.89c-0.22-0.15-0.27-0.72-0.25-1.34c-0.01-0.05-0.01-0.11,0-0.17c0.02-0.65,0.12-1.32,0.15-1.58
				c0-0.04,0.01-0.07,0.02-0.11c0,0-3.48-1.97-3.48-3.22c0-0.17,0.03-0.38,0.07-0.64c0.27-1.59,1.26-4.59,1.34-4.86
				c0-0.01,0-0.01,0-0.01c-0.47,0.11-13.92,3.37-15.67,2.66c-0.89-0.35-1.02-0.93-0.79-1.55c0.22-0.62,0.79-1.29,1.33-1.83
				c1.07-1.07,24.95-12.3,26.37-11.59c1.43,0.72,19.07,15.69,19.96,19.61C382.8,234.11,382.88,234.9,382.87,235.98z"/>
			<path class="st2" d="M353.5,237.4c0.05,1.05,0.25,1.34,0.25,1.34C353.53,238.59,353.48,238.02,353.5,237.4z"/>
			<path class="st2" d="M351.6,226.81c-0.47,0.11-13.92,3.37-15.67,2.66c-0.89-0.35-1.02-0.93-0.79-1.55
				c6-0.69,18.45-5.84,18.87-6.01l-2.4,4.89C351.61,226.8,351.61,226.8,351.6,226.81z"/>
			<path class="st2" d="M353.67,235.54c0,0-3.48-1.97-3.48-3.22c0-0.17,0.03-0.38,0.07-0.64c0.06,0,0.12,0,0.17,0.02
				c1.18,0.36,2.11,0.88,2.56,0.61c0.42-0.25,3.72-6.46,3.96-6.91C356.78,225.88,354.35,232.63,353.67,235.54z"/>
			<path class="st2" d="M382.87,235.98c-0.01,1.27-0.12,2.94-0.6,4.19c-0.89,2.31-6.06,4.63-8.91,3.92
				c-2.85-0.72-6.77-3.03-6.77-3.03s-1.07,2.67-2.32,2.85c-1.25,0.18-5.17-0.36-6.24-1.25c-1.07-0.89-1.25-3.03-1.25-3.03
				s-2.49-0.53-3.03-0.89c0,0,3.51-0.03,4.1-1.75c1.26-3.31,2.73-8.8,3.06-10.03c-0.36,1.56-2.28,9.93-2.43,10.98
				c-0.18,1.16-0.74,3.47,0.47,4.1c1.22,0.62,3.92-0.34,4.9-0.95c0.98-0.62,1.93-9.05,1.93-9.05s2.41,4.56,7.22,5.72
				C377.21,238.77,381.79,236.55,382.87,235.98z"/>
		</g>
	</g>
</g>
<g id="Layer_x5F_Button_Rock">
	<g>
		<g>
			<path class="st4" d="M405.56,430.18l-2.86,2.48l-15.2,13.2l-4.28,8.08l-20.44,8.55l-2.37,9.51l-9.51,18.06l-71.29,7.13
				l-38.97-9.98l-19.48-3.81l1.43-9.98l-5.71-1.9l-33.74-5.23l-29.94-21.38l8.08-34.69l32.79-43.73l12.36-100.27l5.7-23.77
				l118.15,25.18l20.15,4.29l15.2,80.32c0,0,21.87,18.53,23.29,19.48c1.43,0.95,14.73,25.19,14.73,25.19l-3.8,12.83L405.56,430.18z"
				/>
			<path class="st8" d="M405.56,430.18l-2.86,2.48c-6.11-9.75-15.38-24.95-17.94-31.47c-3.86-9.82-13.93-23.8-14.24-24.23
				l21.37,9.26c0,0-26.02-23.89-28.87-26.02c-2.81-2.11-13.56-16.65-13.89-17.1l9.61,4.98l-8.31-31.01l-4.28-10.46
				c0,0-7.88-18.07-15.87-38.98l20.15,4.29l15.2,80.32c0,0,21.87,18.53,23.29,19.48c1.43,0.95,14.73,25.19,14.73,25.19l-3.8,12.83
				L405.56,430.18z"/>
			<polygon class="st2" points="285.67,467.12 311.69,453.22 323.1,415.8 327.73,427.91 325.59,414.1 319.89,398.69 311.69,341.66 
				299.93,351.99 307.42,383 302.78,389.42 304.21,440.03 			"/>
			<polygon class="st2" points="387.5,445.86 383.22,453.94 362.78,462.49 350.19,419.36 338.07,411.17 327.38,359.48 
				347.58,341.78 358.03,384.79 			"/>
			<path class="st2" d="M250.03,457.86l1.78-27.09l-13.9-7.49l-1.42-44.55c0,0-4.99-13.54-6.42-16.4
				c-1.43-2.85-1.07-28.51-1.07-28.51l-12.47,33.5l-9.27,63.09l-18.18,20.68l-5.94,15.2l-15.82-11.3l-9.46-6.75l-4.66-3.33
				l3.62-15.54l4.46-19.15l32.79-43.73l4.47-36.3l7.89-63.97l5.7-23.77l57.86,85.67l-9.38,15.56l3.32,7.96l4.99,9.63l2.85,67.36
				L250.03,457.86z"/>
			<path class="st2" d="M204.29,371.01c-3.09,1.42-7.84-0.48-7.84-0.48s-4.04,25.19-9.27,32.32c-5.23,7.13-10.22,10.69-10.22,10.69
				s-1.66,18.3-4.28,23.29c-2.61,4.99-7.12,8.79-7.12,8.79s2.22,6.66,1.76,9.37l-9.46-6.75c-0.41-4.78-0.87-11.4-1.04-18.87
				l4.46-19.15l32.79-43.73l4.47-36.3c5.21-4.26,10.04-7.68,11.45-7.18c3.33,1.19-2.38,21.38-2.38,21.38l9.03-5.7
				C220.45,339.17,207.38,369.58,204.29,371.01z"/>
			<g>
				<polygon class="st9" points="330.94,369.82 339.73,409.26 350.19,419.36 361.46,457.98 347.34,420.19 336.88,412.11 				"/>
				<path class="st9" d="M315.5,368.15l4.31,32.94c0,0,7.34,22.43,7.34,23.14c0,0.71,4.51,28.28,4.51,28.28l21.39,21.86l1.43,4.75
					l-0.24-7.37l-20.67-22.1l-4.28-27.8l-7.37-19.49L315.5,368.15z"/>
				<path class="st9" d="M273.91,431.12c-0.71,1.66-26.14,29.94-25.19,29.47c0.95-0.48,22.81-33.27,22.81-33.27l-2.62-66.05
					c0,0,1.56,3.96,2.22,12.05C272.76,393.33,274.42,429.94,273.91,431.12z"/>
				<path class="st9" d="M228.05,332.51l4.24,29.05l6.93,10.64c0,0,1.43,46.81,1.43,47.52c0,0.71,14.5,10.69,14.5,10.69l-4.99,28.99
					l1.19-27.33l-14.02-8.08l-0.83-45.27L229,362.45L228.05,332.51z"/>
				<polygon class="st9" points="216.17,366.49 209.28,433.74 190.03,453.7 183.61,465.1 188.37,448.94 206.9,428.98 				"/>
			</g>
		</g>
		<path class="st4" d="M212.13,242.45l59.41-23.76c0,0,47.52,32.79,50.38,33.74c2.85,0.95,28.51,19.49,28.51,19.49l-4.28,34.69
			l4.28,10.46l-2.85,24.71l-16.63,26.14l-58.46-19.01l-11.88-5.23l3.8-7.6l-8.08-9.98l-25.19,1.9l-17.58-28.04l2.38-19.49
			l-6.65-9.98L212.13,242.45z"/>
		<path class="st8" d="M346.15,306.61l4.28,10.46l-2.85,24.71l-0.96,1.51l-15.68,24.63l-58.45-19.01l-11.88-5.23l3.8-7.6l-8.08-9.98
			l-25.19,1.9l-17.58-28.04l2.37-19.49l-6.65-9.98l2.85-28.04c0,0,0.01,0,0.03-0.01l59.38-23.75c0,0,47.52,32.79,50.37,33.74
			c2.85,0.95,28.52,19.49,28.52,19.49L346.15,306.61z"/>
		<path class="st2" d="M258.23,268.05c0,0-6.59,5.88-7.13,7.66c-0.53,1.78-0.53,6.42-0.53,6.42l-5.35,5.7c0,0-0.53,3.92,0.89,7.49
			c1.43,3.56,12.3,11.94,20.5,13.01s15.5-0.18,15.5-0.18l7.31-3.39c0,0,7.66-2.5,11.05-4.28c3.39-1.78,5.17-9.09,5.17-9.09
			L258.23,268.05z"/>
		<path class="st8" d="M346.15,306.61l4.28,10.46l-2.85,24.71l-0.96,1.51c-0.05-3.65,0-7.59,0-8.16c0-1.19-4.99-27.09-4.99-27.09
			l-6.17,11.88c0,0,1.66-16.87,0.71-20.91s-9.03-19.96-9.03-20.68c0-0.69,8.28,4.89,8.77,5.21c-0.56-0.72-15.77-20.02-21.36-24.22
			c-5.53-4.13-27.12-14.98-28.45-15.65l13.71,4.49l-24-13.31c0,0-13.78-0.95-14.73-0.95c-0.94,0-47.46,8.28-48.92,8.54l59.38-23.75
			c0,0,47.52,32.79,50.37,33.74c2.85,0.95,28.52,19.49,28.52,19.49L346.15,306.61z"/>
		<path class="st2" d="M259.73,271.01l-0.44,1.52C259.4,272.01,259.55,271.51,259.73,271.01z"/>
		<g>
			<g>
				<path class="st1" d="M275.4,261.39c-23.34-2.67-38.89,28.83,0.92,38.89C316.12,310.35,323.44,266.88,275.4,261.39z"/>
				<path class="st2" d="M279.61,301.01c-1.07-0.19-2.17-0.43-3.3-0.72c-21.57-5.46-26.89-17.21-23.51-26.4
					c2.85-7.77,11.91-13.71,22.6-12.49C322.08,266.73,316.49,307.92,279.61,301.01z"/>
				<path class="st2" d="M281.52,293.78l-1.06,5.25l-0.85,1.98c-1.07-0.19-2.17-0.43-3.3-0.72c-21.57-5.46-26.89-17.21-23.51-26.4
					l2.81-3.99L281.52,293.78z"/>
				<path class="st1" d="M280.46,299.03c-1.2-0.2-2.43-0.47-3.7-0.79c-24.96-6.31-28.16-21.04-21.31-30.5
					c4.06-5.63,11.68-9.39,20.39-8.39C322.35,264.67,316.97,305.57,280.46,299.03z"/>
				<path class="st2" d="M301.6,285.7c-1.45,2.13-13.96,9.39-21.14,13.33c-1.2-0.2-2.43-0.47-3.7-0.79
					c-24.96-6.31-28.16-21.04-21.31-30.5c3.48-1.42,7.72-2.91,8.96-2.36C266.55,266.33,301.6,285.7,301.6,285.7z"/>
			</g>
			<g>
				<path class="st10" d="M305.76,273.41l-2.63,9.11l-0.01,0.05l-0.32,1.1c-2.29,6.65-11.05,11.31-24.73,7.85
					c-15.6-3.94-20.29-12.11-18.78-18.99l0.44-1.52V271l2.43-8.46l4,1c3.1-1.85,6.99-2.79,11.2-2.31
					c12.01,1.37,19.58,5.79,23.29,10.91L305.76,273.41z"/>
				<path class="st2" d="M305.76,273.41l-2.63,9.11l-0.01,0.05l-0.32,1.1c-2.13,6.17-9.83,10.63-21.87,8.46
					c-0.25-0.03-0.5-0.08-0.76-0.14c-0.69-0.13-1.39-0.29-2.1-0.47c-0.77-0.2-1.52-0.4-2.24-0.62c-0.26-0.07-0.52-0.15-0.77-0.24
					c-0.55-0.17-1.08-0.35-1.6-0.53c-8.98-3.22-13.24-8.08-14.22-12.92c-0.31-1.58-0.28-3.16,0.05-4.68l0.44-1.52V271l2.43-8.46l4,1
					c3.1-1.85,6.99-2.79,11.2-2.31c12.01,1.37,19.58,5.79,23.29,10.91L305.76,273.41z"/>
				<path class="st2" d="M289.6,279.76l-8.67,12.37c-0.25-0.03-0.5-0.08-0.76-0.14l3.25-11.75l-7.59,10.66
					c-0.26-0.07-0.52-0.15-0.77-0.24l2.42-10.66l-4.02,10.13c-8.98-3.22-13.24-8.08-14.22-12.92c1.33-3.56,3.99-10.66,4.69-12.42
					c0,0,7.84,0,10.93,1.19S289.6,279.76,289.6,279.76z"/>
				<g>
					<path class="st10" d="M279.97,252.19c-18.19-2.08-30.3,22.46,0.71,30.3S317.4,256.47,279.97,252.19z"/>
					<path class="st11" d="M274.86,253.62c-2.85,0.95-4.51,2.14-4.51,2.14s7.49-0.48,7.96-0.95S274.86,253.62,274.86,253.62z"/>
					<path class="st11" d="M287.93,256.59c-4.74-0.28-3.8,0.48-0.71,0.95s9.5,2.14,9.15,1.9
						C296.01,259.2,289.95,256.71,287.93,256.59z"/>
					<path class="st11" d="M279.67,255.34c-0.62,0.17-0.48,1.31,0.71,0.83c1.19-0.48,3.21-1.07,3.21-1.07
						S281.8,254.75,279.67,255.34z"/>
				</g>
			</g>
		</g>
	</g>
</g>
<g id="Layer_x5F_Plants">
	<g>
		<path class="st1" d="M318.58,494.33c0,0-8.55-8.55-9.74-14.73c-1.19-6.18,7.13,5.7,7.13,4.75s-1.66-5.7-1.19-8.55
			c0.48-2.85,5.94,9.74,5.94,9.74s-2.14-17.35,4.04-29.94s0.24,30.65,0.95,29.7c0.71-0.95,4.99-10.93,7.13-11.17
			c2.14-0.24-4.99,11.17-4.99,11.17s10.22-8.79,14.02-6.42c3.8,2.38-15.12,15.3-15.12,15.3L318.58,494.33z"/>
		<g>
			<path class="st10" d="M200.17,423.65c-5.19,0.2-2.26,10.52-0.28,10.52S205.38,423.45,200.17,423.65z"/>
			<path class="st10" d="M206.27,437.83c-3.44,0.81-6.61,5.11-1.04,5.66S211.97,436.5,206.27,437.83z"/>
			<path class="st10" d="M212.5,418.42c-3.74-0.08-5.27,6.63-2.91,7.83S218.97,418.56,212.5,418.42z"/>
			<path class="st1" d="M190.26,460.25c0.8-3.1,1.91-6.12,3.16-9.08c1.24-2.96,2.7-5.83,4.26-8.64c1.6-2.78,3.32-5.51,5.24-8.08
				c1.88-2.6,4.02-5.01,6.25-7.3c-0.96,1.28-2.03,2.47-2.95,3.78l-1.43,1.92c-0.46,0.65-0.9,1.31-1.36,1.97
				c-0.91,1.3-1.76,2.66-2.63,3.99c-0.81,1.37-1.66,2.72-2.41,4.12c-1.6,2.75-3.04,5.6-4.39,8.49c-0.68,1.44-1.33,2.9-1.95,4.37
				C191.4,457.27,190.82,458.75,190.26,460.25z"/>
			<path class="st10" d="M195.63,441.6c2.41-0.95,0.55-7.84-3.34-7.06C188.39,435.31,190.86,443.48,195.63,441.6z"/>
			<path class="st10" d="M196.43,450.56c-1.55-1.64,6.32-7.67,8.95-4.09S200.58,454.94,196.43,450.56z"/>
			<path class="st10" d="M208.13,433.03c-1.19-1.25,4.83-5.87,6.85-3.13C216.99,432.64,211.31,436.38,208.13,433.03z"/>
		</g>
		<path class="st1" d="M182.43,466.53c0,0-9.5-6.18-10.69-12.36c-1.19-6.18,6.65,3.56,6.65,2.61s-1.66-5.7-1.19-8.55
			c0.48-2.85,5.94,9.74,5.94,9.74s-4.99-12.36,1.19-24.95c6.18-12.59,3.09,25.66,3.8,24.71s1.43-8.79,3.56-9.03
			c2.14-0.24-1.43,9.03-1.43,9.03s4.28-4.51,8.08-2.14c3.8,2.38-11.64,13.07-11.64,13.07L182.43,466.53z"/>
		<path class="st1" d="M186.7,468.67c0,0-0.83-0.36-0.12-3.92c0.71-3.56,1.9,0.59,1.9,0.59s0.59-3.8,2.5-4.75
			c1.9-0.95,0.36,3.45,0.36,3.45s4.87-10.57,10.1-11.17s-6.53,12.12-6.53,12.12s7.01-2.02,9.74-1.78c2.73,0.24-5.94,4.51-5.94,4.51
			s5.82-1.78,8.08-1.54c2.26,0.24,2.26,4.16,2.26,4.16s-1.31-4.99,0.59-8.67c1.9-3.68,4.63,8.2,4.63,8.2s2.14-1.19,3.8-1.31
			c1.66-0.12-1.31,6.53-1.31,6.53s4.87-8.67,9.5-9.39c4.63-0.71-7.72,10.46-7.72,10.46l-17.23-4.63L186.7,468.67z"/>
		<g>
			<path class="st10" d="M373.8,418.57c-4.36,1.02-0.19,9.27,1.49,8.95C376.96,427.2,378.17,417.55,373.8,418.57z"/>
			<path class="st10" d="M380.68,427.8c-2.78,1.24-3.54,7.68,1.26,7.24C386.74,434.6,385.29,425.74,380.68,427.8z"/>
			<path class="st10" d="M383.38,412.13c-3.18,0.55-3.37,6.47-1.18,7.1S388.88,411.18,383.38,412.13z"/>
			<path class="st1" d="M371.39,451.17c0.17-2.76,0.62-5.49,1.19-8.2c0.57-2.71,1.33-5.37,2.19-8c0.9-2.62,1.91-5.2,3.11-7.69
				c1.17-2.51,2.58-4.9,4.1-7.2c-0.6,1.24-1.32,2.42-1.88,3.68l-0.9,1.86c-0.29,0.62-0.55,1.26-0.83,1.89
				c-0.56,1.25-1.05,2.54-1.57,3.81c-0.46,1.29-0.96,2.57-1.37,3.89c-0.91,2.59-1.66,5.24-2.33,7.9c-0.34,1.33-0.65,2.67-0.94,4.02
				C371.87,448.45,371.62,449.81,371.39,451.17z"/>
			<path class="st10" d="M372.89,434.5c1.88-1.2-0.81-6.73-3.99-5.43C365.73,430.37,369.16,436.88,372.89,434.5z"/>
			<path class="st10" d="M374.61,444.65c-1.58-1.13,4.09-7.53,6.91-4.93C384.33,442.32,378.84,447.67,374.61,444.65z"/>
		</g>
		<g>
			<path class="st10" d="M358.67,431.98c3.73,0.38,1.15,7.69-0.28,7.6C356.96,439.5,354.93,431.6,358.67,431.98z"/>
			<path class="st10" d="M353.34,439.33c2.45,0.74,3.5,5.59-0.46,4.8C347.53,443.06,349.29,438.11,353.34,439.33z"/>
			<path class="st10" d="M348.88,428.24c2.67-0.4,4.38,4.27,2.8,5.35C350.1,434.67,344.25,428.92,348.88,428.24z"/>
			<path class="st1" d="M364.16,458.84c-0.43-2.28-1.1-4.5-1.86-6.69c-0.76-2.19-1.68-4.33-2.68-6.42
				c-1.03-2.08-2.14-4.12-3.41-6.07c-1.24-1.96-2.67-3.8-4.18-5.55c0.64,0.97,1.35,1.87,1.95,2.86l0.95,1.45
				c0.31,0.49,0.59,0.99,0.89,1.48c0.6,0.98,1.15,2,1.72,3c0.52,1.03,1.07,2.04,1.55,3.09c1.03,2.06,1.94,4.18,2.78,6.32
				c0.43,1.07,0.83,2.15,1.21,3.24C363.47,456.63,363.83,457.73,364.16,458.84z"/>
			<path class="st10" d="M360.3,443.83c-1.69-0.8-0.04-5.68,2.73-4.94C365.81,439.62,363.66,445.41,360.3,443.83z"/>
			<path class="st10" d="M359.36,450.49c1.2-1.11-4.21-5.82-6.27-3.36C351.03,449.59,356.17,453.46,359.36,450.49z"/>
		</g>
		<path class="st1" d="M362.78,462.49c0,0,0.42-24.41,5.94-26.2c5.52-1.78-2.32,18.36-2.14,16.93c0.18-1.43,4.63-8.38,8.55-7.13
			c3.92,1.25-5.52,8.55-5.52,8.55s5.88-2.85,10.69-2.32C385.12,452.86,369.31,461.77,362.78,462.49z"/>
		<path class="st1" d="M214.51,473.89c0,0-3.8-8.79-1.43-12.36s1.9,5.47,1.9,5.47s4.28-14.02,9.03-13.54
			c4.75,0.48-7.84,21.62-7.84,21.62L214.51,473.89z"/>
		<g>
			<g>
				<g>
					<path class="st12" d="M290.88,494.08c-0.1-0.22-9.54-22.69,9.2-43.83l1.5,1.33c-17.87,20.16-8.95,41.5-8.86,41.71
						L290.88,494.08z"/>
				</g>
				<path class="st13" d="M303.91,439.5c-7.49,2.12-11.64,27.09,4.75,27.56C325.06,467.54,316.51,435.93,303.91,439.5z"/>
				<path class="st10" d="M306.52,447.1c-4.6,1.21-4.04,9.98,1.9,9.74C314.37,456.61,311.04,445.91,306.52,447.1z"/>
				<path class="st1" d="M292.51,462.79c0,0-6.42-7.6-2.61-12.36C293.69,445.68,292.51,462.79,292.51,462.79z"/>
			</g>
			<g>
				<g>
					<path class="st12" d="M286.33,494.18c-0.07-0.21-7.31-20.7-22.59-23.58l0.37-1.96c16.42,3.1,23.8,24.01,24.11,24.89
						L286.33,494.18z"/>
				</g>
				<path class="st1" d="M275.34,459.28c-4.56,1.14,2.67,18.53,2.67,18.53S283.89,457.14,275.34,459.28z"/>
				<path class="st1" d="M271.59,477.64c-5.92,0.77-1.43,4.1,6.42,0.18C278.01,477.82,275.69,477.1,271.59,477.64z"/>
				<path class="st13" d="M262.33,460.53c-11.37,0-24.95,20.32-11.58,22.99C264.11,486.19,273.38,460.53,262.33,460.53z"/>
				<path class="st10" d="M258.76,469.08c-4.71-0.99-5.88,5.17-3.39,5.88S262.15,469.8,258.76,469.08z"/>
			</g>
		</g>
		<path class="st1" d="M297.91,496.47c0,0-6.65-9.03-10.46-9.5c-3.8-0.48,2.14,5.23,2.14,5.23s-13.78-5.23-17.58-1.66
			c-3.8,3.56,21.15,6.18,21.15,6.18L297.91,496.47z"/>
	</g>
</g>
<g id="Layer_x5F_Character1">
	<g id="Left_Back_Leg">
		<g>
			<path class="st14" d="M131.57,398.57c0.95,9.27,4.51,25.19,4.04,27.33s-2.38,14.02-1.9,15.92c0.48,1.9,5.47,2.85,6.65,2.85
				c1.19,0,0-2.61,0-2.61s10.93-17.58,11.64-27.8C152.72,404.03,131.57,398.57,131.57,398.57z"/>
			<path class="st5" d="M152.01,414.26c-0.71,10.21-11.64,27.8-11.64,27.8s1.19,2.61,0,2.61s-6.18-0.95-6.66-2.85
				c0-0.01,0-0.01,0-0.01c0.87-4.93,3.15-13,3.15-13s0.98,0.89,1.43,1.25c0.38,0.3-3.31-16.87-4.25-30.76
				C139.59,401.11,152.57,406.21,152.01,414.26z"/>
		</g>
	</g>
	<g id="Left_Fornt_Leg">
		<g>
			<path class="st14" d="M198.17,329c0.36-0.89,5.17-8.38,9.27-9.62s3.92,5.17,2.14,9.27s-5.88,13.9-5.88,13.9s-6.77-2.5-8.02-4.1
				C194.43,336.84,198.17,329,198.17,329z"/>
			<path class="st5" d="M209.58,328.65c-1.79,4.1-5.89,13.9-5.89,13.9s-4.44-1.63-6.8-3.12c0.59-3.06,2.15-9.29,5.65-14.08
				c3.24-4.44,6.23-4.88,7.84-4.68C211.18,322.6,210.7,326.08,209.58,328.65z"/>
		</g>
	</g>
	<g id="Body">
		<g>
			<path class="st14" d="M195.14,363.58c-5.53,15.15-23.53,50.79-36.71,54.54c-13.19,3.74-22.99-4.82-27.27-16.22
				c-0.71-1.9-1.18-3.81-1.42-5.75c-0.15-1.17-0.21-2.35-0.18-3.54c0.04-2.41,0.42-4.85,1.12-7.34c1.79-6.44,5.7-13.19,11.35-20.44
				c10.69-13.72,14.97-31.55,15.15-35.29l2.91-1.2l27.74-11.45c0,0,8.38,0.89,11.41,9.09C202.27,334.18,200.66,348.43,195.14,363.58
				z"/>
			<path class="st5" d="M135.7,386.3c0,0-0.31,3.71-6.14,6.31c0.04-2.41,0.42-4.85,1.12-7.34C133.22,385.79,135.7,386.3,135.7,386.3
				z"/>
			<path class="st2" d="M200.05,344.84c-0.87,5.8-2.52,12.19-4.91,18.74c-1.06,2.9-2.57,6.54-4.42,10.57
				c-7.82,17.04-21.63,40.94-32.29,43.97c-13.19,3.74-22.99-4.82-27.27-16.22c-0.71-1.9-1.18-3.81-1.42-5.75
				c4.11,4.4,9.59,7.93,16.39,7.35c16.75-1.42,23.7-13.36,23.7-13.36l-8.37,0.17c0,0,13.01-3.92,16.21-12.29
				c3.21-8.38,3.39-17.29,3.39-17.29l-3.73,9.06c0.09-0.34,1-4.12-0.19-12.45c-1.15-8.04-6.23-12.6-17.05-29l27.74-11.45
				c0,0,8.38,0.89,11.41,9.09C200.96,330.63,201.18,337.23,200.05,344.84z"/>
			<path class="st2" d="M200.05,344.84c-0.87,5.8-2.52,12.19-4.91,18.74c-1.06,2.9-2.57,6.54-4.42,10.57
				c0.71-4.01-1.19-9.74-3.18-14.07c-3.32-7.25-10.45-11.17-6.42-26.73c0,0,12.59,5.59,17.35,9.98
				C199.06,343.86,199.58,344.36,200.05,344.84z"/>
		</g>
	</g>
	<g id="Right_Front_Leg">
		<g>
			<path class="st14" d="M218.49,340.24c-2.5,9.62-11.05,19.24-14.26,20.31s-11.76-1.6-20.85-10.33
				c-4.75-4.57-4.59-12.49-2.15-17.99c2.22-5.04,6.35-8.06,10.35-4.65c2.88,2.46,11.4,13.01,13.72,13.37
				c2.31,0.35,5.88-9.63,9.09-10.16c2.24-0.37,4.56-0.31,4.91,3.03C219.46,335.27,219.24,337.33,218.49,340.24z"/>
			<path class="st2" d="M218.49,340.24c-2.5,9.62-11.05,19.24-14.26,20.31s-11.76-1.6-20.85-10.33c-4.75-4.57-4.59-12.49-2.15-17.99
				c1.85,12.2,14.5,19.41,14.5,19.41l-3.92-0.59c0,0,4.87,3.68,10.58,3.09c5.6-0.59,15.44-9.64,16.91-20.32
				C219.46,335.27,219.24,337.33,218.49,340.24z"/>
		</g>
	</g>
	<g id="Head">
		<g>
			<path class="st14" d="M153.08,284.81c0,0-9.98-7.31-11.76-7.49c-1.78-0.18,3.39,16.4,5.35,16.93
				C148.62,294.79,153.08,284.81,153.08,284.81z"/>
			<path class="st2" d="M153.08,284.81c0,0-9.98-7.31-11.76-7.49c-1.78-0.18,3.39,16.4,5.35,16.93
				C148.62,294.79,153.08,284.81,153.08,284.81z"/>
			<g>
				<path class="st14" d="M197.63,291.4c-0.47,4.76-8.55,23.53-8.55,23.53s1.9,6.89-3.33,11.4c-5.22,4.52-23.05,9.27-30.89,3.33
					c-6.8-5.15-18.79-13.88-21.07-17.5c-0.35-0.55-0.47-0.99-0.31-1.27c1.18-2.14,9.74-3.8,9.74-3.8s-1.43-9.51,4.99-19.96
					c6.41-10.46,22.34-1.67,22.34-1.67s9.26-16.63,11.88-15.44c1.98,0.9,9.99,10.02,13.52,16.44
					C197.08,288.49,197.75,290.26,197.63,291.4z"/>
				<path class="st2" d="M197.63,291.4c-0.47,4.76-8.55,23.53-8.55,23.53s1.9,6.89-3.33,11.4c-5.22,4.52-23.05,9.27-30.89,3.33
					c-6.8-5.15-18.79-13.88-21.07-17.5c4.76,1.8,10.62,0.63,10.62,0.63l5.22,7.6l-0.71-2.85c0,0,3.21,4.16,6.66,5.94
					c3.33,1.73,8.9,3.35,9.24,3.44l-3.54-2.96c0,0,8.08,2.49,15.09-1.19s4.51-12,4.51-12s12.04-12.71,15.07-24.31
					C197.08,288.49,197.75,290.26,197.63,291.4z"/>
			</g>
			<g>
				<g>
					<path class="st1" d="M175.18,334.89c-3.04,0.59-5.66,0.75-7.92,0.63c-9.39-0.49-12.4-5.86-12.4-5.86
						c18.78,4.04,27.35-2.12,31.19-7.67c2.55-3.66,3.03-7.06,3.03-7.06C190.86,319.03,190.86,331.86,175.18,334.89z"/>
					<path class="st2" d="M175.18,334.89c-3.04,0.59-5.66,0.75-7.92,0.63c3.68-0.43,9.03-1.29,12.02-2.83
						c4.87-2.49,5.64-4.93,5.64-4.93s-3.98,1.9-2.43,0.18c0.95-1.06,2.7-2.99,3.56-5.95c2.55-3.66,3.03-7.06,3.03-7.06
						C190.86,319.03,190.86,331.86,175.18,334.89z"/>
				</g>
				<g>
					<path class="st1" d="M190.77,320.45c-1.09,0.36-2.01-0.47-2.46-1.64c-0.65-1.69-0.33-4.06,1.84-4.51
						c0.35-0.07,0.65-0.09,0.93-0.06C193.94,314.53,193.21,319.64,190.77,320.45z"/>
					<path class="st2" d="M190.77,320.45c-1.09,0.36-2.01-0.47-2.46-1.64c3.55,0.42,4.19-2.24,2.77-4.57
						C193.94,314.53,193.21,319.64,190.77,320.45z"/>
				</g>
				<g>
					<path class="st1" d="M201.82,313.24c-0.26,3.83-11.36,7.6-10.07,3.65c0.34-1.03,0.95-1.95,1.72-2.72
						c1.87-1.91,4.63-2.97,6.46-2.82C201.11,311.44,201.9,312.03,201.82,313.24z"/>
					<path class="st2" d="M201.82,313.24c-0.26,3.83-11.36,7.6-10.07,3.65c0.34-1.03,0.95-1.95,1.72-2.72
						c-0.33,1-0.45,1.89,0.18,1.89c1.13,0,5.82-1.46,6.28-4.71C201.11,311.44,201.9,312.03,201.82,313.24z"/>
				</g>
				<g>
					<path class="st1" d="M197.72,319.92c-1.34,2.55-5.57,1.82-7,0.24c-0.47-0.52-0.64-1.14-0.3-1.76c1.01-1.88,6.39-1.94,7.39-0.07
						C198.05,318.76,198.05,319.29,197.72,319.92z"/>
					<path class="st2" d="M197.72,319.92c-1.34,2.55-5.57,1.82-7,0.24c2.48,0.56,5.89,0.01,7.09-1.83
						C198.05,318.76,198.05,319.29,197.72,319.92z"/>
				</g>
			</g>
			<g>
				<path class="st4" d="M183.67,279.34c-2.09-0.2-5.08-6.31-2.99-8.75c0.27-0.32,0.63-0.58,1.09-0.75
					c2.85-1.06,4.02,0.75,4.21,3.07C186.24,275.8,184.99,279.47,183.67,279.34z"/>
				<path class="st2" d="M183.67,279.34c-2.09-0.2-5.08-6.31-2.99-8.75c1.36,5.63,3.68,5.06,5.3,2.32
					C186.24,275.8,184.99,279.47,183.67,279.34z"/>
			</g>
			<path class="st9" d="M166.27,298.17c-3.89-0.49-2.14,3.39,0.53,3.92C169.48,302.63,171.97,298.88,166.27,298.17z"/>
			<g>
				<path class="st9" d="M158.89,293.99c-0.48,0.27-0.82,0.65-1.03,1.07c-0.21,0.42-0.29,0.88-0.29,1.32c0,0.96,0.34,1.9,0.67,2.62
					c0.33,0.72,0.65,1.21,0.66,1.23c0.15,0.23,0.46,0.3,0.69,0.15c0.23-0.15,0.3-0.46,0.15-0.69l-0.05-0.07
					c-0.11-0.18-0.4-0.67-0.65-1.27c-0.25-0.6-0.47-1.33-0.47-1.95c0-0.33,0.06-0.63,0.18-0.88c0.13-0.25,0.31-0.46,0.63-0.65
					c0.24-0.14,0.32-0.44,0.19-0.68C159.44,293.94,159.13,293.86,158.89,293.99L158.89,293.99z"/>
			</g>
		</g>
	</g>
	<g id="Tail">
		<g>
			<path class="st14" d="M135.53,386.95c-0.47,0.66-1.51,1.2-3.48,1.4c-6.89,0.72-18.53-4.27-27.09-22.09
				c-0.02-0.04-0.04-0.07-0.05-0.11c-8.43-17.74,9.08-21.74,9.08-13.2c0,8.55,6.65,25.19,20.44,29.94
				C134.43,382.89,136.73,385.31,135.53,386.95z"/>
			<path class="st2" d="M135.53,386.95c-0.47,0.66-1.51,1.2-3.48,1.4c-6.89,0.72-18.53-4.27-27.09-22.09
				c-0.02-0.04-0.04-0.07-0.05-0.11C113.56,380.22,125.4,386.66,135.53,386.95z"/>
		</g>
	</g>
	<g id="Right_Back_Leg">
		<g>
			<path class="st14" d="M164.84,453.46c0.72,1.67-6.65,1.19-8.55,1.19c-1.9,0-6.18-4.99-7.13-6.41c-0.03-0.05-0.06-0.1-0.08-0.17
				c-0.71-1.98,1.64-12.68-1.35-20.27c-3.09-7.84-9.5-12.59-8.31-24.24c1.19-11.64,21.15-27.09,31.6-13.07
				c1.18,1.57,1.82,3.81,2.06,6.51c1.45,16.35-12.04,49.37-12.04,51C161.04,449.9,164.13,451.8,164.84,453.46z"/>
			<path class="st2" d="M164.84,453.46c0.72,1.67-6.65,1.19-8.55,1.19c-1.9,0-6.18-4.99-7.13-6.41c-0.03-0.05-0.06-0.1-0.08-0.17
				c1.37,0.12,3.08,0.15,4.53-0.19c3.03-0.71,6.6-6.6,6.6-6.6l-3.39,0.72c0,0,15.65-24.47,16.26-45c1.45,16.35-12.04,49.37-12.04,51
				C161.04,449.9,164.13,451.8,164.84,453.46z"/>
		</g>
	</g>
</g>
</svg>
