<?xml version="1.0" encoding="utf-8"?>
<!-- Generator: Adobe Illustrator 23.1.0, SVG Export Plug-In . SVG Version: 6.00 Build 0)  -->
<svg version="1.1" xmlns="http://www.w3.org/2000/svg" xmlns:xlink="http://www.w3.org/1999/xlink" x="0px" y="0px"
	 viewBox="0 0 960 1080" style="enable-background:new 0 0 960 1080;" xml:space="preserve">
<style type="text/css">
	.st0{fill:#F3E7D9;}
	.st1{fill:#4B3355;}
	.st2{fill:#856792;}
	.st3{fill:#33A86D;}
	.st4{fill:#665070;}
	.st5{fill:#34283A;}
	.st6{fill:#FEED7F;}
	.st7{fill:none;stroke:#FEED7F;stroke-width:4;stroke-miterlimit:10;}
	.st8{fill:#29ABE2;}
	.st9{fill:#CE9436;}
	.st10{fill:#F7BC4B;}
	.st11{fill:#A96443;}
	.st12{fill:none;stroke:#CE9436;stroke-miterlimit:10;}
	.st13{fill:#992C29;}
	.st14{fill:#3E4C6F;}
	.st15{fill:#C94039;}
	.st16{fill:#F5894E;}
	.st17{fill:#CC6D3D;}
	.st18{fill:#1D2538;}
	.st19{fill:#121721;}
	.st20{opacity:0.4;fill:#273252;}
	.st21{fill:#F6BE4A;}
	.st22{fill:#C73F37;}
	.st23{opacity:0.5;fill:#FEED7F;}
	.st24{fill:none;stroke:#F3E7D9;stroke-width:0.25;stroke-miterlimit:10;}
	.st25{fill:#273150;}
	.st26{fill:#48598B;}
	.st27{fill:#273252;}
	.st28{fill:none;stroke:#273252;stroke-width:0.25;stroke-linecap:round;stroke-linejoin:round;stroke-miterlimit:10;}
	.st29{fill:#288453;}
	.st30{fill:none;stroke:#FFFCF3;stroke-width:2;stroke-miterlimit:10;}
</style>
<g id="bg">
	<path class="st0" d="M401.63,875.73c0,0-164.66-16.14-243.75-9.69c-79.1,6.46-88.78,1.61-64.57-17.76
		c24.21-19.37,45.2-12.91,45.2-12.91s-33.9-71.03,8.07-90.4c41.97-19.37,101.7-14.53,101.7-14.53s-69.41-184.03,72.64-172.73
		c0,0-33.9-25.83-22.6-74.26s37.13-43.59,37.13-43.59s-33.9-41.97-3.23-90.4s122.68-9.69,122.68-9.69s30.67-77.49,113-64.57
		c0,0-33.9-79.1,17.76-153.36s100.08-69.41,150.13-59.73c50.04,9.69,87.17,101.7,75.87,133.98c0,0,24.21-29.06,62.96,9.69
		c38.74,38.74-14.53,113-14.53,113s55.86,24.57,33.31,74.41c-13.97,30.89-38.97,65.42-48.66,78.33c0,0,67.16-0.78,20.19,44.2
		c0,0,54.92,22.16,17.79,67.36c0,0,29.48-5.42,39.16,28.48c9.69,33.9,6,65.58-52.11,115.63c0,0,32.29-6.46,45.2-8.07
		c12.91-1.61,0,29.06-61.34,56.5C792.28,803.09,401.63,875.73,401.63,875.73z"/>
	<path class="st0" d="M862.88,907.21c0,0-39.74,2.89-76.76,19.76c-37.02,16.87-14.46,33.44,4.49,31.37c0,0-86.73,26.53-120.99,49.31
		c-34.26,22.78,34.34,19.12,126.08-14.84s110.46-53.71,100.54-55.01s-9.92-1.29-9.92-1.29S929.03,899.19,862.88,907.21z"/>
	<path class="st0" d="M290.49,889.31c-75.96-16.62-106.81,14.24-111.56,47.47s37.98,54.59,37.98,54.59s-68.84,11.87-16.62,21.36
		s118.68-4.75,161.41-21.36C404.43,974.76,366.45,905.92,290.49,889.31z"/>
</g>
<g id="platform">
	<g>
		<path class="st1" d="M470.27,1011.43l54.99-9.25l85.78-24.67c0,0,186.95-99.69,208.94-137.72s37.39-90.44,37.39-90.44
			s-91.28-33.92-333.21-39.05c-241.93-5.14-407.99,57.55-407.99,57.55s7.7,35.97,30.79,62.69c10.79,12.49,67.08,81.19,67.08,81.19
			l136.36,58.58l16.5-1.03l15.61,12.73L470.27,1011.43z"/>
		<path class="st2" d="M850.77,749.36c0,21.17-136.27,106.65-292.11,133.32l-89.96-4.74l0.15,12.73
			c-189.18,0-349.29-86.33-353.79-124.87s164.61-132.06,353.79-132.06S850.77,724.18,850.77,749.36z"/>
	</g>
	<g>
		<path class="st3" d="M374.48,931.49c0,0,1.3-19.5,9.1-14.3c7.8,5.2,1.95,13,1.95,13s8.45-16.9,12.35-5.85
			s-11.05,13.65-11.05,13.65s5.85,16.9-1.95,15.6c-7.8-1.3-6.5-11.7-6.5-11.7s-1.95,5.2-6.5,2.6c-4.55-2.6-0.65-7.8-0.65-7.8
			s-9.1-5.85-4.55-13C371.23,916.55,374.48,931.49,374.48,931.49z"/>
		<path class="st3" d="M356.74,897.85c0,0-11.33-1.97-7.88,4.43c3.45,6.4,6.4,2.96,6.4,2.96s-9.85,10.34-2.96,10.34
			c6.9,0,6.4-3.94,6.4-3.94s-7.39,11.82-0.49,12.81c6.9,0.99,6.4-7.88,6.4-7.88s3.45,15.27,7.39,9.36
			c3.94-5.91-0.99-14.78-0.99-14.78s10.84,8.37,9.36,0.49c-1.48-7.88-11.33-8.37-11.33-8.37s9.85-13.79,0.99-11.33
			c-8.87,2.46-7.88,9.36-7.88,9.36S358.21,886.52,356.74,897.85z"/>
		<path class="st3" d="M382.76,898.15c-4.88,10.57-0.81,15.45,6.51,5.69C396.58,894.08,387.64,887.58,382.76,898.15z"/>
		<g>
			<path class="st3" d="M304.15,893.62c-4.2-6.23-0.27-14.98,7.05-5.14C318.52,898.32,308.35,899.85,304.15,893.62z"/>
			<path class="st3" d="M351.59,910.07c-1.63,5.02,1.9,12.2,6.51,1.63C359.62,908.19,353.21,905.05,351.59,910.07z"/>
			<path class="st3" d="M350.04,884.84c-1.88-4.91-8.25-11.17-7.31-0.84C343.67,894.34,351.92,889.75,350.04,884.84z"/>
			<path class="st3" d="M352.61,906.87c5.36-1.02,13.31-4.58,6.16-6.1S347.25,907.89,352.61,906.87z"/>
			<path class="st3" d="M339.25,897.33c0,0-1.22-12.2-7.32-6.1c-6.1,6.1,1.22,14.64,1.22,14.64s-21.96,1.22-15.86,8.54
				c6.1,7.32,8.54,3.66,8.54,3.66s-9.76,13.42,3.66,9.76c13.42-3.66,4.88-4.47,4.88-4.47s-0.41,8.94,5.29,6.91s4.07-6.91,4.07-6.91
				s9.35,0.41,5.29-4.07c-4.07-4.47-4.88-1.22-4.88-1.22s8.94-21.96,3.25-24.39C341.69,891.23,339.25,897.33,339.25,897.33z"/>
		</g>
		<path class="st3" d="M320.14,890.83c7.32,7.32,13.01-2.44,6.51-10.57C320.14,872.13,312.83,883.51,320.14,890.83z"/>
		<path class="st3" d="M308.76,868.9c0.81,7.29,4.37,13.9,10.39,5.3C325.16,865.59,307.95,861.6,308.76,868.9z"/>
	</g>
	<path class="st3" d="M408.95,900.39c0,0-7.24,11.78-18.43,2.32c-11.2-9.46,9.41-6.46,9.41-6.46s-18.5-4.24-12.02-10.87
		c6.49-6.63,17.92,6.46,17.92,6.46s2.67-14.75,8.59-7.86C420.35,890.89,408.95,900.39,408.95,900.39z"/>
	<path class="st3" d="M422.35,887.7c0,0-10.57,11.38-1.63,13.01c8.94,1.63,10.57-8.94,10.57-8.94s2.44,23.58,10.57,12.2
		c8.13-11.38-5.69-18.7-5.69-18.7s14.64,1.63,8.13-6.51c-6.51-8.13-19.52,3.25-19.52,3.25s-17.08-13.01-15.45-4.88
		S422.35,887.7,422.35,887.7z"/>
	<path class="st3" d="M405.27,900.4c0,0,1.63,16.89,13.01,8.44C429.67,900.4,407.71,891.36,405.27,900.4z"/>
	<path class="st3" d="M439.43,915.72c-0.81,5.21,10.57,7.82,11.38,0.52C451.62,908.94,440.24,910.5,439.43,915.72z"/>
	<path class="st3" d="M460.57,932.42c5.69,0.81,9.76-8.13,3.25-8.94C457.32,922.66,454.88,931.61,460.57,932.42z"/>
	<path class="st3" d="M458.13,923.47c0,0,13.82,0.81,10.57-6.51C465.45,909.65,450,914.53,458.13,923.47z"/>
	<polygon class="st1" points="703.7,843.38 684.59,840.53 680.93,852.73 	"/>
	<polygon class="st1" points="161.33,814.51 179.22,812.89 179.22,827.52 	"/>
	<g>
		<polygon class="st4" points="318.27,846.23 342.66,834.03 302.41,817.36 285.74,833.49 		"/>
		<polygon class="st1" points="285.74,833.76 301.19,818.85 318.27,846.23 287.91,845.95 		"/>
	</g>
	<g>
		<polygon class="st1" points="369.22,703.11 342.66,694.98 349.98,681.15 370.31,670.58 		"/>
		<polygon class="st4" points="358.92,683.59 369.09,703.11 386.03,691.73 370.51,670.18 		"/>
	</g>
	<path class="st4" d="M715.9,814.92c0,0-15.86-13.42-26.83-12.2c-10.98,1.22-14.64,15.86-14.64,15.86l13.42,7.32L715.9,814.92z"/>
	<path class="st4" d="M658.57,808.82c0,0-13.42,2.44-2.44,8.54c10.98,6.1,12.2-2.44,12.2-2.44L658.57,808.82z"/>
	<path class="st4" d="M624.42,847.85c0,0,21.96-7.32,14.64-10.98c-7.32-3.66-16.26-2.44-17.48,1.22
		C620.35,841.75,618.32,847.85,624.42,847.85z"/>
	<path class="st4" d="M543.92,855.17c0,0-3.66,10.98,7.32,8.54S559.77,850.29,543.92,855.17z"/>
	<path class="st4" d="M256.47,787.68c0,0,5.69-8.13,8.94-4.88s10.57,12.2,10.57,12.2s-27.65,10.57-24.39,2.44
		C254.84,789.3,256.47,787.68,256.47,787.68z"/>
	<path class="st4" d="M267.45,810.85c0,0,1.22-8.13-6.51-7.32c-6.32,0.66-6.91,10.16-3.66,8.54
		C263.38,812.89,267.45,810.85,267.45,810.85z"/>
	<path class="st4" d="M271.1,717.2c44.45-4.34,64.51,6.51,79.15,16.26c14.64,9.76-39.03,79.69-127.94,62.88
		S226.65,721.54,271.1,717.2z"/>
	<path class="st4" d="M384.13,639.1c0,0-3.66,44.09,92.7,46.41c96.36,2.32,151.25-29.39,111-45.63
		C547.58,623.63,384.13,639.1,384.13,639.1z"/>
	<path class="st4" d="M712.24,677.09c0,0-57.33,17.08-15.86,67.09s86.6,48.79,121.97,41.47
		C853.73,778.33,778.11,696.6,712.24,677.09z"/>
	<polygon class="st5" points="468.85,890.67 468.7,877.94 558.66,882.68 525.62,908.84 515.86,949.09 484.15,917.38 	"/>
</g>
<g id="diamond">
	<polygon class="st6" points="489.99,715.48 378.44,749.08 490.18,798.62 599.62,749.08 	"/>
	<line class="st7" x1="221.5" y1="749.53" x2="763.27" y2="749.53"/>
	<line class="st7" x1="490.25" y1="717.34" x2="489.84" y2="647"/>
	<polygon class="st8" points="489.91,721.27 404.36,749.05 489.91,786.97 573.7,749.05 	"/>
</g>
<g id="stones_2-3">
	<g>
		<g>
			<polygon class="st9" points="291.2,669.26 306.34,676.55 317.49,697.11 318.27,716.57 287.64,722.63 286.55,690.92 			"/>
			<polygon class="st10" points="306.34,676.55 298.48,690.1 302.8,708.71 318.27,716.39 317.49,697.11 			"/>
		</g>
		<polygon class="st9" points="222.84,305.03 209.96,297.69 163.21,321.57 124.84,400.87 110.69,463.68 113.85,579.79 
			121.54,591.44 114.57,606.34 118.23,760.03 158.16,779.35 188.32,783.43 238.03,787.16 229.37,751.71 217.73,747.37 
			203.36,556.75 220.12,413.4 		"/>
		<polygon class="st10" points="236.41,787.16 262.16,757.59 278.02,756.37 303.63,724.66 276.53,522.05 281.4,513.92 
			257.28,395.33 223.4,305.21 201.17,335.56 187.08,369.72 194.44,401.7 194.92,562.38 201.86,573.22 211.18,751.54 227.74,751.71 
					"/>
		<polygon class="st11" points="113.85,579.79 121.54,591.44 127.24,586.56 		"/>
		<polygon class="st9" points="276.53,522.05 264.33,502.53 254.57,456.18 263.11,473.26 269.21,493.99 281.4,513.92 		"/>
		<polygon class="st9" points="192.23,403.87 208.08,424.77 193.45,439.24 		"/>
		<polygon class="st9" points="262.16,757.59 258.09,726.69 278.02,756.37 		"/>
		<polygon class="st9" points="205.37,650.66 212.02,658.66 205.78,671.4 		"/>
		<polygon class="st9" points="184.1,729.54 126.77,755.15 132.87,760.71 130.43,785.65 185.32,795.4 190.2,757.59 203.61,739.3 		
			"/>
		<polygon class="st10" points="224.35,777.11 229.23,794.18 185.32,795.4 185.32,758.81 203.61,739.3 209.71,758.81 		"/>
		<polygon class="st10" points="159.97,429.89 171.9,412.54 194.44,401.7 187.08,369.72 188.16,399.8 173.53,411.19 		"/>
		<line class="st12" x1="258.09" y1="726.69" x2="223.4" y2="305.21"/>
		<g>
			<polygon class="st9" points="244.05,566.19 234.42,537.2 241.07,515.22 247.38,514.61 242.18,534.67 251.96,566.36 			"/>
			<polygon class="st6" points="251.83,566.38 241.95,538.36 247.38,514.61 255.45,534.85 			"/>
		</g>
		<polygon class="st9" points="237.49,474.88 244.54,481.93 238.58,489.52 		"/>
	</g>
	<g>
		<polygon class="st9" points="516.21,599.96 511.53,630.15 520.73,652.15 528.07,650.27 519.6,631.36 523.98,598.48 		"/>
		<polygon class="st6" points="523.84,598.48 518.77,627.76 528.07,650.27 532.66,628.97 		"/>
	</g>
	<g>
		<polygon class="st9" points="715.9,613.96 698.09,609.51 684.73,654.92 700.76,692.32 723.02,680.74 		"/>
		<path class="st9" d="M748.41,285.4c0,0,9.26-3.13,16.7-2.07c7.43,1.06,60.74,59.27,64.99,62.46c4.25,3.19-5.31,15.93-5.31,15.93
			l23.79,58l2.02,124.25l3.86,23.6l13.86,34.02v146.17l-15.54,26.88l-37.38,13.44l-16.48-12.65l-12.5,2.57l-35.62-275.45
			L748.41,285.4z"/>
		<polygon class="st10" points="712.18,519.94 711.12,517.53 714.17,397.88 717.53,381.07 720.89,355.87 748.18,285.54 
			761.64,291.7 788.4,340.67 796.49,397.88 795.72,449.12 801.53,455 796.49,509.6 785.63,498.9 782.06,601.17 794.81,633.09 
			787.3,777.55 767.93,759.1 750.29,745.66 746.39,723.79 711.9,678.46 707.45,601.59 706.61,538.95 710.74,521.22 		"/>
		<polygon class="st10" points="698.09,609.51 704.32,636.22 701.65,645.13 696.31,646.02 700.76,650.47 700.76,692.32 
			687.4,674.51 684.73,654.92 		"/>
		<polygon class="st9" points="788.09,519.68 778.43,527.25 788.09,534.81 		"/>
		<polygon class="st9" points="779.77,315.78 774.73,338.46 788.4,340.67 		"/>
		<polygon class="st9" points="804.21,442.5 773.53,444.36 775.21,483.84 788.93,516.32 790.19,509.18 777.73,483 775.8,446.99 
			803.92,446.79 		"/>
		<polygon class="st10" points="788.93,541.11 787.67,600.33 797.75,617.97 805.31,641.91 797.75,779.26 815.39,788.08 
			829.26,747.76 833.04,696.1 826.73,620.49 801.53,587.73 		"/>
		<line class="st12" x1="736.85" y1="711.22" x2="748.92" y2="285.48"/>
		<g>
			<polygon class="st9" points="744.1,561.19 752.03,531.41 744.87,509.25 738.73,508.3 743.8,528.57 737.85,561.98 			"/>
			<polygon class="st6" points="737.83,561.97 744.36,529.82 738.73,508.3 732.29,531.21 			"/>
		</g>
		<g>
			<polygon class="st9" points="801.93,757.73 805.69,773.72 800.04,782.19 786.56,787.1 778.19,782.92 780.53,767.29 
				793.41,753.78 			"/>
			<polygon class="st10" points="781.12,767.03 792.83,755.32 801.93,757.73 794.5,777.49 781.12,779.58 			"/>
		</g>
		<g>
			<polygon class="st9" points="737.69,678.69 722.57,709.26 700.7,704.5 730.97,718.22 736.71,712.06 			"/>
			<polygon class="st10" points="722.57,709.26 700.73,704.5 702.41,683.5 715.01,647.37 725.65,674.26 736.99,678.46 			"/>
		</g>
		<polygon class="st9" points="785.57,607.05 783.89,625.53 796.49,624.69 		"/>
		<polyline class="st9" points="831.78,634.77 819.17,643.17 832.62,657.46 828.42,633.93 		"/>
		<polygon class="st9" points="735.17,685.39 727.82,683.29 730.55,696.94 		"/>
		<polygon class="st9" points="708.44,616.83 712.42,620.5 707.83,624.48 		"/>
		<polygon class="st9" points="739.79,654.3 736.01,650.1 739.58,645.48 		"/>
		<polygon class="st9" points="712.19,519.97 718.23,538.39 715.99,552.95 721.59,574.23 712.28,552.18 714.31,536.71 
			710.76,521.23 		"/>
	</g>
</g>
<g id="stone_01">
	<g>
		<polygon class="st10" points="409.86,629.61 415,453.87 407.31,441.21 427.66,251.79 443.09,232.56 467.28,183.71 487,183.37 
			489.44,185.4 517.9,208.64 528.47,244.49 531.99,250.18 547.98,321.33 543.92,325.81 550.42,329.8 574.87,478.32 567.68,495.79 
			595.96,640.43 552.05,659.74 461.79,661.57 		"/>
		<polygon class="st9" points="461.92,661.5 459.08,621.79 412.54,538.09 409.86,628.86 		"/>
		<polygon class="st9" points="574.87,477.57 567.68,495.04 595.96,640.5 590.81,646.7 551.37,660.83 476.29,661.37 467.07,640.5 
			554.9,556.74 552.05,500.23 561.64,490.71 		"/>
		<polygon class="st9" points="543.92,326.01 550.42,329.87 530.91,355.08 506.78,350.2 529.01,350.74 		"/>
		<polygon class="st9" points="517.9,207.9 516.27,232.29 528.47,244.49 		"/>
		<polygon class="st9" points="419.1,333.12 443.63,354.27 415.64,363.72 		"/>
		<polygon class="st9" points="442.95,232.7 450.95,229.58 461.11,218.52 467.48,183.5 		"/>
		<polygon class="st9" points="407.31,441.21 417.88,454.28 430.89,451.03 436.85,464.58 427.64,459.16 414.83,461.2 414.63,453.47 
					"/>
		<polygon class="st9" points="425.47,358.33 423.03,383.81 438.21,405.5 413.61,382.12 416.25,358.33 		"/>
		<path class="st9" d="M415.71,454.42l-17.35,85.52l-3.79,41.74c0,0-10.3,13.01-10.84,14.64c-0.54,1.63-2.44,51.5-2.44,51.5
			l20.33,15.86l60.17-2.85l-43.37-89.99l6.78-87.28L415.71,454.42z"/>
		<polygon class="st10" points="400.8,663.67 404.33,623.96 416.25,627.76 405.95,616.37 417.34,594.15 415.71,546.98 
			435.23,583.31 456.37,621.25 455.55,661.37 		"/>
		<polygon class="st10" points="552.86,538.85 585.12,616.37 581.32,626.67 587.42,656.15 562.21,656.76 527.25,580.32 		"/>
		<polygon class="st9" points="414.08,377.81 410.46,411.63 422.76,390.86 		"/>
		<polygon class="st9" points="439.83,245.3 439.83,255.06 426.82,299.79 427.77,251.67 443.09,232.7 		"/>
		<g>
			<polygon class="st9" points="433.87,529.27 424.79,540.87 430.14,551.55 441.28,550.59 			"/>
			<polygon class="st6" points="433.87,529.27 445.86,533.87 441.28,550.59 431.78,541.91 			"/>
		</g>
		<polygon class="st9" points="427.77,251.67 431.7,255.33 426.42,293.69 431.7,352.64 418.69,334.75 		"/>
		<polygon class="st9" points="543.1,337.19 534.16,374.6 568.96,442.15 550.42,329.87 		"/>
		<g>
			<polygon class="st9" points="583.45,645.03 589.03,660.95 604.15,666.52 630.01,658.96 626.03,636.47 			"/>
			<path class="st10" d="M595.39,629.11l-11.94,15.92c0,0,9.55,7.16,11.94,7.96c2.39,0.8,30.77-16.71,30.77-16.71L595.39,629.11z"/>
		</g>
		<line class="st12" x1="491.24" y1="661.13" x2="486.69" y2="183.47"/>
		<g>
			<polygon class="st9" points="489.44,436.2 475.61,476.7 489.44,503.35 503.26,476.7 			"/>
			<polygon class="st6" points="489.44,441.05 478.52,473.02 489.44,494.06 500.35,473.02 			"/>
		</g>
	</g>
	<polygon class="st9" points="547.41,442.15 542.97,449.95 549.2,453.47 	"/>
</g>
<g id="hood">
	<ellipse class="st8" cx="490.93" cy="619.9" rx="17.08" ry="12.06"/>
	<ellipse class="st13" cx="490.93" cy="619.9" rx="11.66" ry="12.06"/>
</g>
<g id="hair">
	<path class="st14" d="M502.69,598.64c0,0-1.95-10-7.87-10.59c-5.91-0.59-7,3.52-7,3.52s-9.13-4.85-13.08,3.09
		c-3.94,7.94,3.58,11.17,3.58,11.17s-7.88,0.84-3.04,7.73c4.84,6.9,24.17,4.82,28.79,0.21c3.35-3.35,6.86-9.46,3.99-12.5
		C505.2,598.22,502.69,598.64,502.69,598.64z"/>
</g>
<g id="cape">
	<path class="st15" d="M482.8,620.3c-2.71,1.08-10.3,15.31-21.68,16.13c-11.38,0.81-16.53-0.41-27.65,1.76
		c-9.59,1.87-8.67,10.3-18.7,7.32s-16.53-2.98-16.53-2.98s13.82,8.94,18.43,16.26c4.61,7.32,11.93,16.26,17.62,15.18
		s10.57,12.2,14.37,15.18c0,0,30.09-0.54,40.12-6.51s31.04-49.74,23.45-58.41C504.62,615.56,485.51,619.22,482.8,620.3z"/>
	<path class="st8" d="M482.8,620.3c0,0-9.76,1.08-13.55,7.32c-3.79,6.23-15.65,8.88-20.53,8.61c-4.88-0.27-13.69,1.63-13.69,1.63
		s32.73,3.18,38.96-4.27C473.99,633.59,479.81,620.85,482.8,620.3z"/>
</g>
<g id="skirt">
	<path class="st13" d="M513.32,687.15c0,0-7.86-17.05-22.94-14.54c-15.08,2.51-35.5-5.23-40.52-3.35s-8.01,4.24-8.01,4.24
		s7.33,7.86,15.98,11.9c1.69,0.79,9.39-0.19,11.14,0.22c10.68,2.51,11.2,3.59,18.11,2.33C494,686.7,513.32,687.15,513.32,687.15z"/>
</g>
<g id="left_leg">
	<path class="st16" d="M502.31,704.74c-1.12,11.63,3.28,19.78,5.42,26.97s3.66,14.58,5.69,14.5c2.04-0.08,3.46,1.02,2.71-3.12
		c-1.08-5.96-0.9-7.57-2-19.04c-1.02-10.72-2.56-16.5-3.35-21.65C510.16,698.34,503.43,693.11,502.31,704.74z"/>
	<path class="st17" d="M505.43,704.33c-1.12,11.63,2.4,22.42,4.54,29.61s2.3,8.4,3.66,10.44c1.06,1.59,3.38,1.35,2.44-2.74
		c-1.29-5.62-0.51-4.37-1.84-17.54c-1.08-10.71-2.65-15.93-3.44-21.08C510.16,698.95,506.55,692.7,505.43,704.33z"/>
	<path class="st18" d="M495.13,679.66c0,0,3.25,18.97,5.69,22.23s10.71,3.93,10.3-3.66c-0.42-7.81,1.08-15.45-3.39-20.33
		C503.26,673.02,496.75,670.31,495.13,679.66z"/>
	<path class="st19" d="M494.87,679.88l3.24,13.87l12.98,2.34c-0.42-7.81,1.12-13.32-3.35-18.19
		C503.26,673.02,496.5,670.53,494.87,679.88z"/>
	<path class="st18" d="M511.19,700.47c1.63,6.91,1.02,9.35,1.02,9.35l-10.16,1.52c0,0-0.41-1.73-1.22-8.64
		C500.01,695.79,509.67,694.02,511.19,700.47z"/>
	<g>
		<path class="st17" d="M511.32,744.29c0.26,4.55,0.47,10.38,10.16,9.78c4.92-0.3-0.83-6.29-2.48-8.5c0,0-2.89-3.63-3.12-4.19
			c-0.59-1.45-2.89-1.92-4.3,0.89C510.86,743.72,511.28,743.63,511.32,744.29z"/>
		<path class="st16" d="M510.12,746.08c-0.19,0.79-0.05,1.97,1.03,2.75c2.27,1.62,6,3.13,9.84,2.92c4.82-0.25-4.93-3.18-5.64-3.7
			c-1.54-1.13-2.52-5.39-3.04-6.52S510.33,745.2,510.12,746.08z"/>
		<path class="st13" d="M511.01,742.42c0,0-0.16,0.11,0.63,1.82c2.96,6.46,4.62,6.6,8.69,6.78c2.68,0.12-1.23-5.32-1.23-5.32
			l-3.01-3.9c0,0,2.69,2.58,4.99,5.49c1.42,1.79,3.14,3.33,3.73,4.41c1.03,1.6,2.13,4.15,0.8,4.37c-4.46,0.72-10.25-0.72-11.3-1.33
			c-1.06-0.61-1.1-2.14-2.39-3.81c-0.49-0.63-2.15-1.87-2.21-2.42c-0.02-1.42-0.06-1.89,0.34-3.56
			C510.49,743.19,511.01,742.42,511.01,742.42z"/>
	</g>
</g>
<g id="right_leg">
	<g>
		<path class="st16" d="M489.14,704.95c3.73,10.44,0.89,15.6-2.2,35.06c-0.28,1.8-3.83,3.24-4.89,0.62
			c-0.18-0.43-0.15-1.28-0.2-2.25c-0.37-7.14-3.2-24.68-2.38-31.58C480.09,701.47,487.3,699.8,489.14,704.95z"/>
		<path class="st17" d="M490.83,711.64c0.16,1.79,0.21,4.4-0.31,8.07c-0.78,5.49-2.29,12.42-2.46,13.61
			c-0.28,1.99-0.9,6.53-1.14,7.77c-0.15,0.77-2.65,2.07-2.65,2.07s1.25-4.22,1.53-5.3c0.58-2.23,3.2-17.98,3.57-25.84
			C489.41,711.12,490.67,709.83,490.83,711.64z"/>
		<path class="st18" d="M489.82,702.89c-1.4-3.61-2.96-7.39-5.87-7.31c-2.45,0.07-4.62,2.82-4.88,8.59
			c-0.15,3.38,0.15,6.61,0.24,8.35c0,0,3.1-1.46,11.58-0.56C490.89,711.96,490.75,705.29,489.82,702.89z"/>
		<path class="st20" d="M489.82,702.89c-0.29-0.71-0.21,1.77-0.21,1.77l-0.25,7.17c0,0,0.34,0,1.54,0.13
			C490.89,711.96,490.9,707.65,489.82,702.89z"/>
	</g>
	<path class="st18" d="M478.19,686.85c0.27,8.4,1.02,19.52,6.98,19.52s5.29-9.69,7.72-22.36c2.44-12.67-4.68-16.13-10.1-16.13
		C477.37,667.87,477.92,678.44,478.19,686.85z"/>
	<path class="st19" d="M478.19,686.85l13.28,5.56c0,0-1.02,4.27,1.42-8.4c2.44-12.67-4.68-16.13-10.1-16.13
		C477.37,667.87,477.92,678.44,478.19,686.85z"/>
	<g>
		<g>
			<path class="st16" d="M487.08,739.96c0.96,2.94,0.24,3.52-0.56,4.51c-5.9,7.33-7.52,4.7-8.5,5.21c-3.26,1.71-3.56-2.16-2.1-3.05
				c1.41-0.86,3.61-4.14,5.36-5.85c0.82-0.8,0.86-1.27,2.02-1.49C484.5,739.08,486.68,738.72,487.08,739.96z"/>
		</g>
		<g>
			<path class="st17" d="M486.43,743.97c-3.06,9.01-9.89,6.81-11.41,6.22c-0.63-0.24,3.1-4.77,3.1-4.77s4.78-5.39,7.14-6.56
				C487.72,737.65,487.34,741.3,486.43,743.97z"/>
		</g>
		<path class="st13" d="M487.33,740.07c-0.28-0.44-0.31-0.23-0.38,0.1c-0.5,2.59-0.66,3.63-2.66,5.94
			c-0.68,0.79-0.58,2.46-6.59,3.06c-2.55,0.26,0.42-3.75,0.42-3.75l3.34-4.86l-1.01,1.06c0,0-3.97,4.76-5.56,5.89
			c-1.56,1.11-3.17,6.11-1.62,6.17c3.96,0.15,7.69-0.45,10.79-1.34c1.44-0.5,2.16-3.51,2.71-3.74c0,0,1.48-1.15,1.45-1.95
			C488.18,745.9,487.71,740.69,487.33,740.07z"/>
	</g>
</g>
<g id="left_arm">
	<path class="st17" d="M508.6,634.72c0,0,5.4,13.69,9.5,12.08c4.1-1.61,2.23-6.38-3.48-17.22
		C511.96,624.53,506.83,631.36,508.6,634.72z"/>
	<path class="st13" d="M506.82,631.76c0,0-3.4-6.75-0.51-9.15s5.97,1.99,7.83,5.18c2.04,3.5,2.31,4.89,2.31,4.89l-7.26,3.94
		L506.82,631.76z"/>
	<path class="st17" d="M524.43,648.77c0,0-2.66-5.6-4.71-7.36c-2.05-1.76-5.76,0.74-5.49,3.66c0.27,2.92,2.91,6.36,4.52,8.56
		c1.61,2.2,6.7,10.97,8.61,11.12c1.9,0.15,3.52-0.88,3.08-2.64S524.43,648.77,524.43,648.77z"/>
	<path class="st16" d="M525.88,651.95c0,0-2.77-6.92-4.75-9c-1.51-1.59-1.48,0.3-1.09,1.68c0.4,1.39,0.57,5.24,1.88,7.02
		s3.36,4.85,4.55,6.23c1.19,1.38,3.52,3.5,3.16,2.08C529.28,658.53,525.88,651.95,525.88,651.95z"/>
	<g>
		<g>
			<path class="st13" d="M529.61,687.78c0.11-0.17,0.3-0.25,0.47-0.38l14.56-11.26c0.18-0.16,0.19-0.61,0.29-1.78
				c0.06-0.79-0.17-1.63-0.98-1.57c-1.07,0.07-2.39-0.08-2.68,0.21l-13.76,11.18c-0.21,0.17-0.65,1.12-0.81,1.53
				c-0.19,0.47-0.43,0.93-0.47,1.54c-0.03,0.45,0.28,0.62,0.83,0.73L529.61,687.78z"/>
		</g>
		<g>
			<g>
				<g>
					<path class="st18" d="M524.18,660.76c-0.06-0.07-0.76-0.07-1.67,0.68c-1.06,0.88-0.57,1.67-0.57,1.67l10.26,16.75l4.54-3.02
						L524.18,660.76z"/>
				</g>
				<path class="st18" d="M518.75,661.65c1.13,1.51,3.07,1.85,4.4,0.81c1.35-1.05,1.67-3.18,0.64-4.83
					c-1.08-1.73-3.19-2.23-4.65-1.04C517.71,657.77,517.57,660.06,518.75,661.65z M520.44,660.84c-0.73-0.55-1.12-1.54-0.86-2.19
					c0.27-0.66,1.09-0.72,1.82-0.13c0.71,0.57,1.06,1.54,0.8,2.16C521.94,661.3,521.16,661.38,520.44,660.84z"/>
				<g>
					<path class="st10" d="M520.62,657.15c-1.04,0.27-1.49,1.43-1.03,2.55c0.09,0.22,0.21,0.42,0.35,0.6
						c-0.09-0.12-0.18-0.25-0.25-0.39c-0.39-0.79-0.15-1.55,0.53-1.67c0.68-0.12,1.52,0.44,1.87,1.24c0.35,0.77,0.1,1.48-0.54,1.6
						c-0.4,0.08-0.87-0.1-1.26-0.42c0.54,0.46,1.24,0.67,1.87,0.49c0.97-0.27,1.44-1.34,1.05-2.43
						C522.82,657.6,521.65,656.89,520.62,657.15z"/>
					<path class="st21" d="M522.51,659.17c0,0.02,0.01,0.04,0.02,0.06C522.52,659.21,522.52,659.19,522.51,659.17z"/>
					<path class="st21" d="M522.56,659.4c0,0.03,0.01,0.06,0.01,0.1C522.57,659.47,522.56,659.44,522.56,659.4z"/>
				</g>
				<g>
					<path class="st14" d="M523.32,661.1c0.03-0.02,0.06-0.04,0.08-0.07c0.13-0.25,0.21-0.5,0.24-0.75
						c0.01-0.09-0.06-0.17-0.16-0.18c-0.1-0.01-0.19,0.06-0.2,0.15c-0.03,0.21-0.1,0.42-0.21,0.64c-0.04,0.08,0,0.18,0.08,0.22
						C523.21,661.13,523.27,661.13,523.32,661.1z"/>
				</g>
			</g>
			<path class="st15" d="M527.21,668.12c-1.04,0.48-1.92,0.49-1.92,0.49l5.04,8.17c0.5,0.9,2.24,3.65,2.24,3.65s3.91-3.02,4.49-3.54
				c0,0-1.97-2.46-2.6-3.18l-5.41-6.86C529.03,666.85,528.25,667.63,527.21,668.12z"/>
			<path class="st18" d="M530.68,669.03l-0.8-0.9c0,0-0.93,0.8-3.09,1.8C526.79,669.94,526.93,670.45,530.68,669.03z"/>
			<path class="st22" d="M525.25,668.55c0,0,2.66-1.27,3.4-2.22l-0.95-1.06c0,0-2.31,2.16-2.95,2.46L525.25,668.55z"/>
			<path class="st18" d="M527.05,671.48l0.2,0.32c0,0,2.33-0.92,3.62-2.1L527.05,671.48z"/>
			<path class="st18" d="M532.02,670.63l0.67,0.86c0,0-2.2,1.64-4.55,1.78C528.14,673.27,531.35,672.01,532.02,670.63z"/>
			<path class="st18" d="M534.45,673.72l-1.03-1.29c0,0-1.84,2.06-4.18,2.66l1.57,2.56C530.81,677.65,531.95,676.21,534.45,673.72z"
				/>
			<path class="st18" d="M535.75,675.3l0.59,0.68c0,0-1.51,2.15-4.19,2.68C532.15,678.66,535.76,676.1,535.75,675.3z"/>
		</g>
		<g>
			<path class="st16" d="M529.75,688c0.21-0.02,0.41-0.11,0.58-0.24l14.57-11.82c0.04-0.03,0.48-1.88,0.08-2.26
				s-2.79-0.11-2.79-0.11s-14.48,11.11-14.74,11.73c-0.26,0.62-0.6,1.48-0.64,2.12c-0.03,0.48,0.36,0.86,0.83,0.81L529.75,688z"/>
		</g>
		<polygon class="st23" points="551.95,709.53 549.2,705.52 550.89,695.33 553.66,699.2 		"/>
		<polygon class="st23" points="548.45,704.31 547.46,702.73 549.15,692.54 550.16,693.98 		"/>
		<path class="st13" d="M530.33,682.81l0.93,0.1c0.32,0.04,0.38,0.02,0.43-0.31l0.18-1.02L530.33,682.81z"/>
		<g>
			<path class="st10" d="M566.09,731.81c0,0-30.29-45.45-30.74-46.06c-0.45-0.6-0.9-1.35-0.9-1.35l5.41-4.34l34.48,45.84
				c0.18,0.24,0.11,7.81,0.11,7.81c-0.11,0.15-0.07,0.51-0.78,0.44l-6.77-1.67C566.44,732.31,566.23,732.02,566.09,731.81z"/>
			<path class="st16" d="M566.09,731.81c0,0-30.34-45.46-30.79-46.06c-0.45-0.6-1.03-1.49-1.03-1.49s-0.02-0.05,0.59-0.46
				l32.42,47.63c0,0,7.1,2.79,6.39,2.73l-6.77-1.67C566.44,732.31,566.23,732.02,566.09,731.81z"/>
			<path class="st16" d="M551.13,709.08l1.13,1.86c0.06,0.16,0.32,0.01,0.46-0.26l0.97-1.83c0.09-0.16,0.06-0.3-0.05-0.31
				l-2.34,0.11C551.12,708.67,551.07,708.92,551.13,709.08z"/>
			<polygon class="st16" points="566.08,714.74 565.83,716.49 567.42,716.57 			"/>
			<polygon class="st16" points="567.43,718.41 566.67,720.68 568.62,719.88 			"/>
			<line class="st24" x1="574.18" y1="734" x2="537.53" y2="681.96"/>
			<polyline class="st24" points="559.99,706.57 558.94,707.34 559.33,709.29 561.03,709.86 560.98,713.7 560.98,715.2 			"/>
		</g>
	</g>
	<path class="st17" d="M525.79,662.69c0,0,1.41-1.36,3.23-1.17s2.09,1.99,2.75,3.82c0.47,1.29,1.07,3.56,1.07,3.56l0.41,3.27
		l-2.17-2.74c0,0-1.64-2.24-1.86-2.24c-0.47,0-2.24,1.69-2.24,1.69l0.21,2.81c0,0,0.95,1.34-0.02,1.07
		c-0.63-0.17-2.16-1.49-2.23-2.89C524.79,666.63,524.12,664.23,525.79,662.69z"/>
</g>
<g id="skirt_1_">
	<g>
		<path class="st10" d="M477.03,680.42c33.14,0.02,33.74,5.09,36.29,6.53c0.34-2.81-1.55-39.21-8.03-44.01
			c-6.48-4.81-15.31-4.74-24.53,2.03c-8.3,6.1-15.04,19.12-24.46,18.49c-9.42-0.63-14.45,10.05-14.45,10.05s2.98-2.36,8.01-4.24
			C454.89,667.38,461.75,680.41,477.03,680.42z"/>
	</g>
</g>
<g id="right_arm">
	<path class="st16" d="M474.37,621.2c0,0-11.18-0.9-12.87-0.97c-1.69-0.07-3.67,0.69-4.12,3.38c-0.45,2.69,1.34,3.66,4.81,4.49
		c3.47,0.83,11.46,2.33,14.79,2.12C480.32,630.02,482.31,622.8,474.37,621.2z"/>
	<path class="st17" d="M474.37,621.2c0,0-11.18-0.9-12.87-0.97c-1.69-0.07-3.67,0.69-4.12,3.38c-0.45,2.69,1.34,3.66,4.81,4.49
		c3.47,0.83,11.46,2.33,14.79,2.12C480.32,630.02,482.31,622.8,474.37,621.2z"/>
	<path class="st13" d="M484.63,621.65c5.77,0.97,3.06,8.41-1.18,8.93c-4.24,0.53-9.62-0.06-9.62-0.06l0.54-9.32
		C474.37,621.2,481.39,621.1,484.63,621.65z"/>
	<path class="st16" d="M461.56,627.39c-2.84-0.16-5.72-1.89-3.59-5.77c2.13-3.88,7.81-8.89,12.08-11.88
		c4.27-2.99,6.42-5.23,8.42-3.28c2,1.95-2.89,7.41-5.6,10.06C470.98,618.36,464.41,627.54,461.56,627.39z"/>
</g>
<g id="torso">
	<path class="st10" d="M501.33,620.78c-6.34-0.68-9.69-1.12-14.06,0.61c-2.36,0.93-5.09,5.84-4.74,9.76
		c0.3,3.34,3.19,7.9,4.74,10.57c2.62,4.49,3.79,3.25,8.4,3.25c4.61,0,7.66,1.78,10.03-3.05c1.38-2.81,3.33-7.41,3.15-11.89
		C508.66,625.28,504.59,621.13,501.33,620.78z"/>
	<path class="st9" d="M501.33,620.78c-6.34-0.68-9.69-1.12-14.06,0.61c-2.36,0.93-5.09,5.84-4.74,9.76
		c8.4-1.08,11.66-0.27,15.45,2.17c3.79,2.44,7.72,8.61,7.72,8.61s3.52-6.74,3.15-11.89C508.52,625.29,504.59,621.13,501.33,620.78z"
		/>
</g>
<g id="neck">
	<path class="st16" d="M491.47,614.88l0.61,6.51c0,0,0.41,2.24,2.44,2.44c2.03,0.2,2.03-2.64,2.03-2.64l0.61-8.74L491.47,614.88z"/>
	<path class="st17" d="M490.93,614.88l0.73,6.51c0,0,0.48,2.24,2.9,2.44c2.42,0.2,2.42-2.64,2.42-2.64l0.73-8.74L490.93,614.88z"/>
	<g>
		<path class="st8" d="M492.7,625.15c5.91-1.06,20.43,1.05,20.42,0.92c-0.63-5.43-10.67-7.86-13.62-8.23
			C497.54,617.93,493.83,621.05,492.7,625.15z"/>
		<path class="st8" d="M490.89,618.52c3.43,1.07,5.98,5.73,5.39,6.46c-1.57,1.93-4.57-0.3-11.99-2.95c-1.97-0.7-5.32-0.84-5.32-0.84
			S487.46,617.45,490.89,618.52z"/>
		<circle class="st25" cx="494.4" cy="623.8" r="0.59"/>
	</g>
</g>
<g id="right_hand">
	<path class="st16" d="M478.1,609.86c1.17-0.3,3.25-3.73,3.37-7.16c0.08-2.4,0.88-3.95,1.3-4.38c0.42-0.43,0.04-1.98-0.86-1.37
		c-1.07,0.71-1.87,1.61-2.3,3.04c0,0-0.57-2.28,0.14-3.28c0.71-1,0.55-2.15,0.12-2.15s-1.02,0.41-1.02,0.41s0.36-1.37-0.46-1.58
		s-1.07,0.71-1.07,0.71s-1.72,1.32-1.86,2.46c-0.14,1.14-1,4.71-1,4.71s-0.86,4.72,0.42,7.01
		C476.19,610.57,476.93,610.17,478.1,609.86z"/>
</g>
<g id="head">
	<g>
		<path class="st17" d="M494.26,593.94c-3.65-0.41-11.49,2.32-10.52,10.89s4.55,11.32,10.25,11.28c5.7-0.04,9.12-3.57,9.32-10.48
			C503.51,598.72,501.02,594.71,494.26,593.94z"/>
		<path class="st17" d="M484.96,608.38c-0.41-1.08-0.33-5.82-1.69-5.89c-1.35-0.07-2.97,3.42-0.58,7.06
			C484.15,611.77,486.13,611.48,484.96,608.38z"/>
		<path class="st16" d="M494.2,594.83c-3.37-0.38-10.62,2.16-9.72,10.12c0.9,7.96,4.21,10.51,9.47,10.47s8.42-3.32,8.61-9.73
			C502.74,599.26,500.45,595.53,494.2,594.83z"/>
		<path class="st10" d="M484.25,605.23c0,0,0.24-9.15,8.49-9.76c7.88-0.58,10.62,8.84,10.62,8.84s1.32-10.88-10.47-10.57
			C481.14,594.04,484.25,605.23,484.25,605.23z"/>
		<path class="st17" d="M502.14,605.83c0.05-0.35,0.29-3.28,1.64-3.35s2.93,3.36,0.65,7.06S501.64,609.12,502.14,605.83z"/>
	</g>
</g>
<g id="ribbon">
	<g>
		<g>
			<path class="st15" d="M500.24,598.9c-0.4,0.58,1.79,3.13,3.02,1.95c1.15-1.11,2.26-2.53,1.21-2.96
				C503.41,597.45,500.64,598.32,500.24,598.9z"/>
			<path class="st10" d="M500.78,599.85c0,0,1.51,1.4,2.03,1.12c0.52-0.29-0.49-0.72-1.44-1.66
				C500.42,598.36,500.16,599.25,500.78,599.85z"/>
		</g>
		<g>
			<path class="st15" d="M506.5,597.44c-0.17-0.68-3.54-2.16-3.48-0.5c0.06,1.56,0.16,3.66,1.22,3.23
				C505.29,599.75,506.67,598.12,506.5,597.44z"/>
		</g>
		<path class="st15" d="M504.88,598.47c0,0-0.8,3.73-2.48,6.16c-1.27,1.84-2.58,2.84-2.58,2.84l-0.02-0.81l-1.22-0.04
			c0,0,3.07-2.31,5.41-8.09L504.88,598.47z"/>
		<path class="st15" d="M504.57,599.86c0,0,0.09,3.63-1.04,6.23c-0.85,1.96-1.94,3.16-1.94,3.16l-0.22-0.75l-1.25,0.21
			c0,0,2.57-2.76,3.56-8.6L504.57,599.86z"/>
	</g>
</g>
<g id="bangs">
	<path class="st26" d="M487.91,594.66c0.91-3.15-3.46-5.49-5.08-5.9c-1.63-0.41-3.25,2.44,1.02,5.08c0,0-5.49-3.46-6.51,0.81
		S487,597.81,487.91,594.66z"/>
</g>
<g id="face">
	
		<ellipse transform="matrix(1 -7.023139e-03 7.023139e-03 1 -4.2036 3.5062)" class="st27" cx="497.13" cy="600.28" rx="0.83" ry="1.54"/>
	
		<ellipse transform="matrix(0.0223 -0.9998 0.9998 0.0223 -122.2254 1076.5594)" class="st27" cx="489.3" cy="600.77" rx="1.42" ry="0.7"/>
	<path class="st28" d="M496.66,597.01c0,0,1.12,0,1.54,0.94"/>
	<path class="st28" d="M488.48,598.25c0,0,0.59-0.74,1.34-0.77"/>
</g>
<g id="leaves">
	<path class="st3" d="M114.98,780.36c0,0,13.01-13.82,0-10.57S103.59,787.68,114.98,780.36z"/>
	<path class="st29" d="M116.6,752.71c-8.94-4.88,8.13-12.2,12.2-1.63C132.87,761.66,125.55,757.59,116.6,752.71z"/>
	<path class="st29" d="M111.73,759.49c-5.69,9.49,6.51,13.82,8.94,6.51C123.11,758.68,117.42,750,111.73,759.49z"/>
	<path class="st3" d="M116.6,779.55c-4.07,9.76,6.51,15.45,10.57,6.51C133.58,771.97,120.67,769.79,116.6,779.55z"/>
	<path class="st29" d="M144.25,793.37c6.51,6.51,5.69,24.39-6.51,9.76S137.75,786.86,144.25,793.37z"/>
	<path class="st29" d="M133.68,805.57c0,0-4.88,18.7,3.25,15.45C145.07,817.76,142.63,800.69,133.68,805.57z"/>
	<path class="st29" d="M151.57,818.58c8.13,0,13.82,21.14-0.81,18.7C136.12,834.84,143.44,818.58,151.57,818.58z"/>
	<path class="st29" d="M167.46,853.59c0,0,1.22-12.8-6.71-9.14c-7.92,3.66,3.05,12.19,3.05,12.19s-12.19-1.83-4.88,3.05
		c7.32,4.88,9.14,4.88,9.14,4.88s-13.41,9.75-2.44,8.53c10.97-1.22,12.8-4.27,12.8-11.58c0-7.32-6.71,0.61-6.71,0.61
		S179.04,842,167.46,853.59z"/>
	<path class="st29" d="M132.05,781.17c0,0,5.69-14.64,8.13-5.69C142.63,784.43,138.56,785.24,132.05,781.17z"/>
	<path class="st29" d="M177.59,867.37c0,0,4.97,24.67,12.2,13.82C194.67,873.87,182.47,860.05,177.59,867.37z"/>
	<path class="st3" d="M819.71,789.3c0,0,0-11.38-7.59-4.34S812.12,797.98,819.71,789.3z"/>
	<path class="st29" d="M817,778.46c0,0-2.71-10.3,5.42-10.84s5.96,3.79,5.96,3.79s9.22-9.76,10.84-4.88
		c1.63,4.88-3.79,5.96-3.79,5.96s4.34,10.84-2.17,8.67c-6.51-2.17-8.67-4.88-8.67-4.88S821.34,781.17,817,778.46z"/>
	<path class="st29" d="M821.34,783.88c0,0,1.08,10.3,6.51,4.34C833.26,782.26,826.22,779.55,821.34,783.88z"/>
	<path class="st3" d="M828.19,750.71c0,0-8.99-5.74-7.4-0.38s4.23,4.21,4.23,4.21s-9.52,7.65-0.53,6.12
		c8.99-1.53,5.82-5.36,5.82-5.36s11.1-6.12,6.87-9.18C832.95,743.06,828.19,750.71,828.19,750.71z"/>
	<path class="st3" d="M820.19,769.99c-4.53-1.42-5.17-10.28,1.44-6.17C827.29,767.35,823.91,771.62,820.19,769.99z"/>
	<path class="st3" d="M840.31,798.25c0,0,5.49-4.47,6.71,1.02c1.22,5.49-7.25,4.13-7.25,4.13s5.96,8.67,1.08,10.3
		s-10.3-2.71-8.67-8.67c1.63-5.96,4.27-3.73,4.27-3.73S831.64,790.12,840.31,798.25z"/>
	<path class="st3" d="M838.19,792.57c-1.95-1.03-1.95-14.9,4.67-8.74S840.13,793.59,838.19,792.57z"/>
</g>
<g id="beam">
	<polygon class="st30" points="256.47,542.11 490.66,477.05 741.11,542.11 	"/>
</g>
</svg>
