<?xml version="1.0" encoding="iso-8859-1"?>
<!-- Generator: Adobe Illustrator 26.0.1, SVG Export Plug-In . SVG Version: 6.00 Build 0)  -->
<svg version="1.1" xmlns="http://www.w3.org/2000/svg" xmlns:xlink="http://www.w3.org/1999/xlink" x="0px" y="0px"
	 viewBox="0 0 600 600" enable-background="new 0 0 600 600" xml:space="preserve">
<g id="Background_x5F_Simple">
	<g>
		<path fill="#EFE6D9" d="M135.9306946,489.5148621c0,0-11.4059448-17.1089172,5.2277222-33.7425842
			s48.9505005-1.901001,52.7524719,23.2871399c3.8019867,25.1881104,12.8316803,23.2871094,16.633667,16.1584167
			c3.8019714-7.1287231,13.7821808-0.4752502,15.6831665,11.8811646c1.9009857,12.3564453,9.5049438-0.95047,12.8316803,4.2772522
			c3.3267365,5.2276917,56.5544586,20.9108582,61.3069305,25.1880798
			c4.7524719,4.2772827-108.3564301-15.6831665-151.6039581-22.8118286
			c-43.2475204-7.1287537-82.2178192-14.2574463-85.0693054-18.0594482
			C60.8415833,491.8910828,117.3960419,480.4851379,135.9306946,489.5148621z"/>
		<path fill="#EFE6D9" d="M465.2772217,537.0396118c-1.8640747,2.0504761,70.8118896,5.2277222,70.8118896,5.2277222
			s-18.534668-5.2277222-21.8613892-5.2277222s-6.6534729,0.4752197-6.6534729,0.4752197
			s-2.8514709-13.7821655-11.8811951-14.2573853c-9.0296936-0.4752808-10.4554443,12.3564453-10.4554443,12.3564453
			S470.0296936,531.8118896,465.2772217,537.0396118z"/>
		<path fill="#EFE6D9" d="M500.4455566,336.0098877c-1.2873535-2.3601379-36.1188354-70.8118591-37.5445557-73.1881104
			c-1.4257507-2.3762207-0.4752502,3.3267517-3.802002,3.8019714
			c-3.3267212,0.4752502-85.5445557-125.465332-86.0198059-128.7920685c-0.4752197-3.3267365,9.5049744,2.376236,9.5049744,2.376236
			s-47.5247498-82.2178192-46.0990295-88.3960342c1.4257507-6.1782188,42.2970276,48.4752502,42.2970276,48.4752502
			s13.782196-33.267334,46.0990295-28.9901047s47.5247498,46.0990143,47.0494995,81.267334
			s34.6930542,25.1881104,23.7623596,58.4554443c-10.9306641,33.2673187-19.0098877,38.9702911-7.1286926,59.8811951
			s3.8019714,28.5148315,7.1286926,39.4455261C499.0198059,321.2772217,503.2970276,341.2376099,500.4455566,336.0098877z"/>
		<path fill="#EFE6D9" d="M317.9505005,316.5247498c0.3638611,4.3664246,96,90.2970276,98.8514709,89.8217773
			c2.8515015-0.4752502-26.1386108-31.8415833-26.1386108-43.2475281s-0.9505005-19.0098877-9.0296936-19.0098877
			c-8.0792236,0-5.7029724-31.366333-19.9603882-38.0198059c-14.2574463-6.6534729-22.8118896,7.1287231-20.9108887,19.0098877
			C340.7623901,325.0791931,317.4752502,310.8217773,317.9505005,316.5247498z"/>
	</g>
</g>
<g id="Layer_x5F_Character_1">
	<g id="right_arm_and_megaphone">
		<g>
			<g>
				<path fill="#FFB68D" d="M207.1300049,123.5999756c0,0-1.4299927,10.960022-2.0499878,15.2399902
					c-0.0100098,0.0900269-0.0300293,0.1799927-0.0400391,0.2700195c-0.6499634,4.1400146-2.25,7.1199951-4.8599854,6.8599854
					C197.5,145.7000122,194.4799805,141.6900024,195.8099976,137.5c0.7700195-2.4000244,2.9400024-6.6199951,4.6599731-9.7800293
					c1.2700195-2.3499756,2.2900391-4.1199951,2.2900391-4.1199951H207.1300049z"/>
				<path opacity="0.3" d="M207.1300049,123.5999756c0,0-1.4299927,10.960022-2.0499878,15.2399902
					c-0.0100098,0.0900269-0.0300293,0.1799927-0.0400391,0.2700195c-2.3999634,1.9500122-4.75,2.7600098-4.9499512,1.039978
					c-0.4200439-3.5099487,3.0899658-8.9699707,2.9699707-9.3899536c-0.0999756-0.3400269-1.1099854-1.4400024-2.5900269-3.0400391
					c1.2700195-2.3499756,2.2900391-4.1199951,2.2900391-4.1199951H207.1300049z"/>
			</g>
			<path fill="#FFB68D" d="M205.0198059,116.0891113c-0.6534729-0.4158478-4.2772369-0.7722778-4.2772369-0.5940628
				s-1.7821655,7.9009933-1.366333,9.3267365c0.4158478,1.4257431,3.8613892,2.7326736,6.2970276,2.2574234
				c2.4356537-0.4752502,4.3960419-6.1930695,4.3960419-6.1930695s-1.366333-0.876236-1.5445557-2.3613892
				C208.3465271,117.0396042,205.0198059,116.0891113,205.0198059,116.0891113z"/>
			<path opacity="0.3" d="M205.0198059,116.0891113c-0.6534729-0.4158478-4.2772369-0.7722778-4.2772369-0.5940628
				s-1.7821655,7.9009933-1.366333,9.3267365c0.4158478,1.4257431,3.8613892,2.7326736,6.2970276,2.2574234
				c2.4356537-0.4752502,4.3960419-6.1930695,4.3960419-6.1930695s-1.366333-0.876236-1.5445557-2.3613892
				C208.3465271,117.0396042,205.0198059,116.0891113,205.0198059,116.0891113z"/>
			<g>
				<g>
					<path fill="#363E4F" d="M208.0831299,108.2475281c0,0,0.2376251,12.4752426-5.1089172,19.366333l-4.3960266-1.7821808
						c0,0,5.8217773-8.6732635,4.990097-18.4158401h2.3426056L208.0831299,108.2475281z"/>
					<path opacity="0.3" d="M208.0831299,108.2475281c0,0,0.2376251,12.4752426-5.1089172,19.366333l-4.3960266-1.7821808
						c0,0,5.8217773-8.6732635,4.990097-18.4158401h2.3426056L208.0831299,108.2475281z"/>
					<polygon fill="#363E4F" points="200.9207916,125.8316803 198.578186,125.8316803 202.9742126,127.6138611 
						205.3168335,127.6138611 					"/>
					<polygon fill="#363E4F" points="200.9207916,125.8316803 198.578186,125.8316803 202.9742126,127.6138611 
						205.3168335,127.6138611 					"/>
					<path fill="#363E4F" d="M210.4257355,108.2475281c0,0,0.2376251,12.4752426-5.108902,19.366333l-4.3960419-1.7821808
						c0,0,5.8217773-8.6732635,4.990097-18.4158401L210.4257355,108.2475281z"/>
				</g>
				<g>
					<g>
						<path fill="#F7BC4B" d="M215.0927734,103.8776855c-0.5,3.2700195-2.9699707,4.8500366-2.9699707,4.8500366
							c-1.6100464-0.0900269-3.1400146-0.0700073-4.5900269,0.0299683
							c-11.6599731,0.8699951-18.1400146,7.3400269-18.1400146,7.3400269l0.2800293-13.4500122l0.3999634-19.1500244
							c6.5900269,8.3800049,14.0400391,11.1500244,18.210022,12.0500488
							c2.0200195,0.4499512,3.2700195,0.4599609,3.2700195,0.4599609s2.9400024,0.7700195,3.5700073,5.5900269
							C215.2327881,102.4376831,215.2127686,103.1976929,215.0927734,103.8776855z"/>
						<path opacity="0.3" d="M212.1228027,108.7277222c-1.6100464-0.0900269-3.1400146-0.0700073-4.5900269,0.0299683
							c1.3699951-1.3099976,3.1900024-3.5999756,3.3699951-6.6300049c0.2200317-3.6199951-1.3599854-5.4699707-2.6199951-6.5799561
							c2.0200195,0.4499512,3.2700195,0.4599609,3.2700195,0.4599609s2.9400024,0.7700195,3.5700073,5.5900269
							C215.7427979,106.4077148,212.1228027,108.7277222,212.1228027,108.7277222z"/>
						<path opacity="0.3" d="M215.0927734,103.8776855c-0.5,3.2700195-2.9699707,4.8500366-2.9699707,4.8500366
							c-1.6100464-0.0900269-3.1400146-0.0700073-4.5900269,0.0299683
							c-11.6599731,0.8699951-18.1400146,7.3400269-18.1400146,7.3400269l0.2800293-13.4500122
							C198.112793,102.02771,209.4927979,103.1876831,215.0927734,103.8776855z"/>
						<path fill="#ED4A2F" d="M194.3927612,98.7977295c0.0100098,1.4199829-0.0999756,3.1799927-0.3299561,5.0499878
							c-0.1000366,0.8099976-0.2300415,1.6300049-0.3900146,2.4599609
							c-1.0400391,5.5100098-3.2999878,11.0600586-7.4000244,11.0600586c-6.2299805,0-8.9099731-9.2700195-9.0800171-18.6300049
							c-0.1799927-9.3500366,2.8500366-17.6400146,8.9100342-17.6400146c0.460022,0,0.9099731,0.0899658,1.3599854,0.2799683
							c3.1000366,1.2400513,5.8300171,6.6000366,6.6600342,13.4200439c0.0099487,0.1199951,0.0299683,0.2299805,0.039978,0.3499756
							c0.1300049,1.0800171,0.2000122,2.1900024,0.2199707,3.3300171
							C194.3827515,98.5776978,194.3827515,98.6876831,194.3927612,98.7977295z"/>
						<path opacity="0.3" d="M194.3927612,98.7977295c-4.4599609-0.0400391-8.3200073,0.0599976-8.3200073,0.0599976
							s-0.8399658-5.7000122-1.1900024-5.460022c-0.3599854,0.2399902-2.8499756,3.3300171-3.3299561,2.3699951
							c-0.4400024-0.8900146-0.0499878-8.8099976,5.9099731-14.3900146
							c3.1000366,1.2400513,5.8300171,6.6000366,6.6600342,13.4200439c0.0099487,0.1199951,0.0299683,0.2299805,0.039978,0.3499756
							c0.1300049,1.0800171,0.2000122,2.1900024,0.2199707,3.3300171
							C194.3827515,98.5776978,194.3827515,98.6876831,194.3927612,98.7977295z"/>
						<path fill="#ED4A2F" d="M194.362793,100.1976929c-0.0400391,1.1099854-0.1400146,2.3599854-0.2999878,3.6500244
							c-0.1000366,0.8099976-0.2300415,1.6300049-0.3900146,2.4599609l-11.1900024-1.7199707l0.2600098-4.2000122
							l0.2299805-3.7699585l11.1900024-1.4700317c0.1300049,1.0800171,0.2000122,2.1900024,0.2199707,3.3300171
							C194.3927612,98.9976807,194.3827515,99.5776978,194.362793,100.1976929z"/>
						<path opacity="0.3" d="M194.362793,100.1976929c-0.0400391,1.1099854-0.1400146,2.3599854-0.2999878,3.6500244
							c-0.1000366,0.8099976-0.2300415,1.6300049-0.3900146,2.4599609l-11.1900024-1.7199707l0.2600098-4.2000122
							C186.1727905,100.5576782,190.7727661,100.3876953,194.362793,100.1976929z"/>
						<path fill="#ED4A2F" d="M182.9773407,96.6154404c-1.3320007-0.0886841-2.119278,1.6886978-2.217041,3.7480774
							c-0.0977478,2.0593796,0.3542786,4.1356888,1.7254639,4.2269745c1.3711853,0.0912933,1.9960632-2.7178879,2.0590057-4.03405
							C184.6451263,98.4578857,183.897995,96.6767273,182.9773407,96.6154404z"/>
						<path opacity="0.2" d="M182.9773407,96.6154404c-1.3320007-0.0886841-2.119278,1.6886978-2.217041,3.7480774
							c-0.0977478,2.0593796,0.3542786,4.1356888,1.7254639,4.2269745c1.3711853,0.0912933,1.9960632-2.7178879,2.0590057-4.03405
							C184.6451263,98.4578857,183.897995,96.6767273,182.9773407,96.6154404z"/>
					</g>
				</g>
			</g>
			<g>
				<path fill="#FFB68D" d="M204.1327515,118.9376831c0,0,0.0100098,0.0100098,0.0400391,0.0200195
					c0.0199585,0.0100098,0.039978,0.0200195,0.0700073,0.0300293c0.2299805,0.1399536,0.7600098,0.539978,0.8999634,1.3199463
					c0,0.0200195,0.0100098,0.0400391,0,0.0600586c0.1199951,1.0099487-1.25,2.6699829-1.25,2.6699829
					s1.1600342,0.8300171,0.9100342,1.6199951c-0.0400391,0.1599731-0.1400146,0.3099976-0.3200073,0.460022
					c-1.0700073,0.8899536-5.1699829,1.0099487-5.5200195,0.3599854c-0.3599854-0.6600342-0.2999878-1.7800293-0.2999878-1.7800293
					s-0.6500244-0.4199829-0.8300171-1.4299927s0.8300171-2.3200073,0.8300171-2.3200073s-0.4700317-0.9500122-0.4700317-2.0199585
					c0-1.0700073,1.1200562-2.2000122,1.1200562-2.2000122s-0.1100464-0.9899902,0.4899902-1.9100342l0.0100098-0.0100098
					c0.4299927-0.6799927,1.25-1.3299561,2.7699585-1.5199585c1.3900146-0.1799927,2.1099854,0.4500122,2.4700317,1.2099609
					c0.1199951,0.25,0.2000122,0.5,0.2600098,0.75c0.1999512,0.8400269-0.7000122,1.1400146-1.0100098,1.2300415
					c-0.0700073,0.0199585-0.1100464,0.0199585-0.1100464,0.0199585s1.2400513,0.2900391,1.1800537,1.4200439
					c-0.0100098,0.1199951-0.0300293,0.2399902-0.0500488,0.3499756
					C205.0727539,118.2277222,204.1327515,118.9376831,204.1327515,118.9376831z"/>
				<path opacity="0.3" d="M199.8527832,121.4376831c0.6199951,0.2900391,1.6599731-0.6900024,3.4699707-0.4499512
					c1.1500244,0.1499634,1.6300049-0.2800293,1.8200073-0.6199951c0.1199951,1.0099487-1.25,2.6699829-1.25,2.6699829
					s-1.2799683-0.3200073-2.8499756-0.2999878c-1.5800171,0.0299683-1.3699951,1.7599487-0.3900146,1.7599487
					c0.8500366,0,3.1500244,0.7800293,4.1500244,0.1600342c-0.0400391,0.1599731-0.1400146,0.3099976-0.3200073,0.460022
					c-1.0700073,0.8899536-5.1699829,1.0099487-5.5200195,0.3599854c-0.3599854-0.6600342-0.2999878-1.7800293-0.2999878-1.7800293
					s-0.6500244-0.4199829-0.8300171-1.4299927s0.8300171-2.3200073,0.8300171-2.3200073s-0.4700317-0.9500122-0.4700317-2.0199585
					c0-1.0700073,1.1200562-2.2000122,1.1200562-2.2000122s-0.1100464-0.9899902,0.4899902-1.9100342
					c-0.3300171,0.9800415,0.4099731,1.1700439,1.9199829,0.6100464c1.960022-0.7300415,3.1300049,0.1999512,3.3300171-0.9300537
					c0.1199951,0.25,0.2000122,0.5,0.2600098,0.75c0.1999512,0.8400269-0.7000122,1.1400146-1.0100098,1.2300415
					c-0.0700073,0.0199585-0.1100464,0.0199585-0.1100464,0.0199585s-2.5-0.5099487-4.0099487,0
					c-1.5200195,0.5-1.5800171,2.5200195-0.3600464,2.3400269c1.2200317-0.1699829,1.6900024-0.4099731,3.2400513-0.0900269
					c1.0899658,0.2300415,1.9199829,0.1000366,2.2599487-0.4799805c-0.25,0.960022-1.1900024,1.6699829-1.1900024,1.6699829
					s-2.1099854-0.1199951-3.3599854,0.0900269S199.2227783,121.1376953,199.8527832,121.4376831z"/>
			</g>
			<g>
				<path fill="#FFB68D" d="M210.9827881,119.5177002c-0.2000122,1-0.6400146,1.7700195-1.0800171,1.789978
					c-1.1900024,0.0600586-1.960022-1.539978-1.960022-1.539978s-2.1399536,0.7700195-2.2599487-0.5899658
					c0-0.0100098,0-0.0100098,0-0.0200195c-0.1100464-1.3800049,1.3200073-4.3200073,2.7299805-4.0800171
					C210.8827515,115.4877319,211.3027954,117.8276978,210.9827881,119.5177002z"/>
				<path opacity="0.3" d="M210.9827881,119.5177002c-0.2000122,1-0.6400146,1.7700195-1.0800171,1.789978
					c-1.1900024,0.0600586-1.960022-1.539978-1.960022-1.539978s-2.1399536,0.7700195-2.2599487-0.5899658
					c0-0.0100098,0-0.0100098,0-0.0200195c1.6300049,0.8599854,2.5599976-1.5700073,2.5599976-1.5700073
					s1.1999512,0.5800171,1.7799683,2.1799927C210.3027954,120.5377197,210.6727905,120.1376953,210.9827881,119.5177002z"/>
			</g>
		</g>
	</g>
	<g id="back_skirt">
		<path fill="#363E4F" d="M242.8613892,170.2079163c-21.7425842,9.623764-26.0198059,17.1089172-26.0198059,17.1089172
			s8.7326813,22.633667,35.2871246,10.5148468c26.5544586-12.1188049,15.6831818-35.4653473,15.6831818-35.4653473
			L242.8613892,170.2079163z"/>
	</g>
	<g id="cloak">
		<g>
			<g>
				<path fill="#ED4A2F" d="M294.6633606,143.2970276c-8.0791931,7.1287079-6.8910828,12.1188202-10.217804,12.3564453
					c-3.3267517,0.2376099-10.9306946-7.3663483-15.9208069-7.6039734
					c-4.9900818-0.2376251-7.6039429,5.4653473-9.7425842,5.2277222
					c-2.1386108-0.2376251-19.7227631-26.8514786-18.2970123-29.4653397
					C241.9108887,121.1980209,294.6633606,143.2970276,294.6633606,143.2970276z"/>
				<path opacity="0.5" d="M294.6627808,143.2977295c-5.0900269,4.4899902-6.5,8.1300049-7.6799927,10.2699585
					c-6.2200317-4.3699951-19.75-13.7799683-21.6699829-14.1900024c-2.4900513-0.539978,4.4599609,6.0599976,4.4599609,6.0599976
					s-7.4899902-0.8899536-8.7299805,6.0599976c-0.039978,0.2000122-0.0499878,0.4100342-0.0499878,0.6100464
					c-0.8200073,0.7399902-1.5400391,1.25-2.210022,1.1699829c-2.1400146-0.2399902-19.7199707-26.8499756-18.2999878-29.4700317
					C241.9127808,121.1976929,294.6627808,143.2977295,294.6627808,143.2977295z"/>
			</g>
			<path fill="#ED4A2F" d="M310.8217773,133.5544586c0.7128906,4.5148468-6.4158325,20.4356384-7.8415833,20.9108887
				s-42.0593872-19.4851532-55.6039581-25.6633606c-13.5445557-6.1782227-12.8316803-11.4059448,4.0396118-7.3663406
				S310.8217773,133.5544586,310.8217773,133.5544586z"/>
			<path opacity="0.3" d="M305.8728027,149.6876831c-14.8300171-6.6699829-38-16.4499512-39.8600464-13.4799805
				c-0.2599487,0.4100342-0.4099731,0.7999878-0.4400024,1.1799927c-7.3399658-3.5-14.039978-6.6900024-18.1999512-8.5899658
				c-13.5400391-6.1700439-12.8300171-11.4000244,4.039978-7.3600464
				c16.8699951,4.0400391,59.4099731,12.1199951,59.4099731,12.1199951
				C311.2927856,136.5377197,308.3427734,144.4976807,305.8728027,149.6876831z"/>
			<g>
				<path fill="#ED4A2F" d="M336.7227783,150.6677246c0,0-64.6300049-23.0499878-80.789978-25.4299927
					c-16.1600342-2.3800049-24-8.7900391-6.8900146-7.3699951c1.460022,0.1199951,14.5700073,0.8299561,29.0299683,1.6299438
					c18.3400269,1,38.8600464,2.1500244,40.5900269,2.4100342c1.4400024,0.2199707,5.1199951,4.6599731,8.8099976,10.1900024
					C331.652771,138.3876953,335.8427734,146.1077271,336.7227783,150.6677246z"/>
				<path opacity="0.2" d="M336.7227783,150.6677246c0,0-64.6300049-23.0499878-80.789978-25.4299927
					c-16.1600342-2.3800049-24-8.7900391-6.8900146-7.3699951c1.460022,0.1199951,14.5700073,0.8299561,29.0299683,1.6299438
					c-5.1799927,8.0200195,4.6700439,8.6400146,20.0400391,13.1100464
					c15.2600098,4.4299927,26.4400024,5.8399658,29.3599854-0.5100098
					C331.652771,138.3876953,335.8427734,146.1077271,336.7227783,150.6677246z"/>
			</g>
		</g>
	</g>
	<g id="hair">
		<g>
			<g>
				<path fill="#363E4F" d="M267.6228027,108.9677124c-0.2000122,1.5999756-0.7200317,3.2999878-1.5900269,5.0100098
					c-4.0100098,7.8399658-30.0299683,15.9500122-37.6099854,8.289978
					c-7.5700073-7.6599731,0.7999878-16.3099976,0.7999878-16.3099976l-3.9000244-10.8499756l-2.5099487-6.9700317
					c-9.1800537-5.2600098-5.9700317-19.0700073,0.7099609-21.2999878c2.1400146-0.710022,3.6699829-0.4899902,4.75,0.1400146
					c2.3200073,1.3299561,2.6500244,4.5,2.6500244,4.5c1.9599609-3.1199951,6.5-3.5700073,8.4599609-1.1600342
					c1.960022,2.4100342,0,6.6799927,0,6.6799927c0.1900024-0.1299438,0.3900146-0.2599487,0.6200562-0.3899536
					c3.9099731-2.2900391,12.9699707-4.460022,18.3599854,4.0499878c1.4299927,2.2600098,2.1799927,4.5,2.4799805,6.5800171
					c0.9000244,6.0499878-1.8699951,10.7999878-2.0200195,11.0499878c-0.0099487,0.0100098-0.0099487,0.0100098-0.0099487,0.0100098
					C264.8728027,98.4376831,268.3227539,103.1577148,267.6228027,108.9677124z"/>
			</g>
			<path opacity="0.3" d="M267.6228027,108.9677124c-0.2000122,1.5999756-0.7200317,3.2999878-1.5900269,5.0100098
				c-4.0100098,7.8399658-30.0299683,15.9500122-37.6099854,8.289978
				c-7.5700073-7.6599731,0.7999878-16.3099976,0.7999878-16.3099976l-3.9000244-10.8499756
				c3.7200317-5.9500122,8.8099976-12.1000366,11.7300415-15.4800415c-4.2399902,4.2900391-12.8400269,9.25-12.8400269,9.25
				s0.3500366-4.3899536,2.3699951-8.3099976c1.4899902-2.8999634,2.7900391-10.2799683,1.6900024-13.5899658
				c2.3200073,1.3299561,2.6500244,4.5,2.6500244,4.5c1.9599609-3.1199951,6.5-3.5700073,8.4599609-1.1600342
				c1.960022,2.4100342,0,6.6799927,0,6.6799927s0.0800171-0.0099487,0.2200317-0.0099487
				c1.789978-0.0700073,13.8300171-0.1400146,15.3800049,11.2999878c1.4500122,10.8099976,4.3599854,3.6300049,5.8599854-1.0499878
				c0.9000244,6.0499878-1.8699951,10.7999878-2.0200195,11.0499878c-0.0099487,0.0100098-0.0099487,0.0100098-0.0099487,0.0100098
				s-3.3600464,2.2299805-1.6900024,6.8599854C258.4827881,108.9577026,264.3227539,111.7977295,267.6228027,108.9677124z"/>
		</g>
	</g>
	<g id="right_upper_arm">
		<g>
			<g>
				<path fill="#FFB68D" d="M212.8300171,144.4599609c0,0-6.5,1.6000366-8.6400146,1.960022
					c-1.8599854,0.2999878-5.5499878,0.2800293-6.7600098-3.1500244c-0.1900024-0.5099487-0.3099976-1.0899658-0.3699951-1.7599487
					c-0.4500122-5.1600342,4.8099976-6.7700195,4.8099976-6.7700195l9.5999756-3.460022L211.5,131.2699585L212.8300171,144.4599609z
					"/>
				<path opacity="0.3" d="M212.8300171,144.4599609c0,0-6.5,1.6000366-8.6400146,1.960022
					c-1.8599854,0.2999878-5.5499878,0.2800293-6.7600098-3.1500244c0.4000244-0.7199707,1.4199829-1.289978,3.0200195-1.5799561
					c3.9199829-0.710022,10.3900146-4.1600342,10.9899902-10.210022c0.0100098-0.0700073,0.0200195-0.1400146,0.0299683-0.2000122
					L211.5,131.2699585L212.8300171,144.4599609z"/>
			</g>
			<g>
				<path fill="#65A9DF" d="M235.9527588,134.3076782c-1.4299927,3.2000122-4.0899658,6.3900146-7.7099609,8.4500122
					l-12.2900391,6.4200439c0,0-8.1999512,0.539978-10.5199585-5.3500366c-0.6400146-1.6300049-0.6100464-3.5-0.2300415-5.3399658
					c0.9899902-4.8000488,4.3300171-9.4500122,4.3300171-9.4500122l18.8900146-5.5200195
					C236.8728027,121.7476807,238.7427979,128.067688,235.9527588,134.3076782z"/>
				<path opacity="0.3" d="M235.9527588,134.3076782c-1.4299927,3.2000122-4.0899658,6.3900146-7.7099609,8.4500122
					l-12.2900391,6.4200439c0,0-8.1999512,0.539978-10.5199585-5.3500366c-0.6400146-1.6300049-0.6100464-3.5-0.2300415-5.3399658
					c5.5900269-0.210022,17.460022-3.9900513,21.9800415-7.1900024c5.6999512-4.0400391,7.0099487-6.7700195,7.7199707-5.9400024
					C235.2027588,125.7077026,235.9627686,129.6177368,235.9527588,134.3076782z"/>
			</g>
		</g>
	</g>
	<g id="body">
		<g>
			<path fill="#F7BC4B" d="M279.039978,173.2399902c0,0-13.0199585-3.7600098-27.7199707,0.039978
				c-0.9700317,0.2399902-1.960022,0.5300293-2.9400024,0.8500366
				c-15.6099854,5.0899658-34.3300171,16.2199707-34.9199829,16.5700073
				c0.1599731-0.3400269,7.4699707-15.5400391,12.0499878-26.5300293c2.2600098-5.4000244,3.8599854-9.7799683,3.6300049-10.8900146
				c-0.1000366-0.4899902-0.3200073-1.0100098-0.6000366-1.5599976c-1.4899902-2.8399658-4.9599609-6.3399658-5.3099976-9.6499634
				c-0.0599976-0.4200439-0.0499878-0.8500366,0.0200195-1.2700195c0.7199707-4.2700195,5.1699829-17.2800293,5.1699829-17.2800293
				s4.7800293-2.3299561,11.0499878-4.2799683c10.3400269-3.210022,16.9300537-4.0999756,16.9300537-4.0999756
				s0.1099854,1.3499756,0.2999878,3.5c0.0899658,1.0199585,0.1900024,2.2299805,0.3099976,3.5599976
				c0.8099976,9.0599976,2.2299805,23.8399658,2.9599609,25.5499878
				C261.039978,150.25,279.039978,173.2399902,279.039978,173.2399902z"/>
			<path opacity="0.2" d="M279.039978,173.2399902c0,0-13.0199585-3.7600098-27.7199707,0.039978
				c-0.9700317,0.2399902-1.960022,0.5300293-2.9400024,0.8500366
				c-15.6099854,5.0899658-34.3300171,16.2199707-34.9199829,16.5700073
				c0.1599731-0.3400269,7.4699707-15.5400391,12.0499878-26.5300293
				c11.8699951,1.289978,25.9799805-6.3499756,29.6499634-35.7199707c0.3400269-2.7000122,0.9700317-4.7600098,1.8500366-6.25
				c0.8099976,9.0599976,2.2299805,23.8399658,2.9599609,25.5499878
				C261.039978,150.25,279.039978,173.2399902,279.039978,173.2399902z"/>
			<path opacity="0.2" d="M269.3900146,171.7299805c0.4799805-2.0700073,0.4500122-3.8300171-0.1500244-4.789978
				c-2.6799927-4.2800293-16.9299927-18-19.4899902-17.460022c0-1.5200195-12.960022,2.8599854-21.210022,2.2399902
				c-1.4899902-2.8399658-4.9599609-6.3399658-5.3099976-9.6499634c5.25-1.2300415,17.0700073-1.75,19.3900146-1.8600464
				c2.5-0.1199951-2.7299805-1.1900024-4.039978-2.1399536c-1.3099976-0.9500122,7.7199707-0.9500122,10.5799561-4.5100098
				c2.8500366-3.5700073,2.6100464-10.1000366,6.4100342-14.7399902c0.2600098-0.3200073,0.6499634-0.3699951,1.1300049-0.1799927
				c0.6900024,8.0099487,2.4299927,27.1499634,3.2699585,29.1099854c1.0700073,2.5,19.0700073,25.4899902,19.0700073,25.4899902
				S275.2199707,172.1400146,269.3900146,171.7299805z"/>
		</g>
	</g>
	<g id="cap">
		<g>
			<g>
				<path fill="#ED4A2F" d="M257.2528076,113.8377075c-1.2000122,1-3.0100098,1.960022-5.0100098,3.0800171
					c-4.3500366,2.4500122-14.3699951,6.7799683-14.3699951,6.7799683
					c-3.5700073,1.0599976-10.3400269,0.4700317-11.4100342-1.789978
					c-0.8099976-1.7000122-0.6599731-7.4799805,3.5599976-11.9000244c1.3699951-1.4199829,3.1500244-2.7000122,5.4700317-3.6599731
					c9.5100098-3.9199829,18.8899536-1.3099976,22.0999756,2.3800049
					C259.4827881,110.8977051,258.9827881,112.4077148,257.2528076,113.8377075z"/>
				<path opacity="0.3" d="M257.2528076,113.8377075c-7.8500366,0.4299927-22.9400024-0.0499878-27.2300415-3.8300171
					c1.3699951-1.4199829,3.1500244-2.7000122,5.4700317-3.6599731c9.5100098-3.9199829,18.8899536-1.3099976,22.0999756,2.3800049
					C259.4827881,110.8977051,258.9827881,112.4077148,257.2528076,113.8377075z"/>
				<path opacity="0.3" d="M249.1627808,108.9577026c-0.75,3.3800049-4.2999878,6.8499756-6.8099976,8.9500122
					c-1.4700317,1.2199707-2.5800171,1.9799805-2.5800171,1.9799805s-0.8399658-0.1799927-2.0299683-0.5299683
					c-3.3200073-1.0100098-9.3400269-3.4100342-7-7.1900024
					C235.3728027,104.6876831,250.3427734,103.6177368,249.1627808,108.9577026z"/>
			</g>
			<g>
				<path fill="#FFB68D" d="M242.5028076,108.9877319l-0.1100464,6.5699463l-0.039978,2.3500366
					c-1.4700317,1.2199707-2.5800171,1.9799805-2.5800171,1.9799805s-0.8399658-0.1799927-2.0299683-0.5299683l-0.9899902-5.6400146
					l-0.4900513-2.7700195L242.5028076,108.9877319z"/>
				<path opacity="0.3" d="M242.5028076,108.9877319l-0.1100464,6.5699463
					c-1.9500122-0.3499756-4.0199585-1.1999512-5.6399536-1.8399658l-0.4900513-2.7700195L242.5028076,108.9877319z"/>
			</g>
		</g>
	</g>
	<g id="left_upper_arm">
		<g>
			<path fill="#363E4F" d="M279.5727539,121.0177002c0.1800537,7.6699829-6.2399902,10.7000122-6.2399902,10.7000122
				c-17.187561-12.299942-4.5266418-21.821701-1.0799561-23.1600342c0.0099487-0.0099487,0.0099487-0.0099487,0.0099487-0.0099487
				S279.3927612,113.3577271,279.5727539,121.0177002z"/>
			<g>
				<path fill="#FFB68D" d="M280.2879639,106.7664795c0,0-2.5852051,1.0411987-6.6651611,2.6112061
					c-3.5800171,1.3900146-6.9900513,2.7700195-7.1500244,3.0900269
					c-3.9199829,7.6599731,2.5900269,13.9000244,2.5900269,13.9000244s19.5951538-11.4012451,20.1351929-13.0112915
					c0.1121216-0.3384399,0.1895752-1.6539917,0.2424927-3.5079346
					C288.9306946,103.0495071,280.2879639,106.7664795,280.2879639,106.7664795z"/>
				<path opacity="0.3" d="M282.0639038,112.4295654c-3.7125854,2.2980957-9.1411133,5.4381714-9.1411133,5.4381714
					s-0.9500122-3.5900269,0.7000122-8.4900513c-3.5800171,1.3900146-6.9900513,2.7700195-7.1500244,3.0900269
					c-3.9199829,7.6599731,2.5900269,13.9000244,2.5900269,13.9000244s19.5951538-11.4012451,20.1351929-13.0112915
					c0.1121216-0.3384399,0.1895752-1.6539917,0.2424927-3.5079346
					C288.7970276,108.9306946,285.8118896,109.5544586,282.0639038,112.4295654z"/>
			</g>
			<g>
				<path fill="#65A9DF" d="M273.3327637,131.7177124l-14.4299927,0.289978
					c-2.3200073,0.0400391-4.5100098-1.0599976-5.8599854-2.9500122c-1.039978-1.4699707-2.0499878-3.3499756-2.3099976-5.3599854
					c-0.3599854-2.8699951,0.8200073-6,5.6699829-8.5599976l15.8500366-6.5800171
					c-0.2700195,0.2400513-5.2200317,4.9900513-3.2700195,13.6700439
					C269.6027832,124.9976807,270.9227905,128.1677246,273.3327637,131.7177124z"/>
				<path opacity="0.3" d="M273.3327637,131.7177124l-14.4299927,0.289978
					c-2.3200073,0.0400391-4.5100098-1.0599976-5.8599854-2.9500122c-1.039978-1.4699707-2.0499878-3.3499756-2.3099976-5.3599854
					c3.5599976,0.0300293,11.1499634,0.1700439,18.25-1.4699707
					C269.6027832,124.9976807,270.9227905,128.1677246,273.3327637,131.7177124z"/>
			</g>
		</g>
	</g>
	<g id="left_arm">
		<g>
			<g>
				<path fill="#FFB68D" d="M284.8762207,113.7425537c2.9127197,0.5014038,4.0911255-1.7218628,4.56427-3.894043
					c0.1972046-6.9107056,0.0496216-21.3859253,0.0496216-21.3859253l-4.2700195-1.9000244l-0.4299927,2.1199951
					l-4.5021362,18.0839233C280.2879639,106.7664795,279.4406128,112.8069458,284.8762207,113.7425537z"/>
				<path opacity="0.3" d="M289.4404907,109.8485107c0.1972046-6.9107056,0.0496216-21.3859253,0.0496216-21.3859253
					l-4.2700195-1.9000244l-0.4299927,2.1199951c0.5599976,1.9299927,1.1699829,4.0599976,1.3800049,4.8300171
					c0.4199829,1.5499878-0.6021118,15.9838867-0.7120972,16.5838623c-0.0406494,0.1998291-1.492981,1.1563721-3.394104,2.3331299
					c0.6708374,0.612915,1.5716553,1.0994263,2.8123169,1.3129883
					C287.7889404,114.2439575,288.9673462,112.0206909,289.4404907,109.8485107z"/>
			</g>
			<g>
				<path fill="#FFB68D" d="M295.7901001,80.1526108c-0.539978,3.0899658-3.0100098,5.7099609-5.0200195,7.3900146
					c-1.5099487,1.2599487-2.7599487,1.9899902-2.7599487,1.9899902l-2.7900391-2.9700317L284.210083,76.352623
					c-0.6300049-0.6700439-0.7799683-1.8500366-0.4499512-3.0300293c0.2699585-1.0299683,0.9099731-2.039978,1.8799438-2.6799927
					c2.0800171-1.3599854,3.5599976,0.4799805,3.5599976,0.4799805c2.7300415-1.0100098,3.3300171,1.1900024,3.3300171,1.1900024
					c2.4299927-0.1199951,1.9000244,2.7300415,1.9000244,2.7300415S296.7401123,74.7425766,295.7901001,80.1526108z"/>
				<path opacity="0.3" d="M292.2327881,83.7077026c-1.5300293,1.6400146-2.1199951,3.1799927-1.460022,3.8300171
					c-1.5100098,1.2600098-2.7600098,1.9899902-2.7600098,1.9899902l-2.789978-2.9700317l-0.7600098-7.6399536l-0.25-2.5700073
					c-0.6300049-0.6699829-0.7799683-1.8500366-0.4500122-3.0300293c0.6199951,1.4899902,3.0200195,0.9800415,3.6600342-0.0299683
					c0.6900024-1.1099854,1.2699585-1.5700073,1.3699951-1.6400146c-0.1099854,0.1699829-1.1600342,1.7700195-0.7000122,2.5300293
					c0.4899902,0.7999878,1.4700317,0.8899536,2.0900269,0.2199707c0.5799561-0.6300049,1.3599854-1.1699829,1.4599609-1.2399902
					c-0.1399536,0.1599731-1.3099976,1.5700073-1.0599976,2.5299683c0.2700195,1.0200195,1.5800171,0.9800415,2.6300049,0.1300049
					c-0.2399902,0.25-1.3300171,1.5100098-0.8900146,2.2300415c0.4900513,0.8099976,1.3800049,0.9400024,2.0900269,0.4499512
					C294.4127808,78.4976807,293.9727783,81.8377075,292.2327881,83.7077026z"/>
				<path opacity="0.3" d="M292.3427734,79.6177368c-1.2199707,0.8299561-2.7999878-0.2300415-2.7999878-0.2300415
					c-1.1400146,0.9100342-2.9500122,0.1600342-2.9500122,0.1600342s-0.9500122-0.1700439-2.1300049-0.6300049l-0.2399902-2.4299927
					c0.039978-0.0200195,0.0700073-0.0200195,0.0700073-0.0200195c0.1400146,0.1300049,2.1499634,0.1099854,2.6400146-0.5999756
					c0,0,0.4400024,0.8499756,1.1499634,0.8899536c0.7200317,0.0300293,1.3200073,0,1.3200073,0
					s0.2200317,0.8400269,1.0200195,0.9299927c0.7999878,0.0900269,1.2000122-0.1999512,1.2000122-0.1999512
					S291.2528076,78.8276978,292.3427734,79.6177368z"/>
			</g>
			<g>
				<path fill="#FFB68D" d="M289.4401245,77.1225815c-0.4200439,1.0700073-2.5,1.6000366-2.5,1.6000366l-0.3500366,0.8299561
					c2.5499878,2.0700073,2.8099976,4.0100098,2.2700195,5.4000244c-0.4700317,1.1900024-1.5300293,1.9799805-2.210022,2.0900269
					c-1.4899902,0.2399902-3.2099609-1.3100586-4.039978-2.7900391c-0.5300293-0.9299927-1.0700073-3.0299683-0.8099976-4.8599854
					c0.1599731-1.0900269,0.6099854-2.0900269,1.5200195-2.6900024c1.8999634-1.25,4.8199463-0.9400024,5.8099976-0.2299805
					C289.4000854,76.6626205,289.5300903,76.892601,289.4401245,77.1225815z"/>
				<path opacity="0.3" d="M288.8601074,84.9525986c-0.4700317,1.1900024-1.5300293,1.9799805-2.210022,2.0900269
					c-1.4899902,0.2399902-3.2099609-1.3100586-4.039978-2.7900391c-0.5300293-0.9299927-1.0700073-3.0299683-0.8099976-4.8599854
					C282.6000977,83.5025864,286.4500732,85.7926254,288.8601074,84.9525986z"/>
				<path opacity="0.3" d="M289.4401245,77.1225815c-0.4200439,1.0700073-2.5,1.6000366-2.5,1.6000366l-0.3500366,0.8299561
					l-1.7999878,0.3300171l1.0700073-2.0899658c0,0,2.3399658-0.210022,3.2700195-1.3200073
					C289.4000854,76.6626205,289.5300903,76.892601,289.4401245,77.1225815z"/>
			</g>
		</g>
	</g>
	<g id="face">
		<g>
			<path fill="#F7BC4B" d="M222.990097,95.4455414c0,0-3.2970276-10.2501068,5.4356384-14.3478241
				C237.1584167,77,250.2073669,81.2423782,248.5643616,94.1089096L222.990097,95.4455414z"/>
			<g>
				<path fill="#FFB68D" d="M253.3728027,95.7977295c-0.6199951,4.0999756-4.2700195,3.6599731-4.2700195,3.6599731
					c-0.539978,9.6199951-6.3300171,12.6500244-15.5999756,13.539978c-2.6500244,0.25-4.5800171-0.5499878-6-1.9799805
					c-3.5900269-3.5800171-4-11.0499878-4.5100098-15.5700073c-0.6900024-6.0499878,2.75-11.3200073,8.5299683-12.6599731
					c0.2700195-0.0700073,0.5400391-0.1199951,0.8200073-0.1699829
					c13.6400146-2.2300415,16.2200317,11.4899902,16.2200317,11.4899902
					C250.612793,89.02771,254.0028076,91.7077026,253.3728027,95.7977295z"/>
				<path opacity="0.3" d="M253.3728027,95.7977295c-0.6199951,4.0999756-4.2700195,3.6599731-4.2700195,3.6599731
					c-0.539978,9.6199951-6.3300171,12.6500244-15.5999756,13.539978c-2.6500244,0.25-4.5800171-0.5499878-6-1.9799805
					c0.289978-0.0599976,0.6899414-0.0299683,1.1899414,0.1099854c7.2200317,2.0500488,15.2400513-4.2799683,14.6100464-13.7199707
					c-0.5599976-8.4500122-2.6000366-14.0499878-11.7800293-14.6199951
					c0.2700195-0.0700073,0.5400391-0.1199951,0.8200073-0.1699829
					c13.6400146-2.2300415,16.2200317,11.4899902,16.2200317,11.4899902
					C250.612793,89.02771,254.0028076,91.7077026,253.3728027,95.7977295z"/>
			</g>
			<g>
				<path fill="#ED4A2F" d="M249.4554443,76.7623749c0,0-3.2673187,5.1089096-3.5643616,7.0693054
					c-0.2970276,1.9603958,12.7722778,1.4257431,12.7722778,1.4257431l-2.2574158-1.4851456l2.2574158-1.4257431
					c0,0-8.4950409,0.9504929-9.1485138,0.5940628c-0.6534576-0.3564377,2.6732788-3.623764,2.6732788-3.623764
					s-2.4950562,0.9504929-2.7920837,0.7128677S249.4554443,76.7623749,249.4554443,76.7623749z"/>
				<path fill="#ED4A2F" d="M243.3366394,78.8415833c-1.5345154-0.4475632-2.4950562,1.6633682-2.4950562,3.7425766
					s4.3960419,2.3168335,4.3960419,2.3168335s1.4257355,4.8118744,2.3168335,5.1089096
					c0.8910828,0.2970276,2.9702911-2.0792084,3.0296936-3.2079239c0.0594177-1.1287155-3.8613739-3.1485138-3.8613739-3.1485138
					S244.7623749,79.2574234,243.3366394,78.8415833z"/>
				<path opacity="0.3" d="M242.8019867,82.3726196c-1.3976288-0.4060593-1.6513367,1.0135193-0.380127,1.3996582
					s2.8157654,0.7722778,2.8157654,0.7722778S243.8118744,82.6660233,242.8019867,82.3726196z"/>
				<path opacity="0.3" d="M246.0693054,85.324028c0,0,1.0990143,3.7682037,1.6633606,3.8854523
					c0.5643616,0.1172562,0.9505005-0.4174042,0.7128754-1.0708694S246.0693054,85.324028,246.0693054,85.324028z"/>
			</g>
			<g>
				<circle fill="#363E4F" cx="235.3168335" cy="94.5247498" r="1.1287129"/>
				<circle fill="#363E4F" cx="227.0297089" cy="96.3069305" r="1.069307"/>
				<g>
					<path fill="#363E4F" d="M232.7029724,90.1287155c0,0,2.4950409-2.4356461,5.4653473-0.6534653
						C238.1683197,89.4752502,235.2277222,86.4158401,232.7029724,90.1287155z"/>
					<path fill="#363E4F" d="M223.6435699,92.8910904c0,0,1.9933167-2.7068481,4.366333-1.2475281
						C228.009903,91.6435623,225.6606293,88.9037857,223.6435699,92.8910904z"/>
				</g>
			</g>
		</g>
	</g>
	<g id="thigh">
		<g>
			<path fill="#363E4F" d="M269.7727661,199.4376831c-0.5,0.5800171-1.0100098,1.1400146-1.539978,1.6600342
				c-14.6099854,14.6799927-38.2800293,9.0899658-60.1199951,5.8200073
				c-22.6400146-3.3800049-22.2800293-19.4200439-8.5599976-19.7800293
				c13.7199707-0.3599854,42.0599976-0.7099609,42.0599976-0.7099609s9.2699585-9.6300049,15.5100098-19.4300537
				c3.3399658-5.2599487,8.3199463-9.8999634,12.9400024-11.6399536c3.9899902-1.5100098,7.7199707-0.8600464,9.8699951,3.4400024
				C284.5628052,168.067688,277.7827759,190.1376953,269.7727661,199.4376831z"/>
			<path opacity="0.3" d="M268.5227661,200.5076904c-0.0999756,0.2000122-0.1900024,0.3900146-0.289978,0.5900269
				c-14.6099854,14.6799927-38.2800293,9.0899658-60.1199951,5.8200073
				c-22.6400146-3.3800049-22.2800293-19.4200439-8.5599976-19.7800293
				c13.7199707-0.3599854,42.0599976-0.7099609,42.0599976-0.7099609s9.2699585-9.6300049,15.5100098-19.4300537
				c3.3399658-5.2599487,8.3199463-9.8999634,12.9400024-11.6399536
				C280.6228027,161.4277344,281.2727661,174.1577148,268.5227661,200.5076904z"/>
		</g>
	</g>
	<g id="left_calf">
		<g>
			<path fill="#FFB68D" d="M271.4062805,177.9906921c-0.3727722,0.3974457-0.7600098,0.7999878-1.1600342,1.1900024
				c-9.0899658,8.9099731-26.2000275,16.9299927-26.2000275,16.9299927l-10.0999756-1.25l-1.4799805-0.1799927
				c0,0,13.539978-19.6000366,19.9599609-27.7999878c0.4199829-0.5400391,0.8500366-1.0800171,1.2800293-1.6100464
				c5.6499786-6.9400024,12.3100128-13.1900024,19.760025-11.4099731c0.6999512,0.1599731,1.4199524,0.3783722,2.1299438,0.7199707
				C281.6534729,157.4950562,278.5940552,169.5247498,271.4062805,177.9906921z"/>
			<path fill="#363E4F" d="M271.4062805,177.9906921c-5.2000122,2.1400146-11.4400024,0.25-15.0600586-4.3400269
				c-2.3899689-3.0199585-2.8600006-6-2.6399689-8.3800049c6.1800079-7.5899658,13.5700226-14.3599854,21.8899689-10.6900024
				C282.9162292,157.8207092,279.6562805,169.2106628,271.4062805,177.9906921z"/>
			<path opacity="0.3" d="M271.4062805,177.9906921c-0.3700562,0.3999634-0.7600098,0.7999878-1.1600342,1.1900024
				c-9.0899658,8.9099731-26.2000275,16.9299927-26.2000275,16.9299927l-10.0999756-1.25
				c0.4299927-0.1900024,0.9400024-0.3699951,1.5499878-0.5300293c13.5300293-3.6300049,38.8400421-26.9899902,37.970047-40.4699707
				c0.6999512,0.1599731,1.4099731,0.3999634,2.1299438,0.7199707
				C282.9162292,157.8207092,279.6562805,169.2106628,271.4062805,177.9906921z"/>
		</g>
	</g>
	<g id="right_calf">
		<g>
			<path fill="#FFB68D" d="M240.8639069,199.5354614c0,0-18.7669983,3.5335388-33.617157,3.4287567
				c-7.3955841-0.0410767-13.8300323-0.9799805-16.5003967-3.7122955
				c-8.0106964-8.2067261-1.713623-17.3840942,8.2483063-16.7575836c1.0580444,0.0674438,2.3531494,0.2055054,3.825882,0.4016266
				c12.3001556,1.6121521,36.6880951,7.119278,36.6880951,7.119278L240.8639069,199.5354614z"/>
			<path opacity="0.3" d="M207.2467499,202.9642181c-7.3955841-0.0410767-13.8300323-0.9799805-16.5003967-3.7122955
				c-8.0106964-8.2067261-1.713623-17.3840942,8.2483063-16.7575836c1.0580444,0.0674438,2.3531494,0.2055054,3.825882,0.4016266
				C193.5444794,186.8447723,193.8698883,200.5830688,207.2467499,202.9642181z"/>
		</g>
	</g>
</g>
<g id="Layer_x5F_Plane">
	<g>
		<polygon fill="#F7BC4B" points="416.1996765,230.77005 406.1015625,233.1422729 292.7668762,259.7317505 238.9555817,301.4238892 
			236.3493805,303.4494324 203.1428833,329.1705322 117.9706192,129.1902008 		"/>
		<g opacity="0.5">
			<polygon opacity="0.3" points="406.1015625,233.1422729 292.7668762,259.7317505 165.6856079,164.8327026 			"/>
		</g>
		<polygon opacity="0.4" points="292.7668762,259.7317505 238.9555817,301.4238892 236.3493805,303.4494324 206.1281433,326.85849 
			117.9706192,129.1902008 		"/>
		<polygon fill="#F7BC4B" points="292.7668762,259.7317505 265.7244263,346.6931763 253.6907806,328.9845886 
			236.3493805,303.4494324 117.9706192,129.1902008 166.1077881,165.1393738 		"/>
		<polygon opacity="0.2" points="292.7668762,259.7317505 268.426178,338.0179749 229.9043884,284.543335 117.9706192,129.1902008 
			165.7024536,164.8370514 166.1077881,165.1393738 		"/>
	</g>
</g>
<g id="Layer_x5F_Mails">
	<g>
		<path fill="#65A9DF" d="M504.7216797,451.2236938c-0.9755249,0.4506531-0.4703979,5.6923828-0.2608032,8.9484863
			c0.2063599,3.2056274,0.8052673,13.0849609,1.0039062,14.4505615c0.1970215,1.3546143,0.5903625,3.0609436,2.4541931,3.8421631
			c1.8172607,0.7616882,19.0386047,10.7470093,19.6249695,10.826355c0.5814209,0.0786438,1.1483765,0.3338623,1.2727051-1.9805908
			c0.1254883-2.3379211,0.0449219-13.4205322,0.0202026-14.3935242c-0.0249023-0.9779663-0.0349121-2.2507324-1.9691162-3.7756653
			c-1.9996948-1.5765076-19.7687073-16.6435852-19.7687073-16.6435852S505.4275208,450.897644,504.7216797,451.2236938z"/>
		<path opacity="0.3" d="M527.666748,471.5140991c0,0-8.5264893,3.0006409-8.9710083,2.8222961
			c-0.4474487-0.1795044-12.1293945-19.3708191-12.1293945-19.3708191s0.9882812,2.6185913,3.6457214,7.1844788
			c2.5297546,4.3465576,7.9066467,13.0906067,8.3514099,13.3421631
			C519.005249,475.7420349,526.2226562,473.059082,527.666748,471.5140991z"/>
	</g>
	<g id="Mail_8">
		<g>
			<path fill="#F7BC4B" d="M93.3366318,308.6237488c-4.3181992,3.0960693-2.0792084,23.1089172-1.1287079,35.9406128
				c0.9504929,12.831665,3.8019791,53.7029724,4.7524719,59.4059448s2.8514862,12.831665,11.8811874,14.732666
				S217.1980133,455.7722778,221,455.7722778s7.6039581,0.9505005,7.6039581-11.4059448s-4.2772217-68.4356384-4.7524719-73.1881104
				s-0.9505005-10.9306946-13.3069305-15.6831665s-106.4554443-45.1485291-106.4554443-45.1485291
				S96.4851456,306.366333,93.3366318,308.6237488z"/>
			<path opacity="0.3" d="M216.1287079,365.8316956c0,0-49.1881104,24.2376099-51.6831665,23.8811646
				c-2.4950409-0.3564148-62.7326736-68.7920532-62.7326736-68.7920532s4.633667,9.2673035,17.4653473,24.7722473
				c12.8316879,15.5049744,42.2376328,48.8316956,44.7326736,49.5445557
				C166.4059448,395.9505005,207.7524719,375.098999,216.1287079,365.8316956z"/>
		</g>
	</g>
	<g id="Mail_7">
		<g>
			<path fill="#ED4A2F" d="M294.5516052,365.8866272c-2.4968567,1.2912903-1.7333679,12.8360596-1.5141907,20.2940979
				c0.2216492,7.541626,0.8418579,32.1300354,1.2529602,35.6515198c0.4126587,3.5344849,1.3471069,7.9873352,6.5152893,9.355835
				c5.0580139,1.339325,54.427948,22.2823792,56.1139221,22.2542419c1.6712036-0.0279236,3.336731,0.4677429,3.2210693-6.2987976
				c-0.1142883-6.6880798-2.4165955-36.2641602-2.6548767-38.7184753c-0.2375183-2.4462585-0.4850464-5.6073608-5.7868652-8.6559448
				c-5.4266663-3.1203613-51.2724304-31.851532-51.2724304-31.851532S296.3500671,364.9565125,294.5516052,365.8866272z"/>
			<path opacity="0.3" d="M354.1618652,405.3407898c0,0-22.414978,10.8571472-23.6291504,10.5663452
				c-1.2210388-0.29245-31.6254578-42.3534241-31.6254578-42.3534241s2.3443298,5.5939331,8.9815674,15.2970276
				c6.5321045,9.5493774,21.1305847,29.6346436,22.3545837,30.1193237
				C331.460907,419.452179,350.5811157,409.7644958,354.1618652,405.3407898z"/>
		</g>
	</g>
	<g id="Mail_6">
		<g>
			<path fill="#F7BC4B" d="M388.8457031,248.1387177c-1.3700562,1.5175018-1.1795959,12.4517059-1.2020874,19.3726349
				c-0.0223083,6.867157-0.1434326,28.37323,0.0004272,31.3826904c0.1435242,3.002594,0.529541,6.8169861,3.1328125,8.6969299
				c2.6501465,1.9138184,34.6949158,33.4635315,36.1111755,34.050293c1.4291687,0.5920715,2.8291931,1.7242432,3.3812561-5.2602844
				c0.5579529-7.0593262,1.4687805-40.5196838,1.5029907-43.4266357c0.0343018-2.9157104,0.1356812-6.7061768-4.4876099-10.6882629
				c-4.503418-3.8788147-35.2021179-32.7396393-35.2021179-32.7396393S389.8549805,247.0208588,388.8457031,248.1387177z"/>
			<path opacity="0.3" d="M428.9873657,288.9830933c0,0-18.8968506,9.2011719-19.7346191,8.7559509
				c-0.8331909-0.4427795-18.1719666-42.4914703-18.1719666-42.4914703s1.1808472,5.30867,4.74823,14.550705
				c3.6259155,9.3936157,12.2373047,30.2988586,13.0552368,30.9448242
				C409.7064209,301.392395,425.3596497,293.6776733,428.9873657,288.9830933z"/>
		</g>
	</g>
	<g id="Mail_5">
		<g>
			<path fill="#65A9DF" d="M452.071228,127.168045c-1.3258972-0.4328156-2.2949829,9.7372131-3.099823,16.5508118
				c-0.8556824,7.2437897-4.0403748,33.6386871-4.3542786,38.0075073
				c-0.3230591,4.4964905-0.4888306,10.5597534,2.4118652,15.1503601
				c2.792511,4.4193115,27.5292053,54.8452759,28.3628845,55.4387512c0.8192749,0.5832062,1.6117554,1.8921051,1.7730408-7.4089661
				c0.151947-8.7636414-0.0047913-43.8660583-0.0362549-46.5188293c-0.0308838-2.6058502-0.0458069-5.8919067-2.1408691-11.271225
				c-2.1515198-5.5243225-20.3857117-54.8938293-20.3857117-54.8938293S453.0108643,127.4747696,452.071228,127.168045z"/>
			<path opacity="0.3" d="M475.8314514,193.7737732c0,0-10.603241,1.1408691-11.16745,0.232666
				c-0.569519-0.9167023-11.3473206-57.9799194-11.3473206-57.9799194s0.5334778,6.1601715,2.7428284,18.6679535
				c2.2505798,12.7413177,7.67276,41.4598236,8.2359619,42.5993652
				C464.8543701,198.4246521,474.1550598,196.7302246,475.8314514,193.7737732z"/>
		</g>
	</g>
	<g id="Mail_4">
		<g>
			<path fill="#ED4A2F" d="M432.2903748,354.9663696c-1.6277161,0.6559143-1.16745,8.987915-1.0524597,14.130127
				c0.1127319,5.04245,0.3977051,20.454895,0.6236267,22.5819702c0.2238159,2.1069031,0.7391663,4.7714539,3.6919861,6.1646118
				c2.8867798,1.3619995,30.3661804,18.7286377,31.3367004,18.9240112c0.9633484,0.1939697,1.8867798,0.6591797,2.3162537-2.9079895
				c0.4353027-3.6157837,1.3750305-20.9962158,1.4282837-22.5364685c0.0535583-1.5501709,0.161377-3.5684509-2.9674988-6.1713257
				c-3.2285461-2.6857605-31.5667114-28.0076904-31.5667114-28.0076904S433.4707336,354.4907227,432.2903748,354.9663696z"/>
			<path opacity="0.3" d="M468.7905884,388.9874878c0,0-14.5537109,3.8768921-15.2754211,3.5536194
				c-0.7259216-0.3251343-18.4692993-31.5119019-18.4692993-31.5119019s1.4296875,4.2161255,5.4509583,11.6260376
				c3.8250122,7.0482788,11.9865723,21.2397766,12.7012329,21.6773071
				C453.9083252,394.767334,466.2055054,391.2862854,468.7905884,388.9874878z"/>
		</g>
	</g>
	<g id="Mail_3">
		<g>
			<path fill="#ED4A2F" d="M507.2008972,251.2352295c-0.8634338,0.6948395-1.7799988,9.6824036-2.4455872,15.3968811
				c-0.6677856,5.7331848-2.8370972,24.0946045-3.054657,26.7521362c-0.217865,2.6610718-0.3782349,6.0953369,0.921051,8.240509
				c1.2971191,2.141571,14.5429688,31.7848206,15.1292114,32.3129578c0.5857544,0.5276184,1.1124878,1.4767456,1.8710327-4.0002441
				c0.7560425-5.4585876,3.506897-30.6086426,3.7211304-32.7397156c0.2139893-2.1285706,0.5133667-4.8717651-1.072998-8.6862793
				c-1.5891113-3.8209229-13.5157166-34.9429321-13.5157166-34.9429321S507.8294067,250.7294312,507.2008972,251.2352295z"/>
			<path opacity="0.3" d="M522.4937134,293.7830505c0,0-9.0111084,3.5549011-9.3740234,3.0419922
				c-0.3630371-0.5131836-5.3954773-39.0453491-5.3954773-39.0453491s0.1349792,4.690918,1.1479492,13.2963257
				c1.0140686,8.6149597,3.4798279,27.4256897,3.8210754,28.0951233
				C513.0343018,299.8403015,520.6589355,296.6180115,522.4937134,293.7830505z"/>
		</g>
	</g>
	<g id="Mail_2">
		<g>
			<path fill="#F7BC4B" d="M384.4600525,459.0931702c-2.2731628,1.3717041-1.1196594,10.3838806-0.6225586,16.3334045
				c0.508667,6.0876465,2.1109619,26.4689636,2.6583862,29.3955994c0.5523682,2.9530029,1.6565247,6.6173401,6.7404175,6.8249817
				c4.9510803,0.2022095,52.7511292,8.8009644,54.2868652,8.4555054c1.5186462-0.3416138,3.0777893-0.2362671,2.3408203-5.9384155
				c-0.7206726-5.5758667-5.4013977-29.2516174-5.8222961-31.1625671c-0.4180298-1.8978882-0.9039001-4.349762-5.8223572-5.9233704
				c-5.0456543-1.6142883-48.2396545-17.2501526-48.2396545-17.2501526S386.0898438,458.1097107,384.4600525,459.0931702z"/>
			<path opacity="0.3" d="M440.849823,481.085907c0,0-19.3410645,12.413147-20.4756165,12.3809814
				c-1.1423035-0.0323792-31.5576782-29.0028687-31.5576782-29.0028687s2.4218445,4.0664673,9.0455322,10.7727661
				c6.5614624,6.6432495,21.2953796,20.6098633,22.4565735,20.7988586
				C421.4726562,496.2234802,438.0395203,485.173584,440.849823,481.085907z"/>
		</g>
	</g>
</g>
</svg>
